<svg xmlns="http://www.w3.org/2000/svg" width="85.7" height="24.831" viewBox="0 0 85.7 24.831">
  <g id="btn-gift-w" transform="translate(-444.928 -1330.115)">
    <path id="Path_1" data-name="Path 1" d="M518.213,1354.946h-60.87a12.416,12.416,0,0,1,0-24.831h60.87a12.416,12.416,0,0,1,0,24.831" fill="#fff"/>
    <rect id="Rectangle_1" data-name="Rectangle 1" width="4.764" height="4.764" transform="translate(482.184 1345.878)" fill="#8a837f"/>
    <rect id="Rectangle_2" data-name="Rectangle 2" width="4.765" height="4.764" transform="translate(488.608 1345.878)" fill="#8a837f"/>
    <path id="Path_2" data-name="Path 2" d="M487.776,1339.184a1.318,1.318,0,0,1-.173.27h.35a1.256,1.256,0,0,1-.177-.27" fill="#8a837f"/>
    <path id="Path_3" data-name="Path 3" d="M490.6,1339.453a5.715,5.715,0,0,0,1.166-.9c1.35-1.35,1.778-2.958,1-3.74a1.418,1.418,0,0,0-1.031-.392,4.192,4.192,0,0,0-2.709,1.389,5.108,5.108,0,0,0-1.243,1.9l-.006.021a5,5,0,0,0-1.247-1.919,4.188,4.188,0,0,0-2.708-1.389,1.415,1.415,0,0,0-1.031.392c-.782.782-.354,2.39,1,3.74a5.707,5.707,0,0,0,1.166.9h-2.769v4.764h4.764v-4.764h1.661v4.764h4.765v-4.764Zm-7.029-3.859a.379.379,0,0,1,.247-.068,3.212,3.212,0,0,1,1.923,1.065c.984.982,1.205,1.964,1,2.172a.388.388,0,0,1-.248.066,3.213,3.213,0,0,1-1.925-1.062c-.983-.984-1.2-1.966-.995-2.173m5.258,2.466a4.054,4.054,0,0,1,.977-1.469,3.213,3.213,0,0,1,1.925-1.065.383.383,0,0,1,.247.068c.206.207-.014,1.189-1,2.173a3.215,3.215,0,0,1-1.925,1.062.385.385,0,0,1-.247-.066c-.081-.082-.107-.331.019-.7" fill="#8a837f"/>
  </g>
</svg>
