<svg xmlns="http://www.w3.org/2000/svg" width="25" height="25" viewBox="0 0 25 25">
  <g id="ic-07_status" transform="translate(10936 -4169)">
    <rect id="矩形_3347" data-name="矩形 3347" width="25" height="25" transform="translate(-10936 4169)" fill="rgba(209,209,209,0)"/>
    <g id="组_1335" data-name="组 1335" transform="translate(-10934 4171)">
      <path id="路径_125" data-name="路径 125" d="M-52.036,583.2a10.6,10.6,0,0,0-10.6,10.6,10.6,10.6,0,0,0,10.6,10.6,10.6,10.6,0,0,0,10.6-10.6A10.6,10.6,0,0,0-52.036,583.2Zm1.2,7.733,3.44-1.479a.856.856,0,0,1,1.131.449.86.86,0,0,1-.451,1.129l-1.7.729,1.726.821a.861.861,0,0,1,.407,1.147.864.864,0,0,1-.778.49.861.861,0,0,1-.369-.084l-3.44-1.636a.862.862,0,0,1-.49-.793A.855.855,0,0,1-50.836,590.934Zm-7.088.789a1.975,1.975,0,0,1,1.975-1.975,1.974,1.974,0,0,1,1.975,1.975,1.975,1.975,0,0,1-1.975,1.975A1.976,1.976,0,0,1-57.924,591.723Zm12.934,4.871a8.9,8.9,0,0,1-6.877,3.13,8.51,8.51,0,0,1-2.122-.246.858.858,0,0,1-.6-1.055.863.863,0,0,1,1.055-.6,7.384,7.384,0,0,0,7.243-2.357.857.857,0,0,1,1.212-.083A.859.859,0,0,1-44.989,596.594Z" transform="translate(62.641 -583.201)" fill="#fff"/>
    </g>
  </g>
</svg>
