<svg xmlns="http://www.w3.org/2000/svg" width="25" height="25" viewBox="0 0 25 25">
  <g id="ic-06_status" transform="translate(10936 -4169)">
    <rect id="矩形_3347" data-name="矩形 3347" width="25" height="25" transform="translate(-10936 4169)" fill="rgba(209,209,209,0)"/>
    <g id="组_1334" data-name="组 1334" transform="translate(-10935 4174)">
      <path id="路径_123" data-name="路径 123" d="M-56.178,558.474a4.18,4.18,0,0,1,2.193-1.657,3.87,3.87,0,0,1,4.635,2.373,5.2,5.2,0,0,1-.773,5.341,17.578,17.578,0,0,1-5.867,4.909.447.447,0,0,1-.375.013,16.869,16.869,0,0,1-6.123-5.287,4.94,4.94,0,0,1-.318-5.4,3.747,3.747,0,0,1,6.437-.514c.051.063.106.122.192.221" transform="translate(63.465 -556.66)" fill="none" stroke="#fff" stroke-linecap="round" stroke-linejoin="round" stroke-width="0.953"/>
      <path id="路径_124" data-name="路径 124" d="M-50.3,560.9a3.61,3.61,0,0,1,1.9-1.433,3.346,3.346,0,0,1,4.005,2.051,4.494,4.494,0,0,1-.669,4.617,15.182,15.182,0,0,1-5.07,4.243.389.389,0,0,1-.324.012,14.608,14.608,0,0,1-5.293-4.569,4.274,4.274,0,0,1-.275-4.668,3.238,3.238,0,0,1,5.563-.445c.044.054.092.106.166.192" transform="translate(66.576 -555.448)" fill="#fff" stroke="#fff" stroke-linecap="round" stroke-linejoin="round" stroke-width="0.824"/>
    </g>
  </g>
</svg>
