<svg xmlns="http://www.w3.org/2000/svg" width="40" height="40" viewBox="0 0 40 40">
  <g id="ic-birthday" transform="translate(373 160)">
    <rect id="Rectangle_44" data-name="Rectangle 44" width="40" height="40" transform="translate(-373 -160)" fill="rgba(234,234,234,0)"/>
    <g id="Group_33" data-name="Group 33" transform="translate(-858.763 -759.288)">
      <g id="Group_45" data-name="Group 45">
        <path id="Path_20" data-name="Path 20" d="M517.643,619.891a5.463,5.463,0,0,1,1.76.314v-2.8a5.368,5.368,0,0,0-5.352-5.353H498.217a5.369,5.369,0,0,0-5.353,5.353v2.8a5.468,5.468,0,0,1,1.76-.314Z" fill="#8a837f"/>
        <path id="Rectangle_36" data-name="Rectangle 36" d="M3.862,0H26.88a3.861,3.861,0,0,1,3.861,3.861v5.36a3.861,3.861,0,0,1-3.861,3.861H3.861A3.861,3.861,0,0,1,0,9.221V3.862A3.862,3.862,0,0,1,3.862,0Z" transform="translate(490.763 621.555)" fill="#8a837f"/>
      </g>
      <rect id="Rectangle_37" data-name="Rectangle 37" width="1.945" height="11.4" rx="0.972" transform="translate(498.057 604.64)" fill="#8a837f"/>
      <rect id="Rectangle_38" data-name="Rectangle 38" width="1.945" height="11.4" rx="0.972" transform="translate(501.43 604.64)" fill="#8a837f"/>
      <rect id="Rectangle_39" data-name="Rectangle 39" width="1.945" height="11.4" rx="0.972" transform="translate(504.803 604.64)" fill="#8a837f"/>
      <rect id="Rectangle_40" data-name="Rectangle 40" width="1.945" height="11.4" rx="0.972" transform="translate(508.176 604.64)" fill="#8a837f"/>
      <rect id="Rectangle_41" data-name="Rectangle 41" width="1.945" height="11.4" rx="0.972" transform="translate(511.549 604.64)" fill="#8a837f"/>
    </g>
  </g>
</svg>
