<svg xmlns="http://www.w3.org/2000/svg" width="74" height="74" viewBox="0 0 74 74">
  <g id="btn_nextBtn" transform="translate(-3620 -503)">
    <circle id="Ellipse_11" data-name="Ellipse 11" cx="37" cy="37" r="37" transform="translate(3620 503)" fill="#fff"/>
    <path id="Path_68" data-name="Path 68" d="M1759.026,1736.442a2.634,2.634,0,0,0,0,3.715l10.427,10.427-10.427,10.428a2.627,2.627,0,0,0,3.715,3.714l12.254-12.254c.01-.01.023-.017.033-.027a2.642,2.642,0,0,0,0-3.721c-.01-.011-.023-.017-.033-.027l-12.254-12.255A2.636,2.636,0,0,0,1759.026,1736.442Z" transform="translate(1893.539 -1210.023)" fill="#574c45"/>
  </g>
</svg>
