<svg xmlns="http://www.w3.org/2000/svg" width="251.876" height="80.598" viewBox="0 0 251.876 80.598">
  <g id="footer_logo" transform="translate(-1500.462 -4239.654)">
    <g id="Group_21" data-name="Group 21">
      <path id="Path_39" data-name="Path 39" d="M1649.195,4254.082a7.211,7.211,0,0,0-3.543.615,2.776,2.776,0,0,0-.984,2.534v30.613a2.775,2.775,0,0,0,.984,2.535,7.2,7.2,0,0,0,3.543.615v1.23H1636.35v-1.23a7.211,7.211,0,0,0,3.544-.615,2.775,2.775,0,0,0,.984-2.535V4255.9l-.271.959-13.337,35.362h-2.412l-14.248-35.214-.246-1.107v31.941a2.775,2.775,0,0,0,.984,2.535,7.206,7.206,0,0,0,3.544.615v1.23h-11.566v-1.23a7.2,7.2,0,0,0,3.543-.615,2.776,2.776,0,0,0,.985-2.535v-30.613a2.776,2.776,0,0,0-.985-2.534,7.211,7.211,0,0,0-3.543-.615v-1.231h10.483l13.19,32.975,12.55-32.975h9.646Z" fill="#fff"/>
      <path id="Path_40" data-name="Path 40" d="M1666.146,4287.844a2.642,2.642,0,0,0,1.107,2.535,8.757,8.757,0,0,0,3.913.615v1.23h-13.732v-1.23a8.761,8.761,0,0,0,3.913-.615,2.642,2.642,0,0,0,1.107-2.535v-30.613a2.642,2.642,0,0,0-1.107-2.534,8.77,8.77,0,0,0-3.913-.615v-1.231h13.732v1.231a8.766,8.766,0,0,0-3.913.615,2.642,2.642,0,0,0-1.107,2.534Z" fill="#fff"/>
      <path id="Path_41" data-name="Path 41" d="M1711.346,4292.323l-24.559-32.754-.345-2.091v30.366a2.776,2.776,0,0,0,.985,2.535,7.2,7.2,0,0,0,3.543.615v1.23h-11.565v-1.23a7.2,7.2,0,0,0,3.543-.615,2.775,2.775,0,0,0,.984-2.535v-30.613a2.776,2.776,0,0,0-.984-2.534,7.211,7.211,0,0,0-3.543-.615v-1.231h7.727L1709.82,4283l.345,2.092v-27.857a2.778,2.778,0,0,0-.984-2.534,7.218,7.218,0,0,0-3.544-.615v-1.231H1717.2v1.231a7.215,7.215,0,0,0-3.544.615,2.776,2.776,0,0,0-.984,2.534v35.092Z" fill="#fff"/>
      <path id="Path_42" data-name="Path 42" d="M1732.9,4289.764l15.995.492,1.476-5.758h1.969v7.726h-28.25v-1.23a8.761,8.761,0,0,0,3.913-.615,2.642,2.642,0,0,0,1.107-2.535v-30.613A2.642,2.642,0,0,0,1728,4254.7a8.769,8.769,0,0,0-3.913-.615v-1.231h28v7.727h-1.968l-1.477-5.758-15.749.492v15.947h10.335l1.181-4.184h1.231v10.434h-1.231l-1.181-4.184H1732.9Z" fill="#fff"/>
    </g>
    <g id="Group_22" data-name="Group 22">
      <path id="Path_43" data-name="Path 43" d="M1611.416,4314.964a1.6,1.6,0,0,1-.287,1.049,1.317,1.317,0,0,1-.906.4l-.062-.207q.574-.22.574-1.163v-6.239a.462.462,0,0,0-.212-.455,1.657,1.657,0,0,0-.716-.111v-.221h2.449v.221a1.37,1.37,0,0,0-.65.111.482.482,0,0,0-.19.455Z" fill="#fff"/>
      <path id="Path_44" data-name="Path 44" d="M1620.944,4308.021l2.156,6.284a.918.918,0,0,0,.3.455,1.227,1.227,0,0,0,.627.111v.221h-2.307v-.221a1.575,1.575,0,0,0,.588-.089.211.211,0,0,0,.141-.185.9.9,0,0,0-.066-.292l-.756-2.209h-2.457l-.764,2.209a1.126,1.126,0,0,0-.084.31.194.194,0,0,0,.066.145,1.248,1.248,0,0,0,.681.111v.221H1617v-.221a1.23,1.23,0,0,0,.627-.111.932.932,0,0,0,.3-.455l1.97-5.718a.392.392,0,0,0,.022-.1v-.014c0-.156-.2-.234-.6-.234v-.221Zm.561,3.708-1.1-3.248h-.014l-1.1,3.248Z" fill="#fff"/>
      <path id="Path_45" data-name="Path 45" d="M1628.995,4315.092v-.221a1.229,1.229,0,0,0,.627-.111.506.506,0,0,0,.168-.455v-5.5a.508.508,0,0,0-.168-.455,1.23,1.23,0,0,0-.627-.111v-.221q1.671-.018,3.071-.017a3.662,3.662,0,0,1,2.358.788,3.262,3.262,0,0,1,.987,2.694,3.2,3.2,0,0,1-3.345,3.623Q1630.891,4315.109,1628.995,4315.092Zm1.476-.389q.711.045,1.679.044a2.3,2.3,0,0,0,1.6-.574,3.369,3.369,0,0,0,.76-2.258q0-.385-.015-.716a4.968,4.968,0,0,0-.2-1,2.824,2.824,0,0,0-.778-1.251,2.1,2.1,0,0,0-1.538-.583q-.693,0-1.511.062Z" fill="#fff"/>
      <path id="Path_46" data-name="Path 46" d="M1641.452,4314.65l2.873.088.265-1.034h.353v1.388h-5.073v-.221a1.565,1.565,0,0,0,.7-.111.474.474,0,0,0,.2-.455v-5.5a.475.475,0,0,0-.2-.455,1.566,1.566,0,0,0-.7-.111v-.221h5.029v1.388h-.354l-.265-1.034-2.828.088v2.864h1.856l.212-.751h.221v1.873h-.221l-.212-.751h-1.856Z" fill="#fff"/>
      <path id="Path_47" data-name="Path 47" d="M1662.292,4311.473a.835.835,0,0,0,.018-.164.31.31,0,0,0-.141-.3,1.531,1.531,0,0,0-.69-.106v-.221h2.6v.221a1.871,1.871,0,0,0-.769.111.8.8,0,0,0-.354.455,14.8,14.8,0,0,1-1.334,2.589,1.45,1.45,0,0,0,.976.5,1.308,1.308,0,0,0,1.052-.508h.212q-.609,1.105-1.44,1.1a1.946,1.946,0,0,1-1.251-.571,2.326,2.326,0,0,1-1.617.571,2.758,2.758,0,0,1-1.686-.467,1.694,1.694,0,0,1-.625-1.456q0-1.233,1.754-2.271a5.7,5.7,0,0,1-.221-1.454,1.377,1.377,0,0,1,1.551-1.564q1.537,0,1.538.932,0,.876-1.869,1.878l-.3.181a8.155,8.155,0,0,0,.78,1.629,8.661,8.661,0,0,0,.9,1.253A8.239,8.239,0,0,0,1662.292,4311.473Zm-1.374,2.877a7.509,7.509,0,0,1-.883-1.209,11.447,11.447,0,0,1-.915-1.823,2.215,2.215,0,0,0-1.039,1.878,1.419,1.419,0,0,0,1.52,1.67A1.991,1.991,0,0,0,1660.918,4314.35Zm-1.33-3.726q1.578-1.033,1.578-1.564a.731.731,0,0,0-.84-.813q-.92,0-.919,1.268A3.882,3.882,0,0,0,1659.588,4310.624Z" fill="#fff"/>
      <path id="Path_48" data-name="Path 48" d="M1677.675,4314.964a1.594,1.594,0,0,1-.287,1.049,1.314,1.314,0,0,1-.906.4l-.062-.207q.574-.22.575-1.163v-6.239a.464.464,0,0,0-.212-.455,1.66,1.66,0,0,0-.716-.111v-.221h2.448v.221a1.373,1.373,0,0,0-.65.111.484.484,0,0,0-.19.455Z" fill="#fff"/>
      <path id="Path_49" data-name="Path 49" d="M1684.954,4314.65l2.872.088.265-1.034h.354v1.388h-5.074v-.221a1.565,1.565,0,0,0,.7-.111.471.471,0,0,0,.2-.455v-5.5a.473.473,0,0,0-.2-.455,1.566,1.566,0,0,0-.7-.111v-.221h5.029v1.388h-.353l-.265-1.034-2.828.088v2.864h1.856l.212-.751h.22v1.873h-.22l-.212-.751h-1.856Z" fill="#fff"/>
      <path id="Path_50" data-name="Path 50" d="M1698.706,4310.31l-1.454,4.782h-.424l-2.493-6.284a1.026,1.026,0,0,0-.318-.455,1.232,1.232,0,0,0-.628-.111v-.221h2.4v.221a1.585,1.585,0,0,0-.588.089c-.095.047-.142.107-.142.181a.757.757,0,0,0,.085.3l2.006,5.223-.062.38h0l1.379-4.719-.336-.884a1.026,1.026,0,0,0-.318-.455,1.235,1.235,0,0,0-.628-.111v-.221h2.395v.221a1.439,1.439,0,0,0-.55.08c-.119.053-.179.118-.179.194a.764.764,0,0,0,.084.292l1.918,5.223-.062.38h.005l1.7-5.6a1.808,1.808,0,0,0,.057-.309.189.189,0,0,0-.066-.146,1.246,1.246,0,0,0-.68-.111v-.221h2.067v.221a1.229,1.229,0,0,0-.626.111.81.81,0,0,0-.275.455l-2.014,6.284h-.425Z" fill="#fff"/>
      <path id="Path_51" data-name="Path 51" d="M1710.337,4314.65l2.872.088.265-1.034h.353v1.388h-5.072v-.221a1.558,1.558,0,0,0,.7-.111.472.472,0,0,0,.2-.455v-5.5a.473.473,0,0,0-.2-.455,1.559,1.559,0,0,0-.7-.111v-.221h5.029v1.388h-.354l-.265-1.034-2.828.088v2.864h1.855l.213-.751h.221v1.873h-.221l-.213-.751h-1.855Z" fill="#fff"/>
      <path id="Path_52" data-name="Path 52" d="M1719.033,4308.242v-.221h2.272v.221a1.233,1.233,0,0,0-.628.111.51.51,0,0,0-.168.455v5.842l2.784.088.265-1.034h.354v1.388h-4.985v-.221a1.565,1.565,0,0,0,.7-.111.474.474,0,0,0,.2-.455v-5.5a.508.508,0,0,0-.169-.455A1.229,1.229,0,0,0,1719.033,4308.242Z" fill="#fff"/>
      <path id="Path_53" data-name="Path 53" d="M1734.858,4314.9v.195l-.734.057a.974.974,0,0,1-.793-.315,4.668,4.668,0,0,1-.6-1.392,3.728,3.728,0,0,0-.642-1.386,2.783,2.783,0,0,0-1.653-.336v2.6a.473.473,0,0,0,.2.455,1.427,1.427,0,0,0,.658.111v.22h-2.351v-.22a1.29,1.29,0,0,0,.637-.111.5.5,0,0,0,.176-.455v-5.5a.5.5,0,0,0-.176-.456,1.3,1.3,0,0,0-.637-.11v-.221q1.379-.036,2.886-.035a2.794,2.794,0,0,1,1.553.415,1.677,1.677,0,0,1,.625,1.405,1.866,1.866,0,0,1-.247,1.068,1.354,1.354,0,0,1-.588.492,4.288,4.288,0,0,1-.919.239,1.326,1.326,0,0,1,.738.378,4.644,4.644,0,0,1,.647,1.418,3.629,3.629,0,0,0,.6,1.306A.974.974,0,0,0,1734.858,4314.9Zm-1.657-5.073a1.56,1.56,0,0,0-.345-1.06,1.63,1.63,0,0,0-1.269-.4q-.4,0-1.148.062v2.912c.394.024.763.036,1.1.036a1.381,1.381,0,0,0,1.657-1.552Z" fill="#fff"/>
      <path id="Path_54" data-name="Path 54" d="M1742.1,4311.835l-2.006-3.027a1.64,1.64,0,0,0-.581-.455,1.964,1.964,0,0,0-.723-.111v-.221h2.572v.221a3.243,3.243,0,0,0-.575.036c-.082.023-.123.06-.123.11a.429.429,0,0,0,.106.217l1.772,2.687,1.533-2.687a.572.572,0,0,0,.058-.182v-.026a.146.146,0,0,0-.119-.119,2.253,2.253,0,0,0-.491-.036v-.221h2.2v.221a2.02,2.02,0,0,0-.727.111,1.172,1.172,0,0,0-.523.455l-1.7,2.85v2.647a.508.508,0,0,0,.167.455,1.237,1.237,0,0,0,.628.111v.221H1741.3v-.221a1.231,1.231,0,0,0,.628-.111.508.508,0,0,0,.168-.455Z" fill="#fff"/>
    </g>
    <g id="Group_23" data-name="Group 23">
      <path id="Path_55" data-name="Path 55" d="M1579.531,4280.524c.006-.189.013-.378.013-.569s-.006-.362-.012-.543l-.005-.134a14.386,14.386,0,0,0-1.394-15.22,14.58,14.58,0,0,0-1.294-1.5c-.124-.124-.253-.241-.381-.36a14.589,14.589,0,0,0-2.112-1.63c-.185-.319-.376-.634-.569-.947q-.79-1.28-1.676-2.491a38.945,38.945,0,0,0-11.963-10.763,14.433,14.433,0,0,0-18.658-5.171l-.135-.005c-.37-.012-.744-.013-1.114,0l-.131,0a14.455,14.455,0,0,0-18.72,5.187,38.923,38.923,0,0,0-11.945,10.756q-.884,1.212-1.675,2.493c-.191.31-.381.621-.563.937a14.635,14.635,0,0,0-2.118,1.635c-.126.117-.254.233-.375.355a14.739,14.739,0,0,0-1.3,1.5,14.39,14.39,0,0,0-1.388,15.213c0,.045,0,.09,0,.136-.006.179-.012.36-.012.541s.006.359.012.538l0,.132a14.474,14.474,0,0,0,5.188,18.723c.181.312.368.62.557.927q.79,1.281,1.675,2.494a39.081,39.081,0,0,0,2.681,3.282q.812.89,1.676,1.728c.783.76,1.595,1.49,2.44,2.182q.819.669,1.676,1.293,1.3.951,2.681,1.795c.264.162.529.324.8.479a14.818,14.818,0,0,0,.878,1.238,14.379,14.379,0,0,0,1.087,1.23l.026.027a14.575,14.575,0,0,0,1.225,1.091,14.293,14.293,0,0,0,2.293,1.5,14.4,14.4,0,0,0,4.664,1.5,14.643,14.643,0,0,0,2.029.143c.068,0,.136,0,.2-.006a14.538,14.538,0,0,0,6.3-1.535l.136,0c.36.013.723.013,1.083,0l.135,0a14.531,14.531,0,0,0,6.507,1.541h0c.072,0,.143,0,.215,0a14.672,14.672,0,0,0,2.175-.2,14.329,14.329,0,0,0,6.827-3.125c.342-.285.674-.585.992-.9.079-.078.153-.162.23-.243a14.252,14.252,0,0,0,1.31-1.581c.156-.219.307-.442.451-.671.414-.239.821-.488,1.225-.741q1.382-.87,2.681-1.851.857-.644,1.675-1.335,1.036-.873,2.008-1.816.864-.837,1.675-1.727a38.931,38.931,0,0,0,2.681-3.282q.883-1.21,1.676-2.49c.2-.318.39-.638.577-.962a14.246,14.246,0,0,0,3.779-3.5,14.519,14.519,0,0,0,1.394-15.16Zm-1.4,12.757a12.943,12.943,0,0,1-4.356,4.785c-.1.063-.191.128-.29.188l-.147.092-.087.15c-.365.638-.751,1.263-1.152,1.876a37.5,37.5,0,0,1-2.681,3.611q-.807.962-1.675,1.866-.968,1.006-2.008,1.941-.816.732-1.675,1.417-1.3,1.033-2.681,1.954-.822.544-1.676,1.043c-.126.074-.25.151-.377.224l-.151.086-.091.148a13.2,13.2,0,0,1-1.657,2.151c-.077.081-.151.165-.23.244-.319.319-.652.618-1,.9a12.957,12.957,0,0,1-7.077,2.875c-.387.034-.776.053-1.169.053h0c-.4,0-.806-.024-1.208-.061a13.17,13.17,0,0,1-4.829-1.407l-.155-.081-.174,0c-.108,0-.216.006-.323.01-.329.011-.66.011-.989,0-.108,0-.216-.008-.324-.01l-.174,0-.155.081a13.264,13.264,0,0,1-6.036,1.468c-.262,0-.521-.01-.78-.025a12.914,12.914,0,0,1-7.232-2.719,13.432,13.432,0,0,1-1.233-1.084l-.026-.028a13.17,13.17,0,0,1-1.86-2.366l-.091-.148-.1-.058-.049-.028c-.552-.317-1.092-.651-1.626-.994q-1.383-.888-2.681-1.89-.858-.663-1.676-1.374c-.848-.738-1.661-1.517-2.44-2.329q-.868-.9-1.676-1.866a37.483,37.483,0,0,1-2.681-3.614c-.393-.6-.773-1.216-1.133-1.843l-.086-.151-.149-.091c-.1-.065-.2-.135-.307-.2a13.1,13.1,0,0,1-4.149-4.368c-.074-.126-.139-.256-.208-.384a13.034,13.034,0,0,1-.093-12.228l.08-.155,0-.174c0-.107-.006-.213-.009-.319-.006-.164-.012-.327-.012-.492s.006-.33.012-.5c0-.108.007-.215.009-.323l0-.175-.08-.154a13.064,13.064,0,0,1,1.769-14.639c.191-.218.384-.434.591-.641a13.116,13.116,0,0,1,2.09-1.686c.1-.067.2-.136.3-.2l.148-.09.086-.151c.361-.63.743-1.247,1.138-1.853a37.4,37.4,0,0,1,2.681-3.613c.134-.16.267-.319.4-.476a37.546,37.546,0,0,1,9.69-7.974l.151-.087.092-.148a13.086,13.086,0,0,1,17.178-4.756l.155.08.174,0,.318-.009c.34-.012.683-.011,1.022,0l.321.01.174,0,.155-.08a13.068,13.068,0,0,1,17.119,4.743l.091.148.151.086a37.577,37.577,0,0,1,9.714,7.987c.134.155.265.312.4.468a37.517,37.517,0,0,1,2.681,3.612c.4.609.782,1.228,1.145,1.862l.086.151.148.091c.1.062.2.13.3.195a13.071,13.071,0,0,1,2.095,1.69c.205.205.4.419.586.634a13.071,13.071,0,0,1,1.775,14.646l-.081.154,0,.175c0,.108.006.214.01.321.005.166.011.331.011.5s-.006.349-.012.523c0,.108-.007.217-.009.325l0,.174.08.155A13.111,13.111,0,0,1,1578.133,4293.281Z" fill="#fff"/>
      <path id="Path_56" data-name="Path 56" d="M1576.458,4269.181a12.566,12.566,0,0,0-2.681-4.434c-.1-.11-.2-.224-.306-.331a12.327,12.327,0,0,0-1.37-1.177c-.307-.229-.621-.448-.943-.647-.537-.938-1.119-1.846-1.738-2.727q-.8-1.133-1.675-2.2a35.143,35.143,0,0,0-9.626-8.107,12.64,12.64,0,0,0-16.554-4.587c-.265-.006-.528-.02-.794-.02s-.506.014-.76.019a12.659,12.659,0,0,0-16.61,4.6,35.143,35.143,0,0,0-9.609,8.1q-.881,1.065-1.676,2.2c-.616.878-1.2,1.784-1.732,2.72-.324.2-.639.419-.949.65a12.267,12.267,0,0,0-1.364,1.173c-.109.109-.207.225-.311.337a12.555,12.555,0,0,0-2.681,4.444,12.765,12.765,0,0,0,.71,9.993c-.006.255-.02.508-.02.765s.014.5.019.758a12.781,12.781,0,0,0-.709,1.66,12.646,12.646,0,0,0,4.356,14.3c.31.232.626.453.954.654.534.933,1.113,1.835,1.727,2.711q.8,1.132,1.676,2.2a35.1,35.1,0,0,0,2.44,2.66q.813.8,1.676,1.545,1.287,1.113,2.681,2.1.82.581,1.675,1.114c.377.235.757.465,1.143.686a12.7,12.7,0,0,0,1.538,2.011c.1.1.187.205.286.3q.369.369.76.7a12.688,12.688,0,0,0,5.768,2.762,12.821,12.821,0,0,0,8.247-1.18c.255,0,.508.019.765.019s.51-.014.765-.019a12.513,12.513,0,0,0,2.208.882,12.791,12.791,0,0,0,6.393.232,12.654,12.654,0,0,0,5.633-2.9c.182-.163.366-.324.541-.5.253-.253.487-.517.714-.785a13,13,0,0,0,1.111-1.53c.533-.3,1.054-.628,1.569-.96q.855-.552,1.676-1.15,1.394-1.019,2.681-2.166.864-.771,1.675-1.6,1.05-1.068,2.008-2.224.879-1.065,1.675-2.2.933-1.327,1.745-2.74c.325-.2.636-.415.936-.639a12.638,12.638,0,0,0,3.652-15.918c.006-.264.02-.527.02-.793s-.014-.51-.019-.765a12.777,12.777,0,0,0,.7-10.009Zm-21.109,38.05a10.866,10.866,0,0,1-1.041,1.215,11.006,11.006,0,0,1-1.8,1.447l-4.182-4.182,7.022-7.022Zm-8.207-2.7-1.9-1.9,22.5-22.5v3.792Zm-5.912,5.912c-.154,0-.307.012-.461.012h-.026l-1.658-1.658,1.9-1.9,1.9,1.9Zm-14-1.993c-.215-.216-.415-.44-.608-.669v-9.08l7.014,7.014-4.35,4.351A11.039,11.039,0,0,1,1527.229,4308.446Zm-13.437-24.948v-3.791l22.924,22.924-1.9,1.9Zm53.953-5.735-23.684,23.683-1.9-1.9,25.579-25.578Zm-24.868,24.868-1.9,1.9-1.9-1.9,1.9-1.9Zm-3.081-3.081-1.9,1.9-24.109-24.109v-3.791Zm-1.9,4.266,1.9,1.9-1.9,1.9-1.9-1.9Zm4.265,1.9,1.9-1.9,1.9,1.9-1.9,1.9Zm-20.63-49.411,12.78,28.286,1.527-.69-12.942-28.643a30.679,30.679,0,0,1,2.732-1.769,10.971,10.971,0,0,1,3.851-3.754c.133-.077.268-.146.4-.216l7.318,33.966,1.637-.353-7.388-34.3a11.031,11.031,0,0,1,8.477.561v33.615h1.676V4249.4a11,11,0,0,1,8.837-.431l-7.375,34.162,1.638.353,7.291-33.771a10.974,10.974,0,0,1,3.9,3.771,30.6,30.6,0,0,1,3.018,1.979l-12.848,28.437,1.527.69,12.678-28.061a30.656,30.656,0,0,1,5.449,5.913l-16.885,22.842,1.347,1,16.522-22.351q.278.446.539.9.253.157.5.329v6.446l-18.028,18.028a12.145,12.145,0,0,0-17.691-.22l-18.234-18.234v-6.02q.248-.171.5-.329c.227-.4.466-.786.711-1.172l16.721,22.621,1.347-1L1516,4262.18A30.663,30.663,0,0,1,1521.536,4256.3Zm-10.993,34.94a11.078,11.078,0,0,1-1.108-2.642v-5.769a11.042,11.042,0,0,1,.855-2.214c-.005-.22-.017-.439-.017-.66s.012-.445.017-.667a10.955,10.955,0,0,1-.855-2.222v-5.715a10.955,10.955,0,0,1,2.681-4.759v26.735A11.1,11.1,0,0,1,1510.543,4291.24Zm3.756,3.852q-.258-.159-.507-.333v-8.891l2.44,2.441v9.737A30.359,30.359,0,0,1,1514.3,4295.092Zm3.609,5.031v-10.139l2.681,2.681v10.14A30.663,30.663,0,0,1,1517.908,4300.123Zm4.356,4.063v-9.845l2.681,2.68v9A30.789,30.789,0,0,1,1522.264,4304.186Zm8.595,6.671,3.961-3.961,1.9,1.9-2.815,2.815A11,11,0,0,1,1530.859,4310.857Zm7.042-.88.987.987a11.069,11.069,0,0,1-2.6.627Zm5.057,1.1,1.1-1.1,1.661,1.66A11.08,11.08,0,0,1,1542.958,4311.08Zm5.062.486-2.774-2.774,1.9-1.9,3.83,3.83A10.977,10.977,0,0,1,1548.02,4311.566Zm9.005-5.819v-8.733l2.68-2.681v9.511A30.71,30.71,0,0,1,1557.025,4305.747Zm4.356-3.333v-9.757l2.681-2.681v9.643A30.654,30.654,0,0,1,1561.381,4302.414Zm5.861-7.329c-.465.812-.969,1.6-1.5,2.362V4288.3l2.008-2.008v8.448C1567.578,4294.857,1567.417,4294.977,1567.242,4295.085Zm2.178-1.772v-26.722a10.946,10.946,0,0,1,2.681,4.757v5.722a11,11,0,0,1-.853,2.218c0,.223.017.443.017.667s-.012.442-.017.663a10.982,10.982,0,0,1,.853,2.213v5.744A11,11,0,0,1,1569.42,4293.313Z" fill="#fff"/>
    </g>
  </g>
</svg>
