<svg xmlns="http://www.w3.org/2000/svg" width="55" height="55" viewBox="0 0 55 55">
  <g id="ic-fb_footer" transform="translate(-319 -307)">
    <rect id="Rectangle_6" data-name="Rectangle 6" width="55" height="55" transform="translate(319 307)" fill="none"/>
    <path id="ic-fb_footer-2" data-name="ic-fb_footer" d="M1646.81,4399.941V4371.05a5.2,5.2,0,0,0,.18-.523,7.75,7.75,0,0,1,4.245-5.432,19.6,19.6,0,0,1,2.373-.843H1682.5a5.067,5.067,0,0,0,.525.18,7.731,7.731,0,0,1,5.387,4.165,20,20,0,0,1,.886,2.453v28.891a5.108,5.108,0,0,0-.18.524,7.757,7.757,0,0,1-4.246,5.432,19.641,19.641,0,0,1-2.372.842h-28.891a5.458,5.458,0,0,0-.525-.18,7.733,7.733,0,0,1-5.388-4.164A20.131,20.131,0,0,1,1646.81,4399.941Zm33.425-12.825.538-4.966h-4.5c0-.923-.006-1.739,0-2.555.018-1.882.377-2.245,2.269-2.272.863-.013,1.727,0,2.577,0v-4.735c-2.316,0-4.587-.176-6.819.046-2.6.26-4.08,1.886-4.469,4.486a26.114,26.114,0,0,0-.172,2.91c-.025.708-.005,1.416-.005,2.221h-2.531v4.882h2.562v14.653h6.6v-14.668Z" transform="translate(-1320.81 -4051.167)" fill="#fff"/>
  </g>
</svg>
