<svg xmlns="http://www.w3.org/2000/svg" width="30" height="30" viewBox="0 0 30 30">
  <g id="ic-heart-_prd" transform="translate(1129 -414)">
    <rect id="矩形_3353" data-name="矩形 3353" width="30" height="30" transform="translate(-1129 414)" fill="rgba(255,255,255,0)"/>
    <g id="组_15936" data-name="组 15936" transform="translate(-1635.643 -366.286)">
      <g id="组_15937" data-name="组 15937">
        <path id="路径_31078" data-name="路径 31078" d="M521.332,787.446a7.277,7.277,0,0,1,3.82-2.885,6.739,6.739,0,0,1,8.071,4.13c1.435,3.364.687,6.448-1.347,9.3-2.659,3.731-6.3,6.316-10.217,8.55a.778.778,0,0,1-.651.023c-4.143-2.385-8.021-5.1-10.665-9.206-1.934-3.005-2.353-6.177-.552-9.4,2.518-4.511,7.971-4.928,11.208-.9C521.087,787.169,521.183,787.274,521.332,787.446Z" fill="#ff9833" stroke="#ff9833" stroke-miterlimit="10" stroke-width="2"/>
      </g>
    </g>
  </g>
</svg>
