<svg xmlns="http://www.w3.org/2000/svg" width="55" height="55" viewBox="0 0 55 55">
  <g id="ic-youtube_footer" transform="translate(-319 -307)">
    <rect id="Rectangle_6" data-name="Rectangle 6" width="55" height="55" transform="translate(319 307)" fill="none"/>
    <path id="ic-youtube_footer-2" data-name="ic-youtube_footer" d="M1585.149,4405.607c-4.443-.131-8.928-.216-13.409-.417a63.445,63.445,0,0,1-6.765-.656c-3.3-.507-5.2-2.454-5.887-5.74a51.619,51.619,0,0,1-.843-7.541,84.829,84.829,0,0,1,.1-10.953,35.33,35.33,0,0,1,.891-6.467,6.58,6.58,0,0,1,5.628-5.154,50.641,50.641,0,0,1,7.446-.679c4.849-.136,9.7-.306,14.55-.279,4.722.027,9.444.249,14.163.458a32.489,32.489,0,0,1,4.759.572,6.409,6.409,0,0,1,5.422,5.347,41.277,41.277,0,0,1,.738,5.117c.191,2.46.305,4.931.321,7.4a67.376,67.376,0,0,1-.678,10.551,15.418,15.418,0,0,1-.712,3.083,6.491,6.491,0,0,1-5.351,4.295,55.583,55.583,0,0,1-7.447.679C1593.783,4405.373,1589.488,4405.48,1585.149,4405.607Zm8.7-19-14.078-8.162v16.325Z" transform="translate(-1239.114 -4051.167)" fill="#fff"/>
  </g>
</svg>
