<svg xmlns="http://www.w3.org/2000/svg" width="282" height="90" viewBox="0 0 282 90">
  <g id="header_logo" transform="translate(-388 -164)">
    <rect id="Rectangle_7" data-name="Rectangle 7" width="282" height="90" transform="translate(388 164)" fill="none"/>
    <g id="logo" transform="translate(13 102)">
      <path id="Path_1" data-name="Path 1" d="M1676.561,4254.226a8.051,8.051,0,0,0-3.956.687q-1.1.687-1.1,2.83v34.185q0,2.144,1.1,2.83a8.044,8.044,0,0,0,3.956.687v1.374h-14.344v-1.374a8.053,8.053,0,0,0,3.958-.687q1.1-.686,1.1-2.83v-35.667l-.3,1.071-14.893,39.487h-2.693l-15.91-39.322-.275-1.236v35.667q0,2.144,1.1,2.83a8.045,8.045,0,0,0,3.957.687v1.374H1625.34v-1.374a8.045,8.045,0,0,0,3.956-.687q1.1-.686,1.1-2.83v-34.185q0-2.142-1.1-2.83a8.052,8.052,0,0,0-3.956-.687v-1.375h11.706l14.729,36.822,14.014-36.822h10.771Z" transform="translate(-1135.474 -4176.114)" fill="#fff"/>
      <path id="Path_2" data-name="Path 2" d="M1689.175,4291.926q0,2.144,1.237,2.83a9.78,9.78,0,0,0,4.37.687v1.374h-15.334v-1.374a9.783,9.783,0,0,0,4.37-.687q1.236-.686,1.236-2.83v-34.185q0-2.142-1.236-2.83a9.791,9.791,0,0,0-4.37-.687v-1.375h15.334v1.375a9.788,9.788,0,0,0-4.37.687q-1.238.687-1.237,2.83Z" transform="translate(-1129.161 -4176.114)" fill="#fff"/>
      <path id="Path_3" data-name="Path 3" d="M1737.087,4296.928l-27.425-36.575-.385-2.335v33.909q0,2.144,1.1,2.83a8.045,8.045,0,0,0,3.957.687v1.374h-12.915v-1.374a8.046,8.046,0,0,0,3.957-.687q1.1-.686,1.1-2.83v-34.185q0-2.142-1.1-2.83a8.052,8.052,0,0,0-3.957-.687v-1.375h8.629l25.335,33.662.384,2.335v-31.106q0-2.142-1.1-2.83a8.059,8.059,0,0,0-3.958-.687v-1.375h12.914v1.375a8.052,8.052,0,0,0-3.956.687q-1.1.687-1.1,2.83v39.186Z" transform="translate(-1126.597 -4176.114)" fill="#fff"/>
      <path id="Path_4" data-name="Path 4" d="M1755.94,4294.07l17.861.549,1.648-6.43h2.2v8.627H1746.1v-1.374a9.787,9.787,0,0,0,4.37-.687q1.236-.686,1.236-2.83v-34.185q0-2.142-1.236-2.83a9.8,9.8,0,0,0-4.37-.687v-1.375h31.271v8.628h-2.2l-1.649-6.43-17.587.55v17.807h11.541l1.319-4.672h1.375v11.651H1768.8l-1.319-4.672H1755.94Z" transform="translate(-1121.384 -4176.114)" fill="#fff"/>
      <path id="Path_5" data-name="Path 5" d="M1633.618,4315.774a1.784,1.784,0,0,1-.321,1.171,1.469,1.469,0,0,1-1.012.451l-.069-.231q.641-.246.641-1.3V4308.9a.519.519,0,0,0-.237-.508,1.86,1.86,0,0,0-.8-.124v-.247h2.735v.247a1.535,1.535,0,0,0-.726.124.539.539,0,0,0-.212.508Z" transform="translate(-1134.718 -4169.679)" fill="#fff"/>
      <path id="Path_6" data-name="Path 6" d="M1643.417,4308.021l2.409,7.017a1.032,1.032,0,0,0,.335.508,1.377,1.377,0,0,0,.7.125v.246h-2.576v-.246a1.75,1.75,0,0,0,.657-.1.236.236,0,0,0,.157-.207,1.007,1.007,0,0,0-.074-.326l-.844-2.466h-2.744l-.853,2.466a1.214,1.214,0,0,0-.094.346.213.213,0,0,0,.074.162,1.392,1.392,0,0,0,.76.125v.246h-2.309v-.246a1.371,1.371,0,0,0,.7-.125,1.031,1.031,0,0,0,.335-.508l2.2-6.385a.439.439,0,0,0,.025-.108v-.016c0-.175-.221-.261-.666-.261v-.247Zm.626,4.141-1.228-3.627h-.015l-1.224,3.627Z" transform="translate(-1133.879 -4169.679)" fill="#fff"/>
      <path id="Path_7" data-name="Path 7" d="M1651.009,4315.918v-.246a1.372,1.372,0,0,0,.7-.125.568.568,0,0,0,.188-.508V4308.9a.571.571,0,0,0-.187-.508,1.379,1.379,0,0,0-.7-.124v-.247q1.864-.021,3.429-.019a4.088,4.088,0,0,1,2.632.88,3.64,3.64,0,0,1,1.1,3.008,3.574,3.574,0,0,1-3.735,4.045Q1653.125,4315.938,1651.009,4315.918Zm1.648-.434q.794.051,1.875.049a2.571,2.571,0,0,0,1.791-.641,3.763,3.763,0,0,0,.849-2.521q0-.43-.017-.8a5.609,5.609,0,0,0-.224-1.115,3.154,3.154,0,0,0-.869-1.4,2.345,2.345,0,0,0-1.718-.651q-.774,0-1.687.069Z" transform="translate(-1132.479 -4169.681)" fill="#fff"/>
      <path id="Path_8" data-name="Path 8" d="M1663.651,4315.423l3.208.1.3-1.154h.394v1.549h-5.665v-.246a1.746,1.746,0,0,0,.785-.125.529.529,0,0,0,.222-.508V4308.9a.531.531,0,0,0-.222-.508,1.756,1.756,0,0,0-.785-.124v-.247h5.616v1.55h-.4l-.3-1.155-3.158.1v3.2h2.073l.237-.838h.247v2.091h-.247l-.237-.838h-2.073Z" transform="translate(-1131.21 -4169.679)" fill="#fff"/>
      <path id="Path_9" data-name="Path 9" d="M1684.9,4311.884a.934.934,0,0,0,.02-.183.346.346,0,0,0-.157-.331,1.711,1.711,0,0,0-.77-.118v-.247h2.9v.247a2.087,2.087,0,0,0-.859.124.88.88,0,0,0-.4.508,16.533,16.533,0,0,1-1.49,2.891,1.618,1.618,0,0,0,1.09.563,1.462,1.462,0,0,0,1.175-.567h.237q-.68,1.234-1.608,1.234a2.173,2.173,0,0,1-1.4-.638,2.6,2.6,0,0,1-1.806.638,3.081,3.081,0,0,1-1.883-.521,1.893,1.893,0,0,1-.7-1.625q0-1.377,1.96-2.536a6.359,6.359,0,0,1-.247-1.624,1.537,1.537,0,0,1,1.732-1.747q1.717,0,1.718,1.041,0,.979-2.088,2.1l-.335.2a9.038,9.038,0,0,0,.871,1.819,9.793,9.793,0,0,0,1.008,1.4A9.169,9.169,0,0,0,1684.9,4311.884Zm-1.534,3.212a8.422,8.422,0,0,1-.987-1.35,12.865,12.865,0,0,1-1.021-2.036,2.473,2.473,0,0,0-1.16,2.1,1.583,1.583,0,0,0,1.7,1.865A2.224,2.224,0,0,0,1683.361,4315.1Zm-1.485-4.161q1.762-1.154,1.761-1.747a.815.815,0,0,0-.937-.908q-1.027,0-1.026,1.416A4.334,4.334,0,0,0,1681.876,4310.936Z" transform="translate(-1129.183 -4169.687)" fill="#fff"/>
      <path id="Path_10" data-name="Path 10" d="M1699.877,4315.774a1.778,1.778,0,0,1-.321,1.171,1.467,1.467,0,0,1-1.012.451l-.069-.231q.642-.246.642-1.3V4308.9a.519.519,0,0,0-.237-.508,1.866,1.866,0,0,0-.8-.124v-.247h2.735v.247a1.538,1.538,0,0,0-.726.124.541.541,0,0,0-.212.508Z" transform="translate(-1126.987 -4169.679)" fill="#fff"/>
      <path id="Path_11" data-name="Path 11" d="M1707.152,4315.423l3.208.1.3-1.154h.4v1.549h-5.666v-.246a1.745,1.745,0,0,0,.785-.125.527.527,0,0,0,.222-.508V4308.9a.529.529,0,0,0-.222-.508,1.755,1.755,0,0,0-.785-.124v-.247H1711v1.55h-.394l-.3-1.155-3.159.1v3.2h2.073l.237-.838h.246v2.091h-.246l-.237-.838h-2.073Z" transform="translate(-1126.135 -4169.679)" fill="#fff"/>
      <path id="Path_12" data-name="Path 12" d="M1721.34,4310.577l-1.624,5.339h-.475l-2.783-7.017a1.147,1.147,0,0,0-.355-.508,1.381,1.381,0,0,0-.7-.124v-.247h2.674v.247a1.769,1.769,0,0,0-.655.1c-.106.052-.159.12-.159.2a.825.825,0,0,0,.1.331l2.239,5.832-.068.425h0l1.54-5.27-.375-.987a1.157,1.157,0,0,0-.355-.508,1.385,1.385,0,0,0-.7-.124v-.247h2.675v.247a1.6,1.6,0,0,0-.614.089c-.133.06-.2.132-.2.217a.853.853,0,0,0,.094.326l2.142,5.832-.069.425h0l1.9-6.257a2.037,2.037,0,0,0,.064-.345.215.215,0,0,0-.074-.163,1.4,1.4,0,0,0-.759-.124v-.247h2.308v.247a1.382,1.382,0,0,0-.7.124.911.911,0,0,0-.306.508l-2.249,7.017h-.475Z" transform="translate(-1124.966 -4169.679)" fill="#fff"/>
      <path id="Path_13" data-name="Path 13" d="M1732.536,4315.423l3.207.1.3-1.154h.394v1.549h-5.665v-.246a1.745,1.745,0,0,0,.785-.125.529.529,0,0,0,.222-.508V4308.9a.531.531,0,0,0-.222-.508,1.754,1.754,0,0,0-.785-.124v-.247h5.616v1.55h-.394l-.3-1.155-3.158.1v3.2h2.072l.237-.838h.247v2.091h-.247l-.237-.838h-2.072Z" transform="translate(-1123.173 -4169.679)" fill="#fff"/>
      <path id="Path_14" data-name="Path 14" d="M1741.059,4308.268v-.247h2.536v.247a1.378,1.378,0,0,0-.7.124.57.57,0,0,0-.188.508v6.523l3.109.1.3-1.154h.4v1.549h-5.567v-.246a1.737,1.737,0,0,0,.784-.125.527.527,0,0,0,.223-.508V4308.9a.571.571,0,0,0-.189-.508A1.376,1.376,0,0,0,1741.059,4308.268Z" transform="translate(-1121.986 -4169.679)" fill="#fff"/>
      <path id="Path_15" data-name="Path 15" d="M1757.561,4315.7v.217l-.819.064a1.087,1.087,0,0,1-.885-.352,5.187,5.187,0,0,1-.667-1.555,4.142,4.142,0,0,0-.718-1.547,3.1,3.1,0,0,0-1.846-.375v2.907a.527.527,0,0,0,.223.507,1.591,1.591,0,0,0,.735.125v.245h-2.625v-.245a1.433,1.433,0,0,0,.71-.125.554.554,0,0,0,.2-.507v-6.139a.557.557,0,0,0-.2-.509,1.447,1.447,0,0,0-.71-.124v-.247q1.539-.04,3.222-.039a3.128,3.128,0,0,1,1.735.463,1.873,1.873,0,0,1,.7,1.569,2.083,2.083,0,0,1-.277,1.192,1.508,1.508,0,0,1-.656.549,4.792,4.792,0,0,1-1.026.268,1.478,1.478,0,0,1,.824.422,5.208,5.208,0,0,1,.723,1.583,4.055,4.055,0,0,0,.674,1.458A1.087,1.087,0,0,0,1757.561,4315.7Zm-1.85-5.665a1.741,1.741,0,0,0-.384-1.184,1.819,1.819,0,0,0-1.417-.444q-.449,0-1.283.069v3.251q.662.04,1.234.041a1.542,1.542,0,0,0,1.85-1.733Z" transform="translate(-1120.817 -4169.681)" fill="#fff"/>
      <path id="Path_16" data-name="Path 16" d="M1764.5,4312.28l-2.241-3.38a1.822,1.822,0,0,0-.648-.508,2.2,2.2,0,0,0-.807-.124v-.247h2.872v.247a3.662,3.662,0,0,0-.642.04c-.092.026-.137.067-.137.124a.48.48,0,0,0,.118.242l1.979,3,1.712-3a.635.635,0,0,0,.065-.2v-.029a.163.163,0,0,0-.134-.133,2.524,2.524,0,0,0-.547-.04v-.247h2.462v.247a2.265,2.265,0,0,0-.812.124,1.31,1.31,0,0,0-.584.508l-1.9,3.183v2.956a.567.567,0,0,0,.187.508,1.374,1.374,0,0,0,.7.125v.246h-2.537v-.246a1.374,1.374,0,0,0,.7-.125.568.568,0,0,0,.188-.508Z" transform="translate(-1119.669 -4169.679)" fill="#fff"/>
      <g id="Group_6" data-name="Group 6" transform="translate(375 62)">
        <path id="Path_17" data-name="Path 17" d="M1610.771,4285.292c.007-.211.015-.422.015-.635s-.007-.4-.015-.606l0-.15a16.064,16.064,0,0,0-1.557-17,16.446,16.446,0,0,0-1.445-1.67c-.138-.139-.283-.27-.427-.4a16.237,16.237,0,0,0-2.358-1.821c-.205-.356-.419-.708-.634-1.057q-.883-1.429-1.872-2.782a43.5,43.5,0,0,0-13.359-12.018,16.118,16.118,0,0,0-20.835-5.774l-.151-.006c-.413-.013-.831-.014-1.244,0l-.146,0a16.142,16.142,0,0,0-20.9,5.792,43.47,43.47,0,0,0-13.339,12.011q-.987,1.354-1.87,2.784c-.214.346-.426.693-.629,1.046a16.28,16.28,0,0,0-2.365,1.826c-.141.131-.284.26-.419.4a16.271,16.271,0,0,0-1.453,1.678,16.066,16.066,0,0,0-1.55,16.987c0,.051,0,.1,0,.152-.007.2-.013.4-.013.6s.007.4.013.6l0,.147a16.163,16.163,0,0,0,5.793,20.907c.2.349.411.692.622,1.035q.881,1.43,1.87,2.785a43.611,43.611,0,0,0,2.994,3.665q.906.994,1.872,1.93,1.311,1.274,2.725,2.437.915.747,1.872,1.443,1.452,1.063,2.994,2c.295.181.59.362.89.535a16.606,16.606,0,0,0,.98,1.383,15.883,15.883,0,0,0,1.214,1.373l.029.03a16.32,16.32,0,0,0,1.368,1.218,15.987,15.987,0,0,0,7.769,3.345,16.371,16.371,0,0,0,2.266.16c.076,0,.152-.005.228-.006a16.237,16.237,0,0,0,7.037-1.714l.152,0c.4.015.807.015,1.208,0l.152,0a16.222,16.222,0,0,0,7.265,1.721h0c.08,0,.16,0,.239-.005a16.37,16.37,0,0,0,2.43-.218,16.007,16.007,0,0,0,7.624-3.489c.382-.318.753-.653,1.108-1.009.088-.087.171-.181.257-.271a15.946,15.946,0,0,0,1.463-1.765q.261-.367.5-.75c.462-.267.917-.545,1.368-.827q1.543-.972,2.994-2.067.956-.719,1.87-1.491,1.158-.975,2.242-2.028.965-.935,1.87-1.929a43.437,43.437,0,0,0,2.994-3.665q.987-1.351,1.872-2.78c.219-.355.434-.712.644-1.074a15.953,15.953,0,0,0,4.22-3.909,16.21,16.21,0,0,0,1.556-16.929Zm-1.561,14.245a14.48,14.48,0,0,1-4.864,5.343c-.108.07-.213.143-.324.21l-.165.1-.1.167c-.408.712-.839,1.41-1.286,2.095a41.929,41.929,0,0,1-2.994,4.032q-.9,1.074-1.87,2.084-1.081,1.124-2.242,2.167-.911.817-1.87,1.582-1.447,1.154-2.994,2.182-.918.608-1.872,1.165c-.141.083-.279.169-.421.25l-.169.1-.1.165a14.765,14.765,0,0,1-1.851,2.4c-.085.09-.169.184-.256.272a14.982,14.982,0,0,1-1.113,1,14.473,14.473,0,0,1-7.9,3.21c-.432.038-.867.059-1.305.059h0c-.451,0-.9-.026-1.349-.067a14.708,14.708,0,0,1-5.392-1.571l-.173-.091-.194,0c-.121,0-.241.007-.361.012-.367.012-.738.012-1.105,0-.12,0-.24-.009-.361-.012l-.194,0-.173.091a14.809,14.809,0,0,1-6.74,1.639c-.293,0-.582-.011-.871-.027a14.562,14.562,0,0,1-3.573-.66,14.393,14.393,0,0,1-1.894-.752,14.551,14.551,0,0,1-2.61-1.624,15.178,15.178,0,0,1-1.376-1.21l-.029-.032a14.656,14.656,0,0,1-2.077-2.642l-.1-.165-.113-.065-.055-.031c-.616-.354-1.221-.727-1.816-1.11q-1.544-.992-2.994-2.111-.958-.74-1.872-1.534c-.948-.824-1.855-1.694-2.725-2.6q-.97-1.01-1.872-2.083a41.889,41.889,0,0,1-2.994-4.036c-.439-.673-.864-1.357-1.265-2.058l-.1-.168-.165-.1c-.117-.072-.229-.15-.343-.225a14.648,14.648,0,0,1-4.634-4.878c-.082-.141-.154-.286-.231-.428a14.556,14.556,0,0,1-.1-13.655l.089-.173,0-.194c0-.12-.007-.238-.011-.356-.006-.183-.012-.365-.012-.549s.007-.369.013-.553c0-.121.008-.24.01-.36l0-.2-.089-.172a14.587,14.587,0,0,1,1.975-16.347c.213-.243.429-.485.66-.716a14.642,14.642,0,0,1,2.334-1.883c.113-.075.222-.152.338-.223l.164-.1.1-.169c.4-.7.828-1.392,1.271-2.069a41.8,41.8,0,0,1,2.994-4.034c.15-.179.3-.356.45-.532a41.932,41.932,0,0,1,10.821-8.9l.169-.1.1-.165a14.615,14.615,0,0,1,19.183-5.311l.173.089.194,0,.355-.01c.38-.014.762-.013,1.141,0l.357.011.2,0,.173-.089a14.592,14.592,0,0,1,19.116,5.3l.1.166.169.1a41.969,41.969,0,0,1,10.847,8.918c.15.173.3.349.442.522a41.9,41.9,0,0,1,2.994,4.034c.444.68.873,1.371,1.278,2.079l.1.169.165.1c.113.069.22.145.332.218a14.642,14.642,0,0,1,2.339,1.887c.229.229.442.468.653.708a14.589,14.589,0,0,1,1.983,16.354l-.09.172,0,.2c0,.121.007.239.011.358.005.186.012.37.012.555s-.007.39-.013.584c0,.121-.008.242-.011.363l0,.194.088.173A14.637,14.637,0,0,1,1609.21,4299.537Z" transform="translate(-1522.476 -4239.654)" fill="#fff"/>
        <path id="Path_18" data-name="Path 18" d="M1606.882,4272.171a14.03,14.03,0,0,0-2.993-4.951c-.115-.123-.222-.25-.342-.37a13.715,13.715,0,0,0-1.53-1.314c-.344-.256-.693-.5-1.053-.723-.6-1.047-1.25-2.061-1.941-3.044q-.888-1.266-1.87-2.455a39.253,39.253,0,0,0-10.749-9.052,14.115,14.115,0,0,0-18.486-5.122c-.3-.007-.59-.022-.886-.022s-.565.015-.849.021a14.134,14.134,0,0,0-18.548,5.136,39.215,39.215,0,0,0-10.73,9.047q-.983,1.189-1.872,2.456-1.034,1.471-1.934,3.037c-.362.223-.713.468-1.06.727a13.705,13.705,0,0,0-1.523,1.31c-.122.122-.231.251-.347.376a14.027,14.027,0,0,0-2.994,4.962,14.267,14.267,0,0,0,.792,11.159c-.006.285-.021.568-.021.854s.016.564.021.846a14.1,14.1,0,0,0,2.2,16.14,13.911,13.911,0,0,0,1.87,1.681c.346.259.7.506,1.065.73q.895,1.562,1.929,3.027c.592.843,1.216,1.664,1.872,2.455a38.976,38.976,0,0,0,2.725,2.971q.908.893,1.872,1.725,1.437,1.243,2.994,2.345.916.649,1.87,1.244c.421.263.845.52,1.275.766a14.224,14.224,0,0,0,1.719,2.246c.106.114.209.229.319.339q.41.412.849.782a14.442,14.442,0,0,0,4.364,2.515,14.3,14.3,0,0,0,11.286-.748c.285.005.567.021.854.021s.568-.016.854-.021a13.954,13.954,0,0,0,2.466.984,14.047,14.047,0,0,0,9.166-.359,13.99,13.99,0,0,0,2.775-1.458,14.137,14.137,0,0,0,1.489-1.158c.2-.182.409-.362.6-.558.282-.282.544-.577.8-.876a14.38,14.38,0,0,0,1.242-1.709c.595-.34,1.177-.7,1.752-1.072q.955-.616,1.872-1.284,1.556-1.137,2.994-2.418.965-.861,1.87-1.785,1.173-1.192,2.242-2.483.981-1.189,1.87-2.455,1.042-1.482,1.948-3.06c.363-.224.71-.463,1.045-.714a14.12,14.12,0,0,0,4.078-17.774c.007-.3.022-.588.022-.886s-.016-.57-.022-.854a13.891,13.891,0,0,0,.786-1.841A14.172,14.172,0,0,0,1606.882,4272.171Zm-23.571,42.488a12.163,12.163,0,0,1-1.162,1.357,12.287,12.287,0,0,1-2.009,1.616l-4.67-4.67,7.841-7.841Zm-9.165-3.02-2.117-2.117,25.124-25.124v4.234Zm-6.6,6.6c-.171.005-.342.014-.514.014H1567l-1.851-1.852,2.117-2.117,2.117,2.117Zm-15.634-2.226c-.24-.241-.464-.492-.679-.747V4305.13l7.832,7.832-4.858,4.859A12.34,12.34,0,0,1,1551.911,4316.017Zm-15-27.858v-4.233l25.6,25.6-2.117,2.117Zm60.248-6.4-26.448,26.445-2.116-2.117,28.564-28.561Zm-27.77,27.769-2.117,2.117-2.117-2.117,2.117-2.117Zm-3.44-3.44-2.117,2.117-26.921-26.921v-4.233Zm-2.117,4.764,2.117,2.116-2.117,2.117-2.116-2.117Zm4.764,2.116,2.116-2.116,2.117,2.116-2.117,2.117Zm-23.037-55.175,14.271,31.585,1.705-.77-14.452-31.984a34.228,34.228,0,0,1,3.051-1.976,12.254,12.254,0,0,1,4.3-4.192c.148-.086.3-.163.449-.241l8.171,37.928,1.829-.394-8.25-38.3a12.321,12.321,0,0,1,9.466.626v37.536h1.872v-37.53a12.28,12.28,0,0,1,9.868-.481l-8.236,38.147,1.829.394,8.142-37.71a12.259,12.259,0,0,1,4.355,4.211,34.355,34.355,0,0,1,3.37,2.21l-14.348,31.754,1.705.77,14.158-31.334a34.238,34.238,0,0,1,6.085,6.6l-18.855,25.506,1.5,1.112,18.45-24.958q.31.5.6,1.008.283.176.56.367v7.2l-20.132,20.13a13.564,13.564,0,0,0-19.756-.245l-20.36-20.361v-6.722q.276-.191.559-.367c.255-.443.521-.878.8-1.309l18.672,25.26,1.5-1.112-19.067-25.794A34.232,34.232,0,0,1,1545.553,4257.788Zm-12.276,39.016a12.321,12.321,0,0,1-1.237-2.95v-6.442a12.4,12.4,0,0,1,.954-2.472c0-.246-.018-.491-.018-.737s.013-.5.019-.745a12.235,12.235,0,0,1-.955-2.481v-6.381a12.23,12.23,0,0,1,2.994-5.314v29.854A12.376,12.376,0,0,1,1533.278,4296.8Zm4.194,4.3q-.288-.177-.566-.372v-9.928l2.725,2.726V4304.4A33.893,33.893,0,0,1,1537.472,4301.1Zm4.03,5.618V4295.4l2.994,2.994v11.323A34.183,34.183,0,0,1,1541.5,4306.723Zm4.864,4.537v-10.994l2.994,2.993V4313.3A34.376,34.376,0,0,1,1546.366,4311.26Zm9.6,7.449,4.423-4.423,2.117,2.117-3.143,3.144A12.285,12.285,0,0,1,1555.964,4318.709Zm7.863-.983,1.1,1.1a12.355,12.355,0,0,1-2.906.7Zm5.648,1.232,1.231-1.232,1.855,1.854A12.355,12.355,0,0,1,1569.475,4318.958Zm5.653.542-3.1-3.1,2.117-2.117,4.276,4.277A12.241,12.241,0,0,1,1575.127,4319.5Zm10.054-6.5v-9.751l2.994-2.994v10.621A34.17,34.17,0,0,1,1585.182,4313Zm4.865-3.722v-10.9l2.994-2.994v10.768A34.56,34.56,0,0,1,1590.047,4309.281Zm6.545-8.184c-.519.907-1.082,1.786-1.681,2.637v-10.213l2.242-2.242v9.434C1596.968,4300.842,1596.788,4300.977,1596.592,4301.1Zm2.432-1.979v-29.839a12.226,12.226,0,0,1,2.994,5.313v6.389a12.273,12.273,0,0,1-.952,2.477c0,.249.018.495.018.745s-.013.494-.018.741a12.242,12.242,0,0,1,.952,2.471v6.414A12.284,12.284,0,0,1,1599.024,4299.118Z" transform="translate(-1522.021 -4239.199)" fill="#fff"/>
      </g>
    </g>
  </g>
</svg>
