<svg xmlns="http://www.w3.org/2000/svg" width="134.8" height="30.8" viewBox="0 0 134.8 30.8">
  <g id="btn-gift" transform="translate(-436 -221)">
    <path id="Path_3" data-name="Path 3" d="M119.3,30.8H15.3A15.4,15.4,0,0,1,15.4,0h104a15.407,15.407,0,0,1,15.4,15.4,15.623,15.623,0,0,1-15.5,15.4" transform="translate(436 221)" fill="#8a837f"/>
    <rect id="Rectangle_3" data-name="Rectangle 3" width="5.9" height="5.9" transform="translate(496.4 240.5)" fill="#fff"/>
    <rect id="Rectangle_4" data-name="Rectangle 4" width="5.9" height="5.9" transform="translate(504.4 240.5)" fill="#fff"/>
    <path id="Path_4" data-name="Path 4" d="M70.9,11.6a7.551,7.551,0,0,0,1.4-1.1c1.7-1.7,2.2-3.7,1.2-4.6a1.9,1.9,0,0,0-1.3-.5,5.242,5.242,0,0,0-3.4,1.7,5.675,5.675,0,0,0-1.5,2.4h0a7.911,7.911,0,0,0-1.5-2.4,5.037,5.037,0,0,0-3.4-1.7,1.9,1.9,0,0,0-1.3.5c-1,1-.4,3,1.2,4.6a11,11,0,0,0,1.4,1.1H60.3v5.9h5.9V11.6h2v5.9h5.9V11.6ZM62.2,6.8a.367.367,0,0,1,.3-.1A4.066,4.066,0,0,1,64.9,8c1.2,1.2,1.5,2.4,1.2,2.7a.367.367,0,0,1-.3.1,4.066,4.066,0,0,1-2.4-1.3C62.2,8.3,61.9,7,62.2,6.8m6.5,3A4.723,4.723,0,0,1,69.9,8a4.066,4.066,0,0,1,2.4-1.3.367.367,0,0,1,.3.1c.3.3,0,1.5-1.2,2.7A4.066,4.066,0,0,1,69,10.8a.367.367,0,0,1-.3-.1q-.3-.15,0-.9" transform="translate(436 221)" fill="#fff"/>
  </g>
</svg>
