<svg xmlns="http://www.w3.org/2000/svg" xmlns:xlink="http://www.w3.org/1999/xlink" width="42" height="42" viewBox="0 0 42 42">
  <defs>
    <filter id="Path_14" x="0" y="0" width="42" height="42" filterUnits="userSpaceOnUse">
      <feOffset input="SourceAlpha"/>
      <feGaussianBlur stdDeviation="3" result="blur"/>
      <feFlood flood-opacity="0.404"/>
      <feComposite operator="in" in2="blur"/>
      <feComposite in="SourceGraphic"/>
    </filter>
  </defs>
  <g id="ic-radio-active" transform="translate(-469 -80)">
    <g transform="matrix(1, 0, 0, 1, 469, 80)" filter="url(#Path_14)">
      <path id="Path_14-2" data-name="Path 14" d="M24,12A12.043,12.043,0,0,1,11.931,24,12.2,12.2,0,0,1,0,12a12,12,0,1,1,24,0" transform="translate(9 9)" fill="#fff"/>
    </g>
    <path id="Path_13" data-name="Path 13" d="M16,8a8.029,8.029,0,0,1-8.046,8A8.132,8.132,0,0,1,0,8,8,8,0,1,1,16,8" transform="translate(482 93)" fill="#ffa150"/>
  </g>
</svg>
