<svg xmlns="http://www.w3.org/2000/svg" width="48" height="48" viewBox="0 0 48 48">
  <g id="ic-logout_submenu" transform="translate(-9048 2921)">
    <rect id="Rectangle_31" data-name="Rectangle 31" width="48" height="48" transform="translate(9048 -2921)" fill="rgba(160,160,160,0)"/>
    <path id="联合_63" data-name="联合 63" d="M4,35a4,4,0,0,1-4-4V4A4,4,0,0,1,4,0H22a4,4,0,0,1,4,4V9H22V4H4V31H22V25.02h4V31a4.005,4.005,0,0,1-4,4ZM29.559,20.462H13.968v-7.7H29.559V7.015l9.6,9.6-9.6,9.6Z" transform="translate(9055 -2914)" fill="#8a837f"/>
  </g>
</svg>
