<svg xmlns="http://www.w3.org/2000/svg" width="48" height="48" viewBox="0 0 48 48">
  <g id="ic-memberInfo_submenu" transform="translate(26 -23)">
    <rect id="Rectangle_30" data-name="Rectangle 30" width="48" height="48" transform="translate(-26 23)" fill="rgba(160,160,160,0)"/>
    <g id="Group_25" data-name="Group 25" transform="translate(-1202.605 -263.169)">
      <g id="Group_24" data-name="Group 24">
        <path id="减去_104" data-name="减去 104" d="M2453.35,9.363h-21.5a3.246,3.246,0,0,1-3.242-3.242v-28.71a3.246,3.246,0,0,1,3.242-3.242h21.5a3.246,3.246,0,0,1,3.243,3.242V6.121A3.246,3.246,0,0,1,2453.35,9.363ZM2432.531-.573V1.9h20.133V-.573Zm0-6.808v2.472h20.133V-7.381Zm0-6.809v2.472h20.133V-14.19Zm0-6.809v2.471h20.133V-21Z" transform="translate(-1245 319)" fill="#78726f"/>
      </g>
      <rect id="Rectangle_25" data-name="Rectangle 25" width="3.108" height="18.432" transform="matrix(0.701, 0.713, -0.713, 0.701, 1220.807, 302.68)" fill="#78726f"/>
    </g>
  </g>
</svg>
