<svg xmlns="http://www.w3.org/2000/svg" width="48" height="48" viewBox="0 0 48 48">
  <g id="ic-memberInfo-w_submenu" transform="translate(26 -23)">
    <rect id="Rectangle_30" data-name="Rectangle 30" width="48" height="48" transform="translate(-26 23)" fill="rgba(160,160,160,0)"/>
    <g id="Group_25" data-name="Group 25" transform="translate(-1202.605 -263.169)">
      <g id="Group_24" data-name="Group 24">
        <path id="减去_106" data-name="减去 106" d="M-7904.65,3204.364h-21.5a3.245,3.245,0,0,1-3.242-3.242v-28.71a3.246,3.246,0,0,1,3.242-3.244h21.5a3.247,3.247,0,0,1,3.242,3.244v28.71A3.246,3.246,0,0,1-7904.65,3204.364Zm-20.819-9.936v2.472h20.133v-2.472Zm0-6.808v2.472h20.133v-2.472Zm0-6.81v2.472h20.133v-2.472Zm0-6.808v2.472h20.133V3174Z" transform="translate(9113 -2876)" fill="#fef8f2"/>
      </g>
      <rect id="Rectangle_25" data-name="Rectangle 25" width="3.108" height="18.432" transform="matrix(0.701, 0.713, -0.713, 0.701, 1220.807, 302.68)" fill="#fef8f2"/>
    </g>
  </g>
</svg>
