<svg xmlns="http://www.w3.org/2000/svg" width="48" height="48" viewBox="0 0 48 48">
  <g id="ic-vip-w_submenu" transform="translate(204 -23)">
    <rect id="Rectangle_27" data-name="Rectangle 27" width="48" height="48" transform="translate(-204 23)" fill="rgba(160,160,160,0)"/>
    <g id="Group_24" data-name="Group 24" transform="translate(-775.901 -265.964)">
      <path id="减去_107" data-name="减去 107" d="M-8642.671,3204.177a3.6,3.6,0,0,1-3.549-2.98l-3.248-18.315a3.615,3.615,0,0,1,2.925-4.185l34.4-6.1a3.636,3.636,0,0,1,.633-.056,3.606,3.606,0,0,1,3.552,2.98l3.25,18.315a3.594,3.594,0,0,1-.6,2.7,3.583,3.583,0,0,1-2.328,1.486l-34.405,6.1A3.651,3.651,0,0,1-8642.671,3204.177Zm-.517-20.445h0l2.831,4.734.662-.117,1.01-5.392.723-.2-.048-.263-1.887.334.048.265.836-.074-.8,4.4-2.249-3.879.79-.191-.046-.265-2.555.454.045.263.642-.07Zm6.278-1.1h0c.148.791.283,1.527.4,2.188l.059.334.065.374c.116.656.219,1.246.308,1.827l-.675.174.048.263,2.425-.43-.048-.267-.692.076c-.122-.648-.248-1.348-.4-2.2l-.059-.334c-.15-.83-.273-1.547-.376-2.193l.678-.167-.048-.265-2.425.43.044.263.7-.07Zm3.178-.562h0c.118.56.217,1.132.313,1.685l.006.032c.014.076.026.151.04.227l.041.237.059.336.032.18c.012.063.022.125.034.188l0,.015c.108.6.221,1.22.307,1.818l-.71.178.048.265,2.62-.465-.05-.265-.845.089c-.108-.535-.22-1.116-.33-1.73l.639-.113a2.748,2.748,0,0,0,1.848-.924,1.558,1.558,0,0,0,.217-1.2c-.148-.854-.7-1.27-1.7-1.27a4.953,4.953,0,0,0-.858.084l-2.492.441.048.265.73-.072Zm1.518,2.5h0l-.089-.5-.017-.093-.011-.059c-.12-.686-.245-1.4-.344-2.077l.721-.128a1.2,1.2,0,0,1,.337-.05,1.167,1.167,0,0,1,.675.217,1.166,1.166,0,0,1,.479.907,1.287,1.287,0,0,1-.147,1.114,1.3,1.3,0,0,1-.975.56l-.629.108Z" transform="translate(9223 -2875)" fill="#fef8f2"/>
    </g>
  </g>
</svg>
