<svg xmlns="http://www.w3.org/2000/svg" width="48" height="48" viewBox="0 0 48 48">
  <g id="ic-vip_submenu" transform="translate(204 -23)">
    <rect id="Rectangle_27" data-name="Rectangle 27" width="48" height="48" transform="translate(-204 23)" fill="rgba(160,160,160,0)"/>
    <g id="Group_24" data-name="Group 24" transform="translate(-775.901 -265.964)">
      <rect id="Rectangle_19" data-name="Rectangle 19" width="42.161" height="25.821" rx="3.61" transform="translate(572.901 304.328) rotate(-10.059)" fill="#8a837f"/>
      <g id="Group_22" data-name="Group 22">
        <g id="Group_21" data-name="Group 21">
          <path id="Path_8" data-name="Path 8" d="M585.039,307.758l-.724.2-1.01,5.391-.663.117-2.827-4.732-.643.07-.046-.264,2.555-.453.046.264-.79.191,2.248,3.879.8-4.4-.834.074-.047-.264,1.885-.335Z" fill="#fff"/>
          <path id="Path_9" data-name="Path 9" d="M587.146,307.437c.113.715.243,1.451.375,2.193l.059.335c.131.735.261,1.471.4,2.2l.694-.072.047.265-2.426.429-.047-.263.676-.172c-.114-.723-.244-1.458-.376-2.2l-.059-.335c-.129-.728-.26-1.463-.4-2.189l-.694.071-.046-.263,2.425-.43.047.264Z" fill="#fff"/>
          <path id="Path_10" data-name="Path 10" d="M590.838,309.858c.084.471.2,1.1.329,1.731l.845-.091.047.264-2.619.465-.047-.265.712-.178c-.106-.724-.244-1.458-.376-2.2l-.059-.336c-.129-.727-.251-1.457-.4-2.182l-.732.072-.047-.264,2.491-.442c1.634-.29,2.382.188,2.559,1.187s-.318,1.817-2.066,2.126Zm-.514-3.022c.108.731.241,1.481.374,2.23l.089.5.628-.111a1.271,1.271,0,0,0,1.124-1.672,1.157,1.157,0,0,0-1.494-1.074Z" fill="#fff"/>
        </g>
      </g>
    </g>
  </g>
</svg>
