<svg xmlns="http://www.w3.org/2000/svg" width="48" height="48" viewBox="0 0 48 48">
  <g id="ic-vip-w_submenu" transform="translate(204 -23)">
    <rect id="Rectangle_27" data-name="Rectangle 27" width="48" height="48" transform="translate(-204 23)" fill="rgba(160,160,160,0)"/>
    <g id="Group_24" data-name="Group 24" transform="translate(-775.901 -265.964)">
      <path id="减去_105" data-name="减去 105" d="M1599.33,9.178a3.6,3.6,0,0,1-3.55-2.98l-3.249-18.315a3.615,3.615,0,0,1,2.924-4.185l34.4-6.1a3.644,3.644,0,0,1,.635-.056,3.6,3.6,0,0,1,3.55,2.98l3.249,18.315a3.585,3.585,0,0,1-.6,2.7,3.586,3.586,0,0,1-2.328,1.488l-34.4,6.1A3.645,3.645,0,0,1,1599.33,9.178Zm-.516-20.444h0l2.827,4.732.663-.117,1.01-5.391.724-.2-.05-.263-1.885.336.047.264.833-.074-.8,4.4-2.247-3.879.789-.192-.046-.264-2.555.453.046.265.643-.07Zm6.274-1.106h0c.139.718.273,1.472.391,2.137l.009.051.058.336c.126.7.258,1.455.376,2.2l-.676.172.047.263,2.426-.428-.048-.266-.694.072c-.133-.7-.26-1.414-.383-2.106l0-.022-.013-.071-.059-.335,0-.021c-.127-.718-.259-1.461-.371-2.172l.675-.167-.048-.264-2.425.43.046.263.693-.071Zm3.182-.562h0c.118.576.221,1.166.321,1.735l0,.011.017.1.059.336.059.336q.039.218.078.434l.009.052c.1.564.206,1.147.288,1.714l-.712.178.047.265,2.619-.465-.047-.264-.845.091c-.135-.66-.253-1.305-.328-1.731l.637-.113a2.961,2.961,0,0,0,1.755-.8,1.517,1.517,0,0,0,.311-1.322,1.485,1.485,0,0,0-1.7-1.271,4.965,4.965,0,0,0-.856.084l-2.491.442.047.265.732-.072Zm1.516,2.5h0l-.089-.5-.01-.055V-11c-.127-.717-.258-1.458-.363-2.168l.721-.127a1.168,1.168,0,0,1,.337-.05,1.15,1.15,0,0,1,.676.218,1.162,1.162,0,0,1,.482.906,1.283,1.283,0,0,1-.15,1.113,1.281,1.281,0,0,1-.974.559l-.627.111Z" transform="translate(-1019 320)" fill="#fef8f2"/>
    </g>
  </g>
</svg>
