<svg xmlns="http://www.w3.org/2000/svg" width="48" height="48" viewBox="0 0 48 48">
  <g id="ic-wish_submenu" transform="translate(86 -23)">
    <rect id="Rectangle_29" data-name="Rectangle 29" width="48" height="48" transform="translate(-86 23)" fill="rgba(160,160,160,0)"/>
    <g id="Group_23" data-name="Group 23" transform="translate(-1064.196 -263.976)">
      <path id="Path_1" data-name="Path 1" d="M1001.97,300.4a10.2,10.2,0,0,1,5.349-4.04c4.518-1.352,9.292,1.075,11.3,5.785s.963,9.028-1.886,13.026c-3.724,5.224-8.819,8.843-14.307,11.972a1.086,1.086,0,0,1-.911.033c-5.8-3.34-11.232-7.143-14.935-12.892-2.709-4.208-3.3-8.65-.773-13.167,3.526-6.317,11.162-6.9,15.694-1.258C1001.62,300.014,1001.76,300.16,1001.97,300.4Z" fill="#78726f"/>
    </g>
  </g>
</svg>
