<svg xmlns="http://www.w3.org/2000/svg" xmlns:xlink="http://www.w3.org/1999/xlink" width="1200" height="800" viewBox="0 0 1200 800">
  <defs>
    <linearGradient id="linear-gradient" y1="0.5" x2="1" y2="0.5" gradientUnits="objectBoundingBox">
      <stop offset="0" stop-color="#ff8f6a"/>
      <stop offset="0.193" stop-color="#ff9b72"/>
      <stop offset="0.545" stop-color="#ffbb87"/>
      <stop offset="1" stop-color="#fea"/>
    </linearGradient>
    <linearGradient id="linear-gradient-2" y1="0.5" x2="1" y2="0.5" gradientUnits="objectBoundingBox">
      <stop offset="0" stop-color="#fa992d"/>
      <stop offset="0.193" stop-color="#ff9b72"/>
      <stop offset="0.545" stop-color="#ffbb87"/>
      <stop offset="1" stop-color="#fea"/>
    </linearGradient>
  </defs>
  <g id="bg" transform="translate(0 0)">
    <g id="组_17538" data-name="组 17538" transform="translate(0 0)" opacity="0.51">
      <g id="组_17537" data-name="组 17537">
        <g id="组_17536" data-name="组 17536">
          <g id="组_17535" data-name="组 17535">
            <path id="路径_34241" data-name="路径 34241" d="M1151.713,171.094c49.639,47.391,82.276,111.989,77.961,172.433-4.474,62.7-38.377,119.918-27.185,184.7,6.4,37.04,23.98,73.031,24.87,110.365,4.211,176.4-384.771,318.037-530.448,148.925-9.985-11.593-18.109-24.339-31.592-33.835-16.8-11.831-41.392-17.407-64.355-14.591-37.025,4.54-68.974,24.78-105.087,32.923a462.947,462.947,0,0,1-100.919,11.059c-67.871.1-135.676-13.912-194.267-38.919C83.656,694.2,10.971,600.346,34.457,500.229c13.9-59.249,61.652-111.251,115.053-156.83,102.142-87.18,229.058-158.086,368.057-211.1C629.877,89.46,754.546,57.632,880.78,64.347,992.382,70.286,1088.876,111.1,1151.713,171.094Z" transform="translate(-30.056 -63.451)" fill="url(#linear-gradient)"/>
          </g>
        </g>
      </g>
    </g>
    <path id="路径_34242" data-name="路径 34242" d="M1232.766,307.939c10.944,53.677-3.059,115.392-44.933,161.744-43.445,48.086-107.707,82.212-139.529,137.058-18.2,31.362-26.493,65.55-49.423,95.343C890.539,842.849,479.58,827.6,466.5,646.345c-.895-12.425.477-25.152-4.636-37.063-6.371-14.843-23.14-27.289-43.888-32.57-33.448-8.519-72.657-2.969-107.636-8.34A421.173,421.173,0,0,1,220,544.117C163.9,522,116.8,488.766,84.267,449.851c-64.968-77.73-65.489-175.659,17.37-247.095C150.67,160.483,223.062,135,296.049,116.444c139.6-35.493,289.336-50.033,437.711-46.483,119.887,2.868,243,18.475,342.967,65.052C1165.111,176.19,1218.911,239.994,1232.766,307.939Z" transform="translate(-36.337 3.085)" opacity="0.5" fill="url(#linear-gradient-2)"/>
  </g>
</svg>
