<svg xmlns="http://www.w3.org/2000/svg" xmlns:xlink="http://www.w3.org/1999/xlink" width="1920" height="1080" viewBox="0 0 1920 1080">
  <defs>
    <linearGradient id="linear-gradient" x1="1.048" y1="0.009" x2="0.133" y2="0.805" gradientUnits="objectBoundingBox">
      <stop offset="0" stop-color="#fff"/>
      <stop offset="1" stop-color="#fff" stop-opacity="0"/>
    </linearGradient>
    <linearGradient id="linear-gradient-2" x1="0.923" y1="-0.339" x2="0.201" y2="0.946" xlink:href="#linear-gradient"/>
    <linearGradient id="linear-gradient-3" x1="1.15" y1="-0.034" x2="0.161" y2="0.814" xlink:href="#linear-gradient"/>
    <filter id="路径_581" x="757.222" y="267.131" width="407.19" height="67.359" filterUnits="userSpaceOnUse">
      <feOffset dy="4" input="SourceAlpha"/>
      <feGaussianBlur stdDeviation="3" result="blur"/>
      <feFlood flood-color="#fff"/>
      <feComposite operator="in" in2="blur"/>
      <feComposite in="SourceGraphic"/>
    </filter>
  </defs>
  <g id="bg_fee" transform="translate(5883 -3864)">
    <rect id="矩形_3352" data-name="矩形 3352" width="1920" height="1080" transform="translate(-5883 3864)" fill="#f6e5de"/>
    <g id="组_17879" data-name="组 17879" transform="translate(-6200 3881)">
      <g id="组_17617" data-name="组 17617" transform="translate(-350)">
        <rect id="矩形_3201" data-name="矩形 3201" width="1120" height="210" rx="10" transform="translate(1067 561)" fill="#fff"/>
        <g id="矩形_3265" data-name="矩形 3265" transform="translate(1097 627)" fill="#ffe9d0" stroke="#fff" stroke-width="1">
          <rect width="395" height="63" stroke="none"/>
          <rect x="0.5" y="0.5" width="394" height="62" fill="none"/>
        </g>
        <path id="路径_590" data-name="路径 590" d="M-13.608.312c3.864,0,6.216-2.3,6.216-5.136,0-2.592-1.512-3.888-3.6-4.776l-2.424-1.032c-1.44-.576-2.856-1.152-2.856-2.664,0-1.416,1.176-2.28,2.976-2.28a5.626,5.626,0,0,1,3.888,1.584l1.464-1.776A7.566,7.566,0,0,0-13.3-18c-3.36,0-5.808,2.088-5.808,4.872,0,2.568,1.9,3.912,3.6,4.632l2.448,1.056c1.632.72,2.832,1.224,2.832,2.832,0,1.488-1.2,2.5-3.336,2.5a6.848,6.848,0,0,1-4.7-2.088L-19.9-2.28A8.812,8.812,0,0,0-13.608.312ZM.96-1.8c-1.9,0-3.168-1.656-3.456-5.16A4.111,4.111,0,0,1,.792-9.024c1.9,0,2.9,1.272,2.9,3.552S2.5-1.8.96-1.8ZM5.976-16.1A5.932,5.932,0,0,0,1.56-18c-3.48,0-6.672,2.712-6.672,9.5,0,6,2.736,8.808,6.1,8.808,2.88,0,5.28-2.28,5.28-5.784,0-3.744-1.992-5.568-4.968-5.568A5.311,5.311,0,0,0-2.544-9c.12-5.04,1.992-6.744,4.248-6.744a3.8,3.8,0,0,1,2.76,1.32ZM14.136.312c3.456,0,5.712-3.072,5.712-9.216,0-6.1-2.256-9.1-5.712-9.1-3.48,0-5.712,2.976-5.712,9.1C8.424-2.76,10.656.312,14.136.312Zm0-2.184c-1.8,0-3.072-1.92-3.072-7.032,0-5.064,1.272-6.912,3.072-6.912s3.072,1.848,3.072,6.912C17.208-3.792,15.936-1.872,14.136-1.872Z" transform="translate(1295 668)" fill="#9f611c"/>
        <g id="矩形_3273" data-name="矩形 3273" transform="translate(1491 627)" fill="#ffe9d0" stroke="#fff" stroke-width="1">
          <rect width="348" height="63" stroke="none"/>
          <rect x="0.5" y="0.5" width="347" height="62" fill="none"/>
        </g>
        <path id="路径_593" data-name="路径 593" d="M-43.824-9.816a17.445,17.445,0,0,0-1.512-1.968,17.971,17.971,0,0,0,1.7-2.424l-1.464-.264a9.431,9.431,0,0,1-1.152,1.656l-.84-.84a12.094,12.094,0,0,0,1.32-1.944l-1.44-.24a6.106,6.106,0,0,1-.84,1.272,14.044,14.044,0,0,0-1.128-.96l-1.176.744c.456.384.912.792,1.344,1.224a10.382,10.382,0,0,1-1.944,1.488,3.322,3.322,0,0,1,.936.984A12.991,12.991,0,0,0-48.072-12.6a9.407,9.407,0,0,1,.816.888,14.548,14.548,0,0,1-2.88,2.16,3.666,3.666,0,0,1,.912,1.008,17.807,17.807,0,0,0,2.856-2.16,16.4,16.4,0,0,1,1.3,1.8Zm.288,1.44h-7.488v-7.7h7.488Zm2.016-9.5h-6c.288-.6.672-1.32,1.032-2.016l-2.28-.384a19.606,19.606,0,0,1-.768,2.4h-3.432V-6.552H-41.52ZM-44.688-2.736c-.48-.912-1.512-2.5-2.256-3.648l-1.44.672c.744,1.224,1.7,2.856,2.184,3.816Zm-9.024-3.5a31.605,31.605,0,0,0-1.44-4.584l-1.536.432a18.053,18.053,0,0,1,.6,1.824l-3.144.552a47.333,47.333,0,0,0,5.064-7.632l-1.824-.96a32.193,32.193,0,0,1-1.68,3.264l-2.136.168A36.222,36.222,0,0,0-56.5-19.368l-1.992-.816a27.3,27.3,0,0,1-2.76,5.952c-.456.72-.84,1.2-1.248,1.32.216.528.528,1.488.648,1.9a11.543,11.543,0,0,1,3.072-.576,23.307,23.307,0,0,1-1.8,2.568c-.7.864-1.224,1.464-1.776,1.584a10.483,10.483,0,0,1,.672,1.872c.456-.264,1.2-.5,6.048-1.44q.18.72.288,1.3ZM-61.128-4.7A21.613,21.613,0,0,1-62.376.768a9.981,9.981,0,0,1,1.56.576,28.021,28.021,0,0,0,1.32-5.76Zm2.256.264A44.874,44.874,0,0,1-58.3.624L-56.712.24a41.112,41.112,0,0,0-.648-5.016ZM-56.64-4.9A29.16,29.16,0,0,1-55.7-.864l1.536-.48a32.331,32.331,0,0,0-1.008-3.984ZM-53.016.816a24.156,24.156,0,0,0,1.608-5.232l-1.56-.576A19.6,19.6,0,0,1-54.624.072Zm4.7-1.056c-.816,0-.936-.1-.936-.648V-4.944H-51.12V-.888c0,1.752.5,2.256,2.568,2.256h3.144c1.656,0,2.16-.672,2.376-3.288a4.661,4.661,0,0,1-1.656-.7c-.1,2.064-.24,2.376-.912,2.376Zm4.44-4.272A52.7,52.7,0,0,1-41.9.432l1.632-.744c-.456-1.272-1.32-3.264-2.088-4.824Zm10.512-2.5V-8.472h4.752v1.464Zm0-4.368h4.752v1.488H-33.36Zm12.024,0v1.488h-5.04v-1.488Zm0,4.368h-5.04V-8.472h5.04Zm-5.04,6.384v-1.7h8.208V-4.08h-8.208V-5.448h7.32v-7.464h-7.32v-1.224H-16.8v-1.776h-9.576V-17.5c2.712-.192,5.28-.456,7.344-.816l-1.128-1.752a130.134,130.134,0,0,1-15.984,1.248,6.965,6.965,0,0,1,.456,1.752c2.232-.048,4.68-.12,7.08-.264v1.416h-9.336v1.776h9.336v1.224h-6.936v7.464h6.936V-4.08h-7.68v1.752h7.68v1.7h-9.456v1.8h21.432v-1.8ZM2.04-17.088H-8.928v-1.08H2.04Zm0,2.28H-8.928v-1.1H2.04ZM4.3-19.392H-11.088v5.808H4.3Zm3.072,6.72H-14.064v1.632H7.368ZM-9.408-5.4V-6.528h4.92V-5.4Zm0-3.456h4.92v1.1h-4.92ZM2.76-7.752H-2.328v-1.1H2.76Zm0,2.352H-2.328V-6.528H2.76ZM-2.328-.384V-1.536H5.424V-3.048H-2.328v-1.08H4.944v-6H-11.52v6h7.032v1.08H-12.12v1.512h7.632V-.384H-14.16v1.7H7.464v-1.7ZM21.384-3.312V-5.64l-5.4-1.944L12.36-8.9V-9l3.624-1.344,5.4-1.92v-2.352L9.528-9.984V-7.92ZM28.728.312a5.828,5.828,0,0,0,5.952-6.12c0-3.864-2.424-5.616-5.376-5.616a4.98,4.98,0,0,0-2.424.624l.408-4.536H33.84v-2.328H24.888L24.36-9.288,25.7-8.4a4.647,4.647,0,0,1,2.832-1.008c2.016,0,3.36,1.344,3.36,3.7a3.452,3.452,0,0,1-3.5,3.768,5.652,5.652,0,0,1-4.128-1.9l-1.32,1.8A7.817,7.817,0,0,0,28.728.312ZM38.064,0h2.688V-3.408l2.232-2.568L46.56,0h3L44.568-7.848,49.056-13.2H46.008L40.824-6.792h-.072V-19.128H38.064ZM56.112,5.928c4.224,0,6.912-2.064,6.912-4.608,0-2.256-1.632-3.216-4.752-3.216H55.848c-1.68,0-2.208-.5-2.208-1.3a1.75,1.75,0,0,1,.72-1.392,4.588,4.588,0,0,0,1.848.408c2.76,0,4.944-1.656,4.944-4.536a3.569,3.569,0,0,0-.864-2.424h2.52V-13.2h-4.68a5.5,5.5,0,0,0-1.92-.336c-2.736,0-5.112,1.752-5.112,4.752a4.517,4.517,0,0,0,1.728,3.5v.1A3.257,3.257,0,0,0,51.36-2.736a2.427,2.427,0,0,0,1.2,2.184v.12a3.488,3.488,0,0,0-1.92,2.88C50.64,4.752,52.944,5.928,56.112,5.928Zm.1-11.88a2.574,2.574,0,0,1-2.5-2.832,2.513,2.513,0,0,1,2.5-2.808,2.526,2.526,0,0,1,2.5,2.808A2.574,2.574,0,0,1,56.208-5.952ZM56.52,4.1c-2.184,0-3.528-.768-3.528-2.064A2.374,2.374,0,0,1,54.12.12,8.391,8.391,0,0,0,55.9.312h1.992c1.608,0,2.472.336,2.472,1.44C60.36,2.976,58.824,4.1,56.52,4.1Z" transform="translate(1665 668)" fill="#9f611c"/>
        <g id="矩形_3279" data-name="矩形 3279" transform="translate(1838 627)" fill="#ffe9d0" stroke="#fff" stroke-width="1">
          <rect width="319" height="63" stroke="none"/>
          <rect x="0.5" y="0.5" width="318" height="62" fill="none"/>
        </g>
        <path id="路径_596" data-name="路径 596" d="M-47.136,0h10.08V-2.28h-3.456V-17.664H-42.6a10.851,10.851,0,0,1-3.84,1.344v1.752h3.168V-2.28h-3.864Zm14.88-6.888,3.48-5.328c.5-.912.984-1.824,1.416-2.712h.1c-.048.96-.144,2.448-.144,3.408v4.632Zm9.7,0h-2.256V-17.664h-3.192L-35.04-6.6v1.848h7.632V0h2.592V-4.752h2.256Zm7.152,7.2a5.828,5.828,0,0,0,5.952-6.12c0-3.864-2.424-5.616-5.376-5.616a4.98,4.98,0,0,0-2.424.624l.408-4.536H-10.3v-2.328h-8.952l-.528,8.376,1.344.888A4.647,4.647,0,0,1-15.6-9.408c2.016,0,3.36,1.344,3.36,3.7a3.452,3.452,0,0,1-3.5,3.768,5.652,5.652,0,0,1-4.128-1.9l-1.32,1.8A7.817,7.817,0,0,0-15.408.312ZM12.336-18.36H-4.56v2.16h16.9ZM8.9-.624C8.04-.624,7.9-.768,7.9-1.632V-9.624h6.528v-2.16h-21.1v2.16H-.888C-1.224-5.4-2.04-1.824-7.056.048a5.867,5.867,0,0,1,1.392,1.8C-.024-.408,1.056-4.56,1.488-9.624h4.1v8.016c0,2.352.624,3.1,3,3.1h3.192c2.232,0,2.808-1.176,3.048-5.328a7.14,7.14,0,0,1-2.088-.96c-.1,3.552-.24,4.176-1.128,4.176ZM16.128,4.32h1.92L24.72-19.152H22.8ZM31.44-20.04a26.9,26.9,0,0,1-5.472,9.24,14.89,14.89,0,0,1,1.224,2.256,24,24,0,0,0,1.872-2.328V1.848h2.112v-16.08a37.044,37.044,0,0,0,2.352-5.184ZM48.1-8.448h-6.36V-13.2h5.28v-2.184h-5.28v-4.464H39.5v4.464H36.816c.288-1.008.552-2.04.768-3.072l-2.16-.432A21.335,21.335,0,0,1,32.568-10.9a14.746,14.746,0,0,1,1.92,1.08A17.119,17.119,0,0,0,36.1-13.2H39.5v4.752H32.856v2.184H39.5V1.872h2.232V-6.264H48.1Z" transform="translate(1998 668)" fill="#9f611c"/>
        <g id="矩形_3263" data-name="矩形 3263" transform="translate(1097 578)" fill="#ef7e00" stroke="#fff" stroke-width="1">
          <rect width="395" height="50" stroke="none"/>
          <rect x="0.5" y="0.5" width="394" height="49" fill="none"/>
        </g>
        <path id="路径_589" data-name="路径 589" d="M-48.024-17.376a29.617,29.617,0,0,0,6.48,5.928H-54.576A34.743,34.743,0,0,0-48.024-17.376Zm1.128,13.1h6.528V-6.216H-46.9V-9.48h5.5v-1.872A23.6,23.6,0,0,0-38.3-9.6a10.789,10.789,0,0,1,1.512-2.016,23.122,23.122,0,0,1-10.032-7.848H-54.48v2.088h3.816a28.8,28.8,0,0,1-8.472,6.048A8.36,8.36,0,0,1-57.744-9.5a28.173,28.173,0,0,0,3.12-1.92V-9.48h5.376v3.264H-55.7v1.944h6.456V-.744h-8.808V1.272H-37.8V-.744h-9.1ZM-31.848-16.08h15.72v3.1h2.28V-18.1h-8.664a14.984,14.984,0,0,0-1.128-2.232l-2.328.672a13.407,13.407,0,0,1,.744,1.56h-8.784v5.112h2.16Zm14.568,4.488a38.634,38.634,0,0,1-4.9,3.84,10.291,10.291,0,0,0-2.3-3.336,15.591,15.591,0,0,0,1.56-1.176h5.688v-1.92H-30.816v1.92h4.872A26.766,26.766,0,0,1-34.08-9.192,10.812,10.812,0,0,1-32.9-7.416,32.6,32.6,0,0,0-26.136-10.1,9.862,9.862,0,0,1-25.2-8.952a29.975,29.975,0,0,1-9,3.768,10.816,10.816,0,0,1,1.128,1.752,39.906,39.906,0,0,0,8.76-4.056,10.2,10.2,0,0,1,.5,1.344A28.294,28.294,0,0,1-34.584-1.032,8.007,8.007,0,0,1-33.408.816a35.145,35.145,0,0,0,9.984-4.9c.1,1.632-.264,2.928-.84,3.408a1.679,1.679,0,0,1-1.44.528c-.528,0-1.3-.048-2.136-.12a5.413,5.413,0,0,1,.6,2.088,19.415,19.415,0,0,0,1.992.048,3.248,3.248,0,0,0,2.592-.96c1.3-1.008,1.872-3.864,1.1-6.84.312-.192.648-.384.96-.576A12.673,12.673,0,0,0-14.3.888a7.636,7.636,0,0,1,1.464-1.8,10.924,10.924,0,0,1-6-6.72c1.176-.816,2.352-1.656,3.384-2.5ZM-.7-8.232c-.552-.648-2.856-3.216-3.792-4.128v-.624h3.144V-15.12H-4.488v-5.016H-6.744v5.016h-3.84v2.136h3.552a24.219,24.219,0,0,1-4.3,8.544,12.561,12.561,0,0,1,1.176,2.16A22.161,22.161,0,0,0-6.744-8.64V1.9h2.256V-9.744A41.887,41.887,0,0,1-2.064-6.312ZM10.968-15.12H8.592v-4.992H6.24v4.992H-.552v2.136h6.1A25.412,25.412,0,0,1-2.208-3.576,9.5,9.5,0,0,1-.6-1.776,28.675,28.675,0,0,0,6.24-9.864v8.88c0,.432-.168.576-.6.576C5.208-.384,3.7-.384,2.256-.432a10.737,10.737,0,0,1,.792,2.28,12.362,12.362,0,0,0,4.344-.432c.864-.36,1.2-.984,1.2-2.4v-12h2.376ZM21.936-7.2c-.432-.528-2.256-2.424-3.048-3.12V-11.5h2.568v-1.032H34.944v-1.464h-5.76v-1.056h4.632V-16.44H29.184v-1.032h5.208v-1.44H29.184v-1.224H26.952v1.224h-4.9v1.44h4.9v1.032H22.536v1.392h4.416v1.056h-5.64v.408H18.888v-3.648a24.124,24.124,0,0,0,2.952-.888l-1.536-1.7a33.432,33.432,0,0,1-7.248,1.752,6.88,6.88,0,0,1,.648,1.728c.96-.12,1.992-.264,3.024-.456v3.216H13.272V-11.5H16.56A24.593,24.593,0,0,1,12.648-4.32a12.115,12.115,0,0,1,1.1,2.064A25.106,25.106,0,0,0,16.728-7.68V1.848h2.16V-8.04A26.113,26.113,0,0,1,20.64-5.448Zm9.648-1.56h-6.7v-1.3h6.7Zm0,2.688h-6.7v-1.32h6.7Zm0,2.688h-6.7V-4.7h6.7ZM33.672-11.5h-10.8v9.552h2.544a16.438,16.438,0,0,1-5.208,2.5,11.422,11.422,0,0,1,1.416,1.44,19.958,19.958,0,0,0,5.712-2.88L25.68-1.944h7.992ZM29.184-.864c1.464.912,3.144,2.064,4.08,2.784L35.208.84C34.1.1,32.256-1.032,30.672-1.944Zm11.136-16.2H45.7v4.032H40.32Zm2.448,8.3c.1-.768.144-1.536.192-2.3h4.9v-7.968H38.28v7.968h2.5C40.56-6.888,40.032-2.232,36.816.36a5.589,5.589,0,0,1,1.536,1.56c2.52-2.112,3.624-5.3,4.176-8.688h3.36c-.192,4.32-.432,6.024-.84,6.456-.168.24-.408.264-.792.264a24.175,24.175,0,0,1-2.568-.12A4.612,4.612,0,0,1,42.312,1.8a18.1,18.1,0,0,0,2.9-.048A2.051,2.051,0,0,0,46.848.984C47.5.24,47.736-1.992,48-7.848c.024-.288.024-.912.024-.912Zm9.384-8.5h-2.16V-4.008h2.16Zm3.576-2.4V-.936c0,.432-.168.576-.624.6-.48,0-1.992.024-3.624-.048a10.335,10.335,0,0,1,.792,2.28,14.046,14.046,0,0,0,4.512-.384C57.624,1.1,57.96.456,57.96-.936v-18.72Z" transform="translate(1295 612)" fill="#fff"/>
        <g id="矩形_3272" data-name="矩形 3272" transform="translate(1491 578)" fill="#ef7e00" stroke="#fff" stroke-width="1">
          <rect width="348" height="50" stroke="none"/>
          <rect x="0.5" y="0.5" width="347" height="49" fill="none"/>
        </g>
        <path id="路径_594" data-name="路径 594" d="M-41.976-7.008V-8.472h4.752v1.464Zm0-4.368h4.752v1.488h-4.752Zm12.024,0v1.488h-5.04v-1.488Zm0,4.368h-5.04V-8.472h5.04Zm-5.04,6.384v-1.7h8.208V-4.08h-8.208V-5.448h7.32v-7.464h-7.32v-1.224h9.576v-1.776h-9.576V-17.5c2.712-.192,5.28-.456,7.344-.816l-1.128-1.752A130.134,130.134,0,0,1-44.76-18.816a6.965,6.965,0,0,1,.456,1.752c2.232-.048,4.68-.12,7.08-.264v1.416H-46.56v1.776h9.336v1.224H-44.16v7.464h6.936V-4.08H-44.9v1.752h7.68v1.7H-46.68v1.8h21.432v-1.8ZM-6.576-17.088H-17.544v-1.08H-6.576Zm0,2.28H-17.544v-1.1H-6.576Zm2.256-4.584H-19.7v5.808H-4.32Zm3.072,6.72H-22.68v1.632H-1.248ZM-18.024-5.4V-6.528h4.92V-5.4Zm0-3.456h4.92v1.1h-4.92Zm12.168,1.1h-5.088v-1.1h5.088Zm0,2.352h-5.088V-6.528h5.088ZM-10.944-.384V-1.536h7.752V-3.048h-7.752v-1.08h7.272v-6H-20.136v6H-13.1v1.08h-7.632v1.512H-13.1V-.384h-9.672v1.7H-1.152v-1.7ZM10.68-3.1C10.1-3.84,7.632-6.816,6.7-7.776c.048-.336.072-.648.1-.984h3.792V-10.8H6.912c.024-.528.024-1.008.024-1.488v-2.04h3.216V-16.32H6.936v-3.552H4.848v3.552H1.584v1.992H4.848v2.04c0,.48,0,.96-.024,1.488h-3.7v2.04h3.6C4.44-5.664,3.576-2.28.888,0A7.574,7.574,0,0,1,2.5,1.536,13.063,13.063,0,0,0,6.288-5.472,45.5,45.5,0,0,1,9.144-1.464Zm2.784-6.672h6.12V-7.8h-6.12Zm0-3.744h6.12v1.944h-6.12Zm0-3.72h6.12v1.92h-6.12ZM19.512-.5c-.432,0-.5-.048-.5-.624v-4.68H21.72V-19.224H11.376V-5.808H13.44C13.08-3.024,12.192-.96,8.616.216A6.005,6.005,0,0,1,9.864,1.9c4.128-1.512,5.28-4.152,5.688-7.7h1.392v4.68c0,1.992.432,2.592,2.232,2.592h1.848c1.368,0,1.92-.6,2.136-2.952A5.288,5.288,0,0,1,21.336-2.3c-.048,1.584-.168,1.8-.552,1.8Zm23.376-4.56v3.672H36.36V-5.064Zm-8.64,6.888H36.36V.576h6.528v1.2H45.1V-7.032H34.248Zm-.84-11.4c-.456-.6-2.328-3.072-2.928-3.672v-.288H32.9v-.216A11.839,11.839,0,0,1,34.08-12.12a17.159,17.159,0,0,0,1.728-1.944,14.068,14.068,0,0,0,2.376,2.712A23.693,23.693,0,0,1,32.928-9Zm9.48-6.288A13.051,13.051,0,0,1,39.84-12.5a12.143,12.143,0,0,1-2.88-3.312l.048-.048Zm1.656-2.064-.36.1h-6.12A18.4,18.4,0,0,0,38.88-19.7l-1.968-.552a15.921,15.921,0,0,1-4.008,6.24V-15.6H30.48v-4.512H28.368V-15.6H25.224v2.064h2.832A24.624,24.624,0,0,1,24.7-5.064a11.258,11.258,0,0,1,1.08,2.232A24.18,24.18,0,0,0,28.368-9V1.9H30.48V-10.656c.6,1.008,1.224,2.136,1.536,2.784l.24-.288a8.5,8.5,0,0,1,.768,1.44A26.151,26.151,0,0,0,39.96-9.96a21.661,21.661,0,0,0,6.48,2.976,7.983,7.983,0,0,1,.792-2.064,19.735,19.735,0,0,1-5.616-2.208,16.456,16.456,0,0,0,4.344-5.832Z" transform="translate(1665 612)" fill="#fff"/>
        <g id="矩形_3278" data-name="矩形 3278" transform="translate(1838 578)" fill="#ef7e00" stroke="#fff" stroke-width="1">
          <rect width="319" height="50" stroke="none"/>
          <rect x="0.5" y="0.5" width="318" height="49" fill="none"/>
        </g>
        <path id="路径_595" data-name="路径 595" d="M-17.472-4.3H-6.264v1.272H-17.472Zm7.08-8.016v1.584h-5.352a5.214,5.214,0,0,0,1.44-1.584Zm-5.3-2.664a4.465,4.465,0,0,1-.288,1.272h-2.784c.072-.408.144-.84.216-1.272Zm2.04-2.568h3.264v1.176h-3.264Zm8.544,0v1.176H-8.28v-1.176Zm-5.28,3.84H-13.8a5.436,5.436,0,0,0,.144-1.272h3.264Zm6.624,1.392a1.611,1.611,0,0,1-.24.744.67.67,0,0,1-.552.168c-.24,0-.816-.024-1.464-.1a4.691,4.691,0,0,1,.288.768H-8.28v-1.584Zm-2.5,4.176H-17.472V-9.36H-6.264Zm0,2.544H-17.472V-6.84H-6.264ZM-4.008-1.68v-8.376a3.389,3.389,0,0,0,.528-.024,1.919,1.919,0,0,0,1.248-.48,4.92,4.92,0,0,0,.624-2.5c.024-.24.048-.648.048-.648H-8.28v-1.272h5.208v-3.96H-8.28v-1.2h-2.112v1.2h-3.264v-1.2h-2.016v1.2h-5.664v1.392h5.664v1.176h-4.656a37.788,37.788,0,0,1-.648,4.056h3.96c-1.008.816-2.736,1.512-5.64,1.968A8.1,8.1,0,0,1-21.6-8.592a18.62,18.62,0,0,0,1.968-.432V-1.68h3.7A28.387,28.387,0,0,1-22.68.288,12.888,12.888,0,0,1-21.072,1.92,32.858,32.858,0,0,0-13.7-.912l-1.728-.768h6.36l-.912.888a61.086,61.086,0,0,1,6.912,2.64L-1.416.48C-2.9-.144-5.208-.984-7.464-1.68ZM13.3-7.344V-10.9H19.1v3.552Zm-7.536,0c.072-.888.1-1.776.1-2.592v-.96h5.208v3.552Zm5.3-9.024v3.384H5.856v-3.384Zm8.04,3.384H13.3v-3.384H19.1Zm2.232-5.52H3.648V-9.96c0,3.384-.24,7.632-2.856,10.536A7.387,7.387,0,0,1,2.544,2.04a13.767,13.767,0,0,0,3-7.272h5.52V1.632H13.3V-5.232H19.1v4.3c0,.456-.168.6-.6.6-.456,0-2.04.024-3.576-.048a9.222,9.222,0,0,1,.744,2.16,13.138,13.138,0,0,0,4.488-.384c.864-.336,1.176-1.008,1.176-2.3Z" transform="translate(1998 612)" fill="#fff"/>
        <g id="矩形_3274" data-name="矩形 3274" transform="translate(1097 689)" fill="#ffd9af" stroke="#fff" stroke-width="1">
          <rect width="395" height="63" stroke="none"/>
          <rect x="0.5" y="0.5" width="394" height="62" fill="none"/>
        </g>
        <path id="路径_591" data-name="路径 591" d="M-13.608.312c3.864,0,6.216-2.3,6.216-5.136,0-2.592-1.512-3.888-3.6-4.776l-2.424-1.032c-1.44-.576-2.856-1.152-2.856-2.664,0-1.416,1.176-2.28,2.976-2.28a5.626,5.626,0,0,1,3.888,1.584l1.464-1.776A7.566,7.566,0,0,0-13.3-18c-3.36,0-5.808,2.088-5.808,4.872,0,2.568,1.9,3.912,3.6,4.632l2.448,1.056c1.632.72,2.832,1.224,2.832,2.832,0,1.488-1.2,2.5-3.336,2.5a6.848,6.848,0,0,1-4.7-2.088L-19.9-2.28A8.812,8.812,0,0,0-13.608.312ZM.072-8.64c-1.848,0-2.856-1.3-2.856-3.552,0-2.3,1.2-3.672,2.712-3.672,1.92,0,3.24,1.584,3.5,5.064A4.237,4.237,0,0,1,.072-8.64ZM-5.064-1.56A6.062,6.062,0,0,0-.552.312c3.408,0,6.576-2.784,6.576-9.744C6.024-15.264,3.288-18-.1-18c-2.856,0-5.256,2.3-5.256,5.808,0,3.7,1.992,5.544,4.944,5.544A5.311,5.311,0,0,0,3.48-8.712C3.312-3.672,1.464-1.944-.672-1.944a3.938,3.938,0,0,1-2.9-1.32ZM14.136.312c3.456,0,5.712-3.072,5.712-9.216,0-6.1-2.256-9.1-5.712-9.1-3.48,0-5.712,2.976-5.712,9.1C8.424-2.76,10.656.312,14.136.312Zm0-2.184c-1.8,0-3.072-1.92-3.072-7.032,0-5.064,1.272-6.912,3.072-6.912s3.072,1.848,3.072,6.912C17.208-3.792,15.936-1.872,14.136-1.872Z" transform="translate(1295 730)" fill="#9f611c"/>
        <g id="矩形_3277" data-name="矩形 3277" transform="translate(1491 689)" fill="#ffd9af" stroke="#fff" stroke-width="1">
          <rect width="348" height="63" stroke="none"/>
          <rect x="0.5" y="0.5" width="347" height="62" fill="none"/>
        </g>
        <path id="路径_592" data-name="路径 592" d="M-50.664-9.816a17.445,17.445,0,0,0-1.512-1.968,17.971,17.971,0,0,0,1.7-2.424l-1.464-.264a9.431,9.431,0,0,1-1.152,1.656l-.84-.84a12.094,12.094,0,0,0,1.32-1.944l-1.44-.24a6.106,6.106,0,0,1-.84,1.272,14.044,14.044,0,0,0-1.128-.96l-1.176.744c.456.384.912.792,1.344,1.224a10.382,10.382,0,0,1-1.944,1.488,3.322,3.322,0,0,1,.936.984A12.991,12.991,0,0,0-54.912-12.6a9.407,9.407,0,0,1,.816.888,14.548,14.548,0,0,1-2.88,2.16,3.666,3.666,0,0,1,.912,1.008,17.807,17.807,0,0,0,2.856-2.16,16.4,16.4,0,0,1,1.3,1.8Zm.288,1.44h-7.488v-7.7h7.488Zm2.016-9.5h-6c.288-.6.672-1.32,1.032-2.016l-2.28-.384a19.606,19.606,0,0,1-.768,2.4h-3.432V-6.552H-48.36ZM-51.528-2.736c-.48-.912-1.512-2.5-2.256-3.648l-1.44.672c.744,1.224,1.7,2.856,2.184,3.816Zm-9.024-3.5a31.605,31.605,0,0,0-1.44-4.584l-1.536.432a18.053,18.053,0,0,1,.6,1.824l-3.144.552a47.333,47.333,0,0,0,5.064-7.632l-1.824-.96a32.193,32.193,0,0,1-1.68,3.264l-2.136.168a36.222,36.222,0,0,0,3.312-6.192l-1.992-.816a27.3,27.3,0,0,1-2.76,5.952c-.456.72-.84,1.2-1.248,1.32.216.528.528,1.488.648,1.9a11.543,11.543,0,0,1,3.072-.576,23.307,23.307,0,0,1-1.8,2.568c-.7.864-1.224,1.464-1.776,1.584a10.483,10.483,0,0,1,.672,1.872c.456-.264,1.2-.5,6.048-1.44q.18.72.288,1.3ZM-67.968-4.7A21.613,21.613,0,0,1-69.216.768a9.981,9.981,0,0,1,1.56.576,28.022,28.022,0,0,0,1.32-5.76Zm2.256.264A44.873,44.873,0,0,1-65.136.624L-63.552.24A41.112,41.112,0,0,0-64.2-4.776ZM-63.48-4.9a29.16,29.16,0,0,1,.936,4.032l1.536-.48a32.331,32.331,0,0,0-1.008-3.984ZM-59.856.816a24.156,24.156,0,0,0,1.608-5.232l-1.56-.576A19.6,19.6,0,0,1-61.464.072Zm4.7-1.056c-.816,0-.936-.1-.936-.648V-4.944H-57.96V-.888c0,1.752.5,2.256,2.568,2.256h3.144c1.656,0,2.16-.672,2.376-3.288a4.661,4.661,0,0,1-1.656-.7c-.1,2.064-.24,2.376-.912,2.376Zm4.44-4.272A52.7,52.7,0,0,1-48.744.432l1.632-.744c-.456-1.272-1.32-3.264-2.088-4.824Zm10.512-2.5V-8.472h4.752v1.464Zm0-4.368h4.752v1.488H-40.2Zm12.024,0v1.488h-5.04v-1.488Zm0,4.368h-5.04V-8.472h5.04Zm-5.04,6.384v-1.7h8.208V-4.08h-8.208V-5.448h7.32v-7.464h-7.32v-1.224h9.576v-1.776h-9.576V-17.5c2.712-.192,5.28-.456,7.344-.816L-27-20.064a130.134,130.134,0,0,1-15.984,1.248,6.965,6.965,0,0,1,.456,1.752c2.232-.048,4.68-.12,7.08-.264v1.416h-9.336v1.776h9.336v1.224h-6.936v7.464h6.936V-4.08h-7.68v1.752h7.68v1.7H-44.9v1.8h21.432v-1.8ZM-4.8-17.088H-15.768v-1.08H-4.8Zm0,2.28H-15.768v-1.1H-4.8Zm2.256-4.584H-17.928v5.808H-2.544Zm3.072,6.72H-20.9v1.632H.528ZM-16.248-5.4V-6.528h4.92V-5.4Zm0-3.456h4.92v1.1h-4.92Zm12.168,1.1H-9.168v-1.1H-4.08Zm0,2.352H-9.168V-6.528H-4.08ZM-9.168-.384V-1.536h7.752V-3.048H-9.168v-1.08H-1.9v-6H-18.36v6h7.032v1.08H-18.96v1.512h7.632V-.384H-21v1.7H.624v-1.7ZM14.544-3.312V-5.64l-5.4-1.944L5.52-8.9V-9l3.624-1.344,5.4-1.92v-2.352L2.688-9.984V-7.92ZM17.52,0H27.6V-2.28H24.144V-17.664H22.056a10.851,10.851,0,0,1-3.84,1.344v1.752h3.168V-2.28H17.52ZM35.976.312c3.456,0,5.712-3.072,5.712-9.216,0-6.1-2.256-9.1-5.712-9.1-3.48,0-5.712,2.976-5.712,9.1C30.264-2.76,32.5.312,35.976.312Zm0-2.184c-1.8,0-3.072-1.92-3.072-7.032,0-5.064,1.272-6.912,3.072-6.912s3.072,1.848,3.072,6.912C39.048-3.792,37.776-1.872,35.976-1.872ZM44.9,0h2.688V-3.408l2.232-2.568L53.4,0h3L51.408-7.848,55.9-13.2H52.848L47.664-6.792h-.072V-19.128H44.9ZM62.952,5.928c4.224,0,6.912-2.064,6.912-4.608,0-2.256-1.632-3.216-4.752-3.216H62.688c-1.68,0-2.208-.5-2.208-1.3a1.75,1.75,0,0,1,.72-1.392,4.588,4.588,0,0,0,1.848.408c2.76,0,4.944-1.656,4.944-4.536a3.569,3.569,0,0,0-.864-2.424h2.52V-13.2h-4.68a5.5,5.5,0,0,0-1.92-.336c-2.736,0-5.112,1.752-5.112,4.752a4.517,4.517,0,0,0,1.728,3.5v.1A3.257,3.257,0,0,0,58.2-2.736,2.427,2.427,0,0,0,59.4-.552v.12a3.488,3.488,0,0,0-1.92,2.88C57.48,4.752,59.784,5.928,62.952,5.928Zm.1-11.88a2.574,2.574,0,0,1-2.5-2.832,2.513,2.513,0,0,1,2.5-2.808,2.526,2.526,0,0,1,2.5,2.808A2.574,2.574,0,0,1,63.048-5.952ZM63.36,4.1c-2.184,0-3.528-.768-3.528-2.064A2.374,2.374,0,0,1,60.96.12a8.391,8.391,0,0,0,1.776.192h1.992c1.608,0,2.472.336,2.472,1.44C67.2,2.976,65.664,4.1,63.36,4.1Z" transform="translate(1665 730)" fill="#9f611c"/>
        <g id="矩形_3280" data-name="矩形 3280" transform="translate(1838 689)" fill="#ffd9af" stroke="#fff" stroke-width="1">
          <rect width="319" height="63" stroke="none"/>
          <rect x="0.5" y="0.5" width="318" height="62" fill="none"/>
        </g>
        <path id="路径_597" data-name="路径 597" d="M-47.136,0h10.08V-2.28h-3.456V-17.664H-42.6a10.851,10.851,0,0,1-3.84,1.344v1.752h3.168V-2.28h-3.864Zm16.248,0h2.832c.288-6.912.936-10.8,5.088-15.984v-1.68H-34.344v2.328h8.3C-29.448-10.584-30.576-6.456-30.888,0Zm15.48.312a5.828,5.828,0,0,0,5.952-6.12c0-3.864-2.424-5.616-5.376-5.616a4.98,4.98,0,0,0-2.424.624l.408-4.536H-10.3v-2.328h-8.952l-.528,8.376,1.344.888A4.647,4.647,0,0,1-15.6-9.408c2.016,0,3.36,1.344,3.36,3.7a3.452,3.452,0,0,1-3.5,3.768,5.652,5.652,0,0,1-4.128-1.9l-1.32,1.8A7.817,7.817,0,0,0-15.408.312ZM12.336-18.36H-4.56v2.16h16.9ZM8.9-.624C8.04-.624,7.9-.768,7.9-1.632V-9.624h6.528v-2.16h-21.1v2.16H-.888C-1.224-5.4-2.04-1.824-7.056.048a5.867,5.867,0,0,1,1.392,1.8C-.024-.408,1.056-4.56,1.488-9.624h4.1v8.016c0,2.352.624,3.1,3,3.1h3.192c2.232,0,2.808-1.176,3.048-5.328a7.14,7.14,0,0,1-2.088-.96c-.1,3.552-.24,4.176-1.128,4.176ZM16.128,4.32h1.92L24.72-19.152H22.8ZM31.44-20.04a26.9,26.9,0,0,1-5.472,9.24,14.89,14.89,0,0,1,1.224,2.256,24,24,0,0,0,1.872-2.328V1.848h2.112v-16.08a37.044,37.044,0,0,0,2.352-5.184ZM48.1-8.448h-6.36V-13.2h5.28v-2.184h-5.28v-4.464H39.5v4.464H36.816c.288-1.008.552-2.04.768-3.072l-2.16-.432A21.335,21.335,0,0,1,32.568-10.9a14.746,14.746,0,0,1,1.92,1.08A17.119,17.119,0,0,0,36.1-13.2H39.5v4.752H32.856v2.184H39.5V1.872h2.232V-6.264H48.1Z" transform="translate(1998 730)" fill="#9f611c"/>
      </g>
    </g>
    <g id="deco_box" transform="translate(-5164.981 4529.3)">
      <path id="路径_108" data-name="路径 108" d="M397.25,172.823s22.658,17.431.985,54.981Z" transform="translate(-3.798 -0.837)" fill="#fff"/>
      <path id="路径_109" data-name="路径 109" d="M397.375,157.876V290.869L256.5,257.375V116.5Z" transform="translate(-1.706)" fill="#ffd286"/>
      <path id="路径_110" data-name="路径 110" d="M255.029,116.5,157.5,169.7V300.721l97.529-43.346Z" transform="translate(-0.235)" fill="#f4bd6c"/>
      <path id="路径_111" data-name="路径 111" d="M157.5,302.846,278.672,330.43,395.9,292.995,255.029,259.5Z" transform="translate(-0.235 -2.125)" fill="#dda254"/>
      <path id="路径_112" data-name="路径 112" d="M184.458,224.922s.493,10.59,9.359,9.851,23.151-40.883,23.151-67.482-8.62-33.741-27.584-29.062-107.134,66-107.134,66,6.9,15.762,31.771,12.56c0,0,7.142,15.762,32.017,11.083,0,0,10.337,9.767,21.18,5.665C174.181,230.908,184.458,224.922,184.458,224.922Z" transform="translate(0.884 -0.303)" fill="#fff"/>
      <path id="路径_113" data-name="路径 113" d="M114.5,217.639l41.95-23.932L116.374,220.5A14.839,14.839,0,0,1,114.5,217.639Z" transform="translate(0.404 -1.148)" fill="#b1c2b3"/>
      <path id="路径_114" data-name="路径 114" d="M147,229l28.148-16.848-26.472,18.227Z" transform="translate(-0.079 -1.422)" fill="#b1c2b3"/>
      <path id="路径_115" data-name="路径 115" d="M186,226.144a47.709,47.709,0,0,0,9.451-7.013s-2.342,4.91-9.175,8.962Z" transform="translate(-0.658 -1.525)" fill="#b1c2b3"/>
      <path id="路径_116" data-name="路径 116" d="M317.074,134.751V272.2L213.144,313.47l27.476,6.255,108.738-39.848V144.234Z" transform="translate(-1.062 -0.271)" fill="#fffad7"/>
      <g id="组_17701" data-name="组 17701" transform="translate(263.942 232.636)">
        <g id="组_17697" data-name="组 17697" transform="translate(0.576)">
          <line id="直线_1" data-name="直线 1" x2="8.344" y2="1.902" fill="none" stroke="#a73e5c" stroke-linecap="round" stroke-linejoin="round" stroke-width="1.417"/>
          <line id="直线_2" data-name="直线 2" x2="5.057" y2="1.153" transform="translate(12.642 2.882)" fill="none" stroke="#a73e5c" stroke-linecap="round" stroke-linejoin="round" stroke-width="1.417"/>
          <line id="直线_3" data-name="直线 3" x2="18.458" y2="4.208" transform="translate(21.492 4.9)" fill="none" stroke="#a73e5c" stroke-linecap="round" stroke-linejoin="round" stroke-width="1.417"/>
          <line id="直线_4" data-name="直线 4" x2="1.741" y2="0.397" transform="translate(43.771 9.979)" fill="none" stroke="#a73e5c" stroke-linecap="round" stroke-linejoin="round" stroke-width="1.417"/>
        </g>
        <g id="组_17698" data-name="组 17698" transform="translate(0.384 5.514)">
          <line id="直线_5" data-name="直线 5" x2="15.774" y2="3.596" fill="none" stroke="#a73e5c" stroke-linecap="round" stroke-linejoin="round" stroke-width="1.417"/>
          <line id="直线_6" data-name="直线 6" x2="2.629" y2="0.599" transform="translate(19.718 4.495)" fill="none" stroke="#a73e5c" stroke-linecap="round" stroke-linejoin="round" stroke-width="1.417"/>
          <line id="直线_7" data-name="直线 7" x2="17.119" y2="3.903" transform="translate(28.394 6.473)" fill="none" stroke="#a73e5c" stroke-linecap="round" stroke-linejoin="round" stroke-width="1.417"/>
        </g>
        <g id="组_17699" data-name="组 17699" transform="translate(0.192 11.028)">
          <line id="直线_8" data-name="直线 8" x2="11.568" y2="2.637" fill="none" stroke="#a73e5c" stroke-linecap="round" stroke-linejoin="round" stroke-width="1.417"/>
          <line id="直线_9" data-name="直线 9" x2="6.047" y2="1.379" transform="translate(18.404 4.196)" fill="none" stroke="#a73e5c" stroke-linecap="round" stroke-linejoin="round" stroke-width="1.417"/>
          <line id="直线_10" data-name="直线 10" x2="1.84" y2="0.42" transform="translate(28.394 6.473)" fill="none" stroke="#a73e5c" stroke-linecap="round" stroke-linejoin="round" stroke-width="1.417"/>
          <line id="直线_11" data-name="直线 11" x2="11.335" y2="2.584" transform="translate(34.178 7.792)" fill="none" stroke="#a73e5c" stroke-linecap="round" stroke-linejoin="round" stroke-width="1.417"/>
        </g>
        <g id="组_17700" data-name="组 17700" transform="translate(0 16.541)">
          <line id="直线_12" data-name="直线 12" x2="34.178" y2="7.792" fill="none" stroke="#a73e5c" stroke-linecap="round" stroke-linejoin="round" stroke-width="1.417"/>
          <line id="直线_13" data-name="直线 13" x2="8.559" y2="1.951" transform="translate(36.953 8.425)" fill="none" stroke="#a73e5c" stroke-linecap="round" stroke-linejoin="round" stroke-width="1.417"/>
        </g>
      </g>
      <g id="组_17703" data-name="组 17703" transform="translate(358.254 153.761)">
        <g id="组_17702" data-name="组 17702" transform="translate(3.339 5.503)">
          <path id="路径_117" data-name="路径 117" d="M369.8,159.909l-4.894,6.649,2.957.818v10.5l3.874,1.072v-10.5l2.957.818Z" transform="translate(-364.91 -159.909)" fill="#a73e5c"/>
          <path id="路径_118" data-name="路径 118" d="M382.069,163.3l-4.894,6.649,2.957.818v10.5l3.875,1.072v-10.5l2.957.818Z" transform="translate(-365.093 -159.96)" fill="#a73e5c"/>
          <path id="路径_119" data-name="路径 119" d="M383.867,186.176l-16.059-4.445v-2.524l16.059,4.445Z" transform="translate(-364.953 -160.196)" fill="#a73e5c"/>
        </g>
        <path id="路径_120" data-name="路径 120" d="M390.069,190.773l-28.548-7.9V154.323l28.548,7.9Z" transform="translate(-361.521 -154.323)" fill="none" stroke="#a73e5c" stroke-miterlimit="10" stroke-width="1"/>
      </g>
      <path id="路径_121" data-name="路径 121" d="M213.144,315.544l103.93-41.269,32.284,7.676L240.62,321.8Z" transform="translate(-1.062 -2.345)" fill="#e2d69f"/>
      <path id="路径_122" data-name="路径 122" d="M389.919,293.032,255.12,262l-91.453,40.883s82.685-25.449,117.69-24.464,74.891,12.807,80.562,22Z" transform="translate(-0.326 -2.163)" fill="#231f20" style="mix-blend-mode: soft-light;isolation: isolate"/>
      <path id="路径_123" data-name="路径 123" d="M194.128,237.1s-8.538,1.888-9.113-9.687c0,0-10.262,7.306-18.225,9.113s-8.374-.373-8.374-.373V245.6s8.537,2.955,23.643-7.675C182.06,237.925,185.59,242.768,194.128,237.1Z" transform="translate(-0.248 -1.649)" fill="#231f20" style="mix-blend-mode: soft-light;isolation: isolate"/>
      <path id="路径_124" data-name="路径 124" d="M191.228,237.789s-6.923.865-7.154-8.134c0,0-13.153,10.5-24.633,8.6v3a27.55,27.55,0,0,0,23.019-7.557S183.671,240.616,191.228,237.789Z" transform="translate(-0.263 -1.682)" fill="#231f20" style="mix-blend-mode: soft-light;isolation: isolate"/>
      <path id="路径_125" data-name="路径 125" d="M259.667,119.667l135.538,39.644v75.244s-53.116-76.139-135.538-95.514Z" transform="translate(-1.753 -0.047)" fill="#fff" opacity="0.5" style="mix-blend-mode: soft-light;isolation: isolate"/>
      <path id="路径_126" data-name="路径 126" d="M252.167,255.979V122L219,140.718s16.747-1.745,21.673,44.608,4.926,73.334,4.926,73.334Z" transform="translate(-1.149 -0.082)" fill="#231f20" style="mix-blend-mode: soft-light;isolation: isolate"/>
      <path id="路径_127" data-name="路径 127" d="M154.085,192.25l-41.006,23.4s-19.456,2.832-27.953-10.221l13.053-8.62s-2.34,9.236,8.127,11.206S154.085,192.25,154.085,192.25Z" transform="translate(0.841 -1.126)" fill="#e9f2d7"/>
      <path id="路径_128" data-name="路径 128" d="M120.125,221.23s11.206,10.608,26.476,5.929L174.02,210s-27.686,18.156-45.091,5.418Z" transform="translate(0.321 -1.39)" fill="#e9f2d7"/>
      <path id="路径_129" data-name="路径 129" d="M152.167,230.447s6.4,4.613,13.135,2.808S186.34,224.389,194.949,217c0,0-21.529,13.135-33.8,7.553Z" transform="translate(-0.155 -1.494)" fill="#e9f2d7"/>
      <path id="路径_130" data-name="路径 130" d="M196.741,219.821s-4.867,6.658-8.866,8.136c0,0,1.294,6.764,7.6,5.779s18.748-32.14,20.6-50.611c0,0-9.482,35.219-16.378,40.637S196.741,219.821,196.741,219.821Z" transform="translate(-0.686 -0.99)" fill="#e9f2d7"/>
      <path id="路径_131" data-name="路径 131" d="M120.125,221.021,156.944,196l-33.172,27.708A8.294,8.294,0,0,1,120.125,221.021Z" transform="translate(0.321 -1.182)" fill="#e9f2d7" style="mix-blend-mode: multiply;isolation: isolate"/>
      <path id="路径_132" data-name="路径 132" d="M176.179,214.5l-24.013,15.91,2.4,1.375Z" transform="translate(-0.155 -1.457)" fill="#e9f2d7" style="mix-blend-mode: multiply;isolation: isolate"/>
      <path id="路径_133" data-name="路径 133" d="M196.741,220.375s-5.489,7.13-8.866,8.136c0,0-.115,1.066,1.512,3.361C189.387,231.873,196.495,227.087,196.741,220.375Z" transform="translate(-0.686 -1.544)" fill="#e9f2d7" style="mix-blend-mode: multiply;isolation: isolate"/>
      <path id="路径_134" data-name="路径 134" d="M400.833,187.333v32.839s5.89-11.023,5.747-21.51C406.58,198.662,402.147,198.334,400.833,187.333Z" transform="translate(-3.851 -1.053)" fill="#e9f2d7"/>
      <path id="路径_135" data-name="路径 135" d="M401.875,201.25v14.285a70.617,70.617,0,0,0,3.2-9.543A7.8,7.8,0,0,1,401.875,201.25Z" transform="translate(-3.867 -1.26)" fill="#e9f2d7" style="mix-blend-mode: multiply;isolation: isolate"/>
      <path id="路径_136" data-name="路径 136" d="M157.2,154.323,9,249.11v81.316l187.459-98.041S211.823,157.6,157.2,154.323Z" transform="translate(1.973 -0.562)" fill="url(#linear-gradient)" style="mix-blend-mode: overlay;isolation: isolate"/>
      <path id="路径_137" data-name="路径 137" d="M209.976,324.46,117.9,303.5,6.737,356.025,0,398.943Z" transform="translate(39.276 -2.137)" fill="url(#linear-gradient-2)" style="mix-blend-mode: overlay;isolation: isolate"/>
      <path id="路径_138" data-name="路径 138" d="M122.515,237.9v49.108L18.353,336.223l2.051-46.17Z" transform="translate(34.662 14.356)" fill="url(#linear-gradient-3)" style="mix-blend-mode: overlay;isolation: isolate"/>
    </g>
    <g transform="matrix(1, 0, 0, 1, -5883, 3864)" filter="url(#路径_581)">
      <path id="路径_581-2" data-name="路径 581" d="M-149.955-25.312q2.479,0,2.742,2.953V6.275q-.053,1.688-1.582,1.74h-6.434V-11.707h-9.914q-3.006,0-3.006-3.059v-7.646H-171.1q-1.846,10.441-13.553,13.447h-.105V8.068h-7.963V-25.312h10.969A21.676,21.676,0,0,0-187.186-29a13.7,13.7,0,0,0,5.326-3.639h-11.918V-35.6h17.666a5.75,5.75,0,0,0,1.371-1.635,4.812,4.812,0,0,1,1.74-2q1.9-1.266,7.436-1.318a16.04,16.04,0,0,0,.422,4.113,1.966,1.966,0,0,0,.475.844h18.088v2.953h-11.391a18.818,18.818,0,0,0,5.221,3.586,15.7,15.7,0,0,0-5.273,3.744Zm-9.967,0a18.821,18.821,0,0,0-5.484-3.744,14.737,14.737,0,0,0,5.221-3.586H-179.75A19.206,19.206,0,0,0-174.53-29a14.7,14.7,0,0,0-5.168,3.691Zm-.844,2.9v7.7h5.537v-7.7ZM-184.76-11.391a26.234,26.234,0,0,0,3.322-4.113,18.017,18.017,0,0,0,2.162-6.908h-5.484Zm26.314,16.137h-22.623V-9.281h20.145q2.479.053,2.479,2.742ZM-173.422-6.486V1.846h7.436V-6.486ZM-94.152-19.2h-38.6v-20.2h36.387q2.215.053,2.215,2.426Zm-30.691-17.3V-22.2h22.729V-36.492Zm10.072,43.559h-22.043V-16.242h19.67q2.373.053,2.373,2.584Zm-14.291-20.3V3.955h6.75V-13.236Zm39.445,20.25h-22.254V-16.242H-91.99q2.373.053,2.373,2.584Zm-14.344-20.3V3.955h6.855V-13.289Zm48.948-27.58h7.383v2.584h10.811q1.318.369,1.582,2.268v6.012H-47.63v2.584h5.8q8.965.105,9.229,4.271,0,5.484-10.178,5.854-1.055,0-2.215-.105-.686-.053-.686-.633a.565.565,0,0,1,.422-.633q4.43-.369,4.9-3.8-.053-2-4.219-2.057H-47.63v6.961h-7.383v-6.961h-5.959Q-64.61-18.088-78.8-16.664q-.949,0-1.055-.316a.8.8,0,0,1,.422-.791q8.6-2.109,11.127-6.75h-4.641a9.935,9.935,0,0,1-4.43,3.111q-1.529,0-1.529-1.687v-9.809h11.654V-35.49H-79.534v-2.795h12.287v-2.479h7.488v2.479h4.746ZM-71.835-27.422h4.482a7.1,7.1,0,0,0,.105-1.16v-1.424h-4.535v1.635A7.709,7.709,0,0,1-71.835-27.422Zm11.918,0h4.9v-2.584h-4.746v1.424A10.3,10.3,0,0,1-59.917-27.422Zm.158-8.068v2.584h4.746V-35.49Zm12.129,2.584h5.221V-35.49H-47.63ZM-72.889,1.635h-4.9v-17.93h40.131q2.215.053,2.215,2.426v15.5h-4.641q.58.633,1.055,1.16a32.423,32.423,0,0,0,3.27,3.111q0,1.318-.686,1.424a4.329,4.329,0,0,1-2.057-.475,29.8,29.8,0,0,1-7.752-2.9,20.765,20.765,0,0,1-3.428-2.32H-62.817a22.432,22.432,0,0,1-5.326,3.639A32.776,32.776,0,0,1-75.1,7.7a4.529,4.529,0,0,1-1.687.422q-.316,0-.316-1.055A24.488,24.488,0,0,0-72.889,1.635ZM-69.936-13.5V-1.266h26.684V-13.5Zm6.908.527a15.29,15.29,0,0,0,5.484,3.9,14.474,14.474,0,0,0-5.484,3.955q-.738-1.74-5.484-3.955A12.467,12.467,0,0,0-63.028-12.973Zm12.5,3.48a15.954,15.954,0,0,0,5.484,3.9A14.273,14.273,0,0,0-50.53-1.582q-.738-1.793-5.484-4.008A12.467,12.467,0,0,0-50.53-9.492Zm39.4-11.021v7.066a36.864,36.864,0,0,1-.422,4.061h8.016V-20.514Zm-1,14.08Q-14.66,4.008-23.045,8.49A62.836,62.836,0,0,0-19.934-9.281V-29.32q.527-7.436,8.068-11.285l2.109.686q-.264.686-.475,1.424H17.3q3.059,0,3.27,3.428V6.064Q20.514,7.646,19.09,7.7H11.813V-6.434H4.588V7.646H-3.533V-6.434Zm1.371-29.109a46.257,46.257,0,0,0-.422,4.852l.053,7.225h7.594V-35.543ZM11.813-9.387V-20.514H4.588V-9.387Zm0-14.08V-35.543H4.588v12.076Zm35.079-17.3,1.318,2.742a48.91,48.91,0,0,1-4.957,2q-.791.264-1.687.527v8.068h5.748v2.9H41.565v7.646h5.643v2.9H41.565v8.068H71.2V-14.4H65.981v-2.9H71.2v-7.436H65.981v-2.9H71.2v-8.49H66.139v-2.848h9.439q2.689,0,2.848,2.953V-5.906h3.164v2.9H31.809v-2.9h2.584V-38.127h6.064q.9-.264,1.582-.527A44.266,44.266,0,0,0,46.891-40.764ZM41.249-1.74H51.69a22.054,22.054,0,0,1-7.436,6.486,33.848,33.848,0,0,1-8.016,3.217,4.191,4.191,0,0,1-1.74.475q-.369,0-.369-1.107A30.345,30.345,0,0,0,41.249-1.74Zm31.271,0a28.133,28.133,0,0,0,2.742,4.377A60.152,60.152,0,0,0,79.27,7.172q0,1.055-.527,1.107a2.986,2.986,0,0,1-1.529-.369A27.362,27.362,0,0,1,68.565,3.9,22.858,22.858,0,0,1,62.606-1.74Zm-16.031-30.9-.316,3.48h4.482q3.533,0,3.85,4.113v10.125q-.158,7.752-4.957,7.91a28.1,28.1,0,0,1-6.539-1.107q-.211.9-.369,1.529L47.1-7.225a135.307,135.307,0,0,0,2.426-14.555l5.7.316q-.738,5.643-1.477,9.65a7.324,7.324,0,0,0,2.057.58q2.689,0,2.742-5.168v-8.754H49.317l1.371-14.924h6.486l-.369,3.955h7.8v3.48Zm34.182-.316h6.223V-40.5h7.8v7.541h5.59v2.9H104.7v7.277a63.346,63.346,0,0,1-.58,7.225h6.7v2.9h-5.379a62.485,62.485,0,0,0,2.268,6.7Q109.339-1.74,111.4,2.32a37.619,37.619,0,0,0,4.008-8.7h-3.9V-39.393h21.99q2.479.053,2.479,2.742v30.27h-3.586V4.641h5.8l-.369,2.848H127.427q-2.848,0-2.848-2.9V-6.381h-.844q-5.115,13.131-15.5,14.607-1.371,0-1.371-.633a19.209,19.209,0,0,0,3.322-3.428,4.266,4.266,0,0,1-.9-.475,27.061,27.061,0,0,1-7.857-8.49Q97.58,4.641,89.248,8.174q-1.318,0-1.318-.686a45.377,45.377,0,0,0,8.227-20.145H88.931v-2.9h7.646q.264-2.426.316-4.852v-9.65H90.671Zm31.8-.264a13.709,13.709,0,0,0,4.957,3.955,12.893,12.893,0,0,0-4.957,4.008q-.527-1.371-3.27-3.006v7.225a12.84,12.84,0,0,0,3.375-3.375,14.455,14.455,0,0,0,4.957,4.219,12.842,12.842,0,0,0-4.957,4.271Q122-17.455,119.2-19.2v10.02h8.859V-36.7H119.2v6.592A13.093,13.093,0,0,0,122.47-33.223Zm23.161-1.213h8.807V-40.5H161.5v6.064h4.852v2.9H161.5v14.027a47.88,47.88,0,0,0,5.484,5.537v-1.266h22.887q2.848.053,2.848,3.111V7.436H166.989V-10.178l-1.9,2.162A50.733,50.733,0,0,1,161.5-11.76V8.121h-7.066V-8.016A22.466,22.466,0,0,1,146.053,5.7a58.028,58.028,0,0,0,2.531-17.455q-.264-6.012-3.428-6.223v-2.584l8.7-10.969h-8.227Zm8.807,7.014-3.9,5.326a6.793,6.793,0,0,1,3.9,4.852Zm36.809-10.283q2.109,0,2.109,2.637a39.835,39.835,0,0,1-9.281,12.34,43.237,43.237,0,0,0,10.547,6.8,1.226,1.226,0,0,1,.791,1.055q-.053.422-1.107.686a43.452,43.452,0,0,1-14.291-5.484,37,37,0,0,1-13.764,5.484q-1.529,0-1.529-.58a1.489,1.489,0,0,1,.316-1,37.464,37.464,0,0,0,10.389-6.908,36.569,36.569,0,0,1-5.537-5.168,18.451,18.451,0,0,1-2.426,1.529,5.383,5.383,0,0,1-2.162.58q-.422,0-.422-1.371a51.111,51.111,0,0,0,5.537-13.289H178.8a20.5,20.5,0,0,1-1.107,2.689ZM175-33.064a55.33,55.33,0,0,0,4.588,5.854,41.37,41.37,0,0,0,4.641-7.594h-8.068Q175.584-33.908,175-33.064Zm-.475,22.729V4.377h10.441V-10.336Z" transform="translate(960 313)" fill="#ee8000"/>
    </g>
    <g id="组_17880" data-name="组 17880" transform="translate(-6200 3679)">
      <g id="组_17617-2" data-name="组 17617" transform="translate(-350)">
        <rect id="矩形_3201-2" data-name="矩形 3201" width="1120" height="177" rx="10" transform="translate(1067 561)" fill="#fff"/>
        <g id="矩形_3265-2" data-name="矩形 3265" transform="translate(1097 627)" fill="#ffe9d0" stroke="#fff" stroke-width="1">
          <rect width="395" height="63" stroke="none"/>
          <rect x="0.5" y="0.5" width="394" height="62" fill="none"/>
        </g>
        <path id="路径_588" data-name="路径 588" d="M-20.448.312c3.864,0,6.216-2.3,6.216-5.136,0-2.592-1.512-3.888-3.6-4.776l-2.424-1.032c-1.44-.576-2.856-1.152-2.856-2.664,0-1.416,1.176-2.28,2.976-2.28a5.626,5.626,0,0,1,3.888,1.584l1.464-1.776A7.566,7.566,0,0,0-20.136-18c-3.36,0-5.808,2.088-5.808,4.872,0,2.568,1.9,3.912,3.6,4.632L-19.9-7.44c1.632.72,2.832,1.224,2.832,2.832,0,1.488-1.2,2.5-3.336,2.5A6.848,6.848,0,0,1-25.1-4.2l-1.632,1.92A8.812,8.812,0,0,0-20.448.312ZM-11.16,0H-1.08V-2.28H-4.536V-17.664H-6.624a10.851,10.851,0,0,1-3.84,1.344v1.752H-7.3V-2.28H-11.16ZM7.3.312c3.456,0,5.712-3.072,5.712-9.216,0-6.1-2.256-9.1-5.712-9.1-3.48,0-5.712,2.976-5.712,9.1C1.584-2.76,3.816.312,7.3.312Zm0-2.184c-1.8,0-3.072-1.92-3.072-7.032,0-5.064,1.272-6.912,3.072-6.912s3.072,1.848,3.072,6.912C10.368-3.792,9.1-1.872,7.3-1.872ZM20.568.312a5.828,5.828,0,0,0,5.952-6.12c0-3.864-2.424-5.616-5.376-5.616a4.98,4.98,0,0,0-2.424.624l.408-4.536H25.68v-2.328H16.728L16.2-9.288l1.344.888a4.647,4.647,0,0,1,2.832-1.008c2.016,0,3.36,1.344,3.36,3.7a3.452,3.452,0,0,1-3.5,3.768A5.652,5.652,0,0,1,16.1-3.84l-1.32,1.8A7.817,7.817,0,0,0,20.568.312Z" transform="translate(1295 668)" fill="#9f611c"/>
        <g id="矩形_3273-2" data-name="矩形 3273" transform="translate(1491 627)" fill="#ffe9d0" stroke="#fff" stroke-width="1">
          <rect width="348" height="63" stroke="none"/>
          <rect x="0.5" y="0.5" width="347" height="62" fill="none"/>
        </g>
        <path id="路径_583" data-name="路径 583" d="M-50.664-9.816a17.445,17.445,0,0,0-1.512-1.968,17.971,17.971,0,0,0,1.7-2.424l-1.464-.264a9.431,9.431,0,0,1-1.152,1.656l-.84-.84a12.094,12.094,0,0,0,1.32-1.944l-1.44-.24a6.106,6.106,0,0,1-.84,1.272,14.044,14.044,0,0,0-1.128-.96l-1.176.744c.456.384.912.792,1.344,1.224a10.382,10.382,0,0,1-1.944,1.488,3.322,3.322,0,0,1,.936.984A12.991,12.991,0,0,0-54.912-12.6a9.407,9.407,0,0,1,.816.888,14.548,14.548,0,0,1-2.88,2.16,3.666,3.666,0,0,1,.912,1.008,17.807,17.807,0,0,0,2.856-2.16,16.4,16.4,0,0,1,1.3,1.8Zm.288,1.44h-7.488v-7.7h7.488Zm2.016-9.5h-6c.288-.6.672-1.32,1.032-2.016l-2.28-.384a19.606,19.606,0,0,1-.768,2.4h-3.432V-6.552H-48.36ZM-51.528-2.736c-.48-.912-1.512-2.5-2.256-3.648l-1.44.672c.744,1.224,1.7,2.856,2.184,3.816Zm-9.024-3.5a31.605,31.605,0,0,0-1.44-4.584l-1.536.432a18.053,18.053,0,0,1,.6,1.824l-3.144.552a47.333,47.333,0,0,0,5.064-7.632l-1.824-.96a32.193,32.193,0,0,1-1.68,3.264l-2.136.168a36.222,36.222,0,0,0,3.312-6.192l-1.992-.816a27.3,27.3,0,0,1-2.76,5.952c-.456.72-.84,1.2-1.248,1.32.216.528.528,1.488.648,1.9a11.543,11.543,0,0,1,3.072-.576,23.307,23.307,0,0,1-1.8,2.568c-.7.864-1.224,1.464-1.776,1.584a10.483,10.483,0,0,1,.672,1.872c.456-.264,1.2-.5,6.048-1.44q.18.72.288,1.3ZM-67.968-4.7A21.613,21.613,0,0,1-69.216.768a9.981,9.981,0,0,1,1.56.576,28.022,28.022,0,0,0,1.32-5.76Zm2.256.264A44.873,44.873,0,0,1-65.136.624L-63.552.24A41.112,41.112,0,0,0-64.2-4.776ZM-63.48-4.9a29.16,29.16,0,0,1,.936,4.032l1.536-.48a32.331,32.331,0,0,0-1.008-3.984ZM-59.856.816a24.156,24.156,0,0,0,1.608-5.232l-1.56-.576A19.6,19.6,0,0,1-61.464.072Zm4.7-1.056c-.816,0-.936-.1-.936-.648V-4.944H-57.96V-.888c0,1.752.5,2.256,2.568,2.256h3.144c1.656,0,2.16-.672,2.376-3.288a4.661,4.661,0,0,1-1.656-.7c-.1,2.064-.24,2.376-.912,2.376Zm4.44-4.272A52.7,52.7,0,0,1-48.744.432l1.632-.744c-.456-1.272-1.32-3.264-2.088-4.824Zm10.512-2.5V-8.472h4.752v1.464Zm0-4.368h4.752v1.488H-40.2Zm12.024,0v1.488h-5.04v-1.488Zm0,4.368h-5.04V-8.472h5.04Zm-5.04,6.384v-1.7h8.208V-4.08h-8.208V-5.448h7.32v-7.464h-7.32v-1.224h9.576v-1.776h-9.576V-17.5c2.712-.192,5.28-.456,7.344-.816L-27-20.064a130.134,130.134,0,0,1-15.984,1.248,6.965,6.965,0,0,1,.456,1.752c2.232-.048,4.68-.12,7.08-.264v1.416h-9.336v1.776h9.336v1.224h-6.936v7.464h6.936V-4.08h-7.68v1.752h7.68v1.7H-44.9v1.8h21.432v-1.8ZM-4.8-17.088H-15.768v-1.08H-4.8Zm0,2.28H-15.768v-1.1H-4.8Zm2.256-4.584H-17.928v5.808H-2.544Zm3.072,6.72H-20.9v1.632H.528ZM-16.248-5.4V-6.528h4.92V-5.4Zm0-3.456h4.92v1.1h-4.92Zm12.168,1.1H-9.168v-1.1H-4.08Zm0,2.352H-9.168V-6.528H-4.08ZM-9.168-.384V-1.536h7.752V-3.048H-9.168v-1.08H-1.9v-6H-18.36v6h7.032v1.08H-18.96v1.512h7.632V-.384H-21v1.7H.624v-1.7ZM14.544-3.312V-5.64l-5.4-1.944L5.52-8.9V-9l3.624-1.344,5.4-1.92v-2.352L2.688-9.984V-7.92ZM17.52,0H27.6V-2.28H24.144V-17.664H22.056a10.851,10.851,0,0,1-3.84,1.344v1.752h3.168V-2.28H17.52ZM35.976.312c3.456,0,5.712-3.072,5.712-9.216,0-6.1-2.256-9.1-5.712-9.1-3.48,0-5.712,2.976-5.712,9.1C30.264-2.76,32.5.312,35.976.312Zm0-2.184c-1.8,0-3.072-1.92-3.072-7.032,0-5.064,1.272-6.912,3.072-6.912s3.072,1.848,3.072,6.912C39.048-3.792,37.776-1.872,35.976-1.872ZM44.9,0h2.688V-3.408l2.232-2.568L53.4,0h3L51.408-7.848,55.9-13.2H52.848L47.664-6.792h-.072V-19.128H44.9ZM62.952,5.928c4.224,0,6.912-2.064,6.912-4.608,0-2.256-1.632-3.216-4.752-3.216H62.688c-1.68,0-2.208-.5-2.208-1.3a1.75,1.75,0,0,1,.72-1.392,4.588,4.588,0,0,0,1.848.408c2.76,0,4.944-1.656,4.944-4.536a3.569,3.569,0,0,0-.864-2.424h2.52V-13.2h-4.68a5.5,5.5,0,0,0-1.92-.336c-2.736,0-5.112,1.752-5.112,4.752a4.517,4.517,0,0,0,1.728,3.5v.1A3.257,3.257,0,0,0,58.2-2.736,2.427,2.427,0,0,0,59.4-.552v.12a3.488,3.488,0,0,0-1.92,2.88C57.48,4.752,59.784,5.928,62.952,5.928Zm.1-11.88a2.574,2.574,0,0,1-2.5-2.832,2.513,2.513,0,0,1,2.5-2.808,2.526,2.526,0,0,1,2.5,2.808A2.574,2.574,0,0,1,63.048-5.952ZM63.36,4.1c-2.184,0-3.528-.768-3.528-2.064A2.374,2.374,0,0,1,60.96.12a8.391,8.391,0,0,0,1.776.192h1.992c1.608,0,2.472.336,2.472,1.44C67.2,2.976,65.664,4.1,63.36,4.1Z" transform="translate(1665 668)" fill="#9f611c"/>
        <g id="矩形_3279-2" data-name="矩形 3279" transform="translate(1838 627)" fill="#ffe9d0" stroke="#fff" stroke-width="1">
          <rect width="319" height="63" stroke="none"/>
          <rect x="0.5" y="0.5" width="318" height="62" fill="none"/>
        </g>
        <path id="路径_584" data-name="路径 584" d="M-47.136,0h10.08V-2.28h-3.456V-17.664H-42.6a10.851,10.851,0,0,1-3.84,1.344v1.752h3.168V-2.28h-3.864Zm18.48.312c3.408,0,5.712-2.016,5.712-4.632A5.19,5.19,0,0,0-25.92-9v-.12a5.489,5.489,0,0,0,2.328-4.152c0-2.76-1.92-4.68-4.992-4.68-2.9,0-5.04,1.8-5.04,4.56a4.994,4.994,0,0,0,2.376,4.128v.12a5.41,5.41,0,0,0-3.168,4.752C-34.416-1.656-31.968.312-28.656.312ZM-27.5-9.816c-1.968-.768-3.648-1.656-3.648-3.576a2.419,2.419,0,0,1,2.52-2.568A2.621,2.621,0,0,1-25.92-13.1,4.472,4.472,0,0,1-27.5-9.816Zm-1.1,8.136a3.093,3.093,0,0,1-3.36-2.976,4.507,4.507,0,0,1,2.064-3.7c2.4.984,4.344,1.8,4.344,3.96C-25.56-2.736-26.808-1.68-28.608-1.68ZM-15,.312c3.456,0,5.712-3.072,5.712-9.216C-9.288-15-11.544-18-15-18c-3.48,0-5.712,2.976-5.712,9.1C-20.712-2.76-18.48.312-15,.312Zm0-2.184c-1.8,0-3.072-1.92-3.072-7.032,0-5.064,1.272-6.912,3.072-6.912s3.072,1.848,3.072,6.912C-11.928-3.792-13.2-1.872-15-1.872ZM12.336-18.36H-4.56v2.16h16.9ZM8.9-.624C8.04-.624,7.9-.768,7.9-1.632V-9.624h6.528v-2.16h-21.1v2.16H-.888C-1.224-5.4-2.04-1.824-7.056.048a5.867,5.867,0,0,1,1.392,1.8C-.024-.408,1.056-4.56,1.488-9.624h4.1v8.016c0,2.352.624,3.1,3,3.1h3.192c2.232,0,2.808-1.176,3.048-5.328a7.14,7.14,0,0,1-2.088-.96c-.1,3.552-.24,4.176-1.128,4.176ZM16.128,4.32h1.92L24.72-19.152H22.8ZM31.44-20.04a26.9,26.9,0,0,1-5.472,9.24,14.89,14.89,0,0,1,1.224,2.256,24,24,0,0,0,1.872-2.328V1.848h2.112v-16.08a37.044,37.044,0,0,0,2.352-5.184ZM48.1-8.448h-6.36V-13.2h5.28v-2.184h-5.28v-4.464H39.5v4.464H36.816c.288-1.008.552-2.04.768-3.072l-2.16-.432A21.335,21.335,0,0,1,32.568-10.9a14.746,14.746,0,0,1,1.92,1.08A17.119,17.119,0,0,0,36.1-13.2H39.5v4.752H32.856v2.184H39.5V1.872h2.232V-6.264H48.1Z" transform="translate(1998 668)" fill="#9f611c"/>
        <g id="矩形_3263-2" data-name="矩形 3263" transform="translate(1097 578)" fill="#ef7e00" stroke="#fff" stroke-width="1">
          <rect width="395" height="50" stroke="none"/>
          <rect x="0.5" y="0.5" width="394" height="49" fill="none"/>
        </g>
        <path id="路径_587" data-name="路径 587" d="M-56.172,0h2.832c.288-6.912.936-10.8,5.088-15.984v-1.68H-59.628v2.328h8.3C-54.732-10.584-55.86-6.456-56.172,0ZM-46-5.76h6.336V-7.8H-46Zm9.5,5.76h10.08V-2.28h-3.456V-17.664h-2.088A10.851,10.851,0,0,1-35.8-16.32v1.752h3.168V-2.28h-3.864Zm13.68,0h10.08V-2.28h-3.456V-17.664h-2.088a10.851,10.851,0,0,1-3.84,1.344v1.752h3.168V-2.28h-3.864ZM.108-8.232c-.552-.648-2.856-3.216-3.792-4.128v-.624H-.54V-15.12H-3.684v-5.016H-5.94v5.016H-9.78v2.136h3.552a24.219,24.219,0,0,1-4.3,8.544A12.561,12.561,0,0,1-9.348-2.28,22.161,22.161,0,0,0-5.94-8.64V1.9h2.256V-9.744A41.887,41.887,0,0,1-1.26-6.312ZM11.772-15.12H9.4v-4.992H7.044v4.992H.252v2.136h6.1A25.412,25.412,0,0,1-1.4-3.576,9.5,9.5,0,0,1,.2-1.776a28.675,28.675,0,0,0,6.84-8.088v8.88c0,.432-.168.576-.6.576C6.012-.384,4.5-.384,3.06-.432a10.737,10.737,0,0,1,.792,2.28A12.362,12.362,0,0,0,8.2,1.416c.864-.36,1.2-.984,1.2-2.4v-12h2.376ZM22.74-7.2c-.432-.528-2.256-2.424-3.048-3.12V-11.5H22.26v-1.032H35.748v-1.464h-5.76v-1.056H34.62V-16.44H29.988v-1.032H35.2v-1.44H29.988v-1.224H27.756v1.224h-4.9v1.44h4.9v1.032H23.34v1.392h4.416v1.056h-5.64v.408H19.692v-3.648a24.124,24.124,0,0,0,2.952-.888l-1.536-1.7a33.432,33.432,0,0,1-7.248,1.752,6.88,6.88,0,0,1,.648,1.728c.96-.12,1.992-.264,3.024-.456v3.216H14.076V-11.5h3.288A24.593,24.593,0,0,1,13.452-4.32a12.115,12.115,0,0,1,1.1,2.064A25.106,25.106,0,0,0,17.532-7.68V1.848h2.16V-8.04a26.113,26.113,0,0,1,1.752,2.592Zm9.648-1.56h-6.7v-1.3h6.7Zm0,2.688h-6.7v-1.32h6.7Zm0,2.688h-6.7V-4.7h6.7ZM34.476-11.5h-10.8v9.552H26.22a16.438,16.438,0,0,1-5.208,2.5,11.422,11.422,0,0,1,1.416,1.44A19.958,19.958,0,0,0,28.14-.888L26.484-1.944h7.992ZM29.988-.864c1.464.912,3.144,2.064,4.08,2.784L36.012.84C34.908.1,33.06-1.032,31.476-1.944Zm11.136-16.2H46.5v4.032H41.124Zm2.448,8.3c.1-.768.144-1.536.192-2.3h4.9v-7.968H39.084v7.968h2.5C41.364-6.888,40.836-2.232,37.62.36a5.589,5.589,0,0,1,1.536,1.56c2.52-2.112,3.624-5.3,4.176-8.688h3.36c-.192,4.32-.432,6.024-.84,6.456-.168.24-.408.264-.792.264a24.175,24.175,0,0,1-2.568-.12A4.612,4.612,0,0,1,43.116,1.8a18.1,18.1,0,0,0,2.9-.048A2.051,2.051,0,0,0,47.652.984C48.3.24,48.54-1.992,48.8-7.848c.024-.288.024-.912.024-.912Zm9.384-8.5H50.8V-4.008h2.16Zm3.576-2.4V-.936c0,.432-.168.576-.624.6-.48,0-1.992.024-3.624-.048a10.335,10.335,0,0,1,.792,2.28,14.046,14.046,0,0,0,4.512-.384c.84-.408,1.176-1.056,1.176-2.448v-18.72Z" transform="translate(1295 612)" fill="#fff"/>
        <g id="矩形_3272-2" data-name="矩形 3272" transform="translate(1491 578)" fill="#ef7e00" stroke="#fff" stroke-width="1">
          <rect width="348" height="50" stroke="none"/>
          <rect x="0.5" y="0.5" width="347" height="49" fill="none"/>
        </g>
        <path id="路径_586" data-name="路径 586" d="M-41.976-7.008V-8.472h4.752v1.464Zm0-4.368h4.752v1.488h-4.752Zm12.024,0v1.488h-5.04v-1.488Zm0,4.368h-5.04V-8.472h5.04Zm-5.04,6.384v-1.7h8.208V-4.08h-8.208V-5.448h7.32v-7.464h-7.32v-1.224h9.576v-1.776h-9.576V-17.5c2.712-.192,5.28-.456,7.344-.816l-1.128-1.752A130.134,130.134,0,0,1-44.76-18.816a6.965,6.965,0,0,1,.456,1.752c2.232-.048,4.68-.12,7.08-.264v1.416H-46.56v1.776h9.336v1.224H-44.16v7.464h6.936V-4.08H-44.9v1.752h7.68v1.7H-46.68v1.8h21.432v-1.8ZM-6.576-17.088H-17.544v-1.08H-6.576Zm0,2.28H-17.544v-1.1H-6.576Zm2.256-4.584H-19.7v5.808H-4.32Zm3.072,6.72H-22.68v1.632H-1.248ZM-18.024-5.4V-6.528h4.92V-5.4Zm0-3.456h4.92v1.1h-4.92Zm12.168,1.1h-5.088v-1.1h5.088Zm0,2.352h-5.088V-6.528h5.088ZM-10.944-.384V-1.536h7.752V-3.048h-7.752v-1.08h7.272v-6H-20.136v6H-13.1v1.08h-7.632v1.512H-13.1V-.384h-9.672v1.7H-1.152v-1.7ZM10.68-3.1C10.1-3.84,7.632-6.816,6.7-7.776c.048-.336.072-.648.1-.984h3.792V-10.8H6.912c.024-.528.024-1.008.024-1.488v-2.04h3.216V-16.32H6.936v-3.552H4.848v3.552H1.584v1.992H4.848v2.04c0,.48,0,.96-.024,1.488h-3.7v2.04h3.6C4.44-5.664,3.576-2.28.888,0A7.574,7.574,0,0,1,2.5,1.536,13.063,13.063,0,0,0,6.288-5.472,45.5,45.5,0,0,1,9.144-1.464Zm2.784-6.672h6.12V-7.8h-6.12Zm0-3.744h6.12v1.944h-6.12Zm0-3.72h6.12v1.92h-6.12ZM19.512-.5c-.432,0-.5-.048-.5-.624v-4.68H21.72V-19.224H11.376V-5.808H13.44C13.08-3.024,12.192-.96,8.616.216A6.005,6.005,0,0,1,9.864,1.9c4.128-1.512,5.28-4.152,5.688-7.7h1.392v4.68c0,1.992.432,2.592,2.232,2.592h1.848c1.368,0,1.92-.6,2.136-2.952A5.288,5.288,0,0,1,21.336-2.3c-.048,1.584-.168,1.8-.552,1.8Zm23.376-4.56v3.672H36.36V-5.064Zm-8.64,6.888H36.36V.576h6.528v1.2H45.1V-7.032H34.248Zm-.84-11.4c-.456-.6-2.328-3.072-2.928-3.672v-.288H32.9v-.216A11.839,11.839,0,0,1,34.08-12.12a17.159,17.159,0,0,0,1.728-1.944,14.068,14.068,0,0,0,2.376,2.712A23.693,23.693,0,0,1,32.928-9Zm9.48-6.288A13.051,13.051,0,0,1,39.84-12.5a12.143,12.143,0,0,1-2.88-3.312l.048-.048Zm1.656-2.064-.36.1h-6.12A18.4,18.4,0,0,0,38.88-19.7l-1.968-.552a15.921,15.921,0,0,1-4.008,6.24V-15.6H30.48v-4.512H28.368V-15.6H25.224v2.064h2.832A24.624,24.624,0,0,1,24.7-5.064a11.258,11.258,0,0,1,1.08,2.232A24.18,24.18,0,0,0,28.368-9V1.9H30.48V-10.656c.6,1.008,1.224,2.136,1.536,2.784l.24-.288a8.5,8.5,0,0,1,.768,1.44A26.151,26.151,0,0,0,39.96-9.96a21.661,21.661,0,0,0,6.48,2.976,7.983,7.983,0,0,1,.792-2.064,19.735,19.735,0,0,1-5.616-2.208,16.456,16.456,0,0,0,4.344-5.832Z" transform="translate(1665 612)" fill="#fff"/>
        <g id="矩形_3278-2" data-name="矩形 3278" transform="translate(1838 578)" fill="#ef7e00" stroke="#fff" stroke-width="1">
          <rect width="319" height="50" stroke="none"/>
          <rect x="0.5" y="0.5" width="318" height="49" fill="none"/>
        </g>
        <path id="路径_585" data-name="路径 585" d="M-17.472-4.3H-6.264v1.272H-17.472Zm7.08-8.016v1.584h-5.352a5.214,5.214,0,0,0,1.44-1.584Zm-5.3-2.664a4.465,4.465,0,0,1-.288,1.272h-2.784c.072-.408.144-.84.216-1.272Zm2.04-2.568h3.264v1.176h-3.264Zm8.544,0v1.176H-8.28v-1.176Zm-5.28,3.84H-13.8a5.436,5.436,0,0,0,.144-1.272h3.264Zm6.624,1.392a1.611,1.611,0,0,1-.24.744.67.67,0,0,1-.552.168c-.24,0-.816-.024-1.464-.1a4.691,4.691,0,0,1,.288.768H-8.28v-1.584Zm-2.5,4.176H-17.472V-9.36H-6.264Zm0,2.544H-17.472V-6.84H-6.264ZM-4.008-1.68v-8.376a3.389,3.389,0,0,0,.528-.024,1.919,1.919,0,0,0,1.248-.48,4.92,4.92,0,0,0,.624-2.5c.024-.24.048-.648.048-.648H-8.28v-1.272h5.208v-3.96H-8.28v-1.2h-2.112v1.2h-3.264v-1.2h-2.016v1.2h-5.664v1.392h5.664v1.176h-4.656a37.788,37.788,0,0,1-.648,4.056h3.96c-1.008.816-2.736,1.512-5.64,1.968A8.1,8.1,0,0,1-21.6-8.592a18.62,18.62,0,0,0,1.968-.432V-1.68h3.7A28.387,28.387,0,0,1-22.68.288,12.888,12.888,0,0,1-21.072,1.92,32.858,32.858,0,0,0-13.7-.912l-1.728-.768h6.36l-.912.888a61.086,61.086,0,0,1,6.912,2.64L-1.416.48C-2.9-.144-5.208-.984-7.464-1.68ZM13.3-7.344V-10.9H19.1v3.552Zm-7.536,0c.072-.888.1-1.776.1-2.592v-.96h5.208v3.552Zm5.3-9.024v3.384H5.856v-3.384Zm8.04,3.384H13.3v-3.384H19.1Zm2.232-5.52H3.648V-9.96c0,3.384-.24,7.632-2.856,10.536A7.387,7.387,0,0,1,2.544,2.04a13.767,13.767,0,0,0,3-7.272h5.52V1.632H13.3V-5.232H19.1v4.3c0,.456-.168.6-.6.6-.456,0-2.04.024-3.576-.048a9.222,9.222,0,0,1,.744,2.16,13.138,13.138,0,0,0,4.488-.384c.864-.336,1.176-1.008,1.176-2.3Z" transform="translate(1998 612)" fill="#fff"/>
        <path id="路径_582" data-name="路径 582" d="M-115.06-8.96l1.66-1.94,1.66,1.94,1.04-.76L-112-11.9l2.26-.96-.4-1.22-2.4.56-.22-2.5h-1.3l-.22,2.52-2.4-.58-.4,1.22,2.26.96-1.28,2.18Zm10.96-7.74A23.171,23.171,0,0,1-108-8.8a14.686,14.686,0,0,1,.96,1.96,19.688,19.688,0,0,0,1.5-2.18V1.58h1.78V-12.5c.52-1.22,1-2.48,1.4-3.72Zm5.66,14.1h4.74a10.467,10.467,0,0,1-2.52,1.4,12.828,12.828,0,0,1-2.4-1.24Zm6.22-1.24-.3.08h-4.6a5.651,5.651,0,0,0,.66-.74h2.14c1.08,0,1.5-.34,1.62-1.42A14.36,14.36,0,0,1-91.22-4.2l1.02-.7a14.232,14.232,0,0,0-2.18-2.26l-1,.6c.18.18.4.4.62.6a4.389,4.389,0,0,1-1.16-.38c-.06.66-.16.78-.6.78h-2.14c-.6,0-.72-.06-.72-.44V-7.06h-1.5v.48l-.98-.52a6.673,6.673,0,0,1-1.98,1.98l1.06.84a7.205,7.205,0,0,0,1.9-2V-6c0,.76.16,1.14.68,1.34a9.241,9.241,0,0,1-1.52,1.32,8.243,8.243,0,0,1-.56-.62l-1.38.52c.24.28.46.58.74.86a17.884,17.884,0,0,1-1.86.88,4.53,4.53,0,0,1,1.06,1.08,16.49,16.49,0,0,0,1.88-1A11.406,11.406,0,0,0-98.2-.58a32.361,32.361,0,0,1-4.86.86,5.177,5.177,0,0,1,.9,1.36A29.065,29.065,0,0,0-96.22.3a24.82,24.82,0,0,0,5.84,1.3A6.182,6.182,0,0,1-89.46.18a27.4,27.4,0,0,1-4.72-.76A8.061,8.061,0,0,0-91.06-3.2Zm-6.86-5.62h6.16v.76h-6.16Zm6.16-3.22v.74h-6.16v-.74Zm0,2.36h-6.16v-.78h6.16Zm1.74,1.62v-4.98h-4.38l.36-.88h5.46v-1.38H-102.1v1.38h4.94c-.06.3-.12.58-.2.88h-3.38V-8.7h-1.9v2.74h1.6V-7.6h4.54l-.66.4a10.212,10.212,0,0,1,1.74,1.42l1.06-.66A10.933,10.933,0,0,0-95.82-7.6h4.76v1.62h1.66V-8.7Zm17.84-3.22v1.12h-4.4v-1.12Zm0,3.38h-4.4V-9.68h4.4ZM-77.74-6V-7.38h2.8l-.92.68a11.822,11.822,0,0,1,1.34.66Zm-6.28-2.54V-9.68h4.36v1.14Zm0-3.38h4.36v1.12h-4.36Zm4.36-1.16h-6.12v5.7h6.12V-6c-2.82.02-5.42.04-7.36.02l.08,1.58c2.06-.02,4.74-.04,7.62-.1l-1.1.92a13.821,13.821,0,0,1,3.16,2.36L-76-2.32A13.385,13.385,0,0,0-79.1-4.5c2.18-.04,4.48-.08,6.72-.14.42.36.84.68,1.14,1l1.26-1.02a17.987,17.987,0,0,0-4.1-2.72h2.58v-5.7h-6.24V-14.2h7.62v-1.48h-7.62v-1.08h-1.92v1.08h-7.38v1.48h7.38ZM-85.98,1a13.907,13.907,0,0,0,1.86-3.88l-1.6-.66A11.2,11.2,0,0,1-87.58.1Zm5.92-1.24c-1.2,0-1.42-.08-1.42-.62V-3.42h-1.84V-.84c0,1.68.64,2.14,3.12,2.14h4.24c1.9,0,2.44-.54,2.68-2.8a5.135,5.135,0,0,1-1.62-.62C-75-.48-75.18-.24-76.12-.24Zm6.42-2.7A15.454,15.454,0,0,1-71.5.92l1.7-.6a13.942,13.942,0,0,0-2.24-3.8ZM-67.68,0h9.5V-1.96h-3.68c-.72,0-1.64.06-2.4.14,3.12-2.98,5.38-5.92,5.38-8.76A4.163,4.163,0,0,0-63.32-15a5.776,5.776,0,0,0-4.48,2.2l1.3,1.28a3.992,3.992,0,0,1,2.9-1.64,2.4,2.4,0,0,1,2.5,2.7c0,2.42-2.24,5.28-6.58,9.12Zm16.22.26c2.88,0,4.76-2.56,4.76-7.68,0-5.08-1.88-7.58-4.76-7.58-2.9,0-4.76,2.48-4.76,7.58C-56.22-2.3-54.36.26-51.46.26Zm0-1.82c-1.5,0-2.56-1.6-2.56-5.86,0-4.22,1.06-5.76,2.56-5.76s2.56,1.54,2.56,5.76C-48.9-3.16-49.96-1.56-51.46-1.56ZM-44.88,0h9.5V-1.96h-3.68c-.72,0-1.64.06-2.4.14,3.12-2.98,5.38-5.92,5.38-8.76A4.163,4.163,0,0,0-40.52-15,5.776,5.776,0,0,0-45-12.8l1.3,1.28a3.992,3.992,0,0,1,2.9-1.64,2.4,2.4,0,0,1,2.5,2.7c0,2.42-2.24,5.28-6.58,9.12Zm16.22.26c2.88,0,4.76-2.56,4.76-7.68,0-5.08-1.88-7.58-4.76-7.58-2.9,0-4.76,2.48-4.76,7.58C-33.42-2.3-31.56.26-28.66.26Zm0-1.82c-1.5,0-2.56-1.6-2.56-5.86,0-4.22,1.06-5.76,2.56-5.76s2.56,1.54,2.56,5.76C-26.1-3.16-27.16-1.56-28.66-1.56Zm5.94,5.16h1.6l5.56-19.56h-1.6ZM-9.46.26C-6.58.26-4.7-2.3-4.7-7.42-4.7-12.5-6.58-15-9.46-15c-2.9,0-4.76,2.48-4.76,7.58C-14.22-2.3-12.36.26-9.46.26Zm0-1.82c-1.5,0-2.56-1.6-2.56-5.86,0-4.22,1.06-5.76,2.56-5.76S-6.9-11.64-6.9-7.42C-6.9-3.16-7.96-1.56-9.46-1.56ZM1.62-7.2C.08-7.2-.76-8.28-.76-10.16c0-1.92,1-3.06,2.26-3.06,1.6,0,2.7,1.32,2.92,4.22A3.53,3.53,0,0,1,1.62-7.2ZM-2.66-1.3A5.052,5.052,0,0,0,1.1.26c2.84,0,5.48-2.32,5.48-8.12C6.58-12.72,4.3-15,1.48-15-.9-15-2.9-13.08-2.9-10.16c0,3.08,1.66,4.62,4.12,4.62A4.426,4.426,0,0,0,4.46-7.26C4.32-3.06,2.78-1.62,1-1.62a3.281,3.281,0,0,1-2.42-1.1ZM7.88,3.6h1.6l5.56-19.56h-1.6ZM20.8.26c2.7,0,4.92-1.56,4.92-4.22a3.727,3.727,0,0,0-3.04-3.68v-.1a3.558,3.558,0,0,0,2.54-3.46c0-2.44-1.86-3.8-4.5-3.8a6.2,6.2,0,0,0-4.22,1.78l1.2,1.44a4.311,4.311,0,0,1,2.94-1.4,2.06,2.06,0,0,1,2.26,2.14c0,1.48-.96,2.58-3.86,2.58v1.7c3.32,0,4.36,1.06,4.36,2.7,0,1.52-1.14,2.44-2.8,2.44a4.757,4.757,0,0,1-3.48-1.62L16-1.76A6.11,6.11,0,0,0,20.8.26Zm11.74,0c2.88,0,4.76-2.56,4.76-7.68,0-5.08-1.88-7.58-4.76-7.58-2.9,0-4.76,2.48-4.76,7.58C27.78-2.3,29.64.26,32.54.26Zm0-1.82c-1.5,0-2.56-1.6-2.56-5.86,0-4.22,1.06-5.76,2.56-5.76s2.56,1.54,2.56,5.76C35.1-3.16,34.04-1.56,32.54-1.56ZM42.26-4.1c.04-.58.06-1.16.06-1.66V-5.8h3.9v1.7Zm3.96-4.84v1.72h-3.9V-8.94ZM48-10.44H40.64v4.66c0,1.96-.14,4.52-1.44,6.34a7.5,7.5,0,0,1,1.42,1.06,9.609,9.609,0,0,0,1.5-4.3h4.1V-.42c0,.26-.08.34-.36.36-.24.02-1.12.02-2-.02a7.792,7.792,0,0,1,.62,1.6,6.761,6.761,0,0,0,2.76-.32C47.82.94,48,.48,48-.38ZM54.1-.6c0,.28-.1.36-.42.38-.3.02-1.38.02-2.5-.02a6.484,6.484,0,0,1,.66,1.76,8.268,8.268,0,0,0,3.2-.34c.68-.28.9-.78.9-1.76V-10.82H54.1Zm-2.26-9.66H50.12v8.14h1.72Zm.94-3.48c.56-.76,1.12-1.64,1.66-2.5l-2.02-.62a18.917,18.917,0,0,1-1.76,3.12H44.9l1.02-.38A12.015,12.015,0,0,0,44-16.8l-1.74.6a13.305,13.305,0,0,1,1.66,2.46H39.34v1.7H57.16v-1.7Zm21.04,3.58v3.1H68.9a29.712,29.712,0,0,0,.42-3.1ZM63.1-7.06v-3.1h4.26a24.666,24.666,0,0,1-.42,3.1Zm6.38-6.76a16.822,16.822,0,0,1-1.5,2H63.2a22.779,22.779,0,0,0,1.72-2ZM72.02-.46c-.84,0-.98-.1-.98-.72V-5.4h4.74v-6.42h-5.6a21.407,21.407,0,0,0,1.94-2.8l-1.3-.82-.28.08H66.02a10.928,10.928,0,0,0,.68-1.1l-2.04-.38a17.744,17.744,0,0,1-5.68,6.16,6.174,6.174,0,0,1,1.34,1.36c.32-.22.62-.46.92-.7V-5.4h5.2c-.94,2.32-2.86,4.18-7.18,5.26a5.391,5.391,0,0,1,1.06,1.56c5-1.38,7.14-3.78,8.14-6.82h.64v4.24c0,1.82.54,2.36,2.66,2.36h3.06c1.82,0,2.32-.76,2.54-3.62a5.806,5.806,0,0,1-1.7-.72c-.08,2.3-.22,2.68-.98,2.68Zm22.16-9.1v1.08h-2.6V-9.56Zm0,3.32h-2.6v-1.1h2.6Zm-7.06,0v-1.1h2.66v1.1Zm0-3.32h2.66v1.08H87.12Zm-1.14-2.2h3.8v1H85.52v5.72h4.26v.98H84.52v1.4h5.26v1.52h1.8V-2.66h5.34v-1.4H91.58v-.98h4.26v-5.72H91.58v-1H95V-13.1H91.58v-.92h-1.8v.92H86.1v-1.6h8.98v2.32h1.78v-3.74H84.38v3.74h1.6Zm-3-1.74c-.26-.86-.74-2.18-1.1-3.22l-1.64.48c.32,1.06.82,2.48,1.04,3.36Zm.1,5.84-.28.06h-.74c.52-1.38,1.08-3.02,1.56-4.44H79.2v1.68h2.08C80.78-8.8,80.16-7.18,79.64-6h2.58a18.152,18.152,0,0,1-1.18,3.82A7.469,7.469,0,0,0,78.88-.04l1.26,1.72C80.68.46,81.36-.84,81.82-.84c.42,0,1.16.7,1.96,1.16,1.44.84,3.16,1.06,5.78,1.06,2.34,0,6-.12,7.56-.22a7.682,7.682,0,0,1,.54-1.92,73.66,73.66,0,0,1-8.02.46c-2.34,0-4.16-.12-5.56-.96-.6-.36-1-.68-1.34-.88a23.529,23.529,0,0,0,1.44-5.02Zm20.6,4.08h9.34v1.06h-9.34Zm5.9-6.68v1.32h-4.46a4.345,4.345,0,0,0,1.2-1.32Zm-4.42-2.22a3.721,3.721,0,0,1-.24,1.06H102.6c.06-.34.12-.7.18-1.06Zm1.7-2.14h2.72v.98h-2.72Zm7.12,0v.98h-2.64v-.98Zm-4.4,3.2h-2.84a4.53,4.53,0,0,0,.12-1.06h2.72Zm5.52,1.16a1.342,1.342,0,0,1-.2.62.558.558,0,0,1-.46.14c-.2,0-.68-.02-1.22-.08a3.911,3.911,0,0,1,.24.64h-2.12v-1.32Zm-2.08,3.48h-9.34V-7.8h9.34Zm0,2.12h-9.34V-5.7h9.34ZM114.9-1.4V-8.38a2.824,2.824,0,0,0,.44-.02,1.6,1.6,0,0,0,1.04-.4,4.1,4.1,0,0,0,.52-2.08c.02-.2.04-.54.04-.54h-5.6v-1.06h4.34v-3.3h-4.34v-1h-1.76v1h-2.72v-1h-1.68v1h-4.72v1.16h4.72v.98H101.3a31.488,31.488,0,0,1-.54,3.38h3.3a9.988,9.988,0,0,1-4.7,1.64,6.751,6.751,0,0,1,.88,1.46,15.517,15.517,0,0,0,1.64-.36V-1.4h3.08A23.656,23.656,0,0,1,99.34.24a10.74,10.74,0,0,1,1.34,1.36,27.382,27.382,0,0,0,6.14-2.36l-1.44-.64h5.3l-.76.74a50.9,50.9,0,0,1,5.76,2.2L117.06.4c-1.24-.52-3.16-1.22-5.04-1.8Z" transform="translate(1627 721)" fill="#ff1c1c"/>
      </g>
    </g>
  </g>
</svg>
