<svg xmlns="http://www.w3.org/2000/svg" xmlns:xlink="http://www.w3.org/1999/xlink" width="375" height="667" viewBox="0 0 375 667">
  <defs>
    <filter id="路径_506" x="80" y="138.052" width="215.121" height="43" filterUnits="userSpaceOnUse">
      <feOffset dy="4" input="SourceAlpha"/>
      <feGaussianBlur stdDeviation="3" result="blur"/>
      <feFlood flood-color="#fff"/>
      <feComposite operator="in" in2="blur"/>
      <feComposite in="SourceGraphic"/>
    </filter>
    <linearGradient id="linear-gradient" x1="1.048" y1="0.009" x2="0.133" y2="0.805" gradientUnits="objectBoundingBox">
      <stop offset="0" stop-color="#fff"/>
      <stop offset="1" stop-color="#fff" stop-opacity="0"/>
    </linearGradient>
    <linearGradient id="linear-gradient-2" x1="0.923" y1="-0.339" x2="0.201" y2="0.946" xlink:href="#linear-gradient"/>
    <linearGradient id="linear-gradient-3" x1="1.15" y1="-0.034" x2="0.161" y2="0.814" xlink:href="#linear-gradient"/>
    <clipPath id="clip-cover6_m">
      <rect width="375" height="667"/>
    </clipPath>
  </defs>
  <g id="cover6_m" clip-path="url(#clip-cover6_m)">
    <rect width="375" height="667" fill="#fff"/>
    <rect id="cover1" width="375" height="667" fill="#f6e5de"/>
    <g transform="matrix(1, 0, 0, 1, 0, 0)" filter="url(#路径_506)">
      <path id="路径_506-2" data-name="路径 506" d="M-81.87-14.069q1.255,0,1.389,1.5V1.93q-.027.855-.8.881h-3.259V-7.178h-5.021a1.358,1.358,0,0,1-1.522-1.549V-12.6h-1.5q-.935,5.288-6.864,6.811H-99.5V2.838h-4.033V-14.069h5.556a10.978,10.978,0,0,0-2.751-1.87,6.94,6.94,0,0,0,2.7-1.843h-6.036v-1.5h8.948a2.913,2.913,0,0,0,.694-.828,2.437,2.437,0,0,1,.881-1.015,7.628,7.628,0,0,1,3.766-.668,8.124,8.124,0,0,0,.214,2.083,1,1,0,0,0,.24.427h9.161v1.5H-85.93a9.531,9.531,0,0,0,2.644,1.816,7.951,7.951,0,0,0-2.671,1.9Zm-5.048,0a9.533,9.533,0,0,0-2.778-1.9,7.464,7.464,0,0,0,2.644-1.816h-9.909a9.728,9.728,0,0,0,2.644,1.843,7.444,7.444,0,0,0-2.618,1.87Zm-.427,1.469v3.9h2.8v-3.9ZM-99.5-7.018A13.287,13.287,0,0,0-97.816-9.1a9.125,9.125,0,0,0,1.1-3.5H-99.5Zm13.328,8.173H-97.629v-7.1h10.2q1.255.027,1.255,1.389Zm-7.585-5.689v4.22h3.766v-4.22Zm40.15-6.437H-73.158V-21.2h18.429q1.122.027,1.122,1.229Zm-15.545-8.761v7.238H-57.64v-7.238Zm5.1,22.062H-75.214V-9.475h9.963q1.2.027,1.2,1.309ZM-71.288-7.953V.755h3.419V-7.953ZM-51.309,2.3H-62.581V-9.475h10.069q1.2.027,1.2,1.309ZM-58.574-7.979V.755H-55.1V-7.979Zm24.792-13.969h3.739v1.309h5.475q.668.187.8,1.149v3.045h-6.277v1.309h2.938q4.541.053,4.674,2.163,0,2.778-5.155,2.965-.534,0-1.122-.053-.347-.027-.347-.321a.286.286,0,0,1,.214-.321q2.244-.187,2.484-1.923-.027-1.015-2.137-1.042h-1.549v3.526h-3.739v-3.526H-36.8q-1.843,3.259-9.028,3.98-.481,0-.534-.16a.406.406,0,0,1,.214-.4q4.354-1.068,5.636-3.419h-2.35a5.032,5.032,0,0,1-2.244,1.576q-.775,0-.775-.855v-4.968h5.9v-1.309H-46.2v-1.416h6.223v-1.255h3.793v1.255h2.4Zm-8.52,6.811h2.27a3.6,3.6,0,0,0,.053-.588v-.721h-2.3v.828A3.9,3.9,0,0,1-42.3-15.137Zm6.036,0h2.484v-1.309h-2.4v.721A5.217,5.217,0,0,1-36.267-15.137Zm.08-4.087v1.309h2.4v-1.309Zm6.143,1.309H-27.4v-1.309h-2.644ZM-42.837-.42h-2.484V-9.5H-25q1.122.027,1.122,1.229V-.42h-2.35q.294.321.534.588a16.422,16.422,0,0,0,1.656,1.576q0,.668-.347.721a2.193,2.193,0,0,1-1.042-.24A15.093,15.093,0,0,1-29.349.755,10.517,10.517,0,0,1-31.085-.42h-6.651a11.361,11.361,0,0,1-2.7,1.843,16.6,16.6,0,0,1-3.526,1.229,2.294,2.294,0,0,1-.855.214q-.16,0-.16-.534A12.4,12.4,0,0,0-42.837-.42Zm1.5-7.666v6.2h13.515v-6.2Zm3.5.267a7.744,7.744,0,0,0,2.778,1.976,7.331,7.331,0,0,0-2.778,2q-.374-.881-2.778-2A6.314,6.314,0,0,0-37.843-7.819Zm6.33,1.763A8.081,8.081,0,0,0-28.735-4.08a7.229,7.229,0,0,0-2.778,2.03q-.374-.908-2.778-2.03A6.314,6.314,0,0,0-31.512-6.056Zm19.957-5.582v3.579A18.671,18.671,0,0,1-11.769-6h4.06v-5.636Zm-.507,7.131a11.013,11.013,0,0,1-5.529,7.559,31.826,31.826,0,0,0,1.576-9V-16.1a6.74,6.74,0,0,1,4.087-5.716l1.068.347q-.134.347-.24.721H2.841q1.549,0,1.656,1.736V1.823q-.027.8-.748.828H.063V-4.507H-3.6V2.624H-7.709V-4.507Zm.694-14.744a23.429,23.429,0,0,0-.214,2.457l.027,3.659h3.846v-6.116ZM.063-6v-5.636H-3.6V-6Zm0-7.131v-6.116H-3.6v6.116Zm17.767-8.761.668,1.389a24.772,24.772,0,0,1-2.511,1.015q-.4.134-.855.267v4.087h2.911v1.469H15.133V-9.8h2.858v1.469H15.133V-4.24H30.144v-4.3H27.5v-1.469h2.644v-3.766H27.5v-1.469h2.644v-4.3H27.579v-1.442H32.36q1.362,0,1.442,1.5V-4.24h1.6v1.469H10.192V-4.24H11.5V-20.559h3.072q.454-.134.8-.267A22.42,22.42,0,0,0,17.831-21.895ZM14.973-2.13h5.288A11.17,11.17,0,0,1,16.5,1.155a17.144,17.144,0,0,1-4.06,1.629,2.123,2.123,0,0,1-.881.24q-.187,0-.187-.561A15.369,15.369,0,0,0,14.973-2.13Zm15.839,0A14.249,14.249,0,0,0,32.2.087a30.467,30.467,0,0,0,2.03,2.3q0,.534-.267.561a1.512,1.512,0,0,1-.775-.187,13.858,13.858,0,0,1-4.38-2.03A11.577,11.577,0,0,1,25.79-2.13Zm-8.12-15.652-.16,1.763H24.8q1.79,0,1.95,2.083v5.128q-.08,3.926-2.511,4.006a14.231,14.231,0,0,1-3.312-.561q-.107.454-.187.775l-2.8-.321a68.531,68.531,0,0,0,1.229-7.372l2.885.16q-.374,2.858-.748,4.888a3.709,3.709,0,0,0,1.042.294q1.362,0,1.389-2.618v-4.434H19.059l.694-7.559h3.285l-.187,2H26.8v1.763ZM40-17.942h3.152v-3.819h3.953v3.819h2.831v1.469H47.109v3.686a32.085,32.085,0,0,1-.294,3.659h3.392v1.469H47.483a31.648,31.648,0,0,0,1.149,3.392Q49.46-2.13,50.5-.073a19.054,19.054,0,0,0,2.03-4.407H50.555V-21.2H61.693q1.255.027,1.255,1.389V-4.48H61.132V1.1H64.07l-.187,1.442H58.621a1.287,1.287,0,0,1-1.442-1.469V-4.48h-.427Q54.161,2.17,48.9,2.918q-.694,0-.694-.321A9.729,9.729,0,0,0,49.887.862a2.161,2.161,0,0,1-.454-.24,13.706,13.706,0,0,1-3.98-4.3,11.421,11.421,0,0,1-6.17,6.571q-.668,0-.668-.347a22.983,22.983,0,0,0,4.167-10.2H39.123V-9.128H43q.134-1.229.16-2.457v-4.888H40Zm16.106-.134a6.943,6.943,0,0,0,2.511,2,6.53,6.53,0,0,0-2.511,2.03,3.759,3.759,0,0,0-1.656-1.522v3.659a6.5,6.5,0,0,0,1.709-1.709,7.321,7.321,0,0,0,2.511,2.137,6.5,6.5,0,0,0-2.511,2.163,3.981,3.981,0,0,0-1.709-1.656V-5.9h4.487V-19.838H54.454V-16.5A6.632,6.632,0,0,0,56.11-18.075Zm11.731-.614H72.3v-3.072h3.579v3.072h2.457v1.469H75.881v7.1a24.251,24.251,0,0,0,2.778,2.8v-.641H90.25q1.442.027,1.442,1.576V2.518H78.659V-6.4l-.962,1.1a25.7,25.7,0,0,1-1.816-1.9V2.865H72.3V-5.308a11.379,11.379,0,0,1-4.247,6.944A29.391,29.391,0,0,0,69.337-7.2Q69.2-10.25,67.6-10.356v-1.309l4.407-5.556H67.841Zm4.46,3.552-1.976,2.7A3.441,3.441,0,0,1,72.3-9.982Zm18.643-5.208q1.068,0,1.068,1.335a20.176,20.176,0,0,1-4.7,6.25,21.9,21.9,0,0,0,5.342,3.446.621.621,0,0,1,.4.534q-.027.214-.561.347a22.008,22.008,0,0,1-7.238-2.778,18.738,18.738,0,0,1-6.971,2.778q-.775,0-.775-.294a.754.754,0,0,1,.16-.507,18.975,18.975,0,0,0,5.262-3.5,18.522,18.522,0,0,1-2.8-2.618,9.345,9.345,0,0,1-1.229.775,2.727,2.727,0,0,1-1.1.294q-.214,0-.214-.694a25.888,25.888,0,0,0,2.8-6.731h4.247a10.384,10.384,0,0,1-.561,1.362ZM82.718-18a28.023,28.023,0,0,0,2.324,2.965,20.954,20.954,0,0,0,2.35-3.846H83.306Q83.012-18.423,82.718-18Zm-.24,11.512V.968h5.288V-6.483Z" transform="translate(193.07 165)" fill="#ee8000"/>
    </g>
    <g id="组_17872" data-name="组 17872" transform="translate(-4553 2281)">
      <rect id="矩形_3201" data-name="矩形 3201" width="358" height="136" rx="10" transform="translate(4562 -1927)" fill="#fff"/>
      <g id="矩形_3342" data-name="矩形 3342" transform="translate(4659 -1919)" fill="#ffe9d0" stroke="#fff" stroke-width="1">
        <rect width="127" height="40" stroke="none"/>
        <rect x="0.5" y="0.5" width="126" height="39" fill="none"/>
      </g>
      <path id="路径_526" data-name="路径 526" d="M-11.34.26c3.22,0,5.18-1.92,5.18-4.28,0-2.16-1.26-3.24-3-3.98l-2.02-.86c-1.2-.48-2.38-.96-2.38-2.22,0-1.18.98-1.9,2.48-1.9a4.688,4.688,0,0,1,3.24,1.32l1.22-1.48A6.305,6.305,0,0,0-11.08-15c-2.8,0-4.84,1.74-4.84,4.06,0,2.14,1.58,3.26,3,3.86l2.04.88c1.36.6,2.36,1.02,2.36,2.36,0,1.24-1,2.08-2.78,2.08A5.707,5.707,0,0,1-15.22-3.5l-1.36,1.6A7.344,7.344,0,0,0-11.34.26ZM.8-1.5c-1.58,0-2.64-1.38-2.88-4.3A3.426,3.426,0,0,1,.66-7.52c1.58,0,2.42,1.06,2.42,2.96S2.08-1.5.8-1.5ZM4.98-13.42A4.943,4.943,0,0,0,1.3-15c-2.9,0-5.56,2.26-5.56,7.92,0,5,2.28,7.34,5.08,7.34a4.486,4.486,0,0,0,4.4-4.82c0-3.12-1.66-4.64-4.14-4.64a4.425,4.425,0,0,0-3.2,1.7c.1-4.2,1.66-5.62,3.54-5.62a3.163,3.163,0,0,1,2.3,1.1ZM11.78.26c2.88,0,4.76-2.56,4.76-7.68,0-5.08-1.88-7.58-4.76-7.58-2.9,0-4.76,2.48-4.76,7.58C7.02-2.3,8.88.26,11.78.26Zm0-1.82c-1.5,0-2.56-1.6-2.56-5.86,0-4.22,1.06-5.76,2.56-5.76s2.56,1.54,2.56,5.76C14.34-3.16,13.28-1.56,11.78-1.56Z" transform="translate(4723 -1892)" fill="#9f611c"/>
      <g id="矩形_3343" data-name="矩形 3343" transform="translate(4569 -1919)" fill="#ef7e00" stroke="#fff" stroke-width="1">
        <rect width="90" height="40" stroke="none"/>
        <rect x="0.5" y="0.5" width="89" height="39" fill="none"/>
      </g>
      <g id="矩形_3342-2" data-name="矩形 3342" transform="translate(4659 -1879)" fill="#ffe9d0" stroke="#fff" stroke-width="1">
        <rect width="127" height="40" stroke="none"/>
        <rect x="0.5" y="0.5" width="126" height="39" fill="none"/>
      </g>
      <path id="路径_524" data-name="路径 524" d="M-36.52-8.18a14.538,14.538,0,0,0-1.26-1.64,14.976,14.976,0,0,0,1.42-2.02l-1.22-.22a7.859,7.859,0,0,1-.96,1.38l-.7-.7A10.078,10.078,0,0,0-38.14-13l-1.2-.2a5.088,5.088,0,0,1-.7,1.06,11.7,11.7,0,0,0-.94-.8l-.98.62c.38.32.76.66,1.12,1.02a8.652,8.652,0,0,1-1.62,1.24,2.768,2.768,0,0,1,.78.82,10.826,10.826,0,0,0,1.62-1.26,7.84,7.84,0,0,1,.68.74,12.123,12.123,0,0,1-2.4,1.8,3.055,3.055,0,0,1,.76.84,14.839,14.839,0,0,0,2.38-1.8,13.663,13.663,0,0,1,1.08,1.5Zm.24,1.2h-6.24V-13.4h6.24Zm1.68-7.92h-5c.24-.5.56-1.1.86-1.68l-1.9-.32a16.34,16.34,0,0,1-.64,2h-2.86v9.44h9.54ZM-37.24-2.28c-.4-.76-1.26-2.08-1.88-3.04l-1.2.56c.62,1.02,1.42,2.38,1.82,3.18ZM-44.76-5.2a26.337,26.337,0,0,0-1.2-3.82l-1.28.36a15.046,15.046,0,0,1,.5,1.52l-2.62.46a39.444,39.444,0,0,0,4.22-6.36l-1.52-.8a26.828,26.828,0,0,1-1.4,2.72l-1.78.14a30.185,30.185,0,0,0,2.76-5.16l-1.66-.68a22.751,22.751,0,0,1-2.3,4.96c-.38.6-.7,1-1.04,1.1.18.44.44,1.24.54,1.58a9.619,9.619,0,0,1,2.56-.48,19.422,19.422,0,0,1-1.5,2.14c-.58.72-1.02,1.22-1.48,1.32a8.736,8.736,0,0,1,.56,1.56c.38-.22,1-.42,5.04-1.2q.15.6.24,1.08Zm-6.18,1.28A18.011,18.011,0,0,1-51.98.64a8.317,8.317,0,0,1,1.3.48,23.351,23.351,0,0,0,1.1-4.8Zm1.88.22A37.394,37.394,0,0,1-48.58.52L-47.26.2a34.26,34.26,0,0,0-.54-4.18Zm1.86-.38a24.3,24.3,0,0,1,.78,3.36l1.28-.4a26.943,26.943,0,0,0-.84-3.32ZM-44.18.68a20.131,20.131,0,0,0,1.34-4.36l-1.3-.48A16.332,16.332,0,0,1-45.52.06Zm3.92-.88c-.68,0-.78-.08-.78-.54V-4.12H-42.6V-.74c0,1.46.42,1.88,2.14,1.88h2.62c1.38,0,1.8-.56,1.98-2.74a3.884,3.884,0,0,1-1.38-.58C-37.32-.46-37.44-.2-38-.2Zm3.7-3.56A43.92,43.92,0,0,1-34.92.36l1.36-.62c-.38-1.06-1.1-2.72-1.74-4.02Zm8.76-2.08V-7.06h3.96v1.22Zm0-3.64h3.96v1.24H-27.8Zm10.02,0v1.24h-4.2V-9.48Zm0,3.64h-4.2V-7.06h4.2Zm-4.2,5.32V-1.94h6.84V-3.4h-6.84V-4.54h6.1v-6.22h-6.1v-1.02H-14v-1.48h-7.98v-1.32c2.26-.16,4.4-.38,6.12-.68l-.94-1.46a108.445,108.445,0,0,1-13.32,1.04,5.8,5.8,0,0,1,.38,1.46c1.86-.04,3.9-.1,5.9-.22v1.18h-7.78v1.48h7.78v1.02h-5.78v6.22h5.78V-3.4h-6.4v1.46h6.4V-.52h-7.88V.98h17.86V-.52ZM1.7-14.24H-7.44v-.9H1.7Zm0,1.9H-7.44v-.92H1.7Zm1.88-3.82H-9.24v4.84H3.58Zm2.56,5.6H-11.72V-9.2H6.14ZM-7.84-4.5v-.94h4.1v.94Zm0-2.88h4.1v.92h-4.1ZM2.3-6.46H-1.94v-.92H2.3Zm0,1.96H-1.94v-.94H2.3ZM-1.94-.32v-.96H4.52V-2.54H-1.94v-.9H4.12v-5H-9.6v5h5.86v.9H-10.1v1.26h6.36v.96H-11.8V1.1H6.22V-.32ZM17.82-2.76V-4.7l-4.5-1.62L10.3-7.42V-7.5l3.02-1.12,4.5-1.6v-1.96L7.94-8.32V-6.6ZM23.94.26a4.856,4.856,0,0,0,4.96-5.1c0-3.22-2.02-4.68-4.48-4.68A4.15,4.15,0,0,0,22.4-9l.34-3.78H28.2v-1.94H20.74L20.3-7.74,21.42-7a3.873,3.873,0,0,1,2.36-.84c1.68,0,2.8,1.12,2.8,3.08a2.877,2.877,0,0,1-2.92,3.14A4.71,4.71,0,0,1,20.22-3.2l-1.1,1.5A6.514,6.514,0,0,0,23.94.26ZM31.72,0h2.24V-2.84l1.86-2.14L38.8,0h2.5L37.14-6.54,40.88-11H38.34L34.02-5.66h-.06V-15.94H31.72ZM46.76,4.94c3.52,0,5.76-1.72,5.76-3.84,0-1.88-1.36-2.68-3.96-2.68H46.54c-1.4,0-1.84-.42-1.84-1.08a1.458,1.458,0,0,1,.6-1.16,3.824,3.824,0,0,0,1.54.34c2.3,0,4.12-1.38,4.12-3.78a2.974,2.974,0,0,0-.72-2.02h2.1V-11h-3.9a4.587,4.587,0,0,0-1.6-.28,3.967,3.967,0,0,0-4.26,3.96A3.764,3.764,0,0,0,44.02-4.4v.08A2.714,2.714,0,0,0,42.8-2.28a2.022,2.022,0,0,0,1,1.82v.1a2.906,2.906,0,0,0-1.6,2.4C42.2,3.96,44.12,4.94,46.76,4.94Zm.08-9.9a2.145,2.145,0,0,1-2.08-2.36,2.094,2.094,0,0,1,2.08-2.34,2.105,2.105,0,0,1,2.08,2.34A2.145,2.145,0,0,1,46.84-4.96Zm.26,8.38c-1.82,0-2.94-.64-2.94-1.72A1.978,1.978,0,0,1,45.1.1a6.993,6.993,0,0,0,1.48.16h1.66c1.34,0,2.06.28,2.06,1.2C50.3,2.48,49.02,3.42,47.1,3.42Z" transform="translate(4723 -1853.1)" fill="#9f611c"/>
      <g id="矩形_3343-2" data-name="矩形 3343" transform="translate(4569 -1879)" fill="#ef7e00" stroke="#fff" stroke-width="1">
        <rect width="90" height="40" stroke="none"/>
        <rect x="0.5" y="0.5" width="89" height="39" fill="none"/>
      </g>
      <path id="路径_523" data-name="路径 523" d="M-34.98-5.84V-7.06h3.96v1.22Zm0-3.64h3.96v1.24h-3.96Zm10.02,0v1.24h-4.2V-9.48Zm0,3.64h-4.2V-7.06h4.2Zm-4.2,5.32V-1.94h6.84V-3.4h-6.84V-4.54h6.1v-6.22h-6.1v-1.02h7.98v-1.48h-7.98v-1.32c2.26-.16,4.4-.38,6.12-.68l-.94-1.46A108.445,108.445,0,0,1-37.3-15.68a5.8,5.8,0,0,1,.38,1.46c1.86-.04,3.9-.1,5.9-.22v1.18H-38.8v1.48h7.78v1.02H-36.8v6.22h5.78V-3.4h-6.4v1.46h6.4V-.52H-38.9V.98h17.86V-.52ZM-5.48-14.24h-9.14v-.9h9.14Zm0,1.9h-9.14v-.92h9.14Zm1.88-3.82H-16.42v4.84H-3.6Zm2.56,5.6H-18.9V-9.2H-1.04ZM-15.02-4.5v-.94h4.1v.94Zm0-2.88h4.1v.92h-4.1Zm10.14.92H-9.12v-.92h4.24Zm0,1.96H-9.12v-.94h4.24ZM-9.12-.32v-.96h6.46V-2.54H-9.12v-.9h6.06v-5H-16.78v5h5.86v.9h-6.36v1.26h6.36v.96h-8.06V1.1H-.96V-.32ZM8.9-2.58c-.48-.62-2.54-3.1-3.32-3.9.04-.28.06-.54.08-.82H8.82V-9H5.76c.02-.44.02-.84.02-1.24v-1.7H8.46V-13.6H5.78v-2.96H4.04v2.96H1.32v1.66H4.04v1.7c0,.4,0,.8-.02,1.24H.94v1.7h3C3.7-4.72,2.98-1.9.74,0A6.312,6.312,0,0,1,2.08,1.28,10.886,10.886,0,0,0,5.24-4.56,37.917,37.917,0,0,1,7.62-1.22Zm2.32-5.56h5.1V-6.5h-5.1Zm0-3.12h5.1v1.62h-5.1Zm0-3.1h5.1v1.6h-5.1ZM16.26-.42c-.36,0-.42-.04-.42-.52v-3.9H18.1V-16.02H9.48V-4.84H11.2C10.9-2.52,10.16-.8,7.18.18a5,5,0,0,1,1.04,1.4c3.44-1.26,4.4-3.46,4.74-6.42h1.16v3.9c0,1.66.36,2.16,1.86,2.16h1.54c1.14,0,1.6-.5,1.78-2.46a4.406,4.406,0,0,1-1.52-.68c-.04,1.32-.14,1.5-.46,1.5Zm19.48-3.8v3.06H30.3V-4.22Zm-7.2,5.74H30.3V.48h5.44v1h1.84V-5.86H28.54Zm-.7-9.5c-.38-.5-1.94-2.56-2.44-3.06v-.24h2.02v-.18a9.865,9.865,0,0,1,.98,1.36,14.3,14.3,0,0,0,1.44-1.62,11.723,11.723,0,0,0,1.98,2.26A19.744,19.744,0,0,1,27.44-7.5Zm7.9-5.24a10.876,10.876,0,0,1-2.54,2.8,10.119,10.119,0,0,1-2.4-2.76l.04-.04Zm1.38-1.72-.3.08h-5.1a15.337,15.337,0,0,0,.68-1.56l-1.64-.46a13.268,13.268,0,0,1-3.34,5.2V-13H25.4v-3.76H23.64V-13H21.02v1.72h2.36a20.52,20.52,0,0,1-2.8,7.06,9.382,9.382,0,0,1,.9,1.86A20.15,20.15,0,0,0,23.64-7.5V1.58H25.4V-8.88c.5.84,1.02,1.78,1.28,2.32l.2-.24a7.08,7.08,0,0,1,.64,1.2A21.793,21.793,0,0,0,33.3-8.3a18.051,18.051,0,0,0,5.4,2.48,6.653,6.653,0,0,1,.66-1.72,16.446,16.446,0,0,1-4.68-1.84,13.713,13.713,0,0,0,3.62-4.86Z" transform="translate(4614 -1851.12)" fill="#fff"/>
      <g id="矩形_3342-3" data-name="矩形 3342" transform="translate(4659 -1839)" fill="#ffe9d0" stroke="#fff" stroke-width="1">
        <rect width="127" height="40" stroke="none"/>
        <rect x="0.5" y="0.5" width="126" height="39" fill="none"/>
      </g>
      <path id="路径_522" data-name="路径 522" d="M-39.28,0h8.4V-1.9h-2.88V-14.72H-35.5a9.042,9.042,0,0,1-3.2,1.12v1.46h2.64V-1.9h-3.22Zm12.4-5.74,2.9-4.44c.42-.76.82-1.52,1.18-2.26h.08c-.04.8-.12,2.04-.12,2.84v3.86Zm8.08,0h-1.88v-8.98h-2.66L-29.2-5.5v1.54h6.36V0h2.16V-3.96h1.88Zm5.96,6a4.856,4.856,0,0,0,4.96-5.1c0-3.22-2.02-4.68-4.48-4.68A4.15,4.15,0,0,0-14.38-9l.34-3.78h5.46v-1.94h-7.46l-.44,6.98,1.12.74A3.873,3.873,0,0,1-13-7.84c1.68,0,2.8,1.12,2.8,3.08a2.877,2.877,0,0,1-2.92,3.14A4.71,4.71,0,0,1-16.56-3.2l-1.1,1.5A6.514,6.514,0,0,0-12.84.26ZM10.28-15.3H-3.8v1.8H10.28ZM7.42-.52c-.72,0-.84-.12-.84-.84V-8.02h5.44v-1.8H-5.56v1.8H-.74C-1.02-4.5-1.7-1.52-5.88.04a4.889,4.889,0,0,1,1.16,1.5C-.02-.34.88-3.8,1.24-8.02H4.66v6.68c0,1.96.52,2.58,2.5,2.58H9.82c1.86,0,2.34-.98,2.54-4.44A5.95,5.95,0,0,1,10.62-4c-.08,2.96-.2,3.48-.94,3.48ZM13.44,3.6h1.6L20.6-15.96H19ZM26.2-16.7A22.413,22.413,0,0,1,21.64-9a12.409,12.409,0,0,1,1.02,1.88,20,20,0,0,0,1.56-1.94V1.54h1.76v-13.4a30.87,30.87,0,0,0,1.96-4.32ZM40.08-7.04h-5.3V-11h4.4v-1.82h-4.4v-3.72H32.92v3.72H30.68c.24-.84.46-1.7.64-2.56l-1.8-.36a17.78,17.78,0,0,1-2.38,6.66,12.289,12.289,0,0,1,1.6.9A14.266,14.266,0,0,0,30.08-11h2.84v3.96H27.38v1.82h5.54V1.56h1.86V-5.22h5.3Z" transform="translate(4723 -1812.3)" fill="#9f611c"/>
      <g id="矩形_3343-3" data-name="矩形 3343" transform="translate(4569 -1839)" fill="#ef7e00" stroke="#fff" stroke-width="1">
        <rect width="90" height="40" stroke="none"/>
        <rect x="0.5" y="0.5" width="89" height="39" fill="none"/>
      </g>
      <path id="路径_521" data-name="路径 521" d="M-14.56-3.58h9.34v1.06h-9.34Zm5.9-6.68v1.32h-4.46a4.345,4.345,0,0,0,1.2-1.32Zm-4.42-2.22a3.721,3.721,0,0,1-.24,1.06h-2.32c.06-.34.12-.7.18-1.06Zm1.7-2.14h2.72v.98h-2.72Zm7.12,0v.98H-6.9v-.98Zm-4.4,3.2H-11.5a4.53,4.53,0,0,0,.12-1.06h2.72Zm5.52,1.16a1.342,1.342,0,0,1-.2.62.558.558,0,0,1-.46.14c-.2,0-.68-.02-1.22-.08a3.91,3.91,0,0,1,.24.64H-6.9v-1.32ZM-5.22-6.78h-9.34V-7.8h9.34Zm0,2.12h-9.34V-5.7h9.34ZM-3.34-1.4V-8.38A2.824,2.824,0,0,0-2.9-8.4a1.6,1.6,0,0,0,1.04-.4,4.1,4.1,0,0,0,.52-2.08c.02-.2.04-.54.04-.54H-6.9v-1.06h4.34v-3.3H-6.9v-1H-8.66v1h-2.72v-1h-1.68v1h-4.72v1.16h4.72v.98h-3.88a31.49,31.49,0,0,1-.54,3.38h3.3a9.988,9.988,0,0,1-4.7,1.64A6.75,6.75,0,0,1-18-7.16a15.517,15.517,0,0,0,1.64-.36V-1.4h3.08A23.656,23.656,0,0,1-18.9.24,10.74,10.74,0,0,1-17.56,1.6,27.382,27.382,0,0,0-11.42-.76l-1.44-.64h5.3l-.76.74a50.9,50.9,0,0,1,5.76,2.2L-1.18.4C-2.42-.12-4.34-.82-6.22-1.4ZM11.08-6.12V-9.08h4.84v2.96Zm-6.28,0c.06-.74.08-1.48.08-2.16v-.8H9.22v2.96Zm4.42-7.52v2.82H4.88v-2.82Zm6.7,2.82H11.08v-2.82h4.84Zm1.86-4.6H3.04V-8.3c0,2.82-.2,6.36-2.38,8.78A6.156,6.156,0,0,1,2.12,1.7a11.472,11.472,0,0,0,2.5-6.06h4.6V1.36h1.86V-4.36h4.84V-.78c0,.38-.14.5-.5.5-.38,0-1.7.02-2.98-.04a7.685,7.685,0,0,1,.62,1.8,10.948,10.948,0,0,0,3.74-.32c.72-.28.98-.84.98-1.92Z" transform="translate(4614 -1811.22)" fill="#fff"/>
      <g id="矩形_3346" data-name="矩形 3346" transform="translate(4786 -1919)" fill="#ffd9af" stroke="#fff" stroke-width="1">
        <rect width="127" height="40" stroke="none"/>
        <rect x="0.5" y="0.5" width="126" height="39" fill="none"/>
      </g>
      <path id="路径_520" data-name="路径 520" d="M-11.34.26c3.22,0,5.18-1.92,5.18-4.28,0-2.16-1.26-3.24-3-3.98l-2.02-.86c-1.2-.48-2.38-.96-2.38-2.22,0-1.18.98-1.9,2.48-1.9a4.688,4.688,0,0,1,3.24,1.32l1.22-1.48A6.305,6.305,0,0,0-11.08-15c-2.8,0-4.84,1.74-4.84,4.06,0,2.14,1.58,3.26,3,3.86l2.04.88c1.36.6,2.36,1.02,2.36,2.36,0,1.24-1,2.08-2.78,2.08A5.707,5.707,0,0,1-15.22-3.5l-1.36,1.6A7.344,7.344,0,0,0-11.34.26ZM.06-7.2c-1.54,0-2.38-1.08-2.38-2.96,0-1.92,1-3.06,2.26-3.06,1.6,0,2.7,1.32,2.92,4.22A3.53,3.53,0,0,1,.06-7.2ZM-4.22-1.3A5.052,5.052,0,0,0-.46.26c2.84,0,5.48-2.32,5.48-8.12C5.02-12.72,2.74-15-.08-15c-2.38,0-4.38,1.92-4.38,4.84,0,3.08,1.66,4.62,4.12,4.62A4.426,4.426,0,0,0,2.9-7.26C2.76-3.06,1.22-1.62-.56-1.62a3.281,3.281,0,0,1-2.42-1.1Zm16,1.56c2.88,0,4.76-2.56,4.76-7.68,0-5.08-1.88-7.58-4.76-7.58-2.9,0-4.76,2.48-4.76,7.58C7.02-2.3,8.88.26,11.78.26Zm0-1.82c-1.5,0-2.56-1.6-2.56-5.86,0-4.22,1.06-5.76,2.56-5.76s2.56,1.54,2.56,5.76C14.34-3.16,13.28-1.56,11.78-1.56Z" transform="translate(4850 -1892)" fill="#9f611c"/>
      <g id="矩形_3347" data-name="矩形 3347" transform="translate(4786 -1879)" fill="#ffd9af" stroke="#fff" stroke-width="1">
        <rect width="127" height="40" stroke="none"/>
        <rect x="0.5" y="0.5" width="126" height="39" fill="none"/>
      </g>
      <path id="路径_519" data-name="路径 519" d="M-42.22-8.18a14.537,14.537,0,0,0-1.26-1.64,14.976,14.976,0,0,0,1.42-2.02l-1.22-.22a7.859,7.859,0,0,1-.96,1.38l-.7-.7A10.077,10.077,0,0,0-43.84-13l-1.2-.2a5.088,5.088,0,0,1-.7,1.06,11.7,11.7,0,0,0-.94-.8l-.98.62c.38.32.76.66,1.12,1.02a8.652,8.652,0,0,1-1.62,1.24,2.768,2.768,0,0,1,.78.82,10.826,10.826,0,0,0,1.62-1.26,7.839,7.839,0,0,1,.68.74,12.123,12.123,0,0,1-2.4,1.8,3.055,3.055,0,0,1,.76.84,14.839,14.839,0,0,0,2.38-1.8,13.662,13.662,0,0,1,1.08,1.5Zm.24,1.2h-6.24V-13.4h6.24Zm1.68-7.92h-5c.24-.5.56-1.1.86-1.68l-1.9-.32a16.339,16.339,0,0,1-.64,2h-2.86v9.44h9.54ZM-42.94-2.28c-.4-.76-1.26-2.08-1.88-3.04l-1.2.56c.62,1.02,1.42,2.38,1.82,3.18ZM-50.46-5.2a26.338,26.338,0,0,0-1.2-3.82l-1.28.36a15.045,15.045,0,0,1,.5,1.52l-2.62.46a39.444,39.444,0,0,0,4.22-6.36l-1.52-.8a26.828,26.828,0,0,1-1.4,2.72l-1.78.14a30.185,30.185,0,0,0,2.76-5.16l-1.66-.68a22.751,22.751,0,0,1-2.3,4.96c-.38.6-.7,1-1.04,1.1.18.44.44,1.24.54,1.58a9.619,9.619,0,0,1,2.56-.48,19.422,19.422,0,0,1-1.5,2.14c-.58.72-1.02,1.22-1.48,1.32a8.736,8.736,0,0,1,.56,1.56c.38-.22,1-.42,5.04-1.2q.15.6.24,1.08Zm-6.18,1.28A18.011,18.011,0,0,1-57.68.64a8.317,8.317,0,0,1,1.3.48,23.351,23.351,0,0,0,1.1-4.8Zm1.88.22A37.4,37.4,0,0,1-54.28.52L-52.96.2a34.26,34.26,0,0,0-.54-4.18Zm1.86-.38a24.3,24.3,0,0,1,.78,3.36l1.28-.4a26.943,26.943,0,0,0-.84-3.32ZM-49.88.68a20.13,20.13,0,0,0,1.34-4.36l-1.3-.48A16.332,16.332,0,0,1-51.22.06Zm3.92-.88c-.68,0-.78-.08-.78-.54V-4.12H-48.3V-.74c0,1.46.42,1.88,2.14,1.88h2.62c1.38,0,1.8-.56,1.98-2.74a3.884,3.884,0,0,1-1.38-.58c-.08,1.72-.2,1.98-.76,1.98Zm3.7-3.56A43.918,43.918,0,0,1-40.62.36l1.36-.62c-.38-1.06-1.1-2.72-1.74-4.02Zm8.76-2.08V-7.06h3.96v1.22Zm0-3.64h3.96v1.24H-33.5Zm10.02,0v1.24h-4.2V-9.48Zm0,3.64h-4.2V-7.06h4.2Zm-4.2,5.32V-1.94h6.84V-3.4h-6.84V-4.54h6.1v-6.22h-6.1v-1.02h7.98v-1.48h-7.98v-1.32c2.26-.16,4.4-.38,6.12-.68l-.94-1.46a108.445,108.445,0,0,1-13.32,1.04,5.8,5.8,0,0,1,.38,1.46c1.86-.04,3.9-.1,5.9-.22v1.18h-7.78v1.48h7.78v1.02h-5.78v6.22h5.78V-3.4h-6.4v1.46h6.4V-.52h-7.88V.98h17.86V-.52ZM-4-14.24h-9.14v-.9H-4Zm0,1.9h-9.14v-.92H-4Zm1.88-3.82H-14.94v4.84H-2.12Zm2.56,5.6H-17.42V-9.2H.44ZM-13.54-4.5v-.94h4.1v.94Zm0-2.88h4.1v.92h-4.1Zm10.14.92H-7.64v-.92H-3.4Zm0,1.96H-7.64v-.94H-3.4ZM-7.64-.32v-.96h6.46V-2.54H-7.64v-.9h6.06v-5H-15.3v5h5.86v.9H-15.8v1.26h6.36v.96H-17.5V1.1H.52V-.32ZM12.12-2.76V-4.7L7.62-6.32,4.6-7.42V-7.5L7.62-8.62l4.5-1.6v-1.96L2.24-8.32V-6.6ZM14.6,0H23V-1.9H20.12V-14.72H18.38a9.042,9.042,0,0,1-3.2,1.12v1.46h2.64V-1.9H14.6ZM29.98.26c2.88,0,4.76-2.56,4.76-7.68,0-5.08-1.88-7.58-4.76-7.58-2.9,0-4.76,2.48-4.76,7.58C25.22-2.3,27.08.26,29.98.26Zm0-1.82c-1.5,0-2.56-1.6-2.56-5.86,0-4.22,1.06-5.76,2.56-5.76s2.56,1.54,2.56,5.76C32.54-3.16,31.48-1.56,29.98-1.56ZM37.42,0h2.24V-2.84l1.86-2.14L44.5,0H47L42.84-6.54,46.58-11H44.04L39.72-5.66h-.06V-15.94H37.42ZM52.46,4.94c3.52,0,5.76-1.72,5.76-3.84,0-1.88-1.36-2.68-3.96-2.68H52.24c-1.4,0-1.84-.42-1.84-1.08A1.458,1.458,0,0,1,51-3.82a3.824,3.824,0,0,0,1.54.34c2.3,0,4.12-1.38,4.12-3.78a2.974,2.974,0,0,0-.72-2.02h2.1V-11h-3.9a4.587,4.587,0,0,0-1.6-.28,3.967,3.967,0,0,0-4.26,3.96A3.764,3.764,0,0,0,49.72-4.4v.08A2.714,2.714,0,0,0,48.5-2.28a2.022,2.022,0,0,0,1,1.82v.1a2.906,2.906,0,0,0-1.6,2.4C47.9,3.96,49.82,4.94,52.46,4.94Zm.08-9.9a2.145,2.145,0,0,1-2.08-2.36,2.094,2.094,0,0,1,2.08-2.34,2.105,2.105,0,0,1,2.08,2.34A2.145,2.145,0,0,1,52.54-4.96Zm.26,8.38c-1.82,0-2.94-.64-2.94-1.72A1.978,1.978,0,0,1,50.8.1a6.993,6.993,0,0,0,1.48.16h1.66C55.28.26,56,.54,56,1.46,56,2.48,54.72,3.42,52.8,3.42Z" transform="translate(4850 -1853.1)" fill="#9f611c"/>
      <g id="矩形_3348" data-name="矩形 3348" transform="translate(4786 -1839)" fill="#ffd9af" stroke="#fff" stroke-width="1">
        <rect width="127" height="40" stroke="none"/>
        <rect x="0.5" y="0.5" width="126" height="39" fill="none"/>
      </g>
      <path id="路径_527" data-name="路径 527" d="M-39.28,0h8.4V-1.9h-2.88V-14.72H-35.5a9.042,9.042,0,0,1-3.2,1.12v1.46h2.64V-1.9h-3.22Zm13.54,0h2.36c.24-5.76.78-9,4.24-13.32v-1.4h-9.48v1.94h6.92C-24.54-8.82-25.48-5.38-25.74,0Zm12.9.26a4.856,4.856,0,0,0,4.96-5.1c0-3.22-2.02-4.68-4.48-4.68A4.15,4.15,0,0,0-14.38-9l.34-3.78h5.46v-1.94h-7.46l-.44,6.98,1.12.74A3.873,3.873,0,0,1-13-7.84c1.68,0,2.8,1.12,2.8,3.08a2.877,2.877,0,0,1-2.92,3.14A4.71,4.71,0,0,1-16.56-3.2l-1.1,1.5A6.514,6.514,0,0,0-12.84.26ZM10.28-15.3H-3.8v1.8H10.28ZM7.42-.52c-.72,0-.84-.12-.84-.84V-8.02h5.44v-1.8H-5.56v1.8H-.74C-1.02-4.5-1.7-1.52-5.88.04a4.889,4.889,0,0,1,1.16,1.5C-.02-.34.88-3.8,1.24-8.02H4.66v6.68c0,1.96.52,2.58,2.5,2.58H9.82c1.86,0,2.34-.98,2.54-4.44A5.95,5.95,0,0,1,10.62-4c-.08,2.96-.2,3.48-.94,3.48ZM13.44,3.6h1.6L20.6-15.96H19ZM26.2-16.7A22.413,22.413,0,0,1,21.64-9a12.409,12.409,0,0,1,1.02,1.88,20,20,0,0,0,1.56-1.94V1.54h1.76v-13.4a30.87,30.87,0,0,0,1.96-4.32ZM40.08-7.04h-5.3V-11h4.4v-1.82h-4.4v-3.72H32.92v3.72H30.68c.24-.84.46-1.7.64-2.56l-1.8-.36a17.78,17.78,0,0,1-2.38,6.66,12.289,12.289,0,0,1,1.6.9A14.266,14.266,0,0,0,30.08-11h2.84v3.96H27.38v1.82h5.54V1.56h1.86V-5.22h5.3Z" transform="translate(4850 -1812.3)" fill="#9f611c"/>
      <path id="路径_603" data-name="路径 603" d="M-32.016-11.584A19.745,19.745,0,0,0-27.7-7.632h-8.688A23.162,23.162,0,0,0-32.016-11.584Zm.752,8.736h4.352v-1.3h-4.352V-6.32H-27.6V-7.568A15.736,15.736,0,0,0-25.536-6.4a7.193,7.193,0,0,1,1.008-1.344,15.415,15.415,0,0,1-6.688-5.232h-5.1v1.392h2.544a19.2,19.2,0,0,1-5.648,4.032A5.574,5.574,0,0,1-38.5-6.336a18.782,18.782,0,0,0,2.08-1.28v1.3h3.584v2.176h-4.3v1.3h4.3V-.5H-38.7V.848h13.5V-.5h-6.064Zm10.032-7.872h10.48v2.064h1.52v-3.408h-5.776a9.99,9.99,0,0,0-.752-1.488l-1.552.448a8.938,8.938,0,0,1,.5,1.04h-5.856v3.408h1.44Zm9.712,2.992a25.756,25.756,0,0,1-3.264,2.56A6.861,6.861,0,0,0-16.32-7.392a10.394,10.394,0,0,0,1.04-.784h3.792v-1.28h-9.056v1.28H-17.3A17.844,17.844,0,0,1-22.72-6.128a7.208,7.208,0,0,1,.784,1.184,21.735,21.735,0,0,0,4.512-1.792,6.574,6.574,0,0,1,.624.768,19.984,19.984,0,0,1-6,2.512,7.21,7.21,0,0,1,.752,1.168,26.6,26.6,0,0,0,5.84-2.7,6.8,6.8,0,0,1,.336.9A18.862,18.862,0,0,1-23.056-.688,5.338,5.338,0,0,1-22.272.544,23.43,23.43,0,0,0-15.616-2.72a2.952,2.952,0,0,1-.56,2.272,1.119,1.119,0,0,1-.96.352c-.352,0-.864-.032-1.424-.08a3.608,3.608,0,0,1,.4,1.392,12.944,12.944,0,0,0,1.328.032A2.166,2.166,0,0,0-15.1.608c.864-.672,1.248-2.576.736-4.56.208-.128.432-.256.64-.384A8.449,8.449,0,0,0-9.536.592a5.091,5.091,0,0,1,.976-1.2,7.282,7.282,0,0,1-4-4.48c.784-.544,1.568-1.1,2.256-1.664ZM-.464-5.488c-.368-.432-1.9-2.144-2.528-2.752v-.416H-.9V-10.08h-2.1v-3.344H-4.5v3.344h-2.56v1.424h2.368a16.146,16.146,0,0,1-2.864,5.7,8.374,8.374,0,0,1,.784,1.44A14.774,14.774,0,0,0-4.5-5.76V1.264h1.5V-6.5A27.925,27.925,0,0,1-1.376-4.208ZM7.312-10.08H5.728v-3.328H4.16v3.328H-.368v1.424H3.7A16.941,16.941,0,0,1-1.472-2.384,6.333,6.333,0,0,1-.4-1.184,19.117,19.117,0,0,0,4.16-6.576v5.92c0,.288-.112.384-.4.384-.288.016-1.3.016-2.256-.016a7.158,7.158,0,0,1,.528,1.52,8.241,8.241,0,0,0,2.9-.288c.576-.24.8-.656.8-1.6v-8H7.312ZM14.624-4.8c-.288-.352-1.5-1.616-2.032-2.08v-.784H14.3v-.688H23.3v-.976h-3.84v-.7h3.088v-.928H19.456v-.688h3.472v-.96H19.456v-.816H17.968v.816H14.7v.96h3.264v.688H15.024v.928h2.944v.7h-3.76v.272H12.592v-2.432a16.083,16.083,0,0,0,1.968-.592l-1.024-1.136A22.288,22.288,0,0,1,8.7-12.048,4.587,4.587,0,0,1,9.136-10.9c.64-.08,1.328-.176,2.016-.3v2.144h-2.3v1.392H11.04A16.4,16.4,0,0,1,8.432-2.88,8.076,8.076,0,0,1,9.168-1.5,16.738,16.738,0,0,0,11.152-5.12V1.232h1.44V-5.36A17.409,17.409,0,0,1,13.76-3.632Zm6.432-1.04H16.592V-6.7h4.464Zm0,1.792H16.592v-.88h4.464Zm0,1.792H16.592v-.88h4.464Zm1.392-5.408h-7.2V-1.3h1.7A10.959,10.959,0,0,1,13.472.368a7.615,7.615,0,0,1,.944.96,13.305,13.305,0,0,0,3.808-1.92l-1.1-.7h5.328ZM19.456-.576c.976.608,2.1,1.376,2.72,1.856l1.3-.72C22.736.064,21.5-.688,20.448-1.3Zm7.424-10.8h3.584v2.688H26.88ZM28.512-5.84c.064-.512.1-1.024.128-1.536H31.9v-5.312H25.52v5.312h1.664c-.144,2.784-.5,5.888-2.64,7.616a3.726,3.726,0,0,1,1.024,1.04,9.168,9.168,0,0,0,2.784-5.792h2.24c-.128,2.88-.288,4.016-.56,4.3-.112.16-.272.176-.528.176a16.117,16.117,0,0,1-1.712-.08A3.075,3.075,0,0,1,28.208,1.2a12.069,12.069,0,0,0,1.936-.032A1.367,1.367,0,0,0,31.232.656c.432-.5.592-1.984.768-5.888.016-.192.016-.608.016-.608ZM34.768-11.5h-1.44v8.832h1.44Zm2.384-1.6V-.624c0,.288-.112.384-.416.4-.32,0-1.328.016-2.416-.032a6.89,6.89,0,0,1,.528,1.52,9.364,9.364,0,0,0,3.008-.256c.56-.272.784-.7.784-1.632V-13.1Z" transform="translate(4614 -1893)" fill="#fff"/>
    </g>
    <g id="组_17883" data-name="组 17883" transform="translate(-4553 2131)">
      <rect id="矩形_3201-2" data-name="矩形 3201" width="358" height="136" rx="10" transform="translate(4562 -1927)" fill="#fff"/>
      <g id="矩形_3342-4" data-name="矩形 3342" transform="translate(4659 -1919)" fill="#ffe9d0" stroke="#fff" stroke-width="1">
        <rect width="254" height="40" stroke="none"/>
        <rect x="0.5" y="0.5" width="253" height="39" fill="none"/>
      </g>
      <g id="矩形_3343-4" data-name="矩形 3343" transform="translate(4569 -1919)" fill="#ef7e00" stroke="#fff" stroke-width="1">
        <rect width="90" height="40" stroke="none"/>
        <rect x="0.5" y="0.5" width="89" height="39" fill="none"/>
      </g>
      <g id="矩形_3342-5" data-name="矩形 3342" transform="translate(4659 -1879)" fill="#ffe9d0" stroke="#fff" stroke-width="1">
        <rect width="254" height="40" stroke="none"/>
        <rect x="0.5" y="0.5" width="253" height="39" fill="none"/>
      </g>
      <g id="矩形_3343-5" data-name="矩形 3343" transform="translate(4569 -1879)" fill="#ef7e00" stroke="#fff" stroke-width="1">
        <rect width="90" height="40" stroke="none"/>
        <rect x="0.5" y="0.5" width="89" height="39" fill="none"/>
      </g>
      <path id="路径_523-2" data-name="路径 523" d="M-34.98-5.84V-7.06h3.96v1.22Zm0-3.64h3.96v1.24h-3.96Zm10.02,0v1.24h-4.2V-9.48Zm0,3.64h-4.2V-7.06h4.2Zm-4.2,5.32V-1.94h6.84V-3.4h-6.84V-4.54h6.1v-6.22h-6.1v-1.02h7.98v-1.48h-7.98v-1.32c2.26-.16,4.4-.38,6.12-.68l-.94-1.46A108.445,108.445,0,0,1-37.3-15.68a5.8,5.8,0,0,1,.38,1.46c1.86-.04,3.9-.1,5.9-.22v1.18H-38.8v1.48h7.78v1.02H-36.8v6.22h5.78V-3.4h-6.4v1.46h6.4V-.52H-38.9V.98h17.86V-.52ZM-5.48-14.24h-9.14v-.9h9.14Zm0,1.9h-9.14v-.92h9.14Zm1.88-3.82H-16.42v4.84H-3.6Zm2.56,5.6H-18.9V-9.2H-1.04ZM-15.02-4.5v-.94h4.1v.94Zm0-2.88h4.1v.92h-4.1Zm10.14.92H-9.12v-.92h4.24Zm0,1.96H-9.12v-.94h4.24ZM-9.12-.32v-.96h6.46V-2.54H-9.12v-.9h6.06v-5H-16.78v5h5.86v.9h-6.36v1.26h6.36v.96h-8.06V1.1H-.96V-.32ZM8.9-2.58c-.48-.62-2.54-3.1-3.32-3.9.04-.28.06-.54.08-.82H8.82V-9H5.76c.02-.44.02-.84.02-1.24v-1.7H8.46V-13.6H5.78v-2.96H4.04v2.96H1.32v1.66H4.04v1.7c0,.4,0,.8-.02,1.24H.94v1.7h3C3.7-4.72,2.98-1.9.74,0A6.312,6.312,0,0,1,2.08,1.28,10.886,10.886,0,0,0,5.24-4.56,37.917,37.917,0,0,1,7.62-1.22Zm2.32-5.56h5.1V-6.5h-5.1Zm0-3.12h5.1v1.62h-5.1Zm0-3.1h5.1v1.6h-5.1ZM16.26-.42c-.36,0-.42-.04-.42-.52v-3.9H18.1V-16.02H9.48V-4.84H11.2C10.9-2.52,10.16-.8,7.18.18a5,5,0,0,1,1.04,1.4c3.44-1.26,4.4-3.46,4.74-6.42h1.16v3.9c0,1.66.36,2.16,1.86,2.16h1.54c1.14,0,1.6-.5,1.78-2.46a4.406,4.406,0,0,1-1.52-.68c-.04,1.32-.14,1.5-.46,1.5Zm19.48-3.8v3.06H30.3V-4.22Zm-7.2,5.74H30.3V.48h5.44v1h1.84V-5.86H28.54Zm-.7-9.5c-.38-.5-1.94-2.56-2.44-3.06v-.24h2.02v-.18a9.865,9.865,0,0,1,.98,1.36,14.3,14.3,0,0,0,1.44-1.62,11.723,11.723,0,0,0,1.98,2.26A19.744,19.744,0,0,1,27.44-7.5Zm7.9-5.24a10.876,10.876,0,0,1-2.54,2.8,10.119,10.119,0,0,1-2.4-2.76l.04-.04Zm1.38-1.72-.3.08h-5.1a15.337,15.337,0,0,0,.68-1.56l-1.64-.46a13.268,13.268,0,0,1-3.34,5.2V-13H25.4v-3.76H23.64V-13H21.02v1.72h2.36a20.52,20.52,0,0,1-2.8,7.06,9.382,9.382,0,0,1,.9,1.86A20.15,20.15,0,0,0,23.64-7.5V1.58H25.4V-8.88c.5.84,1.02,1.78,1.28,2.32l.2-.24a7.08,7.08,0,0,1,.64,1.2A21.793,21.793,0,0,0,33.3-8.3a18.051,18.051,0,0,0,5.4,2.48,6.653,6.653,0,0,1,.66-1.72,16.446,16.446,0,0,1-4.68-1.84,13.713,13.713,0,0,0,3.62-4.86Z" transform="translate(4614 -1851.12)" fill="#fff"/>
      <g id="矩形_3342-6" data-name="矩形 3342" transform="translate(4659 -1839)" fill="#ffe9d0" stroke="#fff" stroke-width="1">
        <rect width="254" height="40" stroke="none"/>
        <rect x="0.5" y="0.5" width="253" height="39" fill="none"/>
      </g>
      <g id="矩形_3343-6" data-name="矩形 3343" transform="translate(4569 -1839)" fill="#ef7e00" stroke="#fff" stroke-width="1">
        <rect width="90" height="40" stroke="none"/>
        <rect x="0.5" y="0.5" width="89" height="39" fill="none"/>
      </g>
      <path id="路径_521-2" data-name="路径 521" d="M-14.56-3.58h9.34v1.06h-9.34Zm5.9-6.68v1.32h-4.46a4.345,4.345,0,0,0,1.2-1.32Zm-4.42-2.22a3.721,3.721,0,0,1-.24,1.06h-2.32c.06-.34.12-.7.18-1.06Zm1.7-2.14h2.72v.98h-2.72Zm7.12,0v.98H-6.9v-.98Zm-4.4,3.2H-11.5a4.53,4.53,0,0,0,.12-1.06h2.72Zm5.52,1.16a1.342,1.342,0,0,1-.2.62.558.558,0,0,1-.46.14c-.2,0-.68-.02-1.22-.08a3.91,3.91,0,0,1,.24.64H-6.9v-1.32ZM-5.22-6.78h-9.34V-7.8h9.34Zm0,2.12h-9.34V-5.7h9.34ZM-3.34-1.4V-8.38A2.824,2.824,0,0,0-2.9-8.4a1.6,1.6,0,0,0,1.04-.4,4.1,4.1,0,0,0,.52-2.08c.02-.2.04-.54.04-.54H-6.9v-1.06h4.34v-3.3H-6.9v-1H-8.66v1h-2.72v-1h-1.68v1h-4.72v1.16h4.72v.98h-3.88a31.49,31.49,0,0,1-.54,3.38h3.3a9.988,9.988,0,0,1-4.7,1.64A6.75,6.75,0,0,1-18-7.16a15.517,15.517,0,0,0,1.64-.36V-1.4h3.08A23.656,23.656,0,0,1-18.9.24,10.74,10.74,0,0,1-17.56,1.6,27.382,27.382,0,0,0-11.42-.76l-1.44-.64h5.3l-.76.74a50.9,50.9,0,0,1,5.76,2.2L-1.18.4C-2.42-.12-4.34-.82-6.22-1.4ZM11.08-6.12V-9.08h4.84v2.96Zm-6.28,0c.06-.74.08-1.48.08-2.16v-.8H9.22v2.96Zm4.42-7.52v2.82H4.88v-2.82Zm6.7,2.82H11.08v-2.82h4.84Zm1.86-4.6H3.04V-8.3c0,2.82-.2,6.36-2.38,8.78A6.156,6.156,0,0,1,2.12,1.7a11.472,11.472,0,0,0,2.5-6.06h4.6V1.36h1.86V-4.36h4.84V-.78c0,.38-.14.5-.5.5-.38,0-1.7.02-2.98-.04a7.685,7.685,0,0,1,.62,1.8,10.948,10.948,0,0,0,3.74-.32c.72-.28.98-.84.98-1.92Z" transform="translate(4614 -1811.22)" fill="#fff"/>
      <path id="路径_602" data-name="路径 602" d="M-37.448,0h1.888c.192-4.608.624-7.2,3.392-10.656v-1.12h-7.584v1.552h5.536C-36.488-7.056-37.24-4.3-37.448,0Zm6.784-3.84h4.224V-5.2h-4.224ZM-24.328,0h6.72V-1.52h-2.3V-11.776H-21.3a7.234,7.234,0,0,1-2.56.9v1.168h2.112V-1.52h-2.576Zm9.12,0h6.72V-1.52h-2.3V-11.776h-1.392a7.234,7.234,0,0,1-2.56.9v1.168h2.112V-1.52h-2.576ZM.072-5.488C-.3-5.92-1.832-7.632-2.456-8.24v-.416h2.1V-10.08h-2.1v-3.344h-1.5v3.344H-6.52v1.424h2.368a16.146,16.146,0,0,1-2.864,5.7,8.374,8.374,0,0,1,.784,1.44A14.774,14.774,0,0,0-3.96-5.76V1.264h1.5V-6.5A27.925,27.925,0,0,1-.84-4.208ZM7.848-10.08H6.264v-3.328H4.7v3.328H.168v1.424H4.232A16.941,16.941,0,0,1-.936-2.384a6.333,6.333,0,0,1,1.072,1.2A19.117,19.117,0,0,0,4.7-6.576v5.92c0,.288-.112.384-.4.384C4.008-.256,3-.256,2.04-.288a7.158,7.158,0,0,1,.528,1.52,8.241,8.241,0,0,0,2.9-.288c.576-.24.8-.656.8-1.6v-8H7.848ZM15.16-4.8c-.288-.352-1.5-1.616-2.032-2.08v-.784H14.84v-.688h8.992v-.976h-3.84v-.7H23.08v-.928H19.992v-.688h3.472v-.96H19.992v-.816H18.5v.816H15.24v.96H18.5v.688H15.56v.928H18.5v.7h-3.76v.272H13.128v-2.432A16.083,16.083,0,0,0,15.1-12.08l-1.024-1.136A22.288,22.288,0,0,1,9.24-12.048,4.587,4.587,0,0,1,9.672-10.9c.64-.08,1.328-.176,2.016-.3v2.144h-2.3v1.392h2.192A16.4,16.4,0,0,1,8.968-2.88,8.076,8.076,0,0,1,9.7-1.5,16.738,16.738,0,0,0,11.688-5.12V1.232h1.44V-5.36A17.409,17.409,0,0,1,14.3-3.632Zm6.432-1.04H17.128V-6.7h4.464Zm0,1.792H17.128v-.88h4.464Zm0,1.792H17.128v-.88h4.464Zm1.392-5.408h-7.2V-1.3h1.7A10.959,10.959,0,0,1,14.008.368a7.615,7.615,0,0,1,.944.96A13.305,13.305,0,0,0,18.76-.592l-1.1-.7h5.328ZM19.992-.576c.976.608,2.1,1.376,2.72,1.856l1.3-.72C23.272.064,22.04-.688,20.984-1.3Zm7.424-10.8H31v2.688H27.416ZM29.048-5.84c.064-.512.1-1.024.128-1.536H32.44v-5.312H26.056v5.312H27.72c-.144,2.784-.5,5.888-2.64,7.616A3.726,3.726,0,0,1,26.1,1.28a9.168,9.168,0,0,0,2.784-5.792h2.24C31-1.632,30.84-.5,30.568-.208c-.112.16-.272.176-.528.176a16.117,16.117,0,0,1-1.712-.08A3.075,3.075,0,0,1,28.744,1.2a12.069,12.069,0,0,0,1.936-.032A1.367,1.367,0,0,0,31.768.656c.432-.5.592-1.984.768-5.888.016-.192.016-.608.016-.608ZM35.3-11.5h-1.44v8.832H35.3Zm2.384-1.6V-.624c0,.288-.112.384-.416.4-.32,0-1.328.016-2.416-.032a6.89,6.89,0,0,1,.528,1.52,9.364,9.364,0,0,0,3.008-.256c.56-.272.784-.7.784-1.632V-13.1Z" transform="translate(4614 -1893)" fill="#fff"/>
      <path id="路径_599" data-name="路径 599" d="M-42.22-8.18a14.537,14.537,0,0,0-1.26-1.64,14.976,14.976,0,0,0,1.42-2.02l-1.22-.22a7.859,7.859,0,0,1-.96,1.38l-.7-.7A10.077,10.077,0,0,0-43.84-13l-1.2-.2a5.088,5.088,0,0,1-.7,1.06,11.7,11.7,0,0,0-.94-.8l-.98.62c.38.32.76.66,1.12,1.02a8.652,8.652,0,0,1-1.62,1.24,2.768,2.768,0,0,1,.78.82,10.826,10.826,0,0,0,1.62-1.26,7.839,7.839,0,0,1,.68.74,12.123,12.123,0,0,1-2.4,1.8,3.055,3.055,0,0,1,.76.84,14.839,14.839,0,0,0,2.38-1.8,13.662,13.662,0,0,1,1.08,1.5Zm.24,1.2h-6.24V-13.4h6.24Zm1.68-7.92h-5c.24-.5.56-1.1.86-1.68l-1.9-.32a16.339,16.339,0,0,1-.64,2h-2.86v9.44h9.54ZM-42.94-2.28c-.4-.76-1.26-2.08-1.88-3.04l-1.2.56c.62,1.02,1.42,2.38,1.82,3.18ZM-50.46-5.2a26.338,26.338,0,0,0-1.2-3.82l-1.28.36a15.045,15.045,0,0,1,.5,1.52l-2.62.46a39.444,39.444,0,0,0,4.22-6.36l-1.52-.8a26.828,26.828,0,0,1-1.4,2.72l-1.78.14a30.185,30.185,0,0,0,2.76-5.16l-1.66-.68a22.751,22.751,0,0,1-2.3,4.96c-.38.6-.7,1-1.04,1.1.18.44.44,1.24.54,1.58a9.619,9.619,0,0,1,2.56-.48,19.422,19.422,0,0,1-1.5,2.14c-.58.72-1.02,1.22-1.48,1.32a8.736,8.736,0,0,1,.56,1.56c.38-.22,1-.42,5.04-1.2q.15.6.24,1.08Zm-6.18,1.28A18.011,18.011,0,0,1-57.68.64a8.317,8.317,0,0,1,1.3.48,23.351,23.351,0,0,0,1.1-4.8Zm1.88.22A37.4,37.4,0,0,1-54.28.52L-52.96.2a34.26,34.26,0,0,0-.54-4.18Zm1.86-.38a24.3,24.3,0,0,1,.78,3.36l1.28-.4a26.943,26.943,0,0,0-.84-3.32ZM-49.88.68a20.13,20.13,0,0,0,1.34-4.36l-1.3-.48A16.332,16.332,0,0,1-51.22.06Zm3.92-.88c-.68,0-.78-.08-.78-.54V-4.12H-48.3V-.74c0,1.46.42,1.88,2.14,1.88h2.62c1.38,0,1.8-.56,1.98-2.74a3.884,3.884,0,0,1-1.38-.58c-.08,1.72-.2,1.98-.76,1.98Zm3.7-3.56A43.918,43.918,0,0,1-40.62.36l1.36-.62c-.38-1.06-1.1-2.72-1.74-4.02Zm8.76-2.08V-7.06h3.96v1.22Zm0-3.64h3.96v1.24H-33.5Zm10.02,0v1.24h-4.2V-9.48Zm0,3.64h-4.2V-7.06h4.2Zm-4.2,5.32V-1.94h6.84V-3.4h-6.84V-4.54h6.1v-6.22h-6.1v-1.02h7.98v-1.48h-7.98v-1.32c2.26-.16,4.4-.38,6.12-.68l-.94-1.46a108.445,108.445,0,0,1-13.32,1.04,5.8,5.8,0,0,1,.38,1.46c1.86-.04,3.9-.1,5.9-.22v1.18h-7.78v1.48h7.78v1.02h-5.78v6.22h5.78V-3.4h-6.4v1.46h6.4V-.52h-7.88V.98h17.86V-.52ZM-4-14.24h-9.14v-.9H-4Zm0,1.9h-9.14v-.92H-4Zm1.88-3.82H-14.94v4.84H-2.12Zm2.56,5.6H-17.42V-9.2H.44ZM-13.54-4.5v-.94h4.1v.94Zm0-2.88h4.1v.92h-4.1Zm10.14.92H-7.64v-.92H-3.4Zm0,1.96H-7.64v-.94H-3.4ZM-7.64-.32v-.96h6.46V-2.54H-7.64v-.9h6.06v-5H-15.3v5h5.86v.9H-15.8v1.26h6.36v.96H-17.5V1.1H.52V-.32ZM12.12-2.76V-4.7L7.62-6.32,4.6-7.42V-7.5L7.62-8.62l4.5-1.6v-1.96L2.24-8.32V-6.6ZM14.6,0H23V-1.9H20.12V-14.72H18.38a9.042,9.042,0,0,1-3.2,1.12v1.46h2.64V-1.9H14.6ZM29.98.26c2.88,0,4.76-2.56,4.76-7.68,0-5.08-1.88-7.58-4.76-7.58-2.9,0-4.76,2.48-4.76,7.58C25.22-2.3,27.08.26,29.98.26Zm0-1.82c-1.5,0-2.56-1.6-2.56-5.86,0-4.22,1.06-5.76,2.56-5.76s2.56,1.54,2.56,5.76C32.54-3.16,31.48-1.56,29.98-1.56ZM37.42,0h2.24V-2.84l1.86-2.14L44.5,0H47L42.84-6.54,46.58-11H44.04L39.72-5.66h-.06V-15.94H37.42ZM52.46,4.94c3.52,0,5.76-1.72,5.76-3.84,0-1.88-1.36-2.68-3.96-2.68H52.24c-1.4,0-1.84-.42-1.84-1.08A1.458,1.458,0,0,1,51-3.82a3.824,3.824,0,0,0,1.54.34c2.3,0,4.12-1.38,4.12-3.78a2.974,2.974,0,0,0-.72-2.02h2.1V-11h-3.9a4.587,4.587,0,0,0-1.6-.28,3.967,3.967,0,0,0-4.26,3.96A3.764,3.764,0,0,0,49.72-4.4v.08A2.714,2.714,0,0,0,48.5-2.28a2.022,2.022,0,0,0,1,1.82v.1a2.906,2.906,0,0,0-1.6,2.4C47.9,3.96,49.82,4.94,52.46,4.94Zm.08-9.9a2.145,2.145,0,0,1-2.08-2.36,2.094,2.094,0,0,1,2.08-2.34,2.105,2.105,0,0,1,2.08,2.34A2.145,2.145,0,0,1,52.54-4.96Zm.26,8.38c-1.82,0-2.94-.64-2.94-1.72A1.978,1.978,0,0,1,50.8.1a6.993,6.993,0,0,0,1.48.16h1.66C55.28.26,56,.54,56,1.46,56,2.48,54.72,3.42,52.8,3.42Z" transform="translate(4785.78 -1853.1)" fill="#9f611c"/>
      <path id="路径_601" data-name="路径 601" d="M-17.04.26c3.22,0,5.18-1.92,5.18-4.28,0-2.16-1.26-3.24-3-3.98l-2.02-.86c-1.2-.48-2.38-.96-2.38-2.22,0-1.18.98-1.9,2.48-1.9a4.688,4.688,0,0,1,3.24,1.32l1.22-1.48A6.305,6.305,0,0,0-16.78-15c-2.8,0-4.84,1.74-4.84,4.06,0,2.14,1.58,3.26,3,3.86l2.04.88c1.36.6,2.36,1.02,2.36,2.36,0,1.24-1,2.08-2.78,2.08A5.707,5.707,0,0,1-20.92-3.5l-1.36,1.6A7.344,7.344,0,0,0-17.04.26ZM-9.3,0H-.9V-1.9H-3.78V-14.72H-5.52a9.042,9.042,0,0,1-3.2,1.12v1.46h2.64V-1.9H-9.3ZM6.08.26c2.88,0,4.76-2.56,4.76-7.68C10.84-12.5,8.96-15,6.08-15c-2.9,0-4.76,2.48-4.76,7.58C1.32-2.3,3.18.26,6.08.26Zm0-1.82c-1.5,0-2.56-1.6-2.56-5.86,0-4.22,1.06-5.76,2.56-5.76s2.56,1.54,2.56,5.76C8.64-3.16,7.58-1.56,6.08-1.56ZM17.14.26a4.856,4.856,0,0,0,4.96-5.1c0-3.22-2.02-4.68-4.48-4.68A4.15,4.15,0,0,0,15.6-9l.34-3.78H21.4v-1.94H13.94L13.5-7.74,14.62-7a3.873,3.873,0,0,1,2.36-.84c1.68,0,2.8,1.12,2.8,3.08a2.877,2.877,0,0,1-2.92,3.14A4.71,4.71,0,0,1,13.42-3.2l-1.1,1.5A6.514,6.514,0,0,0,17.14.26Z" transform="translate(4786 -1890)" fill="#9f611c"/>
      <path id="路径_600" data-name="路径 600" d="M-39.28,0h8.4V-1.9h-2.88V-14.72H-35.5a9.042,9.042,0,0,1-3.2,1.12v1.46h2.64V-1.9h-3.22Zm15.4.26c2.84,0,4.76-1.68,4.76-3.86A4.325,4.325,0,0,0-21.6-7.5v-.1a4.574,4.574,0,0,0,1.94-3.46c0-2.3-1.6-3.9-4.16-3.9-2.42,0-4.2,1.5-4.2,3.8a4.161,4.161,0,0,0,1.98,3.44v.1a4.508,4.508,0,0,0-2.64,3.96C-28.68-1.38-26.64.26-23.88.26Zm.96-8.44c-1.64-.64-3.04-1.38-3.04-2.98a2.016,2.016,0,0,1,2.1-2.14,2.184,2.184,0,0,1,2.26,2.38A3.726,3.726,0,0,1-22.92-8.18Zm-.92,6.78a2.577,2.577,0,0,1-2.8-2.48,3.755,3.755,0,0,1,1.72-3.08c2,.82,3.62,1.5,3.62,3.3A2.278,2.278,0,0,1-23.84-1.4ZM-12.5.26c2.88,0,4.76-2.56,4.76-7.68C-7.74-12.5-9.62-15-12.5-15c-2.9,0-4.76,2.48-4.76,7.58C-17.26-2.3-15.4.26-12.5.26Zm0-1.82c-1.5,0-2.56-1.6-2.56-5.86,0-4.22,1.06-5.76,2.56-5.76s2.56,1.54,2.56,5.76C-9.94-3.16-11-1.56-12.5-1.56ZM10.28-15.3H-3.8v1.8H10.28ZM7.42-.52c-.72,0-.84-.12-.84-.84V-8.02h5.44v-1.8H-5.56v1.8H-.74C-1.02-4.5-1.7-1.52-5.88.04a4.889,4.889,0,0,1,1.16,1.5C-.02-.34.88-3.8,1.24-8.02H4.66v6.68c0,1.96.52,2.58,2.5,2.58H9.82c1.86,0,2.34-.98,2.54-4.44A5.95,5.95,0,0,1,10.62-4c-.08,2.96-.2,3.48-.94,3.48ZM13.44,3.6h1.6L20.6-15.96H19ZM26.2-16.7A22.413,22.413,0,0,1,21.64-9a12.409,12.409,0,0,1,1.02,1.88,20,20,0,0,0,1.56-1.94V1.54h1.76v-13.4a30.87,30.87,0,0,0,1.96-4.32ZM40.08-7.04h-5.3V-11h4.4v-1.82h-4.4v-3.72H32.92v3.72H30.68c.24-.84.46-1.7.64-2.56l-1.8-.36a17.78,17.78,0,0,1-2.38,6.66,12.289,12.289,0,0,1,1.6.9A14.266,14.266,0,0,0,30.08-11h2.84v3.96H27.38v1.82h5.54V1.56h1.86V-5.22h5.3Z" transform="translate(4786 -1812)" fill="#9f611c"/>
    </g>
    <g id="deco_box" transform="translate(20.447 367.477)">
      <path id="路径_108" data-name="路径 108" d="M397.25,172.823s15.453,11.888.672,37.5Z" transform="translate(-125.417 -18.48)" fill="#fff"/>
      <path id="路径_109" data-name="路径 109" d="M352.58,144.719v90.705L256.5,212.58V116.5Z" transform="translate(-79.235)" fill="#ffd286"/>
      <path id="路径_110" data-name="路径 110" d="M224.017,116.5,157.5,152.782v89.361l66.517-29.563Z" transform="translate(-46.752)" fill="#f4bd6c"/>
      <path id="路径_111" data-name="路径 111" d="M157.5,289.063l82.642,18.813L320.1,282.344,224.017,259.5Z" transform="translate(-46.752 -46.92)" fill="#dda254"/>
      <path id="路径_112" data-name="路径 112" d="M151.958,196.932s.336,7.223,6.383,6.719,15.789-27.883,15.789-46.024-5.879-23.012-18.813-19.821S82.25,182.822,82.25,182.822s4.7,10.75,21.668,8.567c0,0,4.871,10.75,21.836,7.559,0,0,7.05,6.661,14.446,3.863A102.317,102.317,0,0,0,151.958,196.932Z" transform="translate(-22.062 -6.692)" fill="#fff"/>
      <path id="路径_113" data-name="路径 113" d="M114.5,210.029l28.611-16.322-27.333,18.275A10.121,10.121,0,0,1,114.5,210.029Z" transform="translate(-32.643 -25.332)" fill="#b1c2b3"/>
      <path id="路径_114" data-name="路径 114" d="M147,223.639l19.2-11.491-18.055,12.431Z" transform="translate(-43.307 -31.383)" fill="#b1c2b3"/>
      <path id="路径_115" data-name="路径 115" d="M186,223.914a32.538,32.538,0,0,0,6.446-4.783,16.231,16.231,0,0,1-6.257,6.112Z" transform="translate(-56.103 -33.674)" fill="#b1c2b3"/>
      <path id="路径_116" data-name="路径 116" d="M284.027,134.751V228.5l-70.883,28.147,18.739,4.266,74.162-27.177V141.218Z" transform="translate(-65.009 -5.988)" fill="#fffad7"/>
      <g id="组_17701" data-name="组 17701" transform="translate(183.504 195.707)">
        <g id="组_17697" data-name="组 17697" transform="translate(0.393)">
          <line id="直线_1" data-name="直线 1" x2="5.691" y2="1.297" fill="none" stroke="#a73e5c" stroke-linecap="round" stroke-linejoin="round" stroke-width="1.417"/>
          <line id="直线_2" data-name="直线 2" x2="3.449" y2="0.786" transform="translate(8.622 1.966)" fill="none" stroke="#a73e5c" stroke-linecap="round" stroke-linejoin="round" stroke-width="1.417"/>
          <line id="直线_3" data-name="直线 3" x2="12.589" y2="2.87" transform="translate(14.658 3.342)" fill="none" stroke="#a73e5c" stroke-linecap="round" stroke-linejoin="round" stroke-width="1.417"/>
          <line id="直线_4" data-name="直线 4" x2="1.188" y2="0.271" transform="translate(29.853 6.806)" fill="none" stroke="#a73e5c" stroke-linecap="round" stroke-linejoin="round" stroke-width="1.417"/>
        </g>
        <g id="组_17698" data-name="组 17698" transform="translate(0.262 3.761)">
          <line id="直线_5" data-name="直线 5" x2="10.759" y2="2.453" fill="none" stroke="#a73e5c" stroke-linecap="round" stroke-linejoin="round" stroke-width="1.417"/>
          <line id="直线_6" data-name="直线 6" x2="1.793" y2="0.409" transform="translate(13.448 3.066)" fill="none" stroke="#a73e5c" stroke-linecap="round" stroke-linejoin="round" stroke-width="1.417"/>
          <line id="直线_7" data-name="直线 7" x2="11.675" y2="2.662" transform="translate(19.365 4.415)" fill="none" stroke="#a73e5c" stroke-linecap="round" stroke-linejoin="round" stroke-width="1.417"/>
        </g>
        <g id="组_17699" data-name="组 17699" transform="translate(0.131 7.521)">
          <line id="直线_8" data-name="直线 8" x2="7.89" y2="1.799" fill="none" stroke="#a73e5c" stroke-linecap="round" stroke-linejoin="round" stroke-width="1.417"/>
          <line id="直线_9" data-name="直线 9" x2="4.124" y2="0.94" transform="translate(12.552 2.862)" fill="none" stroke="#a73e5c" stroke-linecap="round" stroke-linejoin="round" stroke-width="1.417"/>
          <line id="直线_10" data-name="直线 10" x2="1.255" y2="0.286" transform="translate(19.365 4.415)" fill="none" stroke="#a73e5c" stroke-linecap="round" stroke-linejoin="round" stroke-width="1.417"/>
          <line id="直线_11" data-name="直线 11" x2="7.731" y2="1.762" transform="translate(23.31 5.314)" fill="none" stroke="#a73e5c" stroke-linecap="round" stroke-linejoin="round" stroke-width="1.417"/>
        </g>
        <g id="组_17700" data-name="组 17700" transform="translate(0 11.282)">
          <line id="直线_12" data-name="直线 12" x2="23.31" y2="5.314" fill="none" stroke="#a73e5c" stroke-linecap="round" stroke-linejoin="round" stroke-width="1.417"/>
          <line id="直线_13" data-name="直线 13" x2="5.838" y2="1.331" transform="translate(25.203 5.746)" fill="none" stroke="#a73e5c" stroke-linecap="round" stroke-linejoin="round" stroke-width="1.417"/>
        </g>
      </g>
      <g id="组_17703" data-name="组 17703" transform="translate(247.827 141.913)">
        <g id="组_17702" data-name="组 17702" transform="translate(2.277 3.753)">
          <path id="路径_117" data-name="路径 117" d="M368.248,159.909l-3.338,4.535,2.017.558v7.162l2.642.731v-7.162l2.017.558Z" transform="translate(-364.91 -159.909)" fill="#a73e5c"/>
          <path id="路径_118" data-name="路径 118" d="M380.513,163.3l-3.338,4.535,2.017.558v7.162l2.643.731v-7.163l2.017.558Z" transform="translate(-368.934 -161.023)" fill="#a73e5c"/>
          <path id="路径_119" data-name="路径 119" d="M378.761,183.96l-10.952-3.031v-1.721l10.952,3.031Z" transform="translate(-365.861 -166.241)" fill="#a73e5c"/>
        </g>
        <path id="路径_120" data-name="路径 120" d="M380.992,179.183l-19.471-5.389V154.323l19.471,5.389Z" transform="translate(-361.521 -154.323)" fill="none" stroke="#a73e5c" stroke-miterlimit="10" stroke-width="1"/>
      </g>
      <path id="路径_121" data-name="路径 121" d="M213.144,302.422l70.883-28.147,22.019,5.235-74.162,27.177Z" transform="translate(-65.009 -51.768)" fill="#e2d69f"/>
      <path id="路径_122" data-name="路径 122" d="M317.977,283.165,226.04,262l-62.373,27.883s56.394-17.357,80.268-16.685,51.078,8.735,54.945,15.005Z" transform="translate(-48.775 -47.74)" fill="#231f20" style="mix-blend-mode: soft-light;isolation: isolate"/>
      <path id="路径_123" data-name="路径 123" d="M182.773,234.024s-5.823,1.288-6.215-6.607c0,0-7,4.983-12.43,6.215s-5.711-.255-5.711-.255v6.441s5.823,2.016,16.125-5.235C174.542,234.584,176.95,237.887,182.773,234.024Z" transform="translate(-47.053 -36.393)" fill="#231f20" style="mix-blend-mode: soft-light;isolation: isolate"/>
      <path id="路径_124" data-name="路径 124" d="M181.121,235.2s-4.721.59-4.879-5.548c0,0-8.97,7.16-16.8,5.862v2.046a18.79,18.79,0,0,0,15.7-5.154S175.967,237.13,181.121,235.2Z" transform="translate(-47.389 -37.127)" fill="#231f20" style="mix-blend-mode: soft-light;isolation: isolate"/>
      <path id="路径_125" data-name="路径 125" d="M259.667,119.667l92.44,27.038v51.318s-36.226-51.929-92.44-65.143Z" transform="translate(-80.274 -1.039)" fill="#fff" opacity="0.5" style="mix-blend-mode: soft-light;isolation: isolate"/>
      <path id="路径_126" data-name="路径 126" d="M241.621,213.377V122L219,134.766s11.422-1.19,14.782,30.424,3.359,50.015,3.359,50.015Z" transform="translate(-66.931 -1.805)" fill="#231f20" style="mix-blend-mode: soft-light;isolation: isolate"/>
      <path id="路径_127" data-name="路径 127" d="M132.157,192.25,104.19,208.207s-13.27,1.932-19.065-6.971l8.9-5.879s-1.6,6.3,5.543,7.643S132.157,192.25,132.157,192.25Z" transform="translate(-23.005 -24.854)" fill="#e9f2d7"/>
      <path id="路径_128" data-name="路径 128" d="M120.125,217.659s7.643,7.235,18.057,4.043l18.7-11.7S138,222.383,126.13,213.7Z" transform="translate(-34.489 -30.678)" fill="#e9f2d7"/>
      <path id="路径_129" data-name="路径 129" d="M152.167,226.171s4.367,3.146,8.958,1.915,14.349-6.047,20.22-11.086c0,0-14.683,8.958-23.051,5.151Z" transform="translate(-45.002 -32.975)" fill="#e9f2d7"/>
      <path id="路径_130" data-name="路径 130" d="M193.922,208.153s-3.319,4.541-6.047,5.549c0,0,.883,4.613,5.186,3.941s12.787-21.92,14.046-34.518c0,0-6.467,24.02-11.17,27.715S193.922,208.153,193.922,208.153Z" transform="translate(-56.718 -21.86)" fill="#e9f2d7"/>
      <path id="路径_131" data-name="路径 131" d="M120.125,213.065,145.237,196l-22.624,18.9A5.657,5.657,0,0,1,120.125,213.065Z" transform="translate(-34.489 -26.085)" fill="#e9f2d7" style="mix-blend-mode: multiply;isolation: isolate"/>
      <path id="路径_132" data-name="路径 132" d="M168.544,214.5l-16.377,10.851,1.639.938Z" transform="translate(-45.002 -32.155)" fill="#e9f2d7" style="mix-blend-mode: multiply;isolation: isolate"/>
      <path id="路径_133" data-name="路径 133" d="M193.921,220.375s-3.744,4.863-6.047,5.549c0,0-.079.727,1.031,2.292C188.906,228.217,193.753,224.953,193.921,220.375Z" transform="translate(-56.718 -34.083)" fill="#e9f2d7" style="mix-blend-mode: multiply;isolation: isolate"/>
      <path id="路径_134" data-name="路径 134" d="M400.833,187.333v22.4s4.017-7.518,3.92-14.67C404.753,195.06,401.729,194.836,400.833,187.333Z" transform="translate(-126.592 -23.241)" fill="#e9f2d7"/>
      <path id="路径_135" data-name="路径 135" d="M401.875,201.25v9.742a48.164,48.164,0,0,0,2.184-6.509A5.316,5.316,0,0,1,401.875,201.25Z" transform="translate(-126.934 -27.807)" fill="#e9f2d7" style="mix-blend-mode: multiply;isolation: isolate"/>
      <path id="路径_136" data-name="路径 136" d="M110.08,154.323,9,218.97v55.46l127.852-66.866S147.33,156.556,110.08,154.323Z" transform="translate(1.973 -12.41)" fill="url(#linear-gradient)" style="mix-blend-mode: overlay;isolation: isolate"/>
      <path id="路径_137" data-name="路径 137" d="M143.209,317.8l-62.8-14.3L4.595,339.324,0,368.595Z" transform="translate(30.276 -60.919)" fill="url(#linear-gradient-2)" style="mix-blend-mode: overlay;isolation: isolate"/>
      <path id="路径_138" data-name="路径 138" d="M89.394,237.9v33.493L18.353,304.959l1.4-31.489Z" transform="translate(21.293 -28.81)" fill="url(#linear-gradient-3)" style="mix-blend-mode: overlay;isolation: isolate"/>
    </g>
  </g>
</svg>
