<svg xmlns="http://www.w3.org/2000/svg" xmlns:xlink="http://www.w3.org/1999/xlink" width="375" height="667" viewBox="0 0 375 667">
  <defs>
    <linearGradient id="linear-gradient" x1="1" x2="0" y2="1" gradientUnits="objectBoundingBox">
      <stop offset="0" stop-color="#ffbf47"/>
      <stop offset="0.146" stop-color="#fdb547"/>
      <stop offset="0.509" stop-color="#fb911a"/>
      <stop offset="0.844" stop-color="#fe8220"/>
      <stop offset="1" stop-color="#fd831a"/>
    </linearGradient>
    <clipPath id="clip-cover7_m">
      <rect width="375" height="667"/>
    </clipPath>
  </defs>
  <g id="cover7_m" clip-path="url(#clip-cover7_m)">
    <rect width="375" height="667" fill="#fff"/>
    <rect id="cover1" width="375" height="667" fill="url(#linear-gradient)"/>
    <path id="路径_195" data-name="路径 195" d="M232.261,465.629c31.183,4.01,62.636,4.61,94.014,5.813,14.387.551,28.492-.112,41.774,5.048,12.437,4.833,22.366,14.533,35.2,18.691,9.959,3.226,20.7,3.112,31.1,1.929a159.971,159.971,0,0,0,110.987-65.657c23.421-33.107,33.2-75.469,27.066-115.522-3.721-24.293-14.9-46.948-17.581-71.426-2.833-25.877,7.051-48.437,13.3-73.045a187.443,187.443,0,0,0,5.632-52.632c-.361-10.194-1.642-20.64-6.464-29.629-13.1-24.413-46.128-29.019-73.7-26.267A258.013,258.013,0,0,0,395.4,93.443c-23.7,13.089-47.183,32.142-74.388,37.307-30.676,5.823-54.4-15.2-82.01-24.786-62.116-21.574-137.112,20.805-164.5,77.17-33.8,69.582-29.956,183.411,33.318,235.05,34.481,28.141,78.914,41.442,123.039,47.262Q231.563,465.54,232.261,465.629Z" transform="translate(-37.41 114.904)" fill="#ffbf47" opacity="0.6"/>
    <g id="组_17722" data-name="组 17722" transform="translate(-128.359 394.467)">
      <g id="组_17714" data-name="组 17714" transform="translate(465.588 208.075)">
        <path id="路径_164" data-name="路径 164" d="M471.525,132.165c.2.195-3.042,3.839-9.762,7.8a58.587,58.587,0,0,1-58.3.43c-6.778-3.868-10.071-7.463-9.876-7.662.28-.355,3.962,2.679,10.748,6a62.41,62.41,0,0,0,56.533-.417C467.6,134.9,471.241,131.814,471.525,132.165Z" transform="translate(-393.578 -132.138)" fill="#6e5395"/>
      </g>
      <g id="组_17715" data-name="组 17715" transform="translate(402.396 190.129)">
        <path id="路径_165" data-name="路径 165" d="M428.691,135.307c-.183.405-3.769-1.085-9.81-2.43a104.506,104.506,0,0,0-10.733-1.766c-4.084-.45-8.6-.809-13.365-1.148s-9.333-.718-13.479-1.233a87.183,87.183,0,0,1-10.939-2.034c-6.161-1.608-9.648-3.511-9.527-3.777.158-.407,3.827.845,9.928,1.945,3.046.579,6.716,1.029,10.806,1.438,4.1.374,8.627.679,13.4,1.015s9.347.778,13.491,1.372a75.888,75.888,0,0,1,10.891,2.374C425.459,132.923,428.828,135.056,428.691,135.307Z" transform="translate(-360.835 -122.839)" fill="#6e5395"/>
      </g>
      <path id="路径_166" data-name="路径 166" d="M370.006,100.2c11.453-2.428,23.316-.338,34.865,1.586s23.538,3.659,34.829.562c20.385-5.6,35.859-26.19,57-26.024,8.7.068,16.911,3.785,25.391,5.751,10.53,2.443,21.5,2.179,32.167,3.924s21.689,6.031,27.719,15c7.153,10.648,5.19,25.669-2.316,36.072S560.134,153.81,547.818,157.4c-8.59,2.5-17.742,3.953-25.177,8.934-7.519,5.037-12.429,13.149-19.437,18.879-17.578,14.375-44.938,10.256-63.1-3.381-4.563-3.428-8.793-7.4-13.917-9.911-20.85-10.2-50.836,3.306-68.793-15.264C339.162,137.8,341.76,106.189,370.006,100.2Z" transform="translate(27.579 24.029)" fill="#6e5395"/>
      <g id="组_17717" data-name="组 17717" transform="translate(316.147 50.484)">
        <g id="组_17716" data-name="组 17716">
          <path id="路径_167" data-name="路径 167" d="M355.378,282.315s19.105,40.945,21.338,33.364,1.492-25.794.3-28.394S368,273.2,368,273.2Z" transform="translate(-279.662 156.641)" fill="#f4b19f"/>
          <path id="路径_168" data-name="路径 168" d="M428.89,118.773c1.768,2.264.587-.17,2.588,3.1,8.318-.291,13.9-7.33,13.9-7.33s13.2.351,13.051-2.007-12.657-1.48-12.657-1.48,13.23-4.157,12.5-6.232-16,4.541-16,4.541,15.413-9.569,13.136-11.1-17.106,6.821-17.106,6.821S451.2,94.5,449.269,93.129s-19.8,12.414-19.8,12.414c.261-6.776-4.6-6.539-4.6-6.539l.2,16.55A29.413,29.413,0,0,1,428.89,118.773Z" transform="translate(-215.042 -10.913)" fill="#ffc5b1"/>
          <path id="路径_169" data-name="路径 169" d="M334.287,83.441c-2.827.519-.635-.463-4.3.656-6.023-5.742-5.225-14.77-5.225-14.77s-10.1-8.5-8.426-10.163,10.449,7.3,10.449,7.3S319.652,54.568,321.57,53.5s8.951,14.016,8.951,14.016-5.176-17.385-2.455-17.023,8.262,16.453,8.262,16.453-2.607-16.469-.263-16.208,6.574,22.432,6.574,22.432c4.3-5.242,7.78-1.837,7.78-1.837l-10.91,12A41.937,41.937,0,0,0,334.287,83.441Z" transform="translate(-316.147 -50.484)" fill="#ffc5b1"/>
          <path id="路径_170" data-name="路径 170" d="M370.556,103.4c-3.653-.6-12.487,5.273-16.907,14.842-2.474,5.354-4.176,10.794-1.336,19.506,1.336,4.1,4.136,4.609,4.759,6.444.789,2.324-1.826,9.65-1.826,9.65l10.43,4.211c.677-5.031,1.445-10.1,6.574-12.281a53.407,53.407,0,0,0,5.78-2.372c4.887-2.8,7.494-8.928,9.5-13.944C389.03,125.709,379.716,104.9,370.556,103.4Z" transform="translate(-283.887 -1.313)" fill="#ffc5b1"/>
          <path id="路径_171" data-name="路径 171" d="M387.921,180.441l-17.47-7.012S318.6,269.578,318.817,296.254s71.209,80.083,71.209,80.083L402,365.987s-21.921-38.218-33.638-51.695S387.921,180.441,387.921,180.441Z" transform="translate(-313.664 63.854)" fill="#f4b19f"/>
          <path id="路径_172" data-name="路径 172" d="M404.8,243.662s38.505-18.269,30.768-19.883-25.833.608-28.325,2.013-13.307,10.121-13.307,10.121Z" transform="translate(-243.802 110.158)" fill="#ffc5b1"/>
          <path id="路径_173" data-name="路径 173" d="M385.291,176.63l-26.5,9.642s-26.51,116.6-16.39,134.909,38.54,6.2,79.02-15.9l33.906-18.509-11.316-7.533s-39.455,7.732-50.535,15.44c0,0,5.78-16.384,13.493-39.511S419.991,208.431,385.291,176.63Z" transform="translate(-293.875 66.831)" fill="#ffc5b1"/>
          <path id="路径_174" data-name="路径 174" d="M346.611,141.9c0-7.747,2.494-13.352,10.241-13.352s18.455,2.717,18.455,10.466-6.1,20.333-13.853,20.333S346.611,149.655,346.611,141.9Z" transform="translate(-287.815 22.119)" fill="#ffc5b1"/>
          <path id="路径_175" data-name="路径 175" d="M375.322,185.12s-24.092-26.072-28.909-51.61S333.4,66.535,333.4,66.535l-9.156,2.634s-4.339,56.632,0,65.305,25.524,66.415,31.978,81.579Z" transform="translate(-310.408 -35.557)" fill="#ffc5b1"/>
          <path id="路径_176" data-name="路径 176" d="M363.191,170.25s1.853-8.11,32.316-19.132,87.933-46.744,87.933-46.744l5.736,6.56s-31.227,36.07-49.394,42.4S383.027,184.6,379.057,186.6C373.053,189.619,373.129,193.421,363.191,170.25Z" transform="translate(-272.396 -0.368)" fill="#ffc5b1"/>
          <path id="路径_177" data-name="路径 177" d="M361.575,127.978S337.1,135.91,337.1,173.151c0,0,.015,51.01,5.784,60.289a51.6,51.6,0,0,0,21.07,0c12.259-2.521,24.125-11.565,24.125-11.565l19.254-57.8-2.3-27.082-26.178-5.057s7.512,35.1-19.659,20.008c-5.281-2.932,7.768-22.843,7.768-22.843Z" transform="translate(-296.661 21.585)" fill="#2c373f"/>
          <path id="路径_178" data-name="路径 178" d="M344.861,165.757,332.8,140.63s1.729-15.241,23.87-20.7c0,0,2.239,7.683,4.694,10.619s9.6,6.056,9.6,6.056Z" transform="translate(-300.659 14.096)" fill="#2c373f"/>
          <path id="路径_179" data-name="路径 179" d="M365.879,167.269l38.351-7.861s6.668-13.815-9.142-30.249c0,0-29.915,1.806-33.786,2.129-3.812.318-1.195,3.252-1.195,3.252Z" transform="translate(-276.08 22.683)" fill="#2c373f"/>
        </g>
        <path id="路径_180" data-name="路径 180" d="M360.431,180.093s-36.274,67.065-42.267,79.049c0,0,107.016,49.159,150.459-10.013,0,0-24.712-52.3-62.914-72.215h0l-16.48-4.933-28.153,7.789" transform="translate(-314.271 62.508)" fill="#2c373f"/>
      </g>
      <path id="路径_181" data-name="路径 181" d="M370.346,117.65s4.132-4.132,6.674-1.272-9.216,6.992-9.216,6.992Z" transform="translate(48.041 60.343)" fill="#ffc5b1"/>
      <g id="组_17718" data-name="组 17718" transform="translate(378.697 116.717)">
        <path id="路径_182" data-name="路径 182" d="M463.829,89.722c.043.145-1.556.834-4.6,1.558a63.452,63.452,0,0,1-13.155,1.509,130.31,130.31,0,0,1-19.545-1.374c-7.293-.967-15.216-2.387-23.552-3.3-8.322-.89-16.324-1.052-23.411.093a52.678,52.678,0,0,0-17.914,6.159,39.915,39.915,0,0,0-9.955,8.062c-2.017,2.3-2.922,3.762-3.127,3.64-.112-.06.492-1.712,2.32-4.285a35.522,35.522,0,0,1,9.789-9.019A51.434,51.434,0,0,1,379.16,85.8c7.378-1.328,15.631-1.224,24.1-.318,8.475.924,16.407,2.426,23.615,3.515a153.375,153.375,0,0,0,19.205,1.916C457.074,91.22,463.728,89.268,463.829,89.722Z" transform="translate(-348.556 -84.802)" fill="#6e5395"/>
      </g>
      <g id="组_17719" data-name="组 17719" transform="translate(392.161 165.347)">
        <path id="路径_183" data-name="路径 183" d="M360.718,120.3c-.011.162-1.191.274-2.986-.32a4.015,4.015,0,0,1-1.457-.809,2.347,2.347,0,0,1-.6-.878,1.987,1.987,0,0,1,.013-1.5c.056-.087.054-.293.168-.3l.347-.01a2.489,2.489,0,0,1,.749.091,6.018,6.018,0,0,0,.965.1,7.579,7.579,0,0,0,1.82-.183,7.38,7.38,0,0,0,4.941-3.854c.789-1.513.859-2.648,1.069-2.636.149-.017.442,1.191-.212,3.015a7.565,7.565,0,0,1-1.839,2.816,7.683,7.683,0,0,1-3.669,1.955,7.832,7.832,0,0,1-3.094.079c-.127-.023-.112-.052-.137-.035a.087.087,0,0,0-.021.075,1.276,1.276,0,0,0,.28.488,3.354,3.354,0,0,0,1.038.72C359.645,119.873,360.747,120.1,360.718,120.3Z" transform="translate(-355.532 -109.999)" fill="#f97a5d"/>
      </g>
      <path id="路径_184" data-name="路径 184" d="M353.761,115.567l14.128,5.566S355.475,129.695,353.761,115.567Z" transform="translate(34.981 60.527)" fill="#fff"/>
      <path id="路径_185" data-name="路径 185" d="M366.758,118.663c-.5.951-2.057,1.119-3.476.372s-2.162-2.123-1.662-3.076,2.059-1.119,3.478-.372S367.259,117.709,366.758,118.663Z" transform="translate(42.145 60.11)" fill="#f4b19f"/>
      <path id="路径_186" data-name="路径 186" d="M358.659,114.2c-.428.988-1.967,1.274-3.439.637s-2.316-1.953-1.889-2.941,1.967-1.274,3.437-.637S359.086,113.216,358.659,114.2Z" transform="translate(34.478 56.208)" fill="#f4b19f"/>
      <path id="路径_187" data-name="路径 187" d="M353.326,123.6s4.954,4.148,10.119,2.81c0,0-1.781,2.673-8.639,1.693C354.806,128.1,355.378,125.154,353.326,123.6Z" transform="translate(34.576 67.993)" fill="#eda091"/>
      <path id="路径_188" data-name="路径 188" d="M364.584,112.9a1.119,1.119,0,1,1-1.119-1.117A1.119,1.119,0,0,1,364.584,112.9Z" transform="translate(42.964 57.003)" fill="#2c373f"/>
      <circle id="椭圆_2" data-name="椭圆 2" cx="1.119" cy="1.119" r="1.119" transform="translate(396.15 165.481)" fill="#2c373f"/>
      <g id="组_17720" data-name="组 17720" transform="translate(407.127 163.891)">
        <path id="路径_189" data-name="路径 189" d="M367.3,112.272c-.345.145-1.013-.662-2.025-1.316-.99-.683-1.994-.99-1.992-1.366-.033-.359,1.368-.648,2.729.264S367.649,112.164,367.3,112.272Z" transform="translate(-363.287 -109.244)" fill="#6e5395"/>
      </g>
      <g id="组_17721" data-name="组 17721" transform="translate(395.001 160.738)">
        <path id="路径_190" data-name="路径 190" d="M357,108.36c-.023-.349,1.179-.791,2.789-.747,1.639.035,2.849.83,2.681,1.162s-1.3.191-2.733.164C358.3,108.9,357.027,108.741,357,108.36Z" transform="translate(-357.004 -107.61)" fill="#6e5395"/>
      </g>
      <path id="路径_191" data-name="路径 191" d="M359.618,296.776s5.877,20.858,11.945,19.151,1.505-30.818,1.505-30.818l-6.056-9.569S372.7,324.27,359.618,296.776Z" transform="translate(40.428 209.301)" fill="#2c373f"/>
      <path id="路径_192" data-name="路径 192" d="M398.014,230.04s4.273-4.663,9.453-5.439,23.7-2.98,26.42-.519-15.01,10.711-15.01,10.711,6.178-3.935,3.613-5.4C417.959,226.8,398.014,230.04,398.014,230.04Z" transform="translate(76.136 160.393)" fill="#2c373f"/>
      <path id="路径_193" data-name="路径 193" d="M394.207,230.28l5.8,11.771,3.162-1.757-7.731-11.6Z" transform="translate(72.596 165.738)" fill="#2c373f"/>
      <path id="路径_194" data-name="路径 194" d="M367.473,270.755l-14.231,12.826,4.217,3.514,11.947-13Z" transform="translate(34.499 204.851)" fill="#2c373f"/>
    </g>
    <path id="路径_598" data-name="路径 598" d="M-160.363-17.09h8.313a3.672,3.672,0,0,0,.656-1.395,5.021,5.021,0,0,1,.766-1.75q.656-.766,3.992-.793a17.657,17.657,0,0,0,.219,3.145,2.057,2.057,0,0,0,.3.793h8.832v1.5h-2.187a92.989,92.989,0,0,1-1.7,16.926h4.977v1.5h-25.156V1.34h4.375q-1.367-5.879-1.395-16.926h-2ZM-152.6,1.34h6.863a99.378,99.378,0,0,0,1.914-16.926h-10.172A82.6,82.6,0,0,0-152.6,1.34Zm30.22-1.367A25.213,25.213,0,0,1-125.3-6.152h4.648a43.521,43.521,0,0,0,1.2,4.539q.766,2.3,1.75,4.512a2.74,2.74,0,0,1,.3.9q0,.191-.629.191a2.947,2.947,0,0,1-.93-.437,11.891,11.891,0,0,1-2.434-2.27A26.763,26.763,0,0,1-125.9,2.57a50.144,50.144,0,0,1-6.426.547l-.082-1.531q.848-.027,1.586-.055V-20.535h11.156q.9.109.9,1.148V-7.711h-7.9v8.8q.355-.055.629-.109A25.4,25.4,0,0,0-122.377-.027Zm-2.488-17.117a8.768,8.768,0,0,0,1.8,1.914v-3.91h-3.609v4.02A6.921,6.921,0,0,0-124.865-17.145Zm-1.8,3.555v4.375h3.609v-4.4a9.884,9.884,0,0,0-1.8,2.023A4.5,4.5,0,0,0-126.67-13.59Zm13.59,15.7V4.156h-3.828V-20.316h8.477q1.395,0,1.477,2.379V-.574a2.93,2.93,0,0,1-.82,2.16,4.235,4.235,0,0,1-2.242.6Q-111.85,2.188-113.08,2.105Zm0-20.863V.574q.848.055,1.586.055.492,0,.52-1.012V-18.758ZM-97.133-9.9h14.164v1.5h-1.586V-4.02h2.379v1.5h-2.379V3.91h-3.883V-2.516H-91.61V-1.23q-.383,4.156-5.113,5.715A8.47,8.47,0,0,0-95.52.629V-2.516h-2.3v-1.5h2.3V-5.852a3.5,3.5,0,0,1,1.531-2.543h-3.145Zm5.742,1.5a10.032,10.032,0,0,0-.246,1.914V-4.02h3.2V-8.395ZM-83.9-18.43a7.359,7.359,0,0,0,2.461,2.188A6.674,6.674,0,0,0-83.9-14a4.386,4.386,0,0,0-1.859-1.859v2.57h4.512V-19.3h-4.512v2.734A5.665,5.665,0,0,0-83.9-18.43Zm-13.234-.082a7.359,7.359,0,0,0,2.461,2.188,6.674,6.674,0,0,0-2.461,2.242,3.829,3.829,0,0,0-1.559-1.641v2.488h4.348v-6.152h-4.348v2.543A6.768,6.768,0,0,0-97.133-18.512Zm-1.559,6.754V4.32h-3.637V-20.754h10.418q1.2.137,1.2,1.5v7.492Zm17.445-.055h-8.121v-8.941h10.391q1.34,0,1.395,1.8V4.211h-3.664Zm31.505-8.559q.93,0,.93,1.066a11.517,11.517,0,0,1-3.145,2.051,15.553,15.553,0,0,1-2.871,1.094q.52.383,1.066.711h3.691q1.395,0,1.5,1.586V-.711q-.027.656-.629.684h-3.09v-4.4h-1.887v4.32h-3.773V-4.43h-2.27A6.524,6.524,0,0,1-63.686.465a18.117,18.117,0,0,0,8.5,1.887A10.806,10.806,0,0,0-50.7,1.641,2.957,2.957,0,0,0-49.686.82a1.314,1.314,0,0,1,.766-.684.943.943,0,0,1,.848,1.012,4.252,4.252,0,0,1-2.734,2.133,16.98,16.98,0,0,1-4.84.574q-7.738,0-12.25-3.336a13.173,13.173,0,0,1-4.594,3.117,2.033,2.033,0,0,1-.574.137q-.246-.055-.246-.6A19.293,19.293,0,0,0-68.2-7.3h-2.051q-.574.328-1.121.574a1.723,1.723,0,0,1-.82.164q-.246-.055-.246-.574a18.53,18.53,0,0,0,2.844-6.344h-3.555v-1.34h7.492q.957,0,.957,1.176a13.2,13.2,0,0,1-2.734,4.184q-.328.328-.684.656h3.008a1.154,1.154,0,0,1,1.176.6v-4.758q.219-2.242,3.227-3.391l.93.328a5.292,5.292,0,0,0-.137.574h2.734a39.4,39.4,0,0,1-3.691-2.27l1.531-1.176H-63.55v-1.477Zm-16.68,19A12.868,12.868,0,0,0-64.315.109a23.757,23.757,0,0,0,.383-3.719V-7A19.117,19.117,0,0,1-66.421-1.367Zm7.957-17.527q1.258,1.039,2.625,2.051.3-.273.6-.574a4.557,4.557,0,0,0,.984-1.477ZM-60.1-13.918v3.363h2.16v-3.363Zm0,4.867.027,3.117h2.133V-9.051Zm5.934-4.867v3.363h1.887v-3.363Zm0,4.867v3.117h1.887V-9.051ZM-69.4-20.48a7.892,7.892,0,0,0,2.6,2.707,7.163,7.163,0,0,0-2.6,2.707A6.189,6.189,0,0,0-72-17.773,6.437,6.437,0,0,0-69.4-20.48Zm37.466,3.473a1.759,1.759,0,0,1-.109.52l-6.48,18.156-3.746-1.2,6.07-16.242h-7.984v-1.559h11.758Q-31.935-17.336-31.935-17.008Zm15.482,10.09H-28.375V-9.16h11.922ZM-3.268,1.34H-9.83V-.191h1.641V-15.2l-1.641.41-.164-1.395,5.223-1.449V-.191h1.5Zm15.4,0H5.57V-.191H7.211V-15.2l-1.641.41-.164-1.395,5.223-1.449V-.191h1.5ZM26.083-21.137l.684,1.422a25.361,25.361,0,0,1-2.57,1.039q-.41.137-.875.273v4.184H26.3v1.5h-2.98V-8.75h2.926v1.5H23.321v4.184H38.689v-4.4H35.982v-1.5h2.707v-3.855H35.982v-1.5h2.707v-4.4H36.064v-1.477h4.895q1.395,0,1.477,1.531V-3.062h1.641v1.5H18.263v-1.5H19.6V-19.77h3.145q.465-.137.82-.273A22.953,22.953,0,0,0,26.083-21.137ZM23.157-.9h5.414a11.435,11.435,0,0,1-3.855,3.363A17.551,17.551,0,0,1,20.56,4.129a2.173,2.173,0,0,1-.9.246q-.191,0-.191-.574A15.734,15.734,0,0,0,23.157-.9Zm16.215,0a14.588,14.588,0,0,0,1.422,2.27,31.19,31.19,0,0,0,2.078,2.352q0,.547-.273.574a1.548,1.548,0,0,1-.793-.191,14.188,14.188,0,0,1-4.484-2.078A11.852,11.852,0,0,1,34.232-.9ZM31.06-16.926l-.164,1.8H33.22q1.832,0,2,2.133v5.25q-.082,4.02-2.57,4.1a14.569,14.569,0,0,1-3.391-.574q-.109.465-.191.793l-2.871-.328a70.159,70.159,0,0,0,1.258-7.547l2.953.164q-.383,2.926-.766,5a3.8,3.8,0,0,0,1.066.3q1.395,0,1.422-2.68v-4.539H27.341l.711-7.738h3.363l-.191,2.051h4.047v1.8Zm21.361,5.2H68.608v1.5H62.647v5.086h7.109v1.5H62.647V1.969H72.71V3.5H48.374V1.969H58.6V-3.637H51.436v-1.5H58.6v-5.086h-6.18Zm-2.953-8.7H68.636A27.731,27.731,0,0,0,73.2-10.5a.675.675,0,0,1,.164.383q-.027.219-.437.219-6.016-1.258-8.75-9.051H58.026a18.257,18.257,0,0,1-9.57,9.215q-.629,0-.711-.109a.933.933,0,0,1,.164-.574,23.914,23.914,0,0,0,5.223-8.531H49.468ZM93.989-7.52l4.813-2.9.957,1.148L96.723-7.41a23.3,23.3,0,0,0,6.1,8.832q.137.055.137.328a.366.366,0,0,1-.41.328q-5.2-.766-8.477-6.125V1.832q0,2.406-2.57,2.406a11.98,11.98,0,0,1-1.914-.164,10.5,10.5,0,0,1-5-2.105l.957-1.34a5.935,5.935,0,0,0,2.133,1.313,8.653,8.653,0,0,0,1.969.492V-3.309L79.25,3.773l-1.066-1.34L89.641-5.277q0-1.2-.027-2.187L79.223-.875l-1.012-1.23L89.5-9.27a14.663,14.663,0,0,0-.355-1.941L79.36-5.441l-1.066-1.34,9.953-5.77H82.86v-1.531H97.133v1.531H91.309Q93.661-11.238,93.989-7.52Zm-11.73-8.914v5.605H78.1v-7.164h9.023a4.443,4.443,0,0,0,.6-.984,2.77,2.77,0,0,1,.875-1.23q.93-.766,3.691-.82a11.616,11.616,0,0,0,.219,2.543,1.21,1.21,0,0,0,.191.492h8.012a1.058,1.058,0,0,1,1.148,1.094v5.8H97.653v-5.332Zm27.869-3.992a10.26,10.26,0,0,0,3.5,3.117,9.379,9.379,0,0,0-3.5,3.172q-.492-1.395-3.5-3.172A8,8,0,0,0,110.127-20.426Zm3.691,7.984q-1.148,2.16-1.148,7.055A11.649,11.649,0,0,1,111.3.547a8.756,8.756,0,0,1-5.168,3.445,10.727,10.727,0,0,0,2.051-5.824,18.977,18.977,0,0,1,1.121-6.562A7.987,7.987,0,0,1,113.818-12.441Zm1.559,4.512h7.438a7.647,7.647,0,0,0-3.035-2.816,7.22,7.22,0,0,0,3.063-2.953,9.179,9.179,0,0,0,3.063,2.953A8.18,8.18,0,0,0,122.9-7.93h7.082q.957,0,.957,1.313a13.965,13.965,0,0,1-3.445,4.238,16.19,16.19,0,0,1-3.254,2.023,7.319,7.319,0,0,1,1.395.9,18.672,18.672,0,0,0,4.594,2.789,6.935,6.935,0,0,1-2.734.41,9.417,9.417,0,0,1-1.586-.191,9.231,9.231,0,0,1-2.844-1.012,18.149,18.149,0,0,1-2.379-1.531,14.671,14.671,0,0,0-4.43-1.8q-.711-.137-.711-.3,0-.191.711-.383a13.577,13.577,0,0,1,2.434-.219,12.417,12.417,0,0,1,3.773.547,14.84,14.84,0,0,0,3.582-5.277H115.377ZM122.842-18.7q-2.68,7-8.641,9.406a1.008,1.008,0,0,1-.547-.082,1.062,1.062,0,0,1,.082-.465,29.853,29.853,0,0,0,5.086-10.637h8.258a27.279,27.279,0,0,0,5.031,10.527q0,.465-.137.492a.886.886,0,0,1-.547-.164Q126.205-12.168,122.842-18.7Zm19.666-.684H149.7v-1.668h4.1v1.668h7.246v1.5H153.8V-15.8h5.3q1.285.027,1.285,1.422v9.105H153.8V4.211h-4.1V-5.277h-6.453V-15.8H149.7v-2.078h-7.191Zm4.895,5.059v2.762h2.3v-2.762Zm0,4.266v3.254h2.3v-3.254Zm6.4,3.254h2.242v-3.254H153.8Zm2.242-4.758v-2.762H153.8v2.762Zm-17.008-8.859a10.26,10.26,0,0,0,3.5,3.117,9.379,9.379,0,0,0-3.5,3.172q-.492-1.395-3.5-3.172A8.2,8.2,0,0,0,139.035-20.426Zm3.691,7.984q-1.094,2.078-1.094,6.863A12.355,12.355,0,0,1,140.347.465,8.4,8.4,0,0,1,135.4,3.992a10.015,10.015,0,0,0,1.887-5.387,21.048,21.048,0,0,1,1.094-6.836A7.914,7.914,0,0,1,142.726-12.441Zm1.641,8.395h4.813A14.27,14.27,0,0,1,145.816.848a12.129,12.129,0,0,1-3.582,2.434,2.364,2.364,0,0,1-.82.191q-.164-.027-.164-.492A16.648,16.648,0,0,0,143.136.109,14.542,14.542,0,0,0,144.367-4.047ZM158.8-4.02a19.787,19.787,0,0,0,1.285,3.254,37.4,37.4,0,0,0,1.832,3.445q0,.438-.219.465a1.252,1.252,0,0,1-.656-.164A11.692,11.692,0,0,1,157,.055a14.414,14.414,0,0,1-2.789-4.074Zm-275.7,19.426h3.8v-2.6h3.609v2.6h3.172v1.5h-3.172v4.73h3.527v1.5h-2.9V28.2a5.847,5.847,0,0,0,1.7-2.023,7.537,7.537,0,0,0,2.406,2.488,5.715,5.715,0,0,0-1.094.82h4.512V25.715h-4.184V24.184h12.66v1.531h-4.457v3.773h5.168V31.02h-5.168v4.594h-4.02V31.02h-4.922V29.953a11.315,11.315,0,0,0-.9,1.23,4.669,4.669,0,0,0-1.7-2.023v5.879a21.891,21.891,0,0,0,8.641,1.422,17.5,17.5,0,0,0,5.414-.629,5.687,5.687,0,0,0,1.121-.738,1.732,1.732,0,0,1,.957-.629.943.943,0,0,1,.848,1.012q-.684,1.285-3.172,1.969a24.771,24.771,0,0,1-5.578.52q-8.586,0-13.727-3.992a5.631,5.631,0,0,1-3.527,4.648l-.273-4.184a4.808,4.808,0,0,0,1.176-3.5V24.895h3.664v5.988a6.244,6.244,0,0,0,.848,1.422v-9.16h-5v-1.5h4.375V16.91h-3.8Zm17.2.082a7.726,7.726,0,0,0,2.625,2.406V14.887h-4.293v2.461A7.1,7.1,0,0,0-99.7,15.488Zm-1.668,3.363v2.133h4.293V18.223A7.855,7.855,0,0,0-99.7,20.684,4.6,4.6,0,0,0-101.363,18.852Zm8.285,3.691h-12.113v-9.16h10.965q1.148.027,1.148,1.258Zm29.017,5.578h1.148v1.5h-4.266A26.46,26.46,0,0,0-65.7,32.988a37.579,37.579,0,0,0,2.516,4.1,1.95,1.95,0,0,1,.438.82q0,.191-.684.191a3.543,3.543,0,0,1-1.121-.383,17.482,17.482,0,0,1-7.41-8.094h-.164q-1.914,6.316-6.453,8.586-.711,0-.711-.355a29.509,29.509,0,0,0,3.363-8.23h-3.281v-1.5H-75.6a39.693,39.693,0,0,0,.738-6.891V17.484h-3.609V15.953h3.609V12.945h4.1v3.008h5.2q1.422,0,1.5,1.559Zm-6.7-10.637V20a38.635,38.635,0,0,1-.957,8.121h3.391V17.484Zm-12.852-4.594h3.773v8.094a44.5,44.5,0,0,0,3.2,3.309l-1.477,1.7a23.094,23.094,0,0,1-1.723-1.8V38.266h-3.773Zm-4.074,7.957q.219-2.57,3.363-3.883l.547.191a10.592,10.592,0,0,0-.465,3.117l.027,7.766a6.923,6.923,0,0,1-4.293,6.371,16.372,16.372,0,0,0,.82-4.73Zm28.443-7.219h11.512v1.5h-1.531V38.156h-3.609V33.617a14.762,14.762,0,0,0-5.414,2.488l-.984-1.559q.547-.328,1.066-.6V15.133h-1.039Zm4.648,18.813a16.492,16.492,0,0,1,1.723-.465V27.164h-1.723Zm0-6.781h1.723V21.148h-1.723Zm0-6.016h1.723V15.133h-1.723Zm6.18,6.152h2.871v5.66h.793a3.317,3.317,0,0,0,.027-.41V25.605H-41.5V30.09q-.246,6.48-5.113,8.121-.766,0-.766-.41a9.725,9.725,0,0,0,2.406-4.785h-1.723a1.547,1.547,0,0,1-1.723-1.777Zm7.738-.273h3.09V31.7h.52q.164,0,.246-.738.027-.6.027-1.969V25.688h2.98V30.8a3.136,3.136,0,0,1-.355,1.75,1.521,1.521,0,0,1-1.34.629h-2.078v4.84h-3.09Zm-7.957-5.551a6.509,6.509,0,0,1,1.449-3.937,10.817,10.817,0,0,1,2.133-1.586A19.676,19.676,0,0,0-42.864,13a4.274,4.274,0,0,1-1.367,3.582,3.9,3.9,0,0,0-1.449,2.105h.492l.438-.273a8.959,8.959,0,0,0,2.379-2.133,2.278,2.278,0,0,1,.52,1.586A3.576,3.576,0,0,1-43.63,20.52a4.633,4.633,0,0,0-1.832,2.68h1.586q-.191-.711-.355-1.531l1.914-.848q.41,1.887.984,3.855h-7.383a7.566,7.566,0,0,1,1.7-4.484l.219-.219Zm7.3,0a6.709,6.709,0,0,1,1.395-3.937,10.741,10.741,0,0,1,2.051-1.586A17.455,17.455,0,0,0-35.782,13a4.47,4.47,0,0,1-1.258,3.582,3.763,3.763,0,0,0-1.34,2.105h.52a7.484,7.484,0,0,1,.711-.437,9.385,9.385,0,0,0,2.434-2.187,2.278,2.278,0,0,1,.52,1.586,3.727,3.727,0,0,1-1.832,2.762A4.761,4.761,0,0,0-37.942,23.2h1.777q-.219-.711-.41-1.531l1.914-.848q.465,1.887,1.121,3.855H-41.2a7.95,7.95,0,0,1,1.723-4.594l.109-.109ZM-29.6,13.547h5v-.875h3.281v.875h4.73v1.422h-4.73v.492h3.473q1.012.027,1.012,1.094v3.992h-4.484v.52h4.758v1.422h-4.758v1.75H-19.7V22.871h3.008v2.652l.492-.055a14.394,14.394,0,0,0,3.992-1.094q-.027,2.324-1.422,3.008a40.991,40.991,0,0,1-4.758.656,12.435,12.435,0,0,0-3.691.793H-16.8q1.914-.273,4.047-.547a14.963,14.963,0,0,0,4.676-1.367q-.41,3.035-2.434,3.828a34.28,34.28,0,0,1-5.5.684,19.864,19.864,0,0,0-5.578,1.148H-9.827A8.568,8.568,0,0,1-11,31.7l3.172-1.613a32.63,32.63,0,0,0,3.254,4.047H-7.366a11.026,11.026,0,0,0,2.461,1.8A7.756,7.756,0,0,0-7.913,38.4q-.41-1.066-3.008-2.461a6.451,6.451,0,0,0,2.461-1.8h-6.207v4.211h-4.484V34.137h-6.535a9.6,9.6,0,0,0,2.68,1.941A7.823,7.823,0,0,0-26.015,38.4q-.41-1.012-3.008-2.324a6.456,6.456,0,0,0,2.68-1.941h-2.133q.492-2.434,4.785-3.91a2.528,2.528,0,0,1,.3-.082H-27.9Q-27.519,28.23-24.21,27a49.667,49.667,0,0,1,6.754-1.367h-10.8a.907.907,0,0,1-1.012-1.039V22.871h2.9v1.367h1.777v-1.75h-5.141V21.066h5.141v-.52h-4.539V15.461h4.539v-.492h-5Zm3.746,3.117v.656h1.258v-.656Zm0,1.914v.738h1.258v-.738Zm4.539.738h1.121v-.738h-1.121Zm1.121-2v-.656h-1.121v.656Zm7.93-2.844v1.668q-.191,1.75-2.816,1.832h-1.258a7.579,7.579,0,0,0,.6-3.336V12.973h8.887q.9.137.9,1.559V15.3q.027,1.094.656,1.148h.82v1.531H-7.722a1.524,1.524,0,0,1-1.422-1.586V14.477Zm6.316,3.992q.875,0,.875,1.066a14.3,14.3,0,0,1-3.254,2.488,7.822,7.822,0,0,1,.875.656A15.216,15.216,0,0,0-3.73,25.2a6.776,6.776,0,0,1-2.6.383,8,8,0,0,1-1.285-.164,7.08,7.08,0,0,1-2.3-.93,11.259,11.259,0,0,1-1.422-.957,23.489,23.489,0,0,1-4.238,1.367q-.6,0-.6-.219a.648.648,0,0,1,.109-.41,19.821,19.821,0,0,0,3.227-1.75,11.392,11.392,0,0,0-2.57-.984q-.574-.137-.574-.273,0-.191.656-.355a11.823,11.823,0,0,1,2.27-.219,9.691,9.691,0,0,1,2.105.219,7.338,7.338,0,0,0,.766-.957h-6.07V18.469Zm17.724,4.4a5.625,5.625,0,0,1-2.816,5.168A11.629,11.629,0,0,1,2.92,29.434V35.34H-.58V16.664H3.877Q11.78,16.664,11.78,22.871ZM8.088,22.9q0-4.621-5.168-4.7V27.93a5.921,5.921,0,0,0,3.746-1.395A4.812,4.812,0,0,0,8.088,22.9ZM26.031,35.34H22.5v-.684a3.942,3.942,0,0,1-2.352,1.012,3.9,3.9,0,0,1-3.008-1.285,4.784,4.784,0,0,1,.41-6.7,5.358,5.358,0,0,1,3.691-1.422,3.925,3.925,0,0,1,1.258.273v-1.8a1,1,0,0,0-1.148-1.121,6.809,6.809,0,0,0-3.582,1.23l-.3-1.477a8.21,8.21,0,0,1,3.938-1.23,4.283,4.283,0,0,1,3.473,1.5,5.736,5.736,0,0,1,1.148,3.719ZM22.5,33.125V27.984a2.859,2.859,0,0,0-1.121-.219,1.911,1.911,0,0,0-1.723,1.176,4.276,4.276,0,0,0-.547,2.16,4.893,4.893,0,0,0,.355,1.859q.41,1.176,1.23,1.176a1.86,1.86,0,0,0,.984-.355Q22.094,33.48,22.5,33.125ZM42.443,22.762,34.951,39.578l-1.7-.711L35.443,34q-1.887-1.613-3.309-6.945a16.375,16.375,0,0,0-1.777-4.621,5.808,5.808,0,0,1,3.527.875,6.326,6.326,0,0,1,1.832,3.2,36.6,36.6,0,0,0,1.477,3.664L40.8,22.105ZM58.28,35.34H55.519L48.847,21.586V35.34H45.32V16.664h2.9l6.535,13.344V16.664H58.28Zm14.88-6.453a7.2,7.2,0,0,1-1.613,4.758,5.72,5.72,0,0,1-4.539,2.023,5.292,5.292,0,0,1-4.238-1.941,6.826,6.826,0,0,1-1.531-4.484,8.077,8.077,0,0,1,1.477-4.895,5.253,5.253,0,0,1,4.43-2.242,5.539,5.539,0,0,1,4.539,1.969A7.367,7.367,0,0,1,73.161,28.887Zm-3.8,0a20.042,20.042,0,0,0-.191-3.281q-.465-2.215-1.8-2.215t-1.887,2.434a15.246,15.246,0,0,0-.355,3.527,12.807,12.807,0,0,0,.3,2.953q.52,2,1.641,2Q69.36,34.3,69.36,28.887ZM89.354,22.9,87.139,35.34H84.678l-1.941-7.574L80.522,35.34H78.116l-2.27-12.551,3.473-.629.875,4.977,1.121-4.184h1.668l1.723,6.918,1.34-7.738Zm18.08-7.9H105.9V25.113h1.531ZM105.9,26.617v9.488h11.813l-.219,1.641H103.523a1.39,1.39,0,0,1-1.559-1.586V13.492h14.3q.684.191.82,1.176V26.617Zm5.469-1.5h1.7V15h-1.7Zm-10.664,9.734H92.5V15.023H99.7q1.012.027,1.012,1.094ZM96.113,16.309v17.2H97.18v-17.2Z" transform="translate(188 130)" fill="#fff"/>
  </g>
</svg>
