<svg xmlns="http://www.w3.org/2000/svg" xmlns:xlink="http://www.w3.org/1999/xlink" width="708.203" height="288.908" viewBox="0 0 708.203 288.908">
  <defs>
    <clipPath id="clip-path">
      <rect id="矩形_4" data-name="矩形 4" width="175" height="64" transform="translate(0 0.068)" fill="#d2d2d2"/>
    </clipPath>
    <filter id="联合_6" x="128.895" y="-2.848" width="109.832" height="72.452" filterUnits="userSpaceOnUse">
      <feOffset dy="1" input="SourceAlpha"/>
      <feGaussianBlur stdDeviation="1.5" result="blur"/>
      <feFlood flood-color="#fff"/>
      <feComposite operator="in" in2="blur"/>
      <feComposite in="SourceGraphic"/>
    </filter>
    <filter id="联合_5" x="55.814" y="11.835" width="79.662" height="54.614" filterUnits="userSpaceOnUse">
      <feOffset dy="1" input="SourceAlpha"/>
      <feGaussianBlur stdDeviation="1.5" result="blur-2"/>
      <feFlood flood-color="#fff"/>
      <feComposite operator="in" in2="blur-2"/>
      <feComposite in="SourceGraphic"/>
    </filter>
    <filter id="路径_196" x="251.314" y="8.996" width="54" height="53.998" filterUnits="userSpaceOnUse">
      <feOffset dy="3" input="SourceAlpha"/>
      <feGaussianBlur stdDeviation="3" result="blur-3"/>
      <feFlood flood-color="#fff"/>
      <feComposite operator="in" in2="blur-3"/>
      <feComposite in="SourceGraphic"/>
    </filter>
    <filter id="path758" x="312.314" y="8" width="77.6" height="37.866" filterUnits="userSpaceOnUse">
      <feOffset dy="3" input="SourceAlpha"/>
      <feGaussianBlur stdDeviation="3" result="blur-4"/>
      <feFlood flood-color="#fff"/>
      <feComposite operator="in" in2="blur-4"/>
      <feComposite in="SourceGraphic"/>
    </filter>
    <filter id="path760" x="312.314" y="32.274" width="77.6" height="37.866" filterUnits="userSpaceOnUse">
      <feOffset dy="3" input="SourceAlpha"/>
      <feGaussianBlur stdDeviation="3" result="blur-5"/>
      <feFlood flood-color="#fff"/>
      <feComposite operator="in" in2="blur-5"/>
      <feComposite in="SourceGraphic"/>
    </filter>
    <filter id="联合_2" x="393.983" y="8.942" width="279.978" height="67.06" filterUnits="userSpaceOnUse">
      <feOffset dy="3" input="SourceAlpha"/>
      <feGaussianBlur stdDeviation="3" result="blur-6"/>
      <feFlood flood-color="#fff"/>
      <feComposite operator="in" in2="blur-6"/>
      <feComposite in="SourceGraphic"/>
    </filter>
    <filter id="路径_200" x="0" y="91.75" width="708.203" height="77.375" filterUnits="userSpaceOnUse">
      <feOffset dy="4" input="SourceAlpha"/>
      <feGaussianBlur stdDeviation="3" result="blur-7"/>
      <feFlood flood-color="#fff"/>
      <feComposite operator="in" in2="blur-7"/>
      <feComposite in="SourceGraphic"/>
    </filter>
    <filter id="路径_199" x="278.797" y="81.5" width="152.652" height="85.5" filterUnits="userSpaceOnUse">
      <feOffset dy="4" input="SourceAlpha"/>
      <feGaussianBlur stdDeviation="3" result="blur-8"/>
      <feFlood flood-color="#fff"/>
      <feComposite operator="in" in2="blur-8"/>
      <feComposite in="SourceGraphic"/>
    </filter>
  </defs>
  <g id="main_slogan" transform="translate(-280.686 278)">
    <g id="组_16515" data-name="组 16515" transform="translate(261 -313.068)">
      <g id="蒙版组_1" data-name="蒙版组 1" transform="translate(80 35)" clip-path="url(#clip-path)">
        <g id="PayNow_交易流程" transform="translate(0 0.72)">
          <g transform="matrix(1, 0, 0, 1, -60.31, -0.65)" filter="url(#联合_6)">
            <path id="联合_6-2" data-name="联合 6" d="M12.855,45.3A120.354,120.354,0,0,1,6.932,33.226H6.727c.252,4.565.353,9.387.353,14.965v.2H0V5.727L9.006,24.3,21.659,48.545S17.211,36.3,24.026,25.122c-4.258-1.5-7.091-4.164-7.091-7.2,0-4.688,6.75-8.488,15.077-8.488s15.078,3.8,15.078,8.489a6.457,6.457,0,0,1-2.883,4.989,24.123,24.123,0,0,1,5.61-.641,22.334,22.334,0,0,1,12.506,3.615l-1-3.462h7.844l2.029,10.2c.456,2.537.961,5.277,1.367,8.115h.152c.456-2.789,1.215-5.631,1.771-8.066L77.11,22.424h6.072l2.481,9.893c.707,2.841,1.366,5.582,1.821,8.422h.1c.355-2.789.861-5.631,1.468-8.47l2.077-9.845h7.537l-7.581,24.8H83.891l-2.329-8.672a74.342,74.342,0,0,1-1.618-7.763h-.107a65.85,65.85,0,0,1-1.569,7.71l-2.476,8.725h-7.24L67.611,44a15.354,15.354,0,0,1-4.824,5.137,22.011,22.011,0,0,1-12.957,4,22.281,22.281,0,0,1-13.008-3.951q-6.4-4.485-6.4-11.481,0-7.047,6.4-11.482.27-.188.545-.366a25.7,25.7,0,0,1-5.348.549q-.55,0-1.091-.022C22.41,38.81,31,58.493,31,58.493l-7.988,4.959ZM38.509,28Q32.8,31.739,32.8,37.708t5.713,9.7a20.258,20.258,0,0,0,11.319,3.31A19.84,19.84,0,0,0,61.089,47.41a11.72,11.72,0,0,0,5.435-7.167l-3.008-10.31A15.571,15.571,0,0,0,61.092,28a19.861,19.861,0,0,0-11.263-3.31A20.107,20.107,0,0,0,38.508,28Zm61.767,24.362v-3.65l-1.266,3.65h-.518l-1.259-3.71v3.71h-.556V48h.867l1.03,3.088c.1.286.163.5.208.641.051-.158.128-.392.232-.7L100.059,48h.773v4.36Zm-6.186,0V48.52H92.658v-.515H96.11v.515H94.667v3.844ZM48.816,38.305A6.414,6.414,0,0,1,47.7,34.629a6.849,6.849,0,0,1,.421-2.344H46.944l.268-1.429,3.412.694-.32,1.281-1.219-.214a6.291,6.291,0,0,0-.32,1.98,4.862,4.862,0,0,0,3.355,5.029,4.794,4.794,0,0,0,1.708.32,5.073,5.073,0,0,0,3.14-1.043,5.683,5.683,0,0,0,1.975-2.7l-1.068-.269.427-1.175,3.569.747-.854,1.549-1.068-.483a7,7,0,0,1-2.394,3.216,6.086,6.086,0,0,1-3.731,1.233A5.627,5.627,0,0,1,48.816,38.3Zm8.846-5.818a2.242,2.242,0,0,1-.7-1.687,2.373,2.373,0,0,1,2.406-2.408,2.223,2.223,0,0,1,1.682.694,2.4,2.4,0,1,1-3.392,3.4Zm-6.933-1.775a2.325,2.325,0,0,1-.7-1.708,2.242,2.242,0,0,1,.7-1.688,2.366,2.366,0,0,1,1.708-.665,2.22,2.22,0,0,1,1.68.694,2.4,2.4,0,0,1-1.68,4.067,2.317,2.317,0,0,1-1.7-.7ZM51.981,19.7a2.048,2.048,0,0,1-.427-1.47V16.2H50.9V15.056h.658v-.933l1.509-.416v1.35h1.1v1.137h-1.1V18c0,.6.153.872.608.872a1.893,1.893,0,0,0,.457-.041l0,1.169a3.212,3.212,0,0,1-.99.132,1.627,1.627,0,0,1-1.165-.426Zm-2.49.427a.917.917,0,1,1,.009,0Zm9.577-.107L58.6,18.288a14.418,14.418,0,0,1-.32-1.552h-.02a13.24,13.24,0,0,1-.314,1.542l-.5,1.743H56l-1.45-4.965h1.57l.407,2.039c.09.508.191,1.057.273,1.624h.03c.092-.558.243-1.125.357-1.613l.524-2.051h1.216l.5,1.981c.141.568.273,1.116.365,1.684h.021c.069-.558.171-1.125.293-1.7l.415-1.969h1.507l-1.516,4.964Zm-29-20L34.552,0,32.334,5.539Z" transform="translate(133.39 0.65)" fill="#ef7e00"/>
          </g>
          <g transform="matrix(1, 0, 0, 1, -60.31, -0.65)" filter="url(#联合_5)">
            <path id="联合_5-2" data-name="联合 5" d="M47.134,39.113a12.144,12.144,0,0,0,3.338-1.321,8.849,8.849,0,0,0,3.188-3.1,2.146,2.146,0,0,0,.407-1.115,3.325,3.325,0,0,0-.305-1.267L44.653,9.638H53.2l3.7,12.173c.407,1.469.911,3.3,1.215,4.615h.152c.353-1.321.759-3.2,1.113-4.615L62.414,9.638h8.248L64.9,25.976c-3.541,9.841-5.922,13.749-8.706,16.231a13.5,13.5,0,0,1-7.437,3.4ZM23.517,27.394c0-6.444,5.766-9.487,14.522-9.487v-.3c0-1.32-.711-3.2-4.506-3.2A14.459,14.459,0,0,0,26.7,16.233l-1.414-4.919A20.306,20.306,0,0,1,34.9,9.077c8.25,0,10.831,4.871,10.831,10.7v8.676a32.207,32.207,0,0,0,.406,5.987H39.2l-.455-2.487H38.6A8.913,8.913,0,0,1,31.513,35a7.592,7.592,0,0,1-8-7.607Zm7.59-.761a2.767,2.767,0,0,0,3.037,2.946,4.248,4.248,0,0,0,4-2.84,5.493,5.493,0,0,0,.153-1.321V22.729c-4.046,0-7.185.963-7.185,3.9ZM0,34.448V.712A62.952,62.952,0,0,1,10.424,0c4.758,0,8.2.913,10.475,2.791a9.785,9.785,0,0,1,3.592,7.863A10.745,10.745,0,0,1,21.4,18.77c-2.629,2.435-6.578,3.6-11.132,3.6a13.113,13.113,0,0,1-2.63-.2V34.45ZM7.643,6.138V16.231a11.7,11.7,0,0,0,2.58.2c4.1,0,6.629-2.079,6.629-5.532,0-3.143-2.126-5.019-6.022-5.019a13.881,13.881,0,0,0-3.186.255Z" transform="translate(60.31 15.34)" fill="#373943"/>
          </g>
          <path id="Fill-16" d="M106.627,39.218c0,7.655,8.246,13.86,18.417,13.86h0c10.174,0,18.418-6.206,18.418-13.86h0c0-7.655-8.243-13.86-18.419-13.86h0c-10.171,0-18.417,6.206-18.417,13.86" transform="translate(-2.145 -1.796)" fill="none" fill-rule="evenodd"/>
          <path id="联合_2-2" data-name="联合 2" d="M7.126,5.189A2.428,2.428,0,0,1,4.563,2.632,2.478,2.478,0,0,1,7.218,0,2.41,2.41,0,0,1,9.739,2.549a2.482,2.482,0,0,1-2.6,2.641ZM6.143,2.6c0,.841.356,1.482,1,1.482H7.15c.608,0,.983-.6.983-1.495,0-.73-.283-1.481-.983-1.481-.726,0-1.011.753-1.011,1.494ZM0,2.643A2.584,2.584,0,0,1,2.833,0,3.6,3.6,0,0,1,4.008.193L3.765,1.342A2.1,2.1,0,0,0,2.9,1.189,1.281,1.281,0,0,0,1.578,2.577a1.3,1.3,0,0,0,1.356,1.4,2.19,2.19,0,0,0,.881-.161L4,4.952a3.5,3.5,0,0,1-1.377.234A2.41,2.41,0,0,1,0,2.643ZM16.683,5.077V2.387c0-.72-.232-1.135-.727-1.135a.77.77,0,0,0-.721.534,1.6,1.6,0,0,0-.049.384V5.077h-1.5V2.3c0-.62-.222-1.045-.719-1.045a.786.786,0,0,0-.719.547,1.075,1.075,0,0,0-.063.4V5.081H10.7V1.7c0-.618-.02-1.136-.042-1.582h1.3l.062.68h.031A1.708,1.708,0,0,1,13.545,0,1.4,1.4,0,0,1,14.9.855h.02a2.153,2.153,0,0,1,.648-.61A1.883,1.883,0,0,1,16.512,0c.952,0,1.67.671,1.67,2.151V5.077Z" transform="translate(95.86 14.943)" fill="#fff"/>
        </g>
      </g>
    </g>
    <g transform="matrix(1, 0, 0, 1, 280.69, -278)" filter="url(#路径_196)">
      <path id="路径_196-2" data-name="路径 196" d="M21.965,18.015l13.46-13.46a1.972,1.972,0,0,0,0-2.784L34.245.591a1.974,1.974,0,0,0-2.785,0L18,14.05,4.54.591a1.973,1.973,0,0,0-2.784,0L.576,1.77a1.97,1.97,0,0,0,0,2.784l13.46,13.46L.576,31.475a1.975,1.975,0,0,0,0,2.785l1.18,1.179a1.973,1.973,0,0,0,2.784,0L18,21.979l13.46,13.46a1.953,1.953,0,0,0,1.392.575h0a1.954,1.954,0,0,0,1.392-.575l1.18-1.179a1.974,1.974,0,0,0,0-2.785Z" transform="translate(260.31 14.98)" fill="#008bd5"/>
    </g>
    <g id="レイヤー_1" transform="translate(602 -264)">
      <g transform="matrix(1, 0, 0, 1, -321.31, -14)" filter="url(#path758)">
        <path id="path758-2" data-name="path758" d="M59.6,19.866H0V0H59.6Z" transform="translate(321.31 14)" fill="#00a041"/>
      </g>
      <g transform="matrix(1, 0, 0, 1, -321.31, -14)" filter="url(#path760)">
        <path id="path760-2" data-name="path760" d="M59.6,61.7H0V41.834H59.6Z" transform="translate(321.31 -3.56)" fill="#008cd6"/>
      </g>
      <g transform="matrix(1, 0, 0, 1, -321.31, -14)" filter="url(#联合_2)">
        <path id="联合_2-3" data-name="联合 2" d="M-1233.977,313.062l3.927-10.089-10.787-25.965h8.942l5.911,15.466,5.438-15.466h8.585l-13.209,36.054Zm117.448-17.635v-10.92h-4.219v-7.5h4.219v-7.526l7.729-3.288v10.814h6.672v7.5h-6.672v9.773c0,2.127.94,4.05,3.426,4.05a4.335,4.335,0,0,0,3.351-1.093v7.916a14.529,14.529,0,0,1-5.136.807c-6.994,0-9.37-4.589-9.37-10.532Zm-51.638,1.255c0-6.745,4.825-10.188,11.393-10.188a14.234,14.234,0,0,1,4.592.756v-.192c0-3.055-2.595-3.943-5.185-3.943a14.714,14.714,0,0,0-7.908,2.28v-7.273a24.125,24.125,0,0,1,8.966-1.686c9.643,0,11.911,5.579,11.911,9.977v13.349c0,3.38.746,5.051,1.77,5.882h-8.585a5.661,5.661,0,0,1-.626-1.916,10.545,10.545,0,0,1-6.565,2.093c-4.346,0-9.764-2.5-9.764-9.138Zm7.817-.872c0,1.977,1.459,3.437,4.027,3.437a6.058,6.058,0,0,0,4.141-1.544v-4.892a7.175,7.175,0,0,0-3.443-.8c-2.78,0-4.725,1.528-4.725,3.8Zm-177.163.872c0-6.745,4.836-10.188,11.4-10.188a14.175,14.175,0,0,1,4.594.756v-.192c0-3.055-2.6-3.943-5.2-3.943a14.64,14.64,0,0,0-7.891,2.28v-7.273a24.1,24.1,0,0,1,8.959-1.686c9.64,0,11.916,5.579,11.916,9.977v13.349c0,3.38.739,5.051,1.766,5.882h-8.576a5.285,5.285,0,0,1-.629-1.916,10.574,10.574,0,0,1-6.572,2.093c-4.342,0-9.767-2.5-9.767-9.138Zm7.826-.872c0,1.977,1.458,3.437,4.034,3.437a6.07,6.07,0,0,0,4.137-1.544v-4.892a7.193,7.193,0,0,0-3.443-.8c-2.783,0-4.728,1.528-4.728,3.8Zm149.49,9.833V277.371l-10.363,13.721-10.365-13.721v28.273h-8.57V264.629h8.57l10.365,12.742,10.363-12.742h8.573v41.016Zm-97.436,0V288.726c0-2.727-1.157-4.533-3.7-4.533a4.983,4.983,0,0,0-4.069,1.945v19.507h-7.987V288.726c0-2.919-1.342-4.533-3.7-4.533a5.24,5.24,0,0,0-4.127,2.149v19.3h-7.837V277.008h7.286v2.36a10.406,10.406,0,0,1,7.127-2.642,9.123,9.123,0,0,1,7.343,3.285c2.326-2.471,4.8-3.285,8.187-3.285,6.027,0,9.471,3.706,9.47,9.082v19.837Zm-86.368,0V264.629h26v7.915h-17.655v7.243h17.361v7.924h-17.361v17.933Zm223.934,0V277.008h7.5v3a8,8,0,0,1,6.569-3.355,7.051,7.051,0,0,1,3.807,1.043v8.618a7.437,7.437,0,0,0-4.407-1.427,6.953,6.953,0,0,0-5.629,2.762v17.988Zm-111.192,0V264.629h7.824v41.012Zm-13.219,0V277.008h7.837v28.633Zm-1.174-36.551a5.089,5.089,0,0,1,5.091-5.09,5.08,5.08,0,0,1,3.595,1.491,5.082,5.082,0,0,1,1.485,3.6,5.08,5.08,0,0,1-5.08,5.079,5.089,5.089,0,0,1-5.091-5.081Z" transform="translate(1766.98 -249.06)" fill="#008cd6"/>
      </g>
    </g>
    <g id="组_17725" data-name="组 17725" transform="translate(-333 -905)">
      <g transform="matrix(1, 0, 0, 1, 613.69, 627)" filter="url(#路径_200)">
        <path id="路径_200-2" data-name="路径 200" d="M13.375-30.562h37v3.438H36.75V-15.5H53v3.438H36.75V.75h23v3.5H4.125V.75H27.5V-12.062H11.125V-15.5H27.5V-27.125H13.375ZM6.625-50.437H50.438q3.75,14.063,10.438,22.688a1.543,1.543,0,0,1,.375.875q-.063.5-1,.5-13.75-2.875-20-20.687H26.188A41.731,41.731,0,0,1,4.313-26q-1.438,0-1.625-.25a2.132,2.132,0,0,1,.375-1.312A54.659,54.659,0,0,0,15-47.062H6.625Zm103.683,29.5,11-6.625,2.188,2.625-6.937,4.25Q122.245-7.437,130.495-.5q.312.125.313.75a.836.836,0,0,1-.937.75Q118-.75,110.5-13V.438q0,5.5-5.875,5.5a27.382,27.382,0,0,1-4.375-.375Q92.807,4.187,88.808.75L91-2.312a13.565,13.565,0,0,0,4.875,3,19.778,19.778,0,0,0,4.5,1.125V-11.312L76.62,4.875,74.183,1.813,100.37-15.812q0-2.75-.062-5L76.558-5.75,74.245-8.562l25.812-16.375a33.518,33.518,0,0,0-.812-4.437L76.87-16.187,74.433-19.25l22.75-13.187H84.87v-3.5H117.5v3.5H104.183Q109.558-29.437,110.308-20.937ZM83.5-41.312V-28.5H74V-44.875H94.62A10.156,10.156,0,0,0,96-47.125a6.331,6.331,0,0,1,2-2.812q2.125-1.75,8.437-1.875a26.551,26.551,0,0,0,.5,5.813,2.766,2.766,0,0,0,.438,1.125h18.313a2.417,2.417,0,0,1,1.877.658,2.417,2.417,0,0,1,.748,1.842v13.25h-9.625V-41.312Zm60.3-4.875h8.313V-52.25h8.25v6.063h7v3.438h-7v10.625h8.25v3.438H161.99V-17a14.279,14.279,0,0,0,3.25-4.187,15.891,15.891,0,0,0,4.438,5V-24.75h24.438q2.562.063,2.563,2.813V-3.312h-27V-14.75a17.85,17.85,0,0,0-4.437,5.063,9.558,9.558,0,0,0-3.25-4.125v12q7.313,3.125,19,3.125,8,0,12.063-1.375A9.291,9.291,0,0,0,195.49-1.75a3.779,3.779,0,0,1,2.125-1.375,2.156,2.156,0,0,1,1.938,2.313q-1.563,2.875-7.062,4.375A53.907,53.907,0,0,1,180.053,4.75q-19.188,0-30.687-8.937Q148.552,3,141.553,6.25l-.625-9.562q2.688-2.688,2.688-7.812V-24.687h8.375V-11.25a14.33,14.33,0,0,0,1.75,3.125V-28.687H142.49v-3.437h9.625V-42.75H143.8Zm35,24.813V-6.812h8.25V-21.375Zm-4.375-25H168.99v-3.25h25q3.312,0,3.5,3.375-.438,10.813-2,15.063a6.22,6.22,0,0,1-2.812,3.313,10.536,10.536,0,0,1-4.062.75,22.234,22.234,0,0,1-7.812-1.5v-3.062a11.019,11.019,0,0,0,4.313,1.063A2.079,2.079,0,0,0,187.3-32q.75-3.937.75-14.375h-4.375q-1.938,15.563-13.75,20-1.625,0-1.625-.75a40.119,40.119,0,0,0,4.313-8.812,49.217,49.217,0,0,0,1.815-10.438Zm88.81,12.624q2.938,0,3.25,3.5V3.688q-.062,2-1.875,2.063h-7.625V-17.625h-11.75q-3.562,0-3.562-3.625v-9.062h-3.5q-2.187,12.375-16.062,15.938h-.125V5.813h-9.437V-33.75h13a25.69,25.69,0,0,0-6.437-4.375,16.24,16.24,0,0,0,6.313-4.312H211.3v-3.5h20.938a6.815,6.815,0,0,0,1.625-1.937,5.7,5.7,0,0,1,2.063-2.375q2.25-1.5,8.813-1.562a19.012,19.012,0,0,0,.5,4.875,2.331,2.331,0,0,0,.563,1H267.24v3.5h-13.5a22.3,22.3,0,0,0,6.188,4.25,18.605,18.605,0,0,0-6.25,4.438Zm-11.813,0a22.307,22.307,0,0,0-6.5-4.437,17.466,17.466,0,0,0,6.188-4.25H227.923a22.762,22.762,0,0,0,6.188,4.313,17.42,17.42,0,0,0-6.125,4.375Zm-1,3.438v9.125h6.563v-9.125ZM221.985-17.25a31.093,31.093,0,0,0,3.938-4.875,21.353,21.353,0,0,0,2.563-8.187h-6.5ZM253.173,1.875H226.36V-14.75h23.875q2.937.063,2.938,3.25Zm-17.75-13.312v9.875h8.813v-9.875Zm200.412-39a23.451,23.451,0,0,0,8,7.125,21.438,21.438,0,0,0-8,7.25q-1.125-3.187-8-7.25a18.288,18.288,0,0,0,8-7.125Zm8.438,18.25q-2.625,4.938-2.625,16.125-.125,8.687-3.125,13.563A20.014,20.014,0,0,1,426.71,5.375,24.519,24.519,0,0,0,431.4-7.937q.375-10,2.563-15,3.937-7.188,10.309-9.25Zm3.563,10.313h17q-1.312-2.937-6.937-6.437a16.5,16.5,0,0,0,7-6.75,20.981,20.981,0,0,0,7,6.75,18.7,18.7,0,0,0-6.875,6.438H481.21q2.188,0,2.188,3-2.188,4.625-7.875,9.688a37,37,0,0,1-7.437,4.625,16.73,16.73,0,0,1,3.186,2.06,42.679,42.679,0,0,0,10.5,6.375,15.85,15.85,0,0,1-6.25.938,21.524,21.524,0,0,1-3.625-.437,21.1,21.1,0,0,1-6.5-2.312,41.481,41.481,0,0,1-5.437-3.5,33.533,33.533,0,0,0-10.125-4.125q-1.625-.312-1.625-.687,0-.437,1.625-.875a31.033,31.033,0,0,1,5.563-.5,28.382,28.382,0,0,1,8.625,1.25,33.921,33.921,0,0,0,8.188-12.062H447.835ZM464.9-46.5q-6.125,16-19.75,21.5a2.3,2.3,0,0,1-1.25-.187,2.427,2.427,0,0,1,.188-1.062A68.235,68.235,0,0,0,455.71-50.562h18.875a62.353,62.353,0,0,0,11.5,24.063q0,1.063-.312,1.125a2.025,2.025,0,0,1-1.25-.375Q472.585-31.562,464.9-46.5Zm46.87-1.562H528.2v-3.812h9.375v3.813h16.563v3.438H537.58v4.75H549.7q2.937.063,2.938,3.25V-15.81H537.58V5.875H528.2V-15.812H513.45V-39.875H528.2v-4.75H511.767ZM522.955-36.5v6.313h5.25V-36.5Zm0,9.75v7.438h5.25V-26.75Zm14.625,7.438h5.12V-26.75h-5.12Zm5.12-10.875V-36.5h-5.12v6.313Zm-38.87-20.25a23.451,23.451,0,0,0,8,7.125,21.438,21.438,0,0,0-8,7.25q-1.125-3.187-8-7.25a18.751,18.751,0,0,0,8-7.125Zm8.437,18.25q-2.5,4.75-2.5,15.688Q509.7-7.686,506.83-2.686a19.194,19.194,0,0,1-11.312,8.063A22.892,22.892,0,0,0,499.83-6.937q.375-10.438,2.5-15.625,3.812-7.5,9.937-9.625ZM516.017-13h11A32.618,32.618,0,0,1,519.33-1.812a27.723,27.723,0,0,1-8.187,5.563,5.4,5.4,0,0,1-1.875.438q-.375-.063-.375-1.125A38.045,38.045,0,0,0,513.2-3.5a33.24,33.24,0,0,0,2.817-9.5Zm33,.063A45.227,45.227,0,0,0,551.955-5.5a85.458,85.458,0,0,0,4.188,7.875q0,1-.5,1.063a2.863,2.863,0,0,1-1.5-.375,26.724,26.724,0,0,1-9.25-6.687,32.947,32.947,0,0,1-6.375-9.312ZM565.7-50.125h39.313v3.5h-8.75V5.75h-9.375V-4.125q-2.562.563-5.125,1.063-6.5,1.188-15.437,2.313l-.687-3.75q1.938-.25,3.625-.437V-46.625H565.7ZM578.638-6.5q1.437-.25,2.688-.5,2.813-.5,5.563-1.062V-18.187a18.983,18.983,0,0,0-4.375,5.25q-.625-2.187-3.875-4.75Zm0-14.312a16.175,16.175,0,0,0,3.875-4.875,17.735,17.735,0,0,0,4.375,5.125V-33.875A21.07,21.07,0,0,0,582.513-29q-.687-2-3.875-4.437Zm0-15.687a15.618,15.618,0,0,0,3.875-4.5,15.894,15.894,0,0,0,4.375,4.688V-46.625h-8.25Zm28.5.5a113.33,113.33,0,0,0,3.813,13.063,108.429,108.429,0,0,0,2.688-17.125H598.2v-3.5h22.875q2.438.125,2.438,3.063-2.25,16.875-8.375,28.25A108.7,108.7,0,0,0,624.326,3.69a1.848,1.848,0,0,1,.625,1.438,4.646,4.646,0,0,1-2,.25,56.482,56.482,0,0,1-11.438-11.69,43.855,43.855,0,0,1-11.5,11.375,2.118,2.118,0,0,1-1.437.438,1.029,1.029,0,0,1-.812-1.062,2.188,2.188,0,0,1,.125-.687,52.586,52.586,0,0,0,9.688-15.937A100.439,100.439,0,0,1,597.263-36ZM661.82-51.437h9.88v5.375h19.438v3.438H671.7v8.438h21.188l-.5,3.75h-27q-3.562,0-3.562-3.625ZM651.57-41v11.375h-9.75v-9.5a18.8,18.8,0,0,1-1.812.625,26.912,26.912,0,0,1-4.312,1q-.375,0-.375-1.25,8-6.625,11.5-13.25H659.2a29.768,29.768,0,0,1-8.937,8.5A5.944,5.944,0,0,1,651.57-41ZM645.258-1.062H639.32V-27.687h46.5q3.38.062,3.38,3.687V-1.062h-5.63a17.87,17.87,0,0,0,1.5,2,44.853,44.853,0,0,0,3.875,4.188q0,1.563-.812,1.688A5.131,5.131,0,0,1,685.7,6.25a30.55,30.55,0,0,1-9.187-3.875,24.419,24.419,0,0,1-4.437-3.437h-15A26.65,26.65,0,0,1,650.945,3.5a35.621,35.621,0,0,1-8.25,3.125,5.368,5.368,0,0,1-2,.5q-.375,0-.375-1.25a30.117,30.117,0,0,0,4.938-6.937Zm3.563-23.312V-4.562h30.813V-24.375ZM656.633-23a18.957,18.957,0,0,0,6.75,5.438,17.607,17.607,0,0,0-6.75,5.5q-.937-2.375-6.75-5.5A15.174,15.174,0,0,0,656.633-23Zm14.813,6.625a19.515,19.515,0,0,0,6.875,5.75,17.977,17.977,0,0,0-6.875,5.813q-.937-2.562-6.875-5.812a15.362,15.362,0,0,0,6.874-5.751Z" transform="translate(6.31 149)" fill="#018bd4"/>
      </g>
      <g transform="matrix(1, 0, 0, 1, 613.69, 627)" filter="url(#路径_199)">
        <path id="路径_199-2" data-name="路径 199" d="M42.275,0H.483l1.23-7.778L28.3-33.311q7.427-7.251,8.174-13.14a9.423,9.423,0,0,0-1.406-6.965,7.216,7.216,0,0,0-5.933-2.966,10.772,10.772,0,0,0-8.218,3.054,14.3,14.3,0,0,0-4.043,8.811L6.5-44.473a21.62,21.62,0,0,1,3.582-10.591,21.39,21.39,0,0,1,8.35-7.317A23.593,23.593,0,0,1,29.7-64.864q8.35.176,13.206,4.834T47.2-47.549q-.747,8.965-10.767,18.94l-2.725,2.681-18.5,17.4h28.43Zm42.39-22.808H92.4l-1.494,8.569h-7.69L80.71,0H70.295l2.461-14.238H45.949l.923-7.031L80.71-63.984H91.828Zm-26.279,0H74.25l4.966-26.851-1.055,1.494ZM108.993-42.32q5.933-6.24,13.491-6.064,6.768.088,10.042,4.79t2.439,13.008L129.867,0H119.452l5.186-30.718a17.948,17.948,0,0,0,.088-3.516q-.571-5.361-6.328-5.493-5.8-.088-10.371,5.713L102.094,0H91.679l11.689-67.5h10.459Z" transform="translate(287.31 154)" fill="#ef7d00"/>
      </g>
    </g>
    <g id="组_17842" data-name="组 17842" transform="translate(319.686 -437.355)">
      <path id="路径_443" data-name="路径 443" d="M5871.123,579.467l-25.8,54.263h504.327l28.271-54.263" transform="translate(-5796.244 -185.467)" fill="#008cd6"/>
      <path id="路径_446" data-name="路径 446" d="M-202.327-12.216H-181.8v1.907h-7.558V-3.86h9.015v1.907h-9.015V5.155H-176.6V7.1h-30.858V5.155h12.967V-1.953h-9.084V-3.86h9.084v-6.449h-7.836Zm-3.745-11.026h24.3a35.162,35.162,0,0,0,5.79,12.586.856.856,0,0,1,.208.485q-.035.277-.555.277-7.628-1.595-11.095-11.476h-7.8A23.15,23.15,0,0,1-207.355-9.685q-.8,0-.9-.139a1.183,1.183,0,0,1,.208-.728,30.322,30.322,0,0,0,6.622-10.818h-4.646ZM-149.62-6.876l6.1-3.675L-142.3-9.1l-3.849,2.358a29.538,29.538,0,0,0,7.732,11.2q.173.069.173.416a.464.464,0,0,1-.52.416q-6.588-.971-10.748-7.766V4.982q0,3.051-3.259,3.051a15.19,15.19,0,0,1-2.427-.208,13.313,13.313,0,0,1-6.345-2.67l1.214-1.7a7.525,7.525,0,0,0,2.7,1.664,10.972,10.972,0,0,0,2.5.624V-1.537l-13.175,8.98-1.352-1.7,14.527-9.777q0-1.526-.035-2.774l-13.175,8.356-1.283-1.56L-155.306-9.1a18.591,18.591,0,0,0-.451-2.462l-12.412,7.316-1.352-1.7,12.62-7.316h-6.83V-15.2h18.1v1.942h-7.385Q-150.036-11.591-149.62-6.876Zm-14.874-11.3v7.108h-5.27v-9.084h11.442a5.634,5.634,0,0,0,.763-1.248,3.512,3.512,0,0,1,1.109-1.56q1.179-.971,4.681-1.04a14.729,14.729,0,0,0,.277,3.224,1.535,1.535,0,0,0,.243.624h10.159a1.341,1.341,0,0,1,1.456,1.387v7.35h-5.339v-6.761Zm37.9,7.316a8.246,8.246,0,0,0,2.115,2.427v-9.985h-3.987V-8.54A8.978,8.978,0,0,0-126.591-10.863ZM-128.463-6.6V5.259h3.987v-12.1a10.028,10.028,0,0,0-2.115,2.5A5.373,5.373,0,0,0-128.463-6.6Zm8.841,13.834h-13.557V-20.329h3.675a6.974,6.974,0,0,0,.416-1.04,5.258,5.258,0,0,1,.763-1.8q.728-.763,4.161-.8a16.775,16.775,0,0,0,.243,3.224,1.346,1.346,0,0,0,.1.416h2.392q1.8.035,1.8,1.942ZM-115.7-24h5.894a20.6,20.6,0,0,1-1.422,3.745h7.489q1.768,0,1.907,2.011v24.1q0,2.219-2.843,2.219a19.376,19.376,0,0,1-3.363-.312q-8.564-1.768-11.372-8.078l4.611-1.63.589,1.109q-1.526.52-1.734,1.318.277,2.323,4.369,4.334a12.376,12.376,0,0,0,4.265,1.04v-24.2h-4.923a26.73,26.73,0,0,1-1.526,2.219,15.183,15.183,0,0,1-4.23,3.953,3.058,3.058,0,0,1-1.283.347q-.243,0-.243-.8A49.158,49.158,0,0,0-115.7-24Zm2.5,11.546a13.488,13.488,0,0,0,4.334,4.507,12.531,12.531,0,0,0-4.334,4.507q-.589-1.976-4.334-4.507A10.627,10.627,0,0,0-113.208-12.458Zm34.3-3.537v-8.044h5.3v9.5l6.31-4.785,1.352,1.56-5.582,4.2A72.793,72.793,0,0,0-64.66,2.173q.555.867,1.144,1.734a.535.535,0,0,1-.52.589,6.128,6.128,0,0,1-2.392-1.144,27.487,27.487,0,0,1-7.177-8.495V5.779q0,2.184-2.912,2.184a13.394,13.394,0,0,1-2.254-.208A10.967,10.967,0,0,1-84.6,4.739l1.144-1.595a7.279,7.279,0,0,0,2.358,1.838,9.246,9.246,0,0,0,2.184.659v-15.5Q-82.69,3.179-89.381,6.126q-.659,0-.659-.243a.7.7,0,0,1,.139-.451q4.2-6.1,6.137-19.555h-4.091v-1.872Zm-12.967-6.9a13.009,13.009,0,0,0,4.438,3.953,11.893,11.893,0,0,0-4.438,4.022q-.624-1.768-4.438-4.022A10.145,10.145,0,0,0-91.878-22.894Zm4.022,9.777q-1.387,2.6-1.387,8.564a15.55,15.55,0,0,1-1.664,7.732,10.567,10.567,0,0,1-6.31,4.542,13.162,13.162,0,0,0,2.462-7,25.728,25.728,0,0,1,1.387-8.529A9.9,9.9,0,0,1-87.856-13.117Zm36.239-6.761A14.394,14.394,0,0,1-53.385-17.9a15.512,15.512,0,0,1-4.334,2.947,3.275,3.275,0,0,1-1.248.312q-.243,0-.243-.763a30.505,30.505,0,0,0,3.883-8.356H-49.4q-.451,1.04-.971,1.976h7.905v1.907h-5.651a11.508,11.508,0,0,0,3.294,2.358,9.579,9.579,0,0,0-3.4,2.566h1.144v2.774h3.19v1.907h-3.19V-4.83a8.591,8.591,0,0,0,1.56-2.427,9.536,9.536,0,0,0,2.531,3.016V-13.6h13.522q1.872.035,1.872,2.046V7.3H-42.984V-3.79A15,15,0,0,0-45.515,1.1a10.348,10.348,0,0,0-1.56-3.779V8h-5.2V-9.3l-3.155,3.467q2.808.971,2.912,4.646-.347,5.686-6.1,8.807A17.314,17.314,0,0,0-56.748-.358q-.208-2.67-2.219-2.739V-4.8l5.027-5.478h-4.611v-1.907h6.276v-2.774h3.5a9.336,9.336,0,0,0-3.294-2.566,7.669,7.669,0,0,0,3.051-2.358Zm14.493,0a15.259,15.259,0,0,1-1.352,1.56,13.457,13.457,0,0,1-3.883,2.7,3.539,3.539,0,0,1-1.422.381q-.277,0-.277-.9A30.5,30.5,0,0,0-40.9-23.761h6.033a17.275,17.275,0,0,1-.936,1.976h8.876v1.907H-32.3a11.508,11.508,0,0,0,3.294,2.358,9.974,9.974,0,0,0-3.745,2.982q-.485-1.318-3.5-2.982a7.62,7.62,0,0,0,3.086-2.358ZM-37.852-5.7v4.126h5.166V-5.7Zm0,6.033V5.363h5.166V.336Zm0-12.031V-7.6h5.166V-11.7Zm52.333-4.889h3.537q.139-3.432.173-7.142h5.2q-.069,3.814-.277,7.142h3.779a8.9,8.9,0,0,0-2.774-3.155A7.921,7.921,0,0,0,27-23.206a10.207,10.207,0,0,0,2.878,3.467,8.778,8.778,0,0,0-2.7,3.155h2.774v1.872H22.976q-.139,1.456-.277,2.808h4.507v17.2H30.5l-.277,2.08H24.466A1.762,1.762,0,0,1,22.49,5.363V-10.274A53.324,53.324,0,0,1,19.959.544a21.272,21.272,0,0,1-2.774,5.513,6.847,6.847,0,0,1-2.323,1.976Q14,8.033,14,7.547q.381-.9.867-2.288,2.358-7.142,3.051-19.971H14.481ZM-2.231-20.363h5.79a4.974,4.974,0,0,0,.624-1.318,4.62,4.62,0,0,1,.832-1.768q.8-.8,4.438-.832a15.23,15.23,0,0,0,.277,3.259,1.858,1.858,0,0,0,.243.659h5.339v1.907H-2.231Zm16.4,15.325H9.107V8.067H4.114V-5.039H-.844V-15.821H12.747q1.422.035,1.422,1.56ZM3.976-13.949V-6.98H9.315v-6.969ZM.543-3.756a13.658,13.658,0,0,0,3.19,4.923A12.026,12.026,0,0,0,.543,5.987Q.092,3.872-2.647,1.168A10.732,10.732,0,0,0,.543-3.756Zm12-.173A13.829,13.829,0,0,0,15.66.925a12.011,12.011,0,0,0-3.12,4.785q-.416-2.08-3.12-4.785A10.658,10.658,0,0,0,12.539-3.929ZM48.431-7.674H35.36V-9.58H66.877v1.907H54.048V-3.1H63.86V-1.19H54.048V5.294a20.954,20.954,0,0,0,3.224.243,15.85,15.85,0,0,0,6.484-1.005,4.249,4.249,0,0,0,1.526-1.075,1.75,1.75,0,0,1,1.075-.936,1.244,1.244,0,0,1,1.109,1.352Q66.6,5.779,63.548,6.819a25.748,25.748,0,0,1-6.9.763q-9.361-.035-14.943-5.027a15.534,15.534,0,0,1-5.443,5.1,2.909,2.909,0,0,1-1.179.243,2.967,2.967,0,0,1,.173-1.005A27.384,27.384,0,0,0,38.723-6.564l6,.659A26.136,26.136,0,0,1,43.231-.427a16.6,16.6,0,0,0,5.2,4.022Zm15.186-3.641H38.411V-23.38H62.4q1.214.035,1.214,1.352ZM43.577-21.577v8.356H58v-8.356Zm7.7.832a12.389,12.389,0,0,0,4.507,3.432,11.745,11.745,0,0,0-4.507,3.5q-.624-1.526-4.507-3.5A10.257,10.257,0,0,0,51.275-20.745Zm34.783-3.016h5.894q-.485,1.664-1.109,3.224h13.21q.936,0,.936,1.352a14.815,14.815,0,0,1-2.808,3.849,12.169,12.169,0,0,1-3.849,2.7q-.624,0-.624-.243a.69.69,0,0,1,.1-.416,21.331,21.331,0,0,0,.9-2.358,22.222,22.222,0,0,0,.624-3.016H96.424V5.606q0,2.427-2.739,2.427a14.388,14.388,0,0,1-2.878-.312A14.634,14.634,0,0,1,84.566,4.67,13.521,13.521,0,0,1,82.625,7.1a2.732,2.732,0,0,1-1.005.243q-.173-.035-.173-.589A64,64,0,0,0,83.7-.774,74.5,74.5,0,0,0,85.156-11.7h5.3A49.1,49.1,0,0,1,86.681.821q-.52,1.109-1.04,2.011A11.814,11.814,0,0,0,88.068,4.5,12.6,12.6,0,0,0,91.223,5.5V-18.664H89.94a22.711,22.711,0,0,1-2.254,3.571,17.786,17.786,0,0,1-4.646,4.334,2.755,2.755,0,0,1-1.144.312q-.243,0-.243-.728A53.086,53.086,0,0,0,86.057-23.761Zm16.3,12q.416,4.542,1.075,8.945.555,3.918,1.526,9.327,0,.589-.277.624a1.588,1.588,0,0,1-.832-.208q-1.976-2.184-3.918-7.8a65.6,65.6,0,0,1-2.7-10.887Zm-21.5-.555V8H75.274V-13.013q-1.664.693-2.67,1.179a1.829,1.829,0,0,1-.8-.139,1.705,1.705,0,0,1,.589-.971,15.591,15.591,0,0,1,1.456-1.768,21.906,21.906,0,0,0,1.872-2.462,19.369,19.369,0,0,0,2.046-4.161H73.645V-23.31H84.115q.693,0,.693.555a10.777,10.777,0,0,0-1.56,2.046A29.752,29.752,0,0,1,81.1-17.07a11.085,11.085,0,0,1-1.456,1.734,9.588,9.588,0,0,1-2.08,1.318h2.15A2.523,2.523,0,0,1,80.856-12.32Zm50,5.443,6.1-3.675L138.175-9.1l-3.849,2.358a29.538,29.538,0,0,0,7.732,11.2q.173.069.173.416a.464.464,0,0,1-.52.416q-6.588-.971-10.748-7.766V4.982q0,3.051-3.259,3.051a15.191,15.191,0,0,1-2.427-.208,13.313,13.313,0,0,1-6.345-2.67l1.214-1.7a7.525,7.525,0,0,0,2.7,1.664,10.972,10.972,0,0,0,2.5.624V-1.537l-13.175,8.98-1.352-1.7,14.527-9.777q0-1.526-.035-2.774L112.137,1.549l-1.283-1.56L125.174-9.1a18.591,18.591,0,0,0-.451-2.462L112.31-4.241l-1.352-1.7,12.62-7.316h-6.83V-15.2h18.1v1.942h-7.385Q130.444-11.591,130.86-6.876Zm-14.874-11.3v7.108h-5.27v-9.084h11.442a5.634,5.634,0,0,0,.763-1.248,3.512,3.512,0,0,1,1.109-1.56q1.179-.971,4.681-1.04a14.729,14.729,0,0,0,.277,3.224,1.534,1.534,0,0,0,.243.624h10.159a1.341,1.341,0,0,1,1.456,1.387v7.35h-5.339v-6.761Zm37.9,7.316A8.246,8.246,0,0,0,156-8.436v-9.985h-3.987V-8.54A8.978,8.978,0,0,0,153.889-10.863ZM152.016-6.6V5.259H156v-12.1a10.028,10.028,0,0,0-2.115,2.5A5.373,5.373,0,0,0,152.016-6.6Zm8.841,13.834H147.3V-20.329h3.675a6.97,6.97,0,0,0,.416-1.04,5.258,5.258,0,0,1,.763-1.8q.728-.763,4.161-.8a16.773,16.773,0,0,0,.243,3.224,1.347,1.347,0,0,0,.1.416h2.392q1.8.035,1.8,1.942ZM164.775-24h5.894a20.6,20.6,0,0,1-1.422,3.745h7.489q1.768,0,1.907,2.011v24.1q0,2.219-2.843,2.219a19.376,19.376,0,0,1-3.363-.312q-8.564-1.768-11.372-8.078l4.611-1.63.589,1.109q-1.526.52-1.734,1.318Q164.81,2.8,168.9,4.808a12.376,12.376,0,0,0,4.265,1.04v-24.2h-4.923a26.726,26.726,0,0,1-1.526,2.219,15.183,15.183,0,0,1-4.23,3.953,3.058,3.058,0,0,1-1.283.347q-.243,0-.243-.8A49.158,49.158,0,0,0,164.775-24Zm2.5,11.546a13.488,13.488,0,0,0,4.334,4.507,12.531,12.531,0,0,0-4.334,4.507q-.589-1.976-4.334-4.507A10.627,10.627,0,0,0,167.272-12.458Zm34.3-3.537v-8.044h5.3v9.5l6.31-4.785,1.352,1.56-5.582,4.2a72.793,72.793,0,0,0,6.865,15.741q.555.867,1.144,1.734a.535.535,0,0,1-.52.589,6.129,6.129,0,0,1-2.392-1.144,27.487,27.487,0,0,1-7.177-8.495V5.779q0,2.184-2.912,2.184a13.394,13.394,0,0,1-2.254-.208,10.968,10.968,0,0,1-5.825-3.016l1.144-1.595a7.279,7.279,0,0,0,2.358,1.838,9.247,9.247,0,0,0,2.184.659v-15.5Q197.79,3.179,191.1,6.126q-.659,0-.659-.243a.7.7,0,0,1,.139-.451q4.2-6.1,6.137-19.555h-4.091v-1.872Zm-12.967-6.9a13.009,13.009,0,0,0,4.438,3.953A11.893,11.893,0,0,0,188.6-14.92q-.624-1.768-4.438-4.022A10.145,10.145,0,0,0,188.6-22.894Zm4.022,9.777q-1.387,2.6-1.387,8.564a15.55,15.55,0,0,1-1.664,7.732,10.567,10.567,0,0,1-6.31,4.542,13.162,13.162,0,0,0,2.462-7,25.727,25.727,0,0,1,1.387-8.529A9.9,9.9,0,0,1,192.624-13.117Zm36.239-6.761a14.4,14.4,0,0,1-1.768,1.976,15.512,15.512,0,0,1-4.334,2.947,3.275,3.275,0,0,1-1.248.312q-.243,0-.243-.763a30.5,30.5,0,0,0,3.883-8.356h5.929q-.451,1.04-.971,1.976h7.905v1.907h-5.651a11.508,11.508,0,0,0,3.294,2.358,9.579,9.579,0,0,0-3.4,2.566H233.4v2.774h3.19v1.907H233.4V-4.83a8.591,8.591,0,0,0,1.56-2.427A9.536,9.536,0,0,0,237.5-4.241V-13.6h13.522q1.872.035,1.872,2.046V7.3H237.5V-3.79A15,15,0,0,0,234.965,1.1a10.348,10.348,0,0,0-1.56-3.779V8h-5.2V-9.3l-3.155,3.467q2.808.971,2.912,4.646-.347,5.686-6.1,8.807a17.314,17.314,0,0,0,1.872-7.974q-.208-2.67-2.219-2.739V-4.8l5.027-5.478h-4.611v-1.907H228.2v-2.774h3.5a9.336,9.336,0,0,0-3.294-2.566,7.669,7.669,0,0,0,3.051-2.358Zm14.493,0A15.257,15.257,0,0,1,242-18.318a13.457,13.457,0,0,1-3.883,2.7,3.539,3.539,0,0,1-1.422.381q-.277,0-.277-.9a30.5,30.5,0,0,0,3.155-7.628h6.033a17.276,17.276,0,0,1-.936,1.976h8.876v1.907h-5.374a11.508,11.508,0,0,0,3.294,2.358,9.974,9.974,0,0,0-3.745,2.982q-.485-1.318-3.5-2.982a7.62,7.62,0,0,0,3.086-2.358ZM242.627-5.7v4.126h5.166V-5.7Zm0,6.033V5.363h5.166V.336Zm0-12.031V-7.6h5.166V-11.7Z" transform="translate(291.642 429.064)" fill="#fff"/>
      <path id="路径_444" data-name="路径 444" d="M5868.74,579.467l-27.2,54.263h14.207l26.1-54.263h-13.1" transform="translate(-5278.838 -185.467)" fill="#00a041"/>
      <path id="路径_445" data-name="路径 445" d="M5868.74,579.467l-27.2,54.263h14.207l26.1-54.263h-13.1" transform="translate(-5815.321 -185.467)" fill="#00a041"/>
    </g>
  </g>
</svg>
