<svg xmlns="http://www.w3.org/2000/svg" xmlns:xlink="http://www.w3.org/1999/xlink" width="519.603" height="215.858" viewBox="0 0 519.603 215.858">
  <defs>
    <filter id="路径_199" x="132.884" y="70.317" width="135.244" height="76.774" filterUnits="userSpaceOnUse">
      <feOffset dy="4" input="SourceAlpha"/>
      <feGaussianBlur stdDeviation="3" result="blur"/>
      <feFlood flood-color="#fff"/>
      <feComposite operator="in" in2="blur"/>
      <feComposite in="SourceGraphic"/>
    </filter>
    <filter id="路径_200" x="0" y="64.742" width="519.603" height="90.699" filterUnits="userSpaceOnUse">
      <feOffset input="SourceAlpha"/>
      <feGaussianBlur stdDeviation="6.5" result="blur-2"/>
      <feFlood flood-color="#fff"/>
      <feComposite operator="in" in2="blur-2"/>
      <feComposite in="SourceGraphic"/>
    </filter>
    <clipPath id="clip-path">
      <rect id="矩形_4" data-name="矩形 4" width="152.376" height="55.726" transform="translate(0 0)" fill="#d2d2d2"/>
    </clipPath>
    <filter id="联合_6" x="138.712" y="-2.932" width="96.797" height="64.249" filterUnits="userSpaceOnUse">
      <feOffset dy="1" input="SourceAlpha"/>
      <feGaussianBlur stdDeviation="1.5" result="blur-3"/>
      <feFlood flood-color="#fff"/>
      <feComposite operator="in" in2="blur-3"/>
      <feComposite in="SourceGraphic"/>
    </filter>
    <filter id="联合_5" x="75.08" y="9.853" width="70.527" height="48.717" filterUnits="userSpaceOnUse">
      <feOffset dy="1" input="SourceAlpha"/>
      <feGaussianBlur stdDeviation="1.5" result="blur-4"/>
      <feFlood flood-color="#fff"/>
      <feComposite operator="in" in2="blur-4"/>
      <feComposite in="SourceGraphic"/>
    </filter>
    <filter id="路径_196" x="244.724" y="7.057" width="49.346" height="49.344" filterUnits="userSpaceOnUse">
      <feOffset dy="3" input="SourceAlpha"/>
      <feGaussianBlur stdDeviation="3" result="blur-5"/>
      <feFlood flood-color="#fff"/>
      <feComposite operator="in" in2="blur-5"/>
      <feComposite in="SourceGraphic"/>
    </filter>
  </defs>
  <g id="main_slogan" transform="translate(-336.663 278)">
    <g id="组_17725" data-name="组 17725" transform="translate(356.163 -202.683)">
      <g transform="matrix(1, 0, 0, 1, -19.5, -75.32)" filter="url(#路径_199)">
        <path id="路径_199-2" data-name="路径 199" d="M36.872-8.726H.483L1.554-15.5,24.7-37.731q6.467-6.314,7.117-11.441A8.2,8.2,0,0,0,30.6-55.237a6.283,6.283,0,0,0-5.166-2.583,9.379,9.379,0,0,0-7.156,2.659,12.451,12.451,0,0,0-3.52,7.672l-9.033.038a18.825,18.825,0,0,1,3.119-9.222,18.625,18.625,0,0,1,7.271-6.371A20.543,20.543,0,0,1,25.923-65.2q7.271.153,11.5,4.209T41.16-50.128q-.65,7.806-9.375,16.491L29.413-31.3,13.3-16.152H38.059Zm36.91-19.859h6.735l-1.3,7.461h-6.7l-2.182,12.4H61.27l2.143-12.4H40.071l.8-6.122L70.338-64.439h9.681Zm-22.882,0H64.713l4.324-23.38-.919,1.3ZM94.965-45.575q5.166-5.433,11.747-5.28,5.893.077,8.744,4.171t2.124,11.326L113.14-8.726h-9.069l4.516-26.747a15.628,15.628,0,0,0,.077-3.061q-.5-4.668-5.51-4.783-5.05-.077-9.03,4.974L88.958-8.726H79.889L90.067-67.5h9.107Z" transform="translate(141.4 142.82)" fill="#ef7d00"/>
      </g>
      <g transform="matrix(1, 0, 0, 1, -19.5, -75.32)" filter="url(#路径_200)">
        <path id="路径_200-2" data-name="路径 200" d="M143.429-46.971h7.238V-52.25h7.183v5.279h6.1v2.994h-6.1v9.251h7.183v2.994h-5.767v10.175A12.433,12.433,0,0,0,162.1-25.2a13.836,13.836,0,0,0,3.864,4.354v-7.456H187.24q2.231.055,2.232,2.449V-9.639H165.962V-19.6A15.542,15.542,0,0,0,162.1-15.19a8.322,8.322,0,0,0-2.83-3.592V-8.333q6.368,2.721,16.544,2.721,6.966,0,10.5-1.2a8.09,8.09,0,0,0,2.12-1.47,3.29,3.29,0,0,1,1.85-1.2,1.877,1.877,0,0,1,1.687,2.014q-1.361,2.5-6.149,3.809a46.938,46.938,0,0,1-10.83,1.034q-16.707,0-26.72-7.782-.709,6.258-6.8,9.088l-.544-8.326q2.341-2.34,2.34-6.8V-28.25h7.292v11.7a12.477,12.477,0,0,0,1.524,2.721v-17.9h-9.8v-2.993h8.381v-9.252h-7.24ZM173.9-25.366v12.679h7.183v-12.68Zm-3.809-21.768h-4.732v-2.83H187.13a2.739,2.739,0,0,1,3.048,2.939q-.381,9.415-1.741,13.116a5.416,5.416,0,0,1-2.448,2.885,9.174,9.174,0,0,1-3.537.653,19.36,19.36,0,0,1-6.8-1.306v-2.666a9.6,9.6,0,0,0,3.755.926,1.81,1.81,0,0,0,1.9-1.2,78.9,78.9,0,0,0,.653-12.517h-3.809q-1.687,13.551-11.972,17.414-1.415,0-1.415-.653a34.932,34.932,0,0,0,3.755-7.673,42.854,42.854,0,0,0,1.58-9.089Zm77.329,10.992q2.558,0,2.83,3.048V-3.544q-.054,1.741-1.633,1.8h-6.639V-22.1H231.75q-3.1,0-3.1-3.156v-7.89H225.6q-1.9,10.775-13.986,13.878h-.109V-1.693H203.29V-36.142h11.319a22.368,22.368,0,0,0-5.6-3.809,14.141,14.141,0,0,0,5.5-3.755H202.2v-3.048h18.231a5.934,5.934,0,0,0,1.415-1.687,4.963,4.963,0,0,1,1.8-2.068q1.959-1.306,7.674-1.36a16.555,16.555,0,0,0,.435,4.245,2.03,2.03,0,0,0,.49.871H250.91V-43.7H239.156a19.417,19.417,0,0,0,5.388,3.7A16.2,16.2,0,0,0,239.1-36.14Zm-10.286,0a19.424,19.424,0,0,0-5.66-3.863,15.208,15.208,0,0,0,5.388-3.7H216.676a19.819,19.819,0,0,0,5.388,3.755,15.168,15.168,0,0,0-5.333,3.809Zm-.871,2.994V-25.2h5.715v-7.945ZM211.506-21.775a27.074,27.074,0,0,0,3.429-4.245,18.592,18.592,0,0,0,2.232-7.129h-5.66ZM238.662-5.122H215.315V-19.6H236.1q2.557.055,2.558,2.83ZM223.207-16.713v8.6h7.674v-8.6Zm174.5-33.958a20.419,20.419,0,0,0,6.966,6.2,18.666,18.666,0,0,0-6.966,6.313q-.98-2.775-6.966-6.313a15.924,15.924,0,0,0,6.966-6.2Zm7.347,15.891q-2.286,4.3-2.286,14.04-.109,7.564-2.721,11.81a17.427,17.427,0,0,1-10.286,6.856,21.349,21.349,0,0,0,4.084-11.591q.327-8.707,2.232-13.061,3.428-6.259,8.976-8.054Zm3.1,8.98h14.8q-1.142-2.557-6.04-5.6a14.367,14.367,0,0,0,6.1-5.877,18.269,18.269,0,0,0,6.1,5.877,16.282,16.282,0,0,0-5.986,5.606h14.094q1.905,0,1.905,2.612a27.806,27.806,0,0,1-6.857,8.436,32.216,32.216,0,0,1-6.476,4.027,14.566,14.566,0,0,1,2.774,1.794,37.162,37.162,0,0,0,9.143,5.551,13.8,13.8,0,0,1-5.442.817,18.741,18.741,0,0,1-3.156-.381,18.372,18.372,0,0,1-5.66-2.013,36.119,36.119,0,0,1-4.734-3.048A29.2,29.2,0,0,0,409.9-11.6q-1.415-.272-1.415-.6,0-.381,1.415-.762a27.021,27.021,0,0,1,4.844-.435,24.713,24.713,0,0,1,7.51,1.088,29.536,29.536,0,0,0,7.129-10.5H408.158Zm14.858-21.442q-5.333,13.932-17.2,18.72a2,2,0,0,1-1.088-.163,2.113,2.113,0,0,1,.164-.925,59.414,59.414,0,0,0,10.12-21.17H431.45a54.292,54.292,0,0,0,10.013,20.952q0,.926-.272.98a1.763,1.763,0,0,1-1.088-.327Q429.709-34.237,423.017-47.243Zm40.811-1.36h14.306v-3.319H486.3v3.32h14.422v2.994H486.3v4.136h10.553q2.557.055,2.558,2.83v18.122H486.3V-1.639h-8.167V-20.523H465.291V-41.475h12.843v-4.136H463.825Zm9.739,10.067v5.5h4.571v-5.5Zm0,8.49v6.476h4.571v-6.476ZM486.3-23.57h4.458v-6.476H486.3Zm4.458-9.469v-5.5H486.3v5.5ZM456.914-50.671a20.419,20.419,0,0,0,6.966,6.2,18.666,18.666,0,0,0-6.966,6.313q-.98-2.775-6.966-6.313a16.327,16.327,0,0,0,6.966-6.2Zm7.346,15.891q-2.177,4.136-2.177,13.66-.058,7.674-2.557,12.027a16.713,16.713,0,0,1-9.85,7.021A19.932,19.932,0,0,0,453.431-12.8q.326-9.089,2.177-13.605,3.319-6.53,8.652-8.381Zm3.265,16.707H477.1a28.4,28.4,0,0,1-6.693,9.742,24.138,24.138,0,0,1-7.129,4.844,4.7,4.7,0,0,1-1.633.381q-.326-.055-.326-.98a33.127,33.127,0,0,0,3.75-5.715,28.941,28.941,0,0,0,2.453-8.272Zm28.734.055a39.382,39.382,0,0,0,2.558,6.476,74.405,74.405,0,0,0,3.647,6.857q0,.871-.435.926a2.493,2.493,0,0,1-1.306-.327,23.269,23.269,0,0,1-8.054-5.823,28.687,28.687,0,0,1-5.551-8.108ZM510.786-50.4h34.231v3.048H537.4v45.6h-8.163v-8.6q-2.231.49-4.462.926-5.66,1.034-13.441,2.014l-.6-3.265q1.687-.218,3.156-.381v-36.3h-3.1Zm11.265,37.985q1.251-.218,2.341-.435,2.449-.435,4.844-.925v-8.816a16.53,16.53,0,0,0-3.809,4.571q-.544-1.9-3.374-4.136Zm0-12.462a14.083,14.083,0,0,0,3.374-4.245,15.443,15.443,0,0,0,3.809,4.462V-36.251a18.347,18.347,0,0,0-3.809,4.245,9.383,9.383,0,0,0-3.374-3.863Zm0-13.659a13.6,13.6,0,0,0,3.374-3.918,13.838,13.838,0,0,0,3.809,4.082v-8.981h-7.183Zm24.816.435a98.685,98.685,0,0,0,3.32,11.374,94.411,94.411,0,0,0,2.34-14.911H539.084v-3.048H559q2.123.109,2.123,2.667-1.959,14.693-7.292,24.6a94.651,94.651,0,0,0,8,13.878,1.609,1.609,0,0,1,.544,1.252,4.046,4.046,0,0,1-1.742.218,49.18,49.18,0,0,1-9.959-10.179,38.185,38.185,0,0,1-10.013,9.9,1.844,1.844,0,0,1-1.251.381.9.9,0,0,1-.707-.925,1.9,1.9,0,0,1,.109-.6,45.788,45.788,0,0,0,8.436-13.877A87.457,87.457,0,0,1,538.268-38.1Zm47.613-13.442h8.6v4.68h16.925v2.994H603.082v7.347h18.449l-.435,3.265H597.586q-3.1,0-3.1-3.156Zm-8.925,9.088v9.9h-8.49v-8.272a16.367,16.367,0,0,1-1.578.544,23.434,23.434,0,0,1-3.755.871q-.326,0-.327-1.088,6.966-5.769,10.013-11.537H592.2a25.919,25.919,0,0,1-7.782,7.4,5.175,5.175,0,0,1,1.138,2.177Zm-5.5,34.775h-5.17V-30.862h40.489q2.943.054,2.943,3.21V-7.68h-4.9a15.56,15.56,0,0,0,1.306,1.741A39.045,39.045,0,0,0,618.1-2.292q0,1.361-.707,1.47a4.467,4.467,0,0,1-2.118-.491,26.6,26.6,0,0,1-8-3.374,21.262,21.262,0,0,1-3.863-2.993H590.349a23.205,23.205,0,0,1-5.338,3.972,31.015,31.015,0,0,1-7.183,2.721,4.674,4.674,0,0,1-1.741.435q-.326,0-.326-1.088a26.225,26.225,0,0,0,4.3-6.04Zm3.1-20.3v17.251H609.99V-27.979Zm6.8,1.2a16.506,16.506,0,0,0,5.877,4.735,15.331,15.331,0,0,0-5.877,4.789q-.816-2.068-5.877-4.789a13.212,13.212,0,0,0,5.877-4.735Zm12.9,5.769a16.993,16.993,0,0,0,5.986,5.007,15.653,15.653,0,0,0-5.986,5.062q-.816-2.231-5.986-5.061a13.376,13.376,0,0,0,5.985-5.008Z" transform="translate(-121.43 136.49)" fill="#018bd4"/>
      </g>
    </g>
    <g id="组_17842" data-name="组 17842" transform="translate(345.905 -109.389)">
      <path id="路径_443" data-name="路径 443" d="M5867.788,579.467l-22.465,47.248h439.128l24.616-47.248" transform="translate(-5825.418 -579.467)" fill="#008cd6"/>
      <path id="路径_444" data-name="路径 444" d="M5865.224,579.467l-23.684,47.248h12.371l22.726-47.248H5865.23" transform="translate(-5374.414 -579.467)" fill="#00a041"/>
      <path id="路径_445" data-name="路径 445" d="M5865.224,579.467l-23.684,47.248h12.371l22.726-47.248H5865.23" transform="translate(-5841.54 -579.467)" fill="#00a041"/>
      <path id="路径_196-2" data-name="路径 196" d="M2.758-22.966H6.6v-2.8h3.816v2.8h3.238v1.59H10.419v4.915h3.816v1.59H11.171v5.406a6.605,6.605,0,0,0,1.5-1.937,7.351,7.351,0,0,0,2.053,2.313v-3.961h11.3q1.185.029,1.185,1.3v8.615H14.727V-8.424a8.257,8.257,0,0,0-2.053,2.342,4.421,4.421,0,0,0-1.5-1.908v5.551A22.607,22.607,0,0,0,19.959-.993a18.472,18.472,0,0,0,5.58-.636,4.3,4.3,0,0,0,1.128-.781,1.748,1.748,0,0,1,.983-.636,1,1,0,0,1,.9,1.07Q27.823-.647,25.279.047A24.936,24.936,0,0,1,19.526.6Q10.65.6,5.331-3.538A5.8,5.8,0,0,1,1.717,1.29L1.428-3.133A4.895,4.895,0,0,0,2.671-6.747V-13.02H6.545V-6.8a6.629,6.629,0,0,0,.809,1.446v-9.512h-5.2v-1.59H6.6v-4.915H2.758Zm16.19,11.478v6.736h3.816v-6.736ZM16.924-23.052H14.409v-1.5H25.973a1.455,1.455,0,0,1,1.619,1.561,25.927,25.927,0,0,1-.925,6.967,2.877,2.877,0,0,1-1.3,1.532,4.874,4.874,0,0,1-1.879.347,10.285,10.285,0,0,1-3.614-.694v-1.417a5.1,5.1,0,0,0,1.995.491.962.962,0,0,0,1.012-.636,41.917,41.917,0,0,0,.347-6.649H21.2q-.9,7.2-6.36,9.251-.752,0-.752-.347a18.558,18.558,0,0,0,1.995-4.076A22.767,22.767,0,0,0,16.924-23.052Zm40.192,5.84q1.359,0,1.5,1.619V.105q-.029.925-.867.954H54.224V-9.753H48.789a1.469,1.469,0,0,1-1.648-1.677v-4.192H45.522Q44.51-9.9,38.092-8.25h-.058V1.088H33.669v-18.3h6.013A11.883,11.883,0,0,0,36.7-19.236a7.512,7.512,0,0,0,2.92-1.995H33.091V-22.85h9.685a3.152,3.152,0,0,0,.752-.9,2.638,2.638,0,0,1,.954-1.1,8.257,8.257,0,0,1,4.076-.723,8.794,8.794,0,0,0,.231,2.255,1.078,1.078,0,0,0,.26.463h9.916v1.619H52.721a10.317,10.317,0,0,0,2.862,1.966,8.606,8.606,0,0,0-2.891,2.053Zm-5.464,0a10.318,10.318,0,0,0-3.007-2.053,8.079,8.079,0,0,0,2.862-1.966H40.781a10.529,10.529,0,0,0,2.862,1.995,8.058,8.058,0,0,0-2.833,2.024Zm-.463,1.59V-11.4h3.036v-4.221ZM38.034-9.58a14.382,14.382,0,0,0,1.821-2.255,9.877,9.877,0,0,0,1.185-3.787H38.034ZM52.461-.733h-12.4v-7.69H51.1q1.359.029,1.359,1.5ZM44.25-6.891v4.568h4.076V-6.891ZM69.524-14.61a6.876,6.876,0,0,0,1.764,2.024v-8.326H67.963v8.24A7.486,7.486,0,0,0,69.524-14.61Zm-1.561,3.556v9.887h3.325v-10.09a8.362,8.362,0,0,0-1.764,2.082A4.48,4.48,0,0,0,67.963-11.054ZM75.335.481h-11.3V-22.5H67.1a5.813,5.813,0,0,0,.347-.867,4.384,4.384,0,0,1,.636-1.5q.607-.636,3.469-.665a13.987,13.987,0,0,0,.2,2.689,1.122,1.122,0,0,0,.087.347h1.995q1.5.029,1.5,1.619ZM78.6-25.568h4.915a17.177,17.177,0,0,1-1.185,3.122h6.245q1.474,0,1.59,1.677V-.675q0,1.85-2.371,1.85a16.156,16.156,0,0,1-2.8-.26Q77.85-.56,75.508-5.822L79.353-7.18l.491.925q-1.272.434-1.446,1.1.231,1.937,3.643,3.614A10.32,10.32,0,0,0,85.6-.675v-20.18H81.493A22.285,22.285,0,0,1,80.221-19a12.661,12.661,0,0,1-3.527,3.3,2.55,2.55,0,0,1-1.07.289q-.2,0-.2-.665A40.99,40.99,0,0,0,78.6-25.568Zm2.082,9.627A11.247,11.247,0,0,0,84.3-12.182a10.449,10.449,0,0,0-3.614,3.758q-.491-1.648-3.614-3.758A8.861,8.861,0,0,0,80.683-15.94Zm28.6-2.949V-25.6h4.423v7.922l5.262-3.99,1.128,1.3-4.655,3.5A60.7,60.7,0,0,0,121.164-3.74q.463.723.954,1.446a.446.446,0,0,1-.434.491,5.11,5.11,0,0,1-1.995-.954,22.92,22.92,0,0,1-5.985-7.083V-.733q0,1.821-2.428,1.821A11.168,11.168,0,0,1,109.4.915,9.145,9.145,0,0,1,104.54-1.6l.954-1.33A6.069,6.069,0,0,0,107.46-1.4a7.71,7.71,0,0,0,1.821.549V-13.772Q106.131-2.9,100.551-.444q-.549,0-.549-.2a.583.583,0,0,1,.116-.376q3.5-5.088,5.117-16.306h-3.411v-1.561ZM98.469-24.642a10.848,10.848,0,0,0,3.7,3.3,9.917,9.917,0,0,0-3.7,3.354q-.52-1.474-3.7-3.354A8.459,8.459,0,0,0,98.469-24.642Zm3.354,8.153q-1.156,2.168-1.156,7.141A12.966,12.966,0,0,1,99.279-2.9,8.811,8.811,0,0,1,94.017.886a10.975,10.975,0,0,0,2.053-5.84,21.453,21.453,0,0,1,1.156-7.112A8.255,8.255,0,0,1,101.823-16.49Zm30.217-5.638a12,12,0,0,1-1.474,1.648,12.935,12.935,0,0,1-3.614,2.457,2.731,2.731,0,0,1-1.041.26q-.2,0-.2-.636a25.436,25.436,0,0,0,3.238-6.967h4.944q-.376.867-.809,1.648h6.592v1.59H134.96a9.6,9.6,0,0,0,2.747,1.966,7.987,7.987,0,0,0-2.833,2.139h.954v2.313h2.66v1.59h-2.66V-9.58a7.164,7.164,0,0,0,1.3-2.024,7.952,7.952,0,0,0,2.11,2.515v-7.806h11.275q1.561.029,1.561,1.706V.539H139.239V-8.713a12.507,12.507,0,0,0-2.11,4.076,8.628,8.628,0,0,0-1.3-3.151v8.9h-4.337V-13.309l-2.631,2.891q2.342.809,2.428,3.874Q131-1.8,126.2.8a14.437,14.437,0,0,0,1.561-6.649q-.173-2.226-1.85-2.284V-9.551l4.192-4.568h-3.845v-1.59h5.233v-2.313h2.92a7.785,7.785,0,0,0-2.747-2.139,6.4,6.4,0,0,0,2.544-1.966Zm12.085,0a12.722,12.722,0,0,1-1.128,1.3,11.22,11.22,0,0,1-3.238,2.255,2.951,2.951,0,0,1-1.185.318q-.231,0-.231-.752a25.431,25.431,0,0,0,2.631-6.36H146a14.406,14.406,0,0,1-.781,1.648h7.4v1.59h-4.481a9.6,9.6,0,0,0,2.747,1.966,8.316,8.316,0,0,0-3.122,2.486q-.4-1.1-2.92-2.486a6.354,6.354,0,0,0,2.573-1.966ZM143.518-10.3v3.44h4.308V-10.3Zm0,5.03V-1.08h4.308V-5.272Zm0-10.032v3.411h4.308V-15.3Zm43.638-4.076H190.1q.116-2.862.145-5.956h4.337q-.058,3.18-.231,5.956h3.151a7.423,7.423,0,0,0-2.313-2.631,6.6,6.6,0,0,0,2.4-2.891,8.511,8.511,0,0,0,2.4,2.891,7.32,7.32,0,0,0-2.255,2.631h2.313v1.561h-5.811q-.116,1.214-.231,2.342h3.758v14.34h2.747L200.281.6h-4.8a1.469,1.469,0,0,1-1.648-1.677V-14.119a44.464,44.464,0,0,1-2.11,9.02A17.738,17.738,0,0,1,189.41-.5a5.709,5.709,0,0,1-1.937,1.648q-.723,0-.723-.4.318-.752.723-1.908,1.966-5.956,2.544-16.653h-2.862Zm-13.935-3.151h4.828a4.147,4.147,0,0,0,.52-1.1,3.853,3.853,0,0,1,.694-1.474q.665-.665,3.7-.694a12.7,12.7,0,0,0,.231,2.718,1.549,1.549,0,0,0,.2.549h4.452v1.59H173.221ZM186.9-9.753h-4.221V1.175h-4.163V-9.753h-4.134v-8.991H185.71q1.185.029,1.185,1.3Zm-8.5-7.43v5.811h4.452v-5.811Zm-2.862,8.5a11.388,11.388,0,0,0,2.66,4.105,10.028,10.028,0,0,0-2.66,4.019,8.767,8.767,0,0,0-2.66-4.019A8.948,8.948,0,0,0,175.533-8.684Zm10-.145a11.531,11.531,0,0,0,2.6,4.047,10.015,10.015,0,0,0-2.6,3.99,8.6,8.6,0,0,0-2.6-3.99A8.887,8.887,0,0,0,185.536-8.828Zm29.928-3.122h-10.9v-1.59h26.28v1.59h-10.7v3.816h8.182v1.59h-8.182v5.406a17.473,17.473,0,0,0,2.689.2,13.216,13.216,0,0,0,5.406-.838,3.543,3.543,0,0,0,1.272-.9,1.459,1.459,0,0,1,.9-.781,1.037,1.037,0,0,1,.925,1.128A5.134,5.134,0,0,1,228.07.134a21.469,21.469,0,0,1-5.753.636q-7.806-.029-12.46-4.192a12.953,12.953,0,0,1-4.539,4.25,2.426,2.426,0,0,1-.983.2,2.474,2.474,0,0,1,.145-.838,22.834,22.834,0,0,0,2.891-11.217l5,.549a21.792,21.792,0,0,1-1.243,4.568,13.844,13.844,0,0,0,4.337,3.354Zm12.663-3.036H207.11V-25.047h20.006q1.012.029,1.012,1.128Zm-16.71-8.558v6.967h12.027v-6.967Zm6.418.694a10.33,10.33,0,0,0,3.758,2.862,9.793,9.793,0,0,0-3.758,2.92q-.52-1.272-3.758-2.92A8.553,8.553,0,0,0,217.835-22.85Zm29-2.515h4.915q-.4,1.388-.925,2.689h11.015q.781,0,.781,1.128a12.353,12.353,0,0,1-2.342,3.209,10.148,10.148,0,0,1-3.209,2.255q-.52,0-.52-.2a.575.575,0,0,1,.087-.347,17.78,17.78,0,0,0,.752-1.966,18.525,18.525,0,0,0,.52-2.515h-2.429V-.878q0,2.024-2.284,2.024a12,12,0,0,1-2.4-.26,12.2,12.2,0,0,1-5.2-2.544A11.274,11.274,0,0,1,243.976.365a2.278,2.278,0,0,1-.838.2q-.145-.029-.145-.491A53.369,53.369,0,0,0,244.873-6.2a62.121,62.121,0,0,0,1.214-9.107h4.423a40.942,40.942,0,0,1-3.151,10.437q-.434.925-.867,1.677A9.851,9.851,0,0,0,248.515-1.8a10.5,10.5,0,0,0,2.631.838V-21.115h-1.07a18.938,18.938,0,0,1-1.879,2.978,14.83,14.83,0,0,1-3.874,3.614,2.3,2.3,0,0,1-.954.26q-.2,0-.2-.607A44.266,44.266,0,0,0,246.839-25.365Zm13.588,10q.347,3.787.9,7.459.463,3.267,1.272,7.777,0,.491-.231.52a1.324,1.324,0,0,1-.694-.173,19.775,19.775,0,0,1-3.267-6.5,54.7,54.7,0,0,1-2.255-9.078ZM242.5-15.825V1.117h-4.655V-16.4q-1.388.578-2.226.983a1.525,1.525,0,0,1-.665-.116,1.422,1.422,0,0,1,.491-.809,13,13,0,0,1,1.214-1.474,18.265,18.265,0,0,0,1.561-2.053,16.15,16.15,0,0,0,1.706-3.469h-3.44v-1.648h8.731q.578,0,.578.463a8.987,8.987,0,0,0-1.3,1.706,24.808,24.808,0,0,1-1.792,3.036,9.245,9.245,0,0,1-1.214,1.446,8,8,0,0,1-1.735,1.1h1.792A2.1,2.1,0,0,1,242.5-15.825ZM284.2-11.286l5.088-3.065,1.012,1.214-3.209,1.966a24.63,24.63,0,0,0,6.447,9.338q.145.058.145.347a.387.387,0,0,1-.434.347q-5.493-.809-8.962-6.476V-1.4q0,2.544-2.718,2.544a12.666,12.666,0,0,1-2.024-.173,11.1,11.1,0,0,1-5.291-2.226l1.012-1.417a6.275,6.275,0,0,0,2.255,1.388,9.149,9.149,0,0,0,2.082.52V-6.833L268.614.654,267.487-.762,279.6-8.915q0-1.272-.029-2.313L268.585-4.26l-1.07-1.3,11.94-7.575a15.5,15.5,0,0,0-.376-2.053l-10.35,6.1L267.6-10.505l10.523-6.1h-5.7v-1.619h15.091v1.619h-6.158Q283.85-15.218,284.2-11.286Zm-12.4-9.425v5.927H267.4v-7.575h9.541a4.7,4.7,0,0,0,.636-1.041,2.929,2.929,0,0,1,.925-1.3q.983-.809,3.9-.867a12.281,12.281,0,0,0,.231,2.689,1.279,1.279,0,0,0,.2.52h8.471a1.118,1.118,0,0,1,1.214,1.156v6.129h-4.452v-5.638Zm31.605,6.1a6.876,6.876,0,0,0,1.764,2.024v-8.326h-3.325v8.24A7.486,7.486,0,0,0,303.4-14.61Zm-1.561,3.556v9.887h3.325v-10.09A8.362,8.362,0,0,0,303.4-9.175,4.48,4.48,0,0,0,301.838-11.054ZM309.21.481h-11.3V-22.5h3.065a5.813,5.813,0,0,0,.347-.867,4.385,4.385,0,0,1,.636-1.5q.607-.636,3.469-.665a13.986,13.986,0,0,0,.2,2.689,1.121,1.121,0,0,0,.087.347h1.995q1.5.029,1.5,1.619Zm3.267-26.048h4.915a17.179,17.179,0,0,1-1.185,3.122h6.245q1.474,0,1.59,1.677V-.675q0,1.85-2.371,1.85a16.156,16.156,0,0,1-2.8-.26q-7.141-1.474-9.483-6.736l3.845-1.359.491.925q-1.272.434-1.446,1.1.231,1.937,3.643,3.614a10.32,10.32,0,0,0,3.556.867v-20.18h-4.105A22.28,22.28,0,0,1,314.1-19a12.661,12.661,0,0,1-3.527,3.3,2.55,2.55,0,0,1-1.07.289q-.2,0-.2-.665A40.988,40.988,0,0,0,312.477-25.568Zm2.082,9.627a11.247,11.247,0,0,0,3.614,3.758,10.449,10.449,0,0,0-3.614,3.758q-.492-1.648-3.614-3.758A8.861,8.861,0,0,0,314.559-15.94Zm28.6-2.949V-25.6h4.423v7.922l5.262-3.99,1.128,1.3-4.655,3.5A60.7,60.7,0,0,0,355.04-3.74q.463.723.954,1.446a.446.446,0,0,1-.434.491,5.11,5.11,0,0,1-1.995-.954,22.921,22.921,0,0,1-5.985-7.083V-.733q0,1.821-2.428,1.821a11.169,11.169,0,0,1-1.879-.173A9.145,9.145,0,0,1,338.416-1.6l.954-1.33A6.069,6.069,0,0,0,341.336-1.4a7.711,7.711,0,0,0,1.821.549V-13.772Q340.006-2.9,334.426-.444q-.549,0-.549-.2a.583.583,0,0,1,.116-.376q3.5-5.088,5.117-16.306H335.7v-1.561Zm-10.813-5.753a10.848,10.848,0,0,0,3.7,3.3,9.917,9.917,0,0,0-3.7,3.354q-.52-1.474-3.7-3.354A8.459,8.459,0,0,0,332.345-24.642ZM335.7-16.49q-1.156,2.168-1.156,7.141A12.966,12.966,0,0,1,333.154-2.9,8.811,8.811,0,0,1,327.892.886a10.975,10.975,0,0,0,2.053-5.84,21.453,21.453,0,0,1,1.156-7.112A8.255,8.255,0,0,1,335.7-16.49Zm30.217-5.638a12,12,0,0,1-1.474,1.648,12.934,12.934,0,0,1-3.614,2.457,2.731,2.731,0,0,1-1.041.26q-.2,0-.2-.636a25.436,25.436,0,0,0,3.238-6.967h4.944q-.376.867-.809,1.648h6.592v1.59h-4.712a9.6,9.6,0,0,0,2.747,1.966,7.988,7.988,0,0,0-2.833,2.139h.954v2.313h2.66v1.59H369.7V-9.58A7.163,7.163,0,0,0,371-11.6a7.952,7.952,0,0,0,2.11,2.515v-7.806H384.39q1.561.029,1.561,1.706V.539H373.114V-8.713A12.507,12.507,0,0,0,371-4.636a8.629,8.629,0,0,0-1.3-3.151v8.9h-4.337V-13.309l-2.631,2.891q2.342.809,2.428,3.874Q364.875-1.8,360.076.8a14.437,14.437,0,0,0,1.561-6.649q-.173-2.226-1.85-2.284V-9.551l4.192-4.568h-3.845v-1.59h5.233v-2.313h2.92a7.785,7.785,0,0,0-2.747-2.139,6.4,6.4,0,0,0,2.544-1.966Zm12.085,0a12.722,12.722,0,0,1-1.128,1.3,11.221,11.221,0,0,1-3.238,2.255,2.951,2.951,0,0,1-1.185.318q-.231,0-.231-.752a25.43,25.43,0,0,0,2.631-6.36h5.03a14.4,14.4,0,0,1-.781,1.648h7.4v1.59h-4.481a9.6,9.6,0,0,0,2.747,1.966,8.317,8.317,0,0,0-3.122,2.486q-.4-1.1-2.92-2.486a6.354,6.354,0,0,0,2.573-1.966ZM377.393-10.3v3.44H381.7V-10.3Zm0,5.03V-1.08H381.7V-5.272Zm0-10.032v3.411H381.7V-15.3Z" transform="translate(57.962 35.861)" fill="#fff"/>
    </g>
    <g id="组_17724" data-name="组 17724" transform="translate(416.242 -278)">
      <g id="组_16515" data-name="组 16515" transform="translate(0 0)">
        <g id="蒙版组_1" data-name="蒙版组 1" transform="translate(0 0)" clip-path="url(#clip-path)">
          <g id="PayNow_交易流程" transform="translate(0 0.568)">
            <g transform="matrix(1, 0, 0, 1, -79.58, -0.57)" filter="url(#联合_6)">
              <path id="联合_6-2" data-name="联合 6" d="M11.193,39.444A104.792,104.792,0,0,1,6.036,28.931H5.857c.219,3.975.307,8.173.307,13.03v.174H0V4.987L7.842,21.159,18.859,42.269S14.986,31.607,20.92,21.874c-3.708-1.306-6.174-3.626-6.174-6.269,0-4.082,5.877-7.391,13.128-7.391S41,11.523,41,15.606a5.622,5.622,0,0,1-2.51,4.344,21,21,0,0,1,4.885-.558,19.447,19.447,0,0,1,10.889,3.148L53.4,19.525h6.83l1.767,8.881c.4,2.209.837,4.595,1.19,7.066h.132c.4-2.428,1.058-4.9,1.542-7.023l2.285-8.924h5.287l2.16,8.614c.616,2.474,1.189,4.86,1.586,7.333h.087c.309-2.428.75-4.9,1.278-7.375l1.808-8.572h6.563l-6.6,21.594H73.046l-2.028-7.551a64.725,64.725,0,0,1-1.409-6.759h-.093a57.337,57.337,0,0,1-1.366,6.713l-2.156,7.6h-6.3l-.819-2.807a13.369,13.369,0,0,1-4.2,4.473,19.165,19.165,0,0,1-11.282,3.483,19.4,19.4,0,0,1-11.326-3.44q-5.573-3.905-5.573-10,0-6.136,5.573-10,.235-.164.475-.319a22.377,22.377,0,0,1-4.657.478q-.479,0-.95-.019c-7.417,10.82.063,27.958.063,27.958l-6.955,4.318ZM33.531,24.38q-4.971,3.256-4.971,8.453t4.974,8.446a17.639,17.639,0,0,0,9.856,2.882,17.275,17.275,0,0,0,9.8-2.88,10.2,10.2,0,0,0,4.732-6.24L55.3,26.063a13.558,13.558,0,0,0-2.111-1.683A17.293,17.293,0,0,0,43.387,21.5,17.508,17.508,0,0,0,33.53,24.38ZM87.312,45.593V42.415l-1.1,3.178h-.451l-1.1-3.23v3.23h-.484v-3.8h.755l.9,2.689c.087.249.142.435.181.558.044-.138.111-.341.2-.61l.91-2.637H87.8v3.8Zm-5.386,0V42.247H80.679V41.8h3.006v.448H82.428v3.347ZM42.505,33.353a5.585,5.585,0,0,1-.972-3.2,5.964,5.964,0,0,1,.367-2.041H40.875l.233-1.244,2.971.6L43.8,28.587,42.739,28.4a5.478,5.478,0,0,0-.279,1.724A4.233,4.233,0,0,0,45.382,34.5a4.174,4.174,0,0,0,1.487.279,4.417,4.417,0,0,0,2.734-.908,4.948,4.948,0,0,0,1.72-2.351l-.93-.234.372-1.023,3.108.65-.744,1.349-.93-.421a6.1,6.1,0,0,1-2.085,2.8,5.3,5.3,0,0,1-3.249,1.074,4.9,4.9,0,0,1-4.361-2.369Zm7.7-5.066a1.952,1.952,0,0,1-.61-1.469,2.066,2.066,0,0,1,2.095-2.1,1.936,1.936,0,0,1,1.465.6,2.091,2.091,0,1,1-2.953,2.96Zm-6.037-1.546a2.024,2.024,0,0,1-.61-1.487,1.952,1.952,0,0,1,.61-1.47,2.06,2.06,0,0,1,1.487-.579,1.933,1.933,0,0,1,1.463.6,2.09,2.09,0,0,1-1.463,3.541,2.017,2.017,0,0,1-1.48-.61Zm1.09-9.588a1.783,1.783,0,0,1-.372-1.28V14.106H44.32v-1h.573V12.3l1.314-.362V13.11h.958v.99h-.958v1.573c0,.522.133.759.529.759a1.648,1.648,0,0,0,.4-.036v1.018a2.8,2.8,0,0,1-.862.115,1.417,1.417,0,0,1-1.014-.371Zm-2.168.372a.8.8,0,1,1,.008,0Zm8.339-.093-.407-1.508a12.555,12.555,0,0,1-.279-1.351h-.017a11.528,11.528,0,0,1-.273,1.343l-.435,1.518H48.76L47.5,13.11h1.367l.354,1.775c.078.442.166.92.238,1.414h.026c.08-.486.212-.98.311-1.4l.456-1.786h1.059l.435,1.725c.123.495.238.972.318,1.466h.018c.06-.486.149-.98.255-1.48l.361-1.714h1.312l-1.32,4.322ZM26.181.017,30.085,0,28.154,4.823Z" transform="translate(143.21 0.57)" fill="#ef7e00"/>
            </g>
            <g transform="matrix(1, 0, 0, 1, -79.58, -0.57)" filter="url(#联合_5)">
              <path id="联合_5-2" data-name="联合 5" d="M41.041,34.056a10.574,10.574,0,0,0,2.906-1.15,7.705,7.705,0,0,0,2.776-2.7,1.869,1.869,0,0,0,.354-.971,2.9,2.9,0,0,0-.266-1.1L38.88,8.391h7.442l3.222,10.6c.354,1.279.793,2.873,1.058,4.018h.132c.307-1.15.661-2.786.969-4.018l2.642-10.6h7.182L56.51,22.617c-3.083,8.569-5.156,11.972-7.58,14.133a11.755,11.755,0,0,1-6.476,2.96Zm-20.564-10.2c0-5.611,5.021-8.261,12.645-8.261V15.33c0-1.149-.619-2.786-3.923-2.786a12.59,12.59,0,0,0-5.95,1.59L22.017,9.85A17.681,17.681,0,0,1,30.388,7.9c7.183,0,9.431,4.241,9.431,9.317v7.554a28.043,28.043,0,0,0,.354,5.213h-6.04l-.4-2.165H33.61a7.761,7.761,0,0,1-6.171,2.653,6.611,6.611,0,0,1-6.966-6.624Zm6.609-.663a2.409,2.409,0,0,0,2.644,2.565,3.7,3.7,0,0,0,3.483-2.473,4.783,4.783,0,0,0,.133-1.15V19.79c-3.523,0-6.256.839-6.256,3.4ZM0,29.994V.619A54.813,54.813,0,0,1,9.076,0c4.143,0,7.14.795,9.121,2.43a8.52,8.52,0,0,1,3.128,6.846,9.356,9.356,0,0,1-2.691,7.067c-2.289,2.12-5.728,3.135-9.693,3.135a11.418,11.418,0,0,1-2.29-.174V30ZM6.655,5.344v8.788a10.187,10.187,0,0,0,2.246.174c3.57,0,5.772-1.81,5.772-4.817,0-2.737-1.851-4.37-5.243-4.37a12.087,12.087,0,0,0-2.774.222Z" transform="translate(79.58 13.36)" fill="#373943"/>
            </g>
            <path id="Fill-16" d="M106.627,37.426c0,6.665,7.18,12.068,16.036,12.068h0c8.859,0,16.037-5.4,16.037-12.068h0c0-6.665-7.177-12.068-16.038-12.068h0c-8.856,0-16.036,5.4-16.036,12.068" transform="translate(-15.652 -4.842)" fill="none" fill-rule="evenodd"/>
            <path id="联合_2" data-name="联合 2" d="M6.2,4.517A2.114,2.114,0,0,1,3.973,2.29,2.158,2.158,0,0,1,6.284,0a2.1,2.1,0,0,1,2.2,2.219,2.161,2.161,0,0,1-2.264,2.3ZM5.348,2.262c0,.732.31,1.29.871,1.29h.006c.529,0,.856-.522.856-1.3,0-.636-.246-1.29-.856-1.29-.632,0-.88.656-.88,1.3ZM0,2.3A2.25,2.25,0,0,1,2.466,0,3.135,3.135,0,0,1,3.489.166l-.212,1a1.829,1.829,0,0,0-.753-.133A1.115,1.115,0,0,0,1.373,2.242,1.132,1.132,0,0,0,2.554,3.461a1.907,1.907,0,0,0,.767-.14l.161.989a3.048,3.048,0,0,1-1.2.2A2.1,2.1,0,0,1,0,2.3ZM14.526,4.419V2.077c0-.627-.2-.988-.633-.988a.67.67,0,0,0-.628.465,1.393,1.393,0,0,0-.043.334V4.419H11.916V2c0-.54-.193-.91-.626-.91a.684.684,0,0,0-.626.476.936.936,0,0,0-.055.348V4.423H9.316V1.479C9.316.941,9.3.49,9.28.1h1.132l.054.592h.027A1.487,1.487,0,0,1,11.793,0a1.219,1.219,0,0,1,1.18.744h.017a1.875,1.875,0,0,1,.564-.531A1.64,1.64,0,0,1,14.377,0c.829,0,1.454.584,1.454,1.873V4.419Z" transform="translate(83.468 13.013)" fill="#fff"/>
          </g>
        </g>
      </g>
      <g transform="matrix(1, 0, 0, 1, -79.58, 0)" filter="url(#路径_196)">
        <path id="路径_196-3" data-name="路径 196" d="M19.125,15.688l11.72-11.72a1.717,1.717,0,0,0,0-2.424L29.818.517a1.719,1.719,0,0,0-2.425,0L15.673,12.236,3.953.517a1.718,1.718,0,0,0-2.424,0L.5,1.543a1.715,1.715,0,0,0,0,2.424l11.72,11.72L.5,27.408a1.72,1.72,0,0,0,0,2.425L1.529,30.86a1.718,1.718,0,0,0,2.424,0l11.72-11.72,11.72,11.72a1.7,1.7,0,0,0,1.212.5h0a1.7,1.7,0,0,0,1.212-.5l1.027-1.027a1.719,1.719,0,0,0,0-2.425Z" transform="translate(253.72 13.04)" fill="#008bd5"/>
      </g>
      <g id="g2862" transform="translate(303.608 0)">
        <path id="polygon10" d="M0,0H56.783V54.99H0Z" transform="translate(0.29 0.423)" fill="#fff"/>
        <path id="polygon12" d="M14.391,13.311H71.7V69H14.391Z" transform="translate(-14.391 -13.311)" fill="#008061"/>
        <path id="path14" d="M68.487,77.564v2.23H54.74V77.56h-10.4a2.161,2.161,0,0,1-1.844-2.372l-4.353-44.02a2.324,2.324,0,0,1,2.271-2.374H82.446a2.323,2.323,0,0,1,2.262,2.374l-4.3,44.02a2.161,2.161,0,0,1-1.844,2.372l-10.074,0Z" transform="translate(-33.15 -25.54)" fill="#fff"/>
        <path id="path16" d="M74.567,59.459h28.14C99.937,60.5,91.5,66.208,89.4,70.048h-14.8Z" transform="translate(-61.92 -49.76)" fill="#f5821f"/>
        <path id="path18" d="M133.866,203.817c-.4,3.835-.418,8.5-.418,13.409h-12.2a133.233,133.233,0,0,1,.607-13.409Z" transform="translate(-98.791 -163.777)" fill="#ed1b2d"/>
        <path id="polygon20" d="M74.737,165.237v1.486H72.786v1.487h1.951v1.7H70.278v-7.927h4.459v1.766H72.786v1.485Z" transform="translate(-58.531 -130.738)" fill="#008061"/>
        <path id="polygon22" d="M124.1,165.237v1.486H122.16v1.487H124.1v1.7h-4.451v-7.927H124.1v1.766H122.16v1.485Z" transform="translate(-97.528 -130.738)" fill="#008061"/>
        <path id="polygon24" d="M178.437,165.237v1.486h-1.951v1.487h1.951v1.7h-4.459v-7.927h4.459v1.766h-1.951v1.485Z" transform="translate(-140.436 -130.738)" fill="#008061"/>
        <path id="polygon26" d="M97.98,161.986v6.224h1.951v1.7H95.472v-7.927Z" transform="translate(-78.43 -130.738)" fill="#008061"/>
        <path id="polygon28" d="M146.152,167.344l-.951-5.358h-2.188l1.246,7.927h3.221l1.508-7.927h-1.861Z" transform="translate(-115.979 -130.738)" fill="#008061"/>
        <path id="polygon30" d="M200.225,161.986h2.41v7.927h-2.41Z" transform="translate(-161.166 -130.738)" fill="#008061"/>
        <path id="path32" d="M211.691,163.486c.131-.868,1.361-.635,1.361-.139v5.713h2.418v-6.719c0-1.425-2.008-2-3.762-.743Z" transform="translate(-170.222 -129.884)" fill="#008061"/>
        <path id="path34" d="M143.807,77.8c.246-3.034,4.4-7.988,8.426-9.289V56.8C141.159,61.757,133.962,69.25,132.4,77.766l11.4.03Z" transform="translate(-107.601 -47.662)" fill="#ed1b2d"/>
      </g>
      <g id="组_17723" data-name="组 17723" transform="translate(226.984)">
        <rect id="矩形_3282" data-name="矩形 3282" width="60.08" height="25.251" fill="#00a041"/>
        <rect id="矩形_3283" data-name="矩形 3283" width="60.08" height="5.224" transform="translate(0 50.502)" fill="#0076c6"/>
        <rect id="矩形_3284" data-name="矩形 3284" width="60.08" height="25.251" transform="translate(0 25.251)" fill="#fff"/>
        <path id="联合_2-2" data-name="联合 2" d="M-1336.74,274.288l.823-2.115-2.262-5.444h1.875l1.239,3.243,1.14-3.243h1.8l-2.77,7.559Zm24.624-3.7V268.3H-1313v-1.572h.885v-1.578l1.621-.689v2.267h1.4V268.3h-1.4v2.049c0,.446.2.849.718.849a.909.909,0,0,0,.7-.229v1.66a3.048,3.048,0,0,1-1.077.169c-1.466,0-1.965-.962-1.965-2.208Zm-10.826.263a2.1,2.1,0,0,1,2.389-2.136,2.983,2.983,0,0,1,.963.158v-.04c0-.641-.544-.827-1.087-.827a3.085,3.085,0,0,0-1.658.478v-1.525a5.06,5.06,0,0,1,1.88-.353c2.022,0,2.5,1.17,2.5,2.092v2.8c0,.709.156,1.059.371,1.233h-1.8a1.187,1.187,0,0,1-.132-.4,2.21,2.21,0,0,1-1.376.439,1.9,1.9,0,0,1-2.047-1.916Zm1.639-.183c0,.414.306.721.844.721a1.27,1.27,0,0,0,.868-.324v-1.026a1.5,1.5,0,0,0-.722-.168c-.583,0-.99.32-.99.8Zm-37.144.183a2.107,2.107,0,0,1,2.39-2.136,2.972,2.972,0,0,1,.963.158v-.04c0-.641-.545-.827-1.09-.827a3.07,3.07,0,0,0-1.654.478v-1.525a5.053,5.053,0,0,1,1.878-.353c2.021,0,2.5,1.17,2.5,2.092v2.8c0,.709.155,1.059.37,1.233h-1.8a1.109,1.109,0,0,1-.132-.4,2.216,2.216,0,0,1-1.378.439,1.9,1.9,0,0,1-2.048-1.916Zm1.641-.183c0,.414.306.721.845.721a1.272,1.272,0,0,0,.867-.324v-1.026a1.509,1.509,0,0,0-.722-.168c-.583,0-.991.32-.991.8Zm31.342,2.062V266.8l-2.173,2.877-2.173-2.877v5.928h-1.8v-8.6h1.8l2.173,2.671,2.173-2.671h1.8v8.6Zm-20.428,0v-3.547c0-.572-.243-.95-.776-.95a1.045,1.045,0,0,0-.853.408v4.09h-1.675v-3.547c0-.612-.281-.95-.776-.95a1.1,1.1,0,0,0-.865.451v4.046h-1.643v-6h1.528v.495a2.182,2.182,0,0,1,1.494-.554,1.913,1.913,0,0,1,1.54.689,2.128,2.128,0,0,1,1.716-.689,1.809,1.809,0,0,1,1.985,1.9v4.159Zm-18.108,0v-8.6h5.451v1.659h-3.7v1.519h3.64v1.661h-3.64v3.76Zm46.95,0v-6h1.573v.629a1.677,1.677,0,0,1,1.377-.7,1.478,1.478,0,0,1,.8.219v1.807a1.559,1.559,0,0,0-.924-.3,1.458,1.458,0,0,0-1.18.579v3.771Zm-23.312,0v-8.6h1.64v8.6Zm-2.771,0v-6h1.643v6Zm-.246-7.663a1.067,1.067,0,0,1,1.068-1.067,1.065,1.065,0,0,1,.753.312,1.066,1.066,0,0,1,.312.755,1.065,1.065,0,0,1-1.065,1.065,1.067,1.067,0,0,1-1.068-1.065Z" transform="translate(1366.333 -231.68)" fill="#0076c6"/>
      </g>
    </g>
  </g>
</svg>
