<svg xmlns="http://www.w3.org/2000/svg" width="1114.003" height="51.891" viewBox="0 0 1114.003 51.891">
  <path id="title07" d="M-554.971-32.959h16.031a7.082,7.082,0,0,0,1.266-2.689,9.683,9.683,0,0,1,1.477-3.375q1.266-1.477,7.7-1.529a34.052,34.052,0,0,0,.422,6.064,3.968,3.968,0,0,0,.58,1.529h17.033v2.9h-4.219a179.336,179.336,0,0,1-3.27,32.643h9.6v2.9H-556.87v-2.9h8.438q-2.637-11.338-2.689-32.643h-3.85Zm14.977,35.543h13.236a191.658,191.658,0,0,0,3.691-32.643h-19.617Q-542.631-9.229-539.995,2.584Zm58.282-2.637a48.625,48.625,0,0,1-5.643-11.812h8.965a83.935,83.935,0,0,0,2.32,8.754q1.477,4.43,3.375,8.7a5.285,5.285,0,0,1,.58,1.74q0,.369-1.213.369a5.683,5.683,0,0,1-1.793-.844,22.933,22.933,0,0,1-4.693-4.377,51.615,51.615,0,0,1-8.7,2.479,96.706,96.706,0,0,1-12.393,1.055l-.158-2.953q1.635-.053,3.059-.105V-39.6h21.516q1.74.211,1.74,2.215v22.518h-15.24V2.109q.686-.105,1.213-.211A48.976,48.976,0,0,0-481.713-.053Zm-4.8-33.012a16.91,16.91,0,0,0,3.48,3.691v-7.541h-6.961v7.752A13.347,13.347,0,0,0-486.512-33.064Zm-3.48,6.855v8.438h6.961v-8.49a19.062,19.062,0,0,0-3.48,3.9Q-487.092-24.152-489.992-26.209Zm26.209,30.27V8.016h-7.383v-47.2h16.348q2.689,0,2.848,4.588V-1.107q-.158,2.953-1.582,4.166a8.167,8.167,0,0,1-4.324,1.16Q-461.41,4.219-463.783,4.061Zm0-40.236V1.107q1.635.105,3.059.105.949,0,1-1.951V-36.176Zm30.755,17.086h27.316v2.9h-3.059v8.438h4.588v2.9h-4.588V7.541h-7.488V-4.852h-6.117v2.479q-.738,8.016-9.861,11.021a16.334,16.334,0,0,0,2.32-7.436V-4.852h-4.43v-2.9h4.43v-3.533a6.757,6.757,0,0,1,2.953-4.9h-6.064Zm11.074,2.9a19.347,19.347,0,0,0-.475,3.691v4.746h6.17v-8.437ZM-407.5-35.543a14.192,14.192,0,0,0,4.746,4.219A12.872,12.872,0,0,0-407.5-27q-.527-1.582-3.586-3.586v4.957h8.7v-11.6h-8.7v5.273A10.926,10.926,0,0,0-407.5-35.543Zm-25.523-.158a14.192,14.192,0,0,0,4.746,4.219,12.872,12.872,0,0,0-4.746,4.324q-.475-1.424-3.006-3.164v4.8h8.385V-37.389h-8.385v4.9A13.052,13.052,0,0,0-433.028-35.7Zm-3.006,13.025V8.332h-7.014V-40.025h20.092q2.32.264,2.32,2.9v14.449Zm33.645-.105h-15.662V-40.025h20.039q2.584,0,2.689,3.48V8.121h-7.066Zm60.761-16.506q1.793,0,1.793,2.057a22.211,22.211,0,0,1-6.064,3.955,30,30,0,0,1-5.537,2.109q1,.738,2.057,1.371h7.119q2.689,0,2.9,3.059V-1.371q-.053,1.266-1.213,1.318h-5.959v-8.49h-3.639V-.211h-7.277V-8.543h-4.377A12.581,12.581,0,0,1-368.524.9a34.94,34.94,0,0,0,16.4,3.639q5.8,0,8.648-1.371a5.7,5.7,0,0,0,1.951-1.582A2.534,2.534,0,0,1-340.047.264a1.819,1.819,0,0,1,1.635,1.951q-1.16,2.689-5.273,4.113a32.748,32.748,0,0,1-9.334,1.107q-14.924,0-23.625-6.434A25.406,25.406,0,0,1-385.5,7.014a3.921,3.921,0,0,1-1.107.264q-.475-.105-.475-1.16a37.208,37.208,0,0,0,9.861-20.2h-3.955q-1.107.633-2.162,1.107a3.323,3.323,0,0,1-1.582.316q-.475-.105-.475-1.107A35.736,35.736,0,0,0-379.914-26h-6.855v-2.584h14.449q1.846,0,1.846,2.268a25.453,25.453,0,0,1-5.273,8.068q-.633.633-1.318,1.266h5.8A2.225,2.225,0,0,1-369-15.82V-25q.422-4.324,6.223-6.539l1.793.633a10.207,10.207,0,0,0-.264,1.107h5.273a75.987,75.987,0,0,1-7.119-4.377l2.953-2.268h-8.121v-2.848ZM-373.8-2.637A24.818,24.818,0,0,0-369.737.211,45.818,45.818,0,0,0-369-6.961V-13.5A36.868,36.868,0,0,1-373.8-2.637Zm15.346-33.8q2.426,2,5.063,3.955.58-.527,1.16-1.107a8.788,8.788,0,0,0,1.9-2.848Zm-3.164,9.6v6.486h4.166v-6.486Zm0,9.387.053,6.012h4.113v-6.012Zm11.443-9.387v6.486h3.639v-6.486Zm0,9.387v6.012h3.639v-6.012ZM-379.545-39.5a15.221,15.221,0,0,0,5.01,5.221,13.814,13.814,0,0,0-5.01,5.221q-.686-2.268-5.01-5.221A12.414,12.414,0,0,0-379.545-39.5Zm72.257,6.7a3.392,3.392,0,0,1-.211,1L-320,3.217-327.222.9l11.707-31.324h-15.4v-3.006h22.676Q-307.289-33.434-307.289-32.8Zm29.858,19.459h-22.992v-4.324h22.992ZM-252,2.584h-12.656V-.369h3.164V-29.32l-3.164.791-.316-2.689,10.072-2.795V-.369h2.9Zm29.7,0h-12.656V-.369h3.164V-29.32l-3.164.791-.316-2.689,10.072-2.795V-.369h2.9ZM-195.4-40.764l1.318,2.742a48.91,48.91,0,0,1-4.957,2q-.791.264-1.687.527v8.068h5.748v2.9h-5.748v7.646h5.643v2.9h-5.643v8.068h29.637V-14.4h-5.221v-2.9h5.221v-7.436h-5.221v-2.9h5.221v-8.49h-5.062v-2.848h9.439q2.689,0,2.848,2.953V-5.906h3.164v2.9h-49.781v-2.9h2.584V-38.127h6.064q.9-.264,1.582-.527A44.266,44.266,0,0,0-195.4-40.764ZM-201.039-1.74H-190.6a22.054,22.054,0,0,1-7.436,6.486,33.848,33.848,0,0,1-8.016,3.217,4.191,4.191,0,0,1-1.74.475q-.369,0-.369-1.107A30.345,30.345,0,0,0-201.039-1.74Zm31.271,0a28.133,28.133,0,0,0,2.742,4.377,60.152,60.152,0,0,0,4.008,4.535q0,1.055-.527,1.107a2.986,2.986,0,0,1-1.529-.369A27.362,27.362,0,0,1-173.723,3.9a22.858,22.858,0,0,1-5.959-5.643Zm-16.031-30.9-.316,3.48h4.482q3.533,0,3.85,4.113v10.125q-.158,7.752-4.957,7.91a28.1,28.1,0,0,1-6.539-1.107q-.211.9-.369,1.529l-5.537-.633a135.307,135.307,0,0,0,2.426-14.555l5.7.316q-.738,5.643-1.477,9.65a7.324,7.324,0,0,0,2.057.58q2.689,0,2.742-5.168v-8.754h-9.229l1.371-14.924h6.486l-.369,3.955h7.8v3.48Zm41.2,10.02h31.219v2.9h-11.5v9.809h13.711v2.9H-124.88V3.8h19.406V6.75h-46.934V3.8h19.723V-7.014H-146.5v-2.9h13.816v-9.809H-144.6Zm-5.7-16.77h36.967q3.164,11.865,8.807,19.143a1.3,1.3,0,0,1,.316.738q-.053.422-.844.422-11.6-2.426-16.875-17.455h-11.865a35.211,35.211,0,0,1-18.457,17.771q-1.213,0-1.371-.211a1.8,1.8,0,0,1,.316-1.107,46.119,46.119,0,0,0,10.072-16.453H-150.3ZM-64.436-14.5l9.281-5.59,1.846,2.215-5.854,3.586q4.8,11.18,11.76,17.033.264.105.264.633a.706.706,0,0,1-.791.633Q-57.95,2.531-64.278-7.8V3.533q0,4.641-4.957,4.641a23.1,23.1,0,0,1-3.691-.316Q-79.2,6.7-82.577,3.8l1.846-2.584a11.445,11.445,0,0,0,4.113,2.531,16.688,16.688,0,0,0,3.8.949V-6.381L-92.86,7.277l-2.057-2.584,22.1-14.871q0-2.32-.053-4.219L-92.913-1.687l-1.951-2.373,21.779-13.816a28.277,28.277,0,0,0-.686-3.744L-92.649-10.494l-2.057-2.584,19.2-11.127H-85.9v-2.953h27.527v2.953H-69.6Q-65.069-21.674-64.436-14.5ZM-87.059-31.693v10.811h-8.016V-34.7h17.4a8.569,8.569,0,0,0,1.16-1.9,5.342,5.342,0,0,1,1.688-2.373q1.793-1.477,7.119-1.582a22.4,22.4,0,0,0,.422,4.9,2.334,2.334,0,0,0,.369.949h15.451a2.04,2.04,0,0,1,2.215,2.109v11.18H-57.37V-31.693Zm53.747-7.7a19.786,19.786,0,0,0,6.75,6.012,18.088,18.088,0,0,0-6.75,6.117q-.949-2.689-6.75-6.117A15.43,15.43,0,0,0-33.312-39.393Zm7.119,15.4q-2.215,4.166-2.215,13.605-.105,7.33-2.637,11.443A16.887,16.887,0,0,1-41.012,7.7,20.688,20.688,0,0,0-37.056-3.533q.316-8.437,2.162-12.656Q-31.572-22.254-26.193-23.994Zm3.006,8.7H-8.844q-1.107-2.479-5.854-5.432a13.925,13.925,0,0,0,5.906-5.7,17.7,17.7,0,0,0,5.906,5.7,15.776,15.776,0,0,0-5.8,5.432H4.973q1.846,0,1.846,2.531A26.932,26.932,0,0,1,.174-4.588,31.223,31.223,0,0,1-6.1-.686a14.115,14.115,0,0,1,2.689,1.74A36.01,36.01,0,0,0,5.447,6.434a13.374,13.374,0,0,1-5.273.791,18.161,18.161,0,0,1-3.059-.369A17.8,17.8,0,0,1-8.369,4.9a35,35,0,0,1-4.588-2.953A28.294,28.294,0,0,0-21.5-1.529q-1.371-.264-1.371-.58,0-.369,1.371-.738a26.183,26.183,0,0,1,4.693-.422A23.947,23.947,0,0,1-9.529-2.215,28.621,28.621,0,0,0-2.621-12.393H-23.187Zm14.4-20.777q-5.168,13.5-16.664,18.141a1.945,1.945,0,0,1-1.055-.158,2.048,2.048,0,0,1,.158-.9A57.573,57.573,0,0,0-16.543-39.5H-.617a52.61,52.61,0,0,0,9.7,20.3q0,.9-.264.949a1.708,1.708,0,0,1-1.055-.316Q-2.3-23.467-8.791-36.07Zm37.927-1.318H43v-3.217h7.91v3.217H64.89v2.9H50.915v4.008h10.23q2.479.053,2.479,2.742v17.561H50.915v18.3H43v-18.3H30.56v-20.3H43v-4.008H29.136Zm9.439,9.756v5.326H43v-5.326Zm0,8.227v6.275H43v-6.275Zm12.34,6.275h4.324v-6.275H50.915Zm4.324-9.176v-5.326H50.915v5.326Zm-32.8-17.086a19.786,19.786,0,0,0,6.75,6.012,18.088,18.088,0,0,0-6.75,6.117q-.949-2.689-6.75-6.117A15.821,15.821,0,0,0,22.438-39.393Zm7.119,15.4q-2.109,4.008-2.109,13.236Q27.4-3.322,24.97.9a16.2,16.2,0,0,1-9.545,6.8A19.315,19.315,0,0,0,19.063-2.689q.316-8.807,2.109-13.184Q24.39-22.2,29.558-23.994ZM32.722-7.8H42a27.521,27.521,0,0,1-6.486,9.439,23.392,23.392,0,0,1-6.908,4.693,4.559,4.559,0,0,1-1.582.369q-.316-.053-.316-.949A32.1,32.1,0,0,0,30.349.211,28.046,28.046,0,0,0,32.722-7.8Zm27.844.053a38.16,38.16,0,0,0,2.479,6.275,72.122,72.122,0,0,0,3.533,6.645q0,.844-.422.9a2.415,2.415,0,0,1-1.266-.316,22.549,22.549,0,0,1-7.8-5.643,27.8,27.8,0,0,1-5.379-7.857Zm44.107-28.107H112v-5.01h6.961v5.01h6.117v2.9h-6.117v9.123h6.8v2.9h-5.59v9.756a11.277,11.277,0,0,0,3.27-3.9,14.535,14.535,0,0,0,4.641,4.8A11.022,11.022,0,0,0,125.977-8.7h8.7v-7.277H126.61v-2.953h24.416v2.953h-8.6V-8.7H152.4v2.953H142.43V3.111h-7.752V-5.748h-9.492V-7.8a21.822,21.822,0,0,0-1.74,2.373q-.527-1.74-3.27-3.9V2q6.275,2.742,16.664,2.742,6.961,0,10.441-1.213a10.967,10.967,0,0,0,2.162-1.424A3.34,3.34,0,0,1,151.29.9a1.819,1.819,0,0,1,1.635,1.951q-1.318,2.479-6.117,3.8a47.774,47.774,0,0,1-10.758,1q-16.559,0-26.473-7.7-.738,6.17-6.8,8.965L102.247.844q2.268-2.32,2.268-6.75V-17.561h7.066V-6.012a12.041,12.041,0,0,0,1.635,2.742V-20.936h-9.65v-2.9H112v-9.123h-7.33Zm33.17.158a14.9,14.9,0,0,0,5.063,4.641v-5.8h-8.279v4.746A13.687,13.687,0,0,0,137.842-35.7Zm-3.217,6.486V-25.1H142.9v-5.326a15.149,15.149,0,0,0-5.062,4.746A8.872,8.872,0,0,0,134.626-29.215ZM150.6-22.1H127.243V-39.762h21.146q2.215.053,2.215,2.426Zm55.962,10.758h2.215v2.9h-8.227A51.029,51.029,0,0,0,203.4-1.951a72.474,72.474,0,0,0,4.852,7.91,3.761,3.761,0,0,1,.844,1.582q0,.369-1.318.369a6.832,6.832,0,0,1-2.162-.738q-8.754-4.535-14.291-15.609h-.316Q187.318,3.744,178.564,8.121q-1.371,0-1.371-.686a56.91,56.91,0,0,0,6.486-15.873h-6.328v-2.9h6.961a76.55,76.55,0,0,0,1.424-13.289v-7.225h-6.961V-34.8h6.961v-5.8h7.91v5.8h10.02q2.742,0,2.9,3.006Zm-12.92-20.514V-27A74.51,74.51,0,0,1,191.8-11.338h6.539V-31.852Zm-24.785-8.859h7.277V-25.1a85.818,85.818,0,0,0,6.17,6.381l-2.848,3.27a44.539,44.539,0,0,1-3.322-3.48V8.227h-7.277ZM161-25.365q.422-4.957,6.486-7.488l1.055.369a20.427,20.427,0,0,0-.9,6.012L167.7-11.5q-.633,8.965-8.279,12.287A31.575,31.575,0,0,0,161-8.332Zm54.854-13.922h22.2v2.9h-2.953v44.4h-6.961V-.738a28.47,28.47,0,0,0-10.441,4.8l-1.9-3.006q1.055-.633,2.057-1.16V-36.387h-2Zm8.965,36.281a31.806,31.806,0,0,1,3.322-.9v-9.281h-3.322Zm0-13.078h3.322v-8.7h-3.322Zm0-11.6h3.322v-8.7h-3.322ZM236.74-15.82h5.537V-4.9h1.529a6.4,6.4,0,0,0,.053-.791V-16.189h6.223v8.648q-.475,12.5-9.861,15.662-1.477,0-1.477-.791A18.755,18.755,0,0,0,243.385-1.9h-3.322q-3.322,0-3.322-3.428Zm14.924-.527h5.959V-4.43h1q.316,0,.475-1.424.053-1.16.053-3.8v-6.381H264.9V-6.17a6.048,6.048,0,0,1-.686,3.375,2.933,2.933,0,0,1-2.584,1.213h-4.008V7.752h-5.959ZM236.319-27.053a12.554,12.554,0,0,1,2.795-7.594,20.862,20.862,0,0,1,4.113-3.059,37.947,37.947,0,0,0,4.219-2.795q0,4.852-2.637,6.908-2.637,2.426-2.795,4.061h.949l.844-.527a17.277,17.277,0,0,0,4.588-4.113,4.392,4.392,0,0,1,1,3.059q-.053,2.637-3.428,5.115a8.935,8.935,0,0,0-3.533,5.168h3.059q-.369-1.371-.686-2.953l3.691-1.635q.791,3.639,1.9,7.436H236.16a14.592,14.592,0,0,1,3.27-8.648l.422-.422Zm14.08,0a12.938,12.938,0,0,1,2.689-7.594,20.715,20.715,0,0,1,3.955-3.059A33.663,33.663,0,0,0,261.1-40.5q0,4.852-2.426,6.908-2.479,2.426-2.584,4.061h1a14.434,14.434,0,0,1,1.371-.844,18.1,18.1,0,0,0,4.693-4.219,4.392,4.392,0,0,1,1,3.059q-.053,2.742-3.533,5.326a9.182,9.182,0,0,0-3.691,5.379h3.428q-.422-1.371-.791-2.953l3.691-1.635q.9,3.639,2.162,7.436H250.662a15.332,15.332,0,0,1,3.322-8.859l.211-.211Zm22.634-12.393h9.65v-1.687h6.328v1.688h9.123V-36.7h-9.123v.949h6.7q1.951.053,1.951,2.109v7.7h-8.648v1h9.176V-22.2h-9.176v3.375h3.111v-2.637h5.8v5.115l.949-.105a27.759,27.759,0,0,0,7.7-2.109q-.053,4.482-2.742,5.8a79.055,79.055,0,0,1-9.176,1.266q-5.432.633-7.119,1.529h10.178q3.691-.527,7.8-1.055a28.856,28.856,0,0,0,9.018-2.637q-.791,5.854-4.693,7.383-1.582.58-10.6,1.318-8.279.949-10.758,2.215h22.676a16.525,16.525,0,0,1-2.268-1.687l6.117-3.111a62.929,62.929,0,0,0,6.275,7.8h-5.379a21.264,21.264,0,0,0,4.746,3.48,14.958,14.958,0,0,0-5.8,4.746q-.791-2.057-5.8-4.746A12.442,12.442,0,0,0,313.8.264H301.825V8.385h-8.648V.264h-12.6a18.5,18.5,0,0,0,5.168,3.744,15.088,15.088,0,0,0-5.8,4.482q-.791-1.951-5.8-4.482A12.45,12.45,0,0,0,279.308.264h-4.113q.949-4.693,9.229-7.541a4.876,4.876,0,0,1,.58-.158h-8.7q.738-3.691,7.119-6.064a95.786,95.786,0,0,1,13.025-2.637h-20.83a1.748,1.748,0,0,1-1.951-2v-3.322h5.59v2.637h3.428V-22.2h-9.914v-2.742h9.914v-1h-8.754v-9.809h8.754V-36.7h-9.65Zm7.225,6.012v1.266h2.426v-1.266Zm0,3.691v1.424h2.426v-1.424Zm8.754,1.424h2.162v-1.424h-2.162Zm2.162-3.85v-1.266h-2.162v1.266Zm15.293-5.484v3.217q-.369,3.375-5.432,3.533h-2.426a14.616,14.616,0,0,0,1.16-6.434v-3.217h17.139q1.74.264,1.74,3.006v1.477q.053,2.109,1.266,2.215H321.5V-30.9H315.22q-2.479-.264-2.742-3.059v-3.691Zm12.182,7.7q1.688,0,1.688,2.057a27.582,27.582,0,0,1-6.275,4.8,15.085,15.085,0,0,1,1.688,1.266,29.346,29.346,0,0,0,7.172,4.852,13.068,13.068,0,0,1-5.01.738,15.432,15.432,0,0,1-2.479-.316A13.654,13.654,0,0,1,311-18.352a21.714,21.714,0,0,1-2.742-1.846,45.3,45.3,0,0,1-8.174,2.637q-1.16,0-1.16-.422a1.25,1.25,0,0,1,.211-.791,38.226,38.226,0,0,0,6.223-3.375,21.97,21.97,0,0,0-4.957-1.9q-1.107-.264-1.107-.527,0-.369,1.266-.686a22.8,22.8,0,0,1,4.377-.422A18.69,18.69,0,0,1,309-25.26a14.152,14.152,0,0,0,1.477-1.846H298.767v-2.848Zm34.182,8.49A10.849,10.849,0,0,1,347.4-11.5q-4.482,2.689-11.654,2.689V2.584h-6.75V-33.434h8.6Q352.83-33.434,352.83-21.463Zm-7.119.053q0-8.912-9.967-9.07v18.773a11.42,11.42,0,0,0,7.225-2.689A9.28,9.28,0,0,0,345.711-21.41Zm34.6,23.994h-6.8V1.266a7.6,7.6,0,0,1-4.535,1.951,7.512,7.512,0,0,1-5.8-2.479,8.847,8.847,0,0,1-2.268-6.117,8.769,8.769,0,0,1,3.059-6.8,10.334,10.334,0,0,1,7.119-2.742,7.57,7.57,0,0,1,2.426.527v-3.48a1.935,1.935,0,0,0-2.215-2.162,13.131,13.131,0,0,0-6.908,2.373l-.58-2.848a15.833,15.833,0,0,1,7.594-2.373,8.259,8.259,0,0,1,6.7,2.9,11.062,11.062,0,0,1,2.215,7.172Zm-6.8-4.271V-11.6a5.514,5.514,0,0,0-2.162-.422,3.686,3.686,0,0,0-3.322,2.268,8.246,8.246,0,0,0-1.055,4.166A9.436,9.436,0,0,0,367.659-2Q368.45.264,370.032.264a3.587,3.587,0,0,0,1.9-.686Q372.721-1,373.512-1.687Zm38.454-19.986L397.517,10.758l-3.27-1.371L398.466,0q-3.639-3.111-6.381-13.395a31.581,31.581,0,0,0-3.428-8.912q4.588,0,6.8,1.688,2.162,1.688,3.533,6.17a70.578,70.578,0,0,0,2.848,7.066L408.8-22.939ZM442.51,2.584h-5.326L424.317-23.941V2.584h-6.8V-33.434h5.59L435.707-7.7V-33.434h6.8Zm28.7-12.445A13.879,13.879,0,0,1,468.1-.686a11.032,11.032,0,0,1-8.754,3.9,10.207,10.207,0,0,1-8.174-3.744,13.165,13.165,0,0,1-2.953-8.648,15.576,15.576,0,0,1,2.848-9.439,10.13,10.13,0,0,1,8.543-4.324,10.683,10.683,0,0,1,8.754,3.8Q471.208-15.662,471.208-9.861Zm-7.33,0a38.651,38.651,0,0,0-.369-6.328q-.9-4.271-3.48-4.271t-3.639,4.693a29.4,29.4,0,0,0-.686,6.8,24.7,24.7,0,0,0,.58,5.7q1,3.85,3.164,3.85Q463.878.58,463.878-9.861ZM502.437-21.41,498.166,2.584H493.42l-3.744-14.607L485.4,2.584h-4.641l-4.377-24.205,6.7-1.213,1.688,9.6,2.162-8.068h3.217l3.322,13.342,2.584-14.924Zm34.868-15.24h-2.953v19.512h2.953Zm-2.953,22.412v18.3h22.781l-.422,3.164H529.764q-3.006,0-3.006-3.059V-39.551h27.58q1.318.369,1.582,2.268v23.045Zm10.547-2.9h3.27V-36.65H544.9ZM524.333,1.635h-15.82V-36.6h13.869q1.951.053,1.951,2.109Zm-8.859-35.754V-.949h2.057v-33.17Z" transform="translate(556.87 41.133)" fill="#fff"/>
</svg>
