<svg xmlns="http://www.w3.org/2000/svg" width="24.965" height="25.144" viewBox="0 0 24.965 25.144">
  <path id="ic-item-setting" d="M10.889,28.043V26.969c.089-.268.268-.358.447-.537a3.21,3.21,0,0,0,1.253-.895,2.631,2.631,0,0,0,.805-1.969,1.8,1.8,0,0,0-.358-1.163,3.831,3.831,0,0,0-1.611-1.342,1.956,1.956,0,0,1-.447-.268c-.089-.089-.089-.268-.179-.358V19.364h0a7.874,7.874,0,0,1,.447-1.342,4.917,4.917,0,0,1,.626-.805.553.553,0,0,1,.626-.179.329.329,0,0,1,.268.089,4.034,4.034,0,0,0,.984.268h.805a2.637,2.637,0,0,0,1.163-.447,2.187,2.187,0,0,0,.805-.984c.089-.358.179-.805.268-1.163a4.433,4.433,0,0,0-.179-1.521v-.358a1.141,1.141,0,0,1,.447-.626,4.612,4.612,0,0,1,1.79-.805c.179,0,.268-.089.447-.089h.716c.268.089.358.268.537.537,0,.089.089.179.089.268A3.255,3.255,0,0,0,21.9,13.637a2.322,2.322,0,0,0,1.879.179,2.7,2.7,0,0,0,1.7-1.253c.089-.179.179-.268.268-.447a2.412,2.412,0,0,1,.626-.716h.716c.089,0,.089,0,.179.089a3.248,3.248,0,0,1,1.521.626,4.242,4.242,0,0,1,.895.895.538.538,0,0,1,.089.358c0,.179-.089.268-.089.447a2.272,2.272,0,0,0-.179,1.7,2.462,2.462,0,0,0,.716,1.342,1.868,1.868,0,0,0,1.432.716h.984c.358-.089.716-.179.984-.268a.817.817,0,0,1,.984.179c.179.179.268.358.447.537a4.218,4.218,0,0,1,.537,1.342,3.805,3.805,0,0,1,.179.984.932.932,0,0,1-.626.895,3.048,3.048,0,0,0-1.969,3.4,2.334,2.334,0,0,0,1.611,1.79c.716.358.984.805.895,1.432a7.454,7.454,0,0,1-.358,1.342,3.7,3.7,0,0,1-.626.984,1.244,1.244,0,0,1-1.342.358,6.042,6.042,0,0,0-1.253-.179c-.358,0-.626.089-.984.089a1.857,1.857,0,0,0-.895.537,3.1,3.1,0,0,0-.716,1.432,3.041,3.041,0,0,0,.268,1.79A.948.948,0,0,1,29.5,35.38a4.805,4.805,0,0,1-2.595,1.074h-.358a1.241,1.241,0,0,1-.716-.626,3.627,3.627,0,0,0-.447-.805,2.682,2.682,0,0,0-1.7-1.074,2.755,2.755,0,0,0-1.7.268,3.032,3.032,0,0,0-1.432,1.7.861.861,0,0,1-.895.626,2.477,2.477,0,0,1-.805-.089,5.174,5.174,0,0,1-1.253-.447,3.4,3.4,0,0,1-1.163-.805.773.773,0,0,1-.268-.537,1.135,1.135,0,0,1,.089-.537,4.43,4.43,0,0,0,.358-1.163,2.574,2.574,0,0,0-.268-1.432,2.157,2.157,0,0,0-.895-.895,1.613,1.613,0,0,0-.895-.179,3.331,3.331,0,0,0-1.611.179,1.176,1.176,0,0,1-1.074-.268,1.872,1.872,0,0,1-.358-.537,6.142,6.142,0,0,1-.626-1.79M23.327,17.932a5.8,5.8,0,0,0-5.816,5.816,5.88,5.88,0,0,0,5.816,5.906,5.94,5.94,0,0,0,5.906-5.816,6.018,6.018,0,0,0-5.906-5.906" transform="translate(-10.8 -11.4)" fill="#5b5b5b"/>
</svg>
