<svg xmlns="http://www.w3.org/2000/svg" width="50" height="50" viewBox="0 0 50 50">
  <g id="ic-lookbook" transform="translate(-1662 -395)">
    <rect id="Rectangle_8" data-name="Rectangle 8" width="50" height="50" transform="translate(1662 395)" fill="rgba(255,255,255,0)"/>
    <g id="Group_4" data-name="Group 4" transform="translate(1664.1 401.117)">
      <path id="Path_3" data-name="Path 3" d="M23.3,4.7C15.8-1.2,1.9,4,1.9,4V36.2s13.9-5.2,21.4.7c7.5-5.9,21.4-.7,21.4-.7V4S30.8-1.2,23.3,4.7Z" fill="#fff"/>
      <g id="Group_3" data-name="Group 3">
        <path id="Path_4" data-name="Path 4" d="M1.9,36.2s13.9-5.2,21.4.7V4.7C15.8-1.2,1.9,4,1.9,4Z" fill="none" stroke="#7a756f" stroke-linecap="round" stroke-linejoin="round" stroke-miterlimit="10" stroke-width="3.782"/>
        <path id="Path_5" data-name="Path 5" d="M44.7,36.2s-13.9-5.2-21.4.7V4.7C30.8-1.2,44.7,4,44.7,4Z" fill="none" stroke="#7a756f" stroke-linecap="round" stroke-linejoin="round" stroke-miterlimit="10" stroke-width="3.782"/>
      </g>
    </g>
  </g>
</svg>
