<svg xmlns="http://www.w3.org/2000/svg" width="54" height="54" viewBox="0 0 54 54">
  <g id="ic-link-w" transform="translate(-526 -256.784)">
    <rect id="Rectangle_2" data-name="Rectangle 2" width="54" height="54" transform="translate(526 256.784)" fill="rgba(255,255,255,0)"/>
    <g id="Group_9" data-name="Group 9" transform="translate(538.508 269.508)">
      <path id="Path_9" data-name="Path 9" d="M31.749,26.352l-3.9,3.9a2.66,2.66,0,0,1-3.9,0l-5.782-5.782a2.66,2.66,0,0,1,0-3.9l3.9-3.9a2.66,2.66,0,0,1,3.9,0l5.782,5.782A2.66,2.66,0,0,1,31.749,26.352Z" transform="translate(-17.325 -15.825)" fill="none" stroke="#fff7ef" stroke-miterlimit="10" stroke-width="2.5"/>
      <path id="Path_10" data-name="Path 10" d="M43.049,37.652l-3.9,3.9a2.66,2.66,0,0,1-3.9,0l-5.782-5.782a2.66,2.66,0,0,1,0-3.9l3.9-3.9a2.66,2.66,0,0,1,3.9,0l5.782,5.782A2.66,2.66,0,0,1,43.049,37.652Z" transform="translate(-14.421 -12.921)" fill="none" stroke="#fff7ef" stroke-miterlimit="10" stroke-width="2.5"/>
      <path id="Path_11" data-name="Path 11" d="M35.777,33.02,34.52,34.277a2.128,2.128,0,0,1-2.891,0l-6.913-6.913a2.128,2.128,0,0,1,0-2.891l1.257-1.257a2.128,2.128,0,0,1,2.891,0l6.913,6.913A2.128,2.128,0,0,1,35.777,33.02Z" transform="translate(-15.571 -14.071)" fill="none" stroke="#fff7ef" stroke-miterlimit="10" stroke-width="2.5"/>
    </g>
  </g>
</svg>
