<svg xmlns="http://www.w3.org/2000/svg" width="40" height="40" viewBox="0 0 40 40">
  <g id="ic-lookbook" transform="translate(-1662 -395)">
    <rect id="Rectangle_8" data-name="Rectangle 8" width="40" height="40" transform="translate(1662 395)" fill="rgba(255,255,255,0)"/>
    <g id="Group_4" data-name="Group 4" transform="translate(1665.2 401.4)">
      <path id="Path_3" data-name="Path 3" d="M19.02,4.137c-6-4.72-17.12-.56-17.12-.56v25.76s11.12-4.16,17.12.56c6-4.72,17.12-.56,17.12-.56V3.577S25.02-.583,19.02,4.137Z" transform="translate(-1.9 -1.883)" fill="#fff"/>
      <g id="Group_3" data-name="Group 3" transform="translate(0 0)">
        <path id="Path_4" data-name="Path 4" d="M1.9,29.337s11.12-4.16,17.12.56V4.137c-6-4.72-17.12-.56-17.12-.56Z" transform="translate(-1.9 -1.883)" fill="none" stroke="#7a756f" stroke-linecap="round" stroke-linejoin="round" stroke-miterlimit="10" stroke-width="3.782"/>
        <path id="Path_5" data-name="Path 5" d="M40.42,29.337s-11.12-4.16-17.12.56V4.137c6-4.72,17.12-.56,17.12-.56Z" transform="translate(-6.18 -1.883)" fill="none" stroke="#7a756f" stroke-linecap="round" stroke-linejoin="round" stroke-miterlimit="10" stroke-width="3.782"/>
      </g>
    </g>
  </g>
</svg>
