<svg xmlns="http://www.w3.org/2000/svg" width="50" height="50" viewBox="0 0 50 50">
  <g id="ic-question" transform="translate(-1776 -395)">
    <rect id="Rectangle_10" data-name="Rectangle 10" width="50" height="50" transform="translate(1776 395)" fill="rgba(255,255,255,0)"/>
    <g id="Group_17" data-name="Group 17" transform="translate(1276.1 398)">
      <path id="Exclusion_2" data-name="Exclusion 2" d="M-1253.7-353.2a22.337,22.337,0,0,1-8.731-1.756,22.259,22.259,0,0,1-7.119-4.794,22.263,22.263,0,0,1-4.794-7.119,22.338,22.338,0,0,1-1.756-8.731,22.339,22.339,0,0,1,1.756-8.731,22.262,22.262,0,0,1,4.794-7.119,22.261,22.261,0,0,1,7.119-4.794A22.338,22.338,0,0,1-1253.7-398a22.338,22.338,0,0,1,8.731,1.756,22.26,22.26,0,0,1,7.119,4.794,22.262,22.262,0,0,1,4.794,7.119,22.339,22.339,0,0,1,1.756,8.731,22.338,22.338,0,0,1-1.756,8.731,22.263,22.263,0,0,1-4.794,7.119,22.261,22.261,0,0,1-7.119,4.794A22.336,22.336,0,0,1-1253.7-353.2Zm-2.4-14.2h0v4.9h5v-4.9Zm2.4-16.9a2.627,2.627,0,0,1,2.1.8,3.313,3.313,0,0,1,.8,2.2,4.2,4.2,0,0,1-1.1,2.4l-2.7,3.5a6.4,6.4,0,0,0-1.4,3.8v1.1h4.8v-.8a3.45,3.45,0,0,1,.7-1.9l2.7-3.6a7.687,7.687,0,0,0,1.8-4.6,6.386,6.386,0,0,0-2.3-5.2,7.553,7.553,0,0,0-5.4-1.9,7.556,7.556,0,0,0-5.4,1.9,7.106,7.106,0,0,0-2.3,5.4h4.8a3.309,3.309,0,0,1,.8-2.2A2.591,2.591,0,0,1-1253.7-384.3Z" transform="translate(1778.4 398)" fill="#7a756f"/>
    </g>
  </g>
</svg>
