<svg xmlns="http://www.w3.org/2000/svg" width="40" height="40" viewBox="0 0 40 40">
  <g id="ic-question" transform="translate(-1776 -395)">
    <rect id="Rectangle_10" data-name="Rectangle 10" width="40" height="40" transform="translate(1776 395)" fill="rgba(255,255,255,0)"/>
    <g id="Group_17" data-name="Group 17" transform="translate(1777.92 397.4)">
      <path id="Exclusion_2" data-name="Exclusion 2" d="M-1258.18-362.16a17.868,17.868,0,0,1-6.985-1.4,17.806,17.806,0,0,1-5.7-3.835,17.812,17.812,0,0,1-3.835-5.7,17.871,17.871,0,0,1-1.4-6.985,17.873,17.873,0,0,1,1.4-6.985,17.813,17.813,0,0,1,3.835-5.7,17.808,17.808,0,0,1,5.7-3.835,17.87,17.87,0,0,1,6.985-1.4,17.87,17.87,0,0,1,6.985,1.4,17.81,17.81,0,0,1,5.7,3.835,17.811,17.811,0,0,1,3.835,5.7,17.873,17.873,0,0,1,1.4,6.985,17.867,17.867,0,0,1-1.4,6.985,17.811,17.811,0,0,1-3.835,5.7,17.812,17.812,0,0,1-5.7,3.835,17.871,17.871,0,0,1-6.985,1.4Zm-1.92-11.36h0v3.92h4v-3.92Zm1.92-13.52a2.1,2.1,0,0,1,1.68.64,2.651,2.651,0,0,1,.64,1.76,3.36,3.36,0,0,1-.88,1.92l-2.16,2.8a5.12,5.12,0,0,0-1.12,3.04v.88h3.84v-.64a2.761,2.761,0,0,1,.56-1.52l2.16-2.88a6.15,6.15,0,0,0,1.44-3.68,5.109,5.109,0,0,0-1.84-4.16,6.042,6.042,0,0,0-4.32-1.52,6.044,6.044,0,0,0-4.32,1.52,5.685,5.685,0,0,0-1.84,4.32h3.84a2.647,2.647,0,0,1,.64-1.76,2.073,2.073,0,0,1,1.68-.72Z" transform="translate(1276.1 398)" fill="#7a756f"/>
    </g>
  </g>
</svg>
