<svg xmlns="http://www.w3.org/2000/svg" width="84" height="84" viewBox="0 0 84 84">
  <g id="empty" transform="translate(-1191 -74)">
    <rect id="Rectangle_65" data-name="Rectangle 65" width="84" height="84" transform="translate(1191 74)" fill="#e3e3e3"/>
    <path id="Path_57" data-name="Path 57" d="M8.181-7.08v-2.2A9.762,9.762,0,0,1,9.4-14.25a15.981,15.981,0,0,1,4.462-4.492,18.671,18.671,0,0,0,4.12-3.629,5.256,5.256,0,0,0,1-3.124,3.383,3.383,0,0,0-1.428-2.945,6.81,6.81,0,0,0-3.986-1.011A22.89,22.89,0,0,0,3.391-26.536L.149-33.051A28.343,28.343,0,0,1,14.22-36.77q6.128,0,9.743,2.945a9.617,9.617,0,0,1,3.615,7.854,10.446,10.446,0,0,1-1.487,5.652,21.2,21.2,0,0,1-5.652,5.355,17.451,17.451,0,0,0-3.615,3.213,4.989,4.989,0,0,0-.759,2.886V-7.08ZM7.229,3.094A4.987,4.987,0,0,1,8.568-.684a5.429,5.429,0,0,1,3.9-1.279A5.274,5.274,0,0,1,16.288-.654a4.974,4.974,0,0,1,1.354,3.748,4.974,4.974,0,0,1-1.368,3.7,5.18,5.18,0,0,1-3.808,1.354A5.335,5.335,0,0,1,8.6,6.827,4.953,4.953,0,0,1,7.229,3.094Z" transform="translate(1218 130.518)" fill="#a0a0a0"/>
  </g>
</svg>
