<svg xmlns="http://www.w3.org/2000/svg" xmlns:xlink="http://www.w3.org/1999/xlink" width="30" height="30" viewBox="0 0 30 30">
  <defs>
    <clipPath id="clip-path">
      <rect id="Rectangle_62" data-name="Rectangle 62" width="30" height="30" transform="translate(1570 -105)" fill="#d5d5d5"/>
    </clipPath>
  </defs>
  <g id="img-arrowD" transform="translate(-1570 105)" clip-path="url(#clip-path)">
    <g id="img-arrowL" transform="translate(1571.306 -80.625) rotate(-90)" fill="#f93" stroke-miterlimit="10">
      <path d="M 13.4049072265625 26.02714157104492 C 12.98001670837402 26.02714157104492 12.58232688903809 25.86331176757812 12.28510665893555 25.56583213806152 L 1.268516898155212 14.54917144775391 L 1.255876898765564 14.53653144836426 L 1.242666840553284 14.52448177337646 C 1.23138439655304 14.51419258117676 1.220624208450317 14.50492000579834 1.210505485534668 14.49656105041504 C 0.9302144646644592 14.20188045501709 0.776685893535614 13.81511974334717 0.7772668600082397 13.40289211273193 C 0.776683509349823 12.98735427856445 0.9315066933631897 12.59931659698486 1.214022397994995 12.30419635772705 C 1.224303960800171 12.29560375213623 1.235260009765625 12.28604316711426 1.246796846389771 12.27537155151367 L 1.257856845855713 12.26513195037842 L 1.268516898155212 12.25447177886963 L 12.28486728668213 1.238121628761292 C 12.58213710784912 0.9408416748046875 12.97989654541016 0.7771316766738892 13.4049072265625 0.7771316766738892 C 13.82991695404053 0.7771316766738892 14.22768688201904 0.9408416748046875 14.52492713928223 1.238101720809937 C 14.82262706756592 1.535561680793762 14.98644638061523 1.933291673660278 14.98644638061523 2.358271598815918 C 14.98644638061523 2.78335165977478 14.8225564956665 3.181331634521484 14.52496719360352 3.478901624679565 L 5.151526927947998 12.85227203369141 L 4.60202693939209 13.40176200866699 L 5.151506900787354 13.95129203796387 L 14.52492713928223 23.32550239562988 C 14.82262706756592 23.62295150756836 14.98644638061523 24.02063179016113 14.98644638061523 24.4455623626709 C 14.98644638061523 24.87048149108887 14.82262706756592 25.26816177368164 14.52518653869629 25.56535148620605 C 14.2274866104126 25.86331176757812 13.82979679107666 26.02714157104492 13.4049072265625 26.02714157104492 Z" stroke="none"/>
      <path d="M 13.4049072265625 1.554262161254883 C 13.27898693084717 1.554262161254883 13.03744697570801 1.584571838378906 12.83438682556152 1.787641525268555 L 1.818037033081055 12.80399131774902 L 1.796716690063477 12.8253116607666 L 1.77458667755127 12.84579181671143 C 1.768069267272949 12.85182189941406 1.761658668518066 12.85765647888184 1.755356788635254 12.86330604553223 C 1.581063270568848 13.05911540985107 1.554226875305176 13.2811222076416 1.554396629333496 13.40397167205811 C 1.554227828979492 13.52226161956787 1.580709457397461 13.74247741699219 1.752077102661133 13.93742561340332 C 1.756770133972168 13.94160652160645 1.761523246765137 13.94589042663574 1.766326904296875 13.95027160644531 L 1.792757034301758 13.97436141967773 L 1.818046569824219 13.99965190887451 L 12.83485698699951 25.01654243469238 C 13.03780651092529 25.21966171264648 13.27912712097168 25.24999237060547 13.4049072265625 25.24999237060547 C 13.53068733215332 25.24999237060547 13.77200698852539 25.21966171264648 13.97589683532715 25.01560211181641 C 14.17897701263428 24.81269073486328 14.20930671691895 24.57135200500488 14.20930671691895 24.4455509185791 C 14.20930671691895 24.31976127624512 14.17897701263428 24.07842254638672 13.97537708282471 23.87500190734863 L 4.601957321166992 14.50079154968262 L 3.503006935119629 13.40174198150635 L 4.602006912231445 12.30274200439453 L 13.97545719146729 2.929361343383789 C 14.17892646789551 2.725912094116211 14.20930671691895 2.484231948852539 14.20930671691895 2.358272552490234 C 14.20930671691895 2.232431411743164 14.17897701263428 1.991031646728516 13.97538661956787 1.78761100769043 C 13.77236652374268 1.584571838378906 13.53082656860352 1.554262161254883 13.4049072265625 1.554262161254883 M 13.4049072265625 -1.9073486328125e-05 C 14.01016235351562 -1.9073486328125e-05 14.61541652679443 0.2295207977294922 15.07446670532227 0.6886024475097656 C 15.99328708648682 1.606691360473633 15.99328708648682 3.109682083129883 15.07446670532227 4.0284423828125 L 5.701046943664551 13.4017915725708 L 15.07446670532227 22.7760009765625 C 15.99328708648682 23.69403076171875 15.99328708648682 25.19708251953125 15.07446670532227 26.1151123046875 C 14.61541652679443 26.57455253601074 14.01016235351562 26.80427169799805 13.4049072265625 26.80427169799805 C 12.79965209960938 26.80427169799805 12.19439697265625 26.57455253601074 11.73534679412842 26.1151123046875 L 0.7189970016479492 15.09869194030762 C 0.7092266082763672 15.08978176116943 0.6979970932006836 15.08380126953125 0.6889667510986328 15.07477188110352 C 0.2291269302368164 14.6149320602417 -0.0007333755493164062 14.00842189788818 0.0001173019409179688 13.4017915725708 C -0.0007333755493164062 12.79602146148682 0.2291269302368164 12.1895112991333 0.6889667510986328 11.72967147827148 C 0.6979970932006836 11.71991157531738 0.7092266082763672 11.71399211883545 0.7189970016479492 11.70495128631592 L 11.73534679412842 0.6886024475097656 C 12.19439697265625 0.2295207977294922 12.79965209960938 -1.9073486328125e-05 13.4049072265625 -1.9073486328125e-05 Z" stroke="none" fill="#f93"/>
    </g>
  </g>
</svg>
