<svg xmlns="http://www.w3.org/2000/svg" width="200" height="200" viewBox="0 0 200 200">
  <g id="img-virgo" transform="translate(-2430 1606)">
    <rect id="Rectangle_14" data-name="Rectangle 14" width="200" height="200" transform="translate(2430 -1606)" fill="rgba(217,217,217,0)"/>
    <g id="Group_7" data-name="Group 7" transform="translate(-8 -8.747)">
      <path id="Path_5" data-name="Path 5" d="M734.307-1505.12c1.009,7.479,2.026,15.016,3.044,22.553q-.793.8-1.586,1.6c-5.554-1.1-11.243-1.761-16.625-3.418-5.505-1.694-10.709-4.363-16.469-6.783-6.668,7.959-15.448,9.972-25.467,7.478-11.14-2.774-16.588-16.316-10.307-25.86,2.564-3.9,6.129-6.341,11.476-5.706v8.345c4.912-.008,4.856-2.7,4.164-5.682-1.539-6.637-3.474-13.2-4.652-19.9-2.261-12.864-2.161-25.415,5.428-37,11.7-17.869,38.641-23.675,55.533-10.692,10.952,8.418,15.554,20.589,14.948,34.651-.113,2.611,1.218,5.668,2.789,7.876,2.35,3.3,3.18,5.748,1.035,9.849-2.387,4.563-3.207,9.982-4.46,15.09-1.464,5.973-2.667,6.972-8.965,6.7-2.489-.107-4.984-.15-7.475-.107A9.131,9.131,0,0,0,734.307-1505.12ZM745-1567.005c-2-2.826-3.266-5.421-5.235-7.271-9.34-8.776-20.671-10.757-32.512-7.328-18.6,5.385-28.458,20.53-26.256,40,1,8.874,3.444,17.584,5.164,26.382,1.426,7.289.425,10.489-3.7,12.045-5.581,2.107-7.661-2.068-9.833-5.831-6.259,4.826-5.336,14.963,1.561,19.584,9.2,6.165,22.692,2.178,27.08-7.922.627-1.442,1.788-2.653,3.48-5.093l3.526,9.8,23.378,7.906,1.382-1.518c-.877-4.991-1.767-9.98-2.628-14.974-1.19-6.908.783-9.253,7.794-9.28,3.415-.013,6.831,0,9.851,0,2.168-7.973,4.094-15.052,6.252-22.985-5.365-4.026-4.985-10.487-4.609-17.325.2-3.681-1.657-7.475-2.506-10.893-14.546-.393-27,9.713-28.727,22.617a6.334,6.334,0,0,0,1.923,5.12c1.491,1.066,3.948.786,6.489,1.164-.267-3.7-.446-6.171-.656-9.066,6.54,3.963,10.013,10.549,7.95,15.724-3.764,9.44-11.16,10.844-20.354,7.316v5.216l5,1.566c1.3,3.985-.785,6.389-3.617,8.008-3.869,2.213-8.039,2.521-11.678-.533-2.2-1.844-4.521-3.988-2.761-8,4.133,1.127,5.5,9.244,11.953,4.62-4.845-6.1-3.7-12.294-.608-19.618,4.27,5.034,8.571,8.429,14.268,4.992,1.972-1.191,3.032-3.891,5.185-6.822-2.4,0-2.974-.178-3.335.027-4.384,2.488-8.018.786-11.4-2.041-3.32-2.779-3.153-6.48-2.125-10.113,2.765-9.775,8.429-17.326,17.889-21.49C736.173-1564.6,740.082-1565.457,745-1567.005Z" transform="translate(1826.757 33.968)" fill="#574c45"/>
      <path id="Path_19" data-name="Path 19" d="M692.505-1538.247c-4.832-3.743-5-12.033-1.462-19.486,4.828-10.171,19.159-19.3,28.407-16.44-1.462.907-2.813,2.164-4.4,2.662-9.416,2.955-17.437,7.635-20.889,17.472-1.062,3.027-.9,6.488-1.248,9.756C692.732-1542.583,692.676-1540.871,692.505-1538.247Z" transform="translate(1826.757 33.968)" fill="#574c45"/>
    </g>
  </g>
</svg>
