<svg xmlns="http://www.w3.org/2000/svg" width="200" height="200" viewBox="0 0 200 200">
  <g id="img-aquarius" transform="translate(-1094 1902)">
    <rect id="Rectangle_3" data-name="Rectangle 3" width="200" height="200" transform="translate(1094 -1902)" fill="rgba(217,217,217,0)"/>
    <g id="组_1" data-name="组 1" transform="translate(1178.653 -2345.385)">
      <path id="路径_1" data-name="路径 1" d="M17.659,562.183l.374.251a7.191,7.191,0,0,1-1.972-9.945l16.611-24.828a7.19,7.19,0,0,1,9.944-1.973l-.374-.25a7.19,7.19,0,0,1,1.972,9.945L27.6,560.211A7.19,7.19,0,0,1,17.659,562.183Z" fill="#78726f"/>
      <circle id="椭圆_1" data-name="椭圆 1" cx="32.856" cy="32.856" r="32.856" transform="translate(-33.653 490.385)" fill="#78726f"/>
      <path id="路径_2" data-name="路径 2" d="M46.16,545.092s17.887,11.931,18.55,31.416" fill="none" stroke="#78726f" stroke-linecap="round" stroke-linejoin="round" stroke-width="2.412"/>
      <path id="路径_3" data-name="路径 3" d="M41.146,552.586s15.592,14.3,12.233,33.179" fill="none" stroke="#78726f" stroke-linecap="round" stroke-linejoin="round" stroke-width="2.412"/>
      <path id="路径_4" data-name="路径 4" d="M35.5,561.029s12.625,16.976,5.775,34.888" fill="none" stroke="#78726f" stroke-linecap="round" stroke-linejoin="round" stroke-width="2.412"/>
    </g>
  </g>
</svg>
