<svg xmlns="http://www.w3.org/2000/svg" width="200" height="200" viewBox="0 0 200 200">
  <g id="img-capricorn" transform="translate(-1909 1902)">
    <rect id="Rectangle_6" data-name="Rectangle 6" width="200" height="200" transform="translate(1909 -1902)" fill="rgba(217,217,217,0)"/>
    <path id="路径_9" data-name="路径 9" d="M648.085,521.84l-1.933-.511L644.3,511.244a3.437,3.437,0,0,0-.02-.535c-.072-.537-7.964-53.671-79.55-54.108h-.02a3.407,3.407,0,0,0-.445,6.785c.328.045,19.5,2.767,36.448,13.491a91.9,91.9,0,0,0-17.118-1.521,131.136,131.136,0,0,0-18.853,1.452,2.942,2.942,0,0,0,.424,5.854h.059l.378,0c3.371,0,24.373.437,41.111,10.457a25.027,25.027,0,0,0-3.73,2.726,9.91,9.91,0,0,0-1.517-.185l-9.332-.314a4.245,4.245,0,0,0-3.076,2.358,3.822,3.822,0,0,0,.227,3.683l6.064,6.882a24.438,24.438,0,0,0,.742,14.919l-5.627,7.441a14.707,14.707,0,0,0,4.344,20.286l9.624,6.23a14.714,14.714,0,0,0,20.287-4.345l6.418-8.483,10.291,2.715a10.451,10.451,0,0,0,12.74-7.417l1.328-5.033A10.454,10.454,0,0,0,648.085,521.84Zm-10.549-.555a3.371,3.371,0,1,1,3.371-3.372A3.372,3.372,0,0,1,637.536,521.285Z" transform="translate(1400.691 -2309.601)" fill="#78726f"/>
  </g>
</svg>
