<svg xmlns="http://www.w3.org/2000/svg" width="200" height="200" viewBox="0 0 200 200">
  <g id="img-taurus" transform="translate(-1909 1606)">
    <rect id="Rectangle_12" data-name="Rectangle 12" width="200" height="200" transform="translate(1909 -1606)" fill="rgba(217,217,217,0)"/>
    <path id="路径_21" data-name="路径 21" d="M472.378,838.8h-.026c-21.143.251-33.543,14.667-39.727,24.983a24.027,24.027,0,0,0-9.312.447,10.333,10.333,0,0,0-1.173-.994l-7.771-5.524a4.336,4.336,0,0,0-3.949.277,3.911,3.911,0,0,0-1.881,3.265l1.318,9.445a9.928,9.928,0,0,0,.306,1.382,25.546,25.546,0,0,0-3.09,4.275c-.057.018-.113.04-.167.058-4.871,1.6-9.783,3.066-14.639,4.7-5.444,1.836-9.833,4.9-10.012,11.141-.192,6.664,3.222,13.619,6.666,19.038.028.042,8.449,13.3,8.449,13.3,5.947,9.363,17.862,12.547,26.478,7.076l20.012-11.513,7.717,2.037a10.474,10.474,0,0,0,4.519.167c1.727,5.185,5.184,8.747,8.73,8.747a5.406,5.406,0,0,0,1.123-.118c2.331-.5,4.1-2.431,4.985-5.444a18.5,18.5,0,0,0,.114-8.852,17,17,0,0,0-4.81-9.094,10.669,10.669,0,0,0-7.871-11.125l-1.974-.521-1.983-10.831c-.045-.247-.107-.449-.157-.682a25.329,25.329,0,0,0-2.545-7.367c7.817-2.856,16.765-8.618,20.729-20.286a1.583,1.583,0,0,0-2.861-1.315A27.731,27.731,0,0,1,447.7,867.394c6.835-19.878,24.257-24.116,25.148-24.319a2.162,2.162,0,0,0-.471-4.273Zm-7.795,75.822.457-1.724a15.6,15.6,0,0,1,1.78,4.7,14.349,14.349,0,0,1-.036,6.731c-.4,1.356-1.063,2.287-1.736,2.432-1.3.284-3.644-1.885-4.927-6.013A10.554,10.554,0,0,0,464.583,914.624ZM451.038,892.47a3.444,3.444,0,1,1-3.444-3.444A3.444,3.444,0,0,1,451.038,892.47Z" transform="translate(1580.753 -2392.802)" fill="#78726f"/>
  </g>
</svg>
