<svg xmlns="http://www.w3.org/2000/svg" width="200" height="200" viewBox="0 0 200 200">
  <g id="img-scorpio" transform="translate(-1909 1606)">
    <rect id="Rectangle_12" data-name="Rectangle 12" width="200" height="200" transform="translate(1909 -1606)" fill="rgba(217,217,217,0)"/>
    <path id="路径_20" data-name="路径 20" d="M277.974,860.86l4.665-1.3c2.437-.68,3.742-3.707,2.9-6.727l-3.572-12.816c-.842-3.024-3.525-4.939-5.964-4.259l-.238,18.62a1.945,1.945,0,0,0-.273.065l-9.83-15.8c-2.436.68-3.743,3.708-2.9,6.727l3.572,12.817c.843,3.023,3.526,4.938,5.963,4.258l.645-.179c-2.729,5.512-9.33,7.9-11.814,8.614a11.866,11.866,0,0,0-18.379.109c-2.075-.555-9.31-2.879-12.2-8.723l.645.179c2.437.68,5.12-1.235,5.963-4.258l3.572-12.817c.843-3.019-.464-6.047-2.9-6.727L228,854.443a1.867,1.867,0,0,0-.272-.065l-.238-18.62c-2.439-.68-5.122,1.235-5.964,4.259l-3.572,12.816c-.842,3.02.463,6.047,2.9,6.727l4.665,1.3c1.98,8.135,10.029,12.529,15.485,14.1a8.5,8.5,0,0,0-.174,1l-.137,2.2a20.171,20.171,0,0,0-15.92,2.347,3.236,3.236,0,1,0,3.314,5.56,13.683,13.683,0,0,1,12.191-1.259l-.2,3.219a20.3,20.3,0,0,0-17.632,7.276,3.237,3.237,0,0,0,4.916,4.213,13.712,13.712,0,0,1,12.313-5.013l-.181,2.912a20.237,20.237,0,0,0-14.244,11.075,3.237,3.237,0,1,0,5.782,2.913,13.686,13.686,0,0,1,9.054-7.492,12.607,12.607,0,0,0,9.534,8.25,96.806,96.806,0,0,1-.015,9.877l-.057,1c-.115,2.2-.234,4.464-1.183,5.907-1.189,1.806-4.3,2.106-6.874,2.166a9.062,9.062,0,0,1-6.765-3.232c-1.327-1.678-2.058-3.61-1.789-4.728a4.106,4.106,0,0,1,1.972.626c.131.08.266.157.57.326a3.237,3.237,0,1,0,3.612-5.372c-.217-.147-.435-.271-.782-.464a9.415,9.415,0,0,0-7.665-1.209,6.049,6.049,0,0,0-3.75,3.731c-1.765,4.842,1.661,9.725,2.752,11.1a15.611,15.611,0,0,0,11.705,5.7c.1,0,.195,0,.292,0,4.156-.1,9.29-.762,12.132-5.084,1.912-2.909,2.093-6.355,2.239-9.123l.052-.949a103.766,103.766,0,0,0,.015-10.729,12.646,12.646,0,0,0,7.891-8.125,13.716,13.716,0,0,1,10.8,7.824,3.237,3.237,0,0,0,5.781-2.913,20.323,20.323,0,0,0-16.112-11.38L264.3,894.8a13.868,13.868,0,0,1,14.143,4.712,3.238,3.238,0,0,0,4.917-4.213,20.408,20.408,0,0,0-19.467-7.033l-.166-2.663a13.765,13.765,0,0,1,13.992.46,3.236,3.236,0,1,0,3.313-5.56A20.236,20.236,0,0,0,263.3,878.72l-.172-2.764a8.541,8.541,0,0,0-.2-1.133C268.367,873.152,276.044,868.782,277.974,860.86Z" transform="translate(1757.306 -2392.621)" fill="#78726f"/>
  </g>
</svg>
