<svg xmlns="http://www.w3.org/2000/svg" width="200" height="200" viewBox="0 0 200 200">
  <g id="img-libra_h" transform="translate(-1094 1606)">
    <rect id="Rectangle_9" data-name="Rectangle 9" width="200" height="200" transform="translate(1094 -1606)" fill="rgba(217,217,217,0)"/>
    <g id="组_27" data-name="组 27" transform="translate(824.178 -2235.31)">
      <rect id="矩形_11" data-name="矩形 11" width="15.795" height="28.754" rx="3.954" transform="translate(362.535 685.31)" fill="#f93" stroke="rgba(0,0,0,0)" stroke-width="1"/>
      <rect id="矩形_12" data-name="矩形 12" width="10.248" height="60.319" rx="2.159" transform="translate(365.309 699.687)" fill="#f93" stroke="rgba(0,0,0,0)" stroke-width="1"/>
      <rect id="矩形_13" data-name="矩形 13" width="46.107" height="9.969" rx="2.496" transform="translate(347.076 763.022)" fill="#f93" stroke="rgba(0,0,0,0)" stroke-width="1"/>
      <rect id="矩形_14" data-name="矩形 14" width="26.916" height="14.455" rx="3.619" transform="translate(356.546 753.551)" fill="#f93" stroke="rgba(0,0,0,0)" stroke-width="1"/>
      <g id="组_24" data-name="组 24">
        <path id="路径_37" data-name="路径 37" d="M326.187,705.56s13.669,5.771,22.174,0S369.926,701,369.926,701" fill="#f93" stroke="#f93" stroke-linecap="round" stroke-linejoin="round" stroke-width="4.582"/>
        <g id="组_23" data-name="组 23">
          <path id="路径_38" data-name="路径 38" d="M355.625,739.377a18.4,18.4,0,0,1-36.8,0Z" fill="#f93" stroke="rgba(0,0,0,0)" stroke-width="1"/>
          <path id="路径_39" data-name="路径 39" d="M337.021,708.125l-12.859,33.614h26.122Z" fill="none" stroke="#f93" stroke-linecap="round" stroke-linejoin="round" stroke-width="2.433"/>
        </g>
      </g>
      <g id="组_26" data-name="组 26">
        <path id="路径_40" data-name="路径 40" d="M413.666,705.56s-13.669,5.771-22.174,0S369.926,701,369.926,701" fill="#f93" stroke="#f93" stroke-linecap="round" stroke-linejoin="round" stroke-width="4.582"/>
        <g id="组_25" data-name="组 25">
          <path id="路径_41" data-name="路径 41" d="M384.228,739.377a18.4,18.4,0,0,0,36.8,0Z" fill="#f93" stroke="rgba(0,0,0,0)" stroke-width="1"/>
          <path id="路径_42" data-name="路径 42" d="M402.832,708.125l12.858,33.614H389.569Z" fill="none" stroke="#f93" stroke-linecap="round" stroke-linejoin="round" stroke-width="2.433"/>
        </g>
      </g>
    </g>
  </g>
</svg>
