<svg xmlns="http://www.w3.org/2000/svg" width="200" height="200" viewBox="0 0 200 200">
  <g id="img-pisces_h" transform="translate(-1372 1606)">
    <rect id="Rectangle_10" data-name="Rectangle 10" width="200" height="200" transform="translate(1372 -1606)" fill="rgba(217,217,217,0)"/>
    <g id="组_4" data-name="组 4" transform="translate(861.362 -2210.593)">
      <path id="路径_17" data-name="路径 17" d="M581.168,694.89c5.124-7.341,11.757-11.151,19.212-13.446a9.294,9.294,0,0,1-.95,3.075c-1.164,2.241-2.526,4.147.32,5.53,2.185,1.061,5.271.075,7.436-.875s4.033-3.715,4.771-5.924a7.38,7.38,0,0,0,.089-4.359c1.681-.264,3.385-.505,5.1-.741,4.579-.629,14.4-.728,16.118-6.246,3.1-9.982-16.765-11.479-22.461-11.921a44.205,44.205,0,0,0-5.174-.089,2.72,2.72,0,0,0-.014-1.955c-.494-1.463-3.476-3.058-4.775-3.637a7.426,7.426,0,0,0-6.585.123c-2.484,1.285-7.423,7.318-4.727,10.032a31.2,31.2,0,0,0-8.771,7.775c-4.925,6.347-6.934,14.148-9.252,21.7-.179.583-.36,1.171-.543,1.756a78.97,78.97,0,0,1-3.752,10.055c-1.018,2.168-4.466,6.407-3.361,9,2.892,6.8,8.193-6.194,10.209-6.435,3.191-.383,10.169,6.845,13.12,4.013,1.453-1.39-1.074-5.072-1.643-6.508C584.1,702.186,582.758,698.424,581.168,694.89Z" fill="#f93" stroke="rgba(0,0,0,0)" stroke-width="1"/>
      <path id="路径_18" data-name="路径 18" d="M658.481,694.938c-2.892-6.8-8.193,6.194-10.209,6.435-3.19.384-10.169-6.844-13.12-4.011-1.452,1.39,1.074,5.072,1.644,6.506,1.442,3.629,2.782,7.389,4.371,10.925-5.124,7.339-11.756,11.149-19.212,13.444a9.287,9.287,0,0,1,.95-3.075c1.164-2.241,2.527-4.146-.32-5.529-2.185-1.062-5.269-.076-7.435.873s-4.034,3.716-4.772,5.925a7.387,7.387,0,0,0-.089,4.361c-1.681.264-3.385.505-5.1.74-4.579.628-14.4.727-16.118,6.245-3.1,9.984,16.766,11.478,22.461,11.921a44.192,44.192,0,0,0,5.174.089,2.72,2.72,0,0,0,.014,1.955c.495,1.462,3.476,3.058,4.776,3.639a7.424,7.424,0,0,0,6.584-.125c2.486-1.285,7.425-7.316,4.727-10.03a31.231,31.231,0,0,0,8.771-7.775c4.925-6.347,6.933-14.148,9.25-21.7q.272-.879.545-1.758a79.375,79.375,0,0,1,3.75-10.055C656.138,701.77,659.586,697.533,658.481,694.938Z" fill="#f93" stroke="rgba(0,0,0,0)" stroke-width="1"/>
    </g>
  </g>
</svg>
