<svg xmlns="http://www.w3.org/2000/svg" width="200" height="200" viewBox="0 0 200 200">
  <g id="img-virgo" transform="translate(-2430 1606)">
    <rect id="Rectangle_14" data-name="Rectangle 14" width="200" height="200" transform="translate(2430 -1606)" fill="rgba(217,217,217,0)"/>
    <path id="路径_22" data-name="路径 22" d="M652.219,877.288a19.581,19.581,0,0,0-2.205-3.583c.113-.729.224-1.455.288-2.181.219-.034,2.418.139,2.434.048.618-3.323-1.026-8.038-1.9-11.237a26.487,26.487,0,0,0-4.691-9.767c-14.448-17.928-49.17-14.152-56.8,8.761a33.23,33.23,0,0,0-1.62,10.491c0,.424.047.837.063,1.257-.018.18-.049.351-.063.533-1.022,12.556-3.289,25.9-9.71,36.909-1.835,3.146-3.657,4.277-6.468,6.279a42.642,42.642,0,0,0,17.428,4.671,58.7,58.7,0,0,0,15.443-1.608l-1.054,4.778a7.3,7.3,0,0,0,5.54,8.675l13,2.868a7.3,7.3,0,0,0,8.674-5.54l3.6-16.337,5.987.541c5.411.489,9.765-3.2,9.562-8.234l-.473-11.653c2.875-.855,6.162-2.1,6.976-4.937C657.339,884.149,653.8,880.482,652.219,877.288Zm-11.527,5.119a3.662,3.662,0,1,1,3.661-3.661A3.661,3.661,0,0,1,640.692,882.407Z" transform="translate(1916.458 -2393.273)" fill="#78726f"/>
  </g>
</svg>
