<svg xmlns="http://www.w3.org/2000/svg" width="200" height="200" viewBox="0 0 200 200">
  <g id="img-scorpio" transform="translate(-1909 1606)">
    <rect id="Rectangle_12" data-name="Rectangle 12" width="200" height="200" transform="translate(1909 -1606)" fill="rgba(217,217,217,0)"/>
    <g id="p9DU5I.tif" transform="translate(2303.113 656.377)">
      <g id="Group_13" data-name="Group 13" transform="translate(-327.843 -2220.377)">
        <path id="Path_28" data-name="Path 28" d="M-318.555-2115.063a6.959,6.959,0,0,0,4.485,8.969,13.944,13.944,0,0,0,18.352-10.01c.357-1.518.721-3.041.962-4.58.626-3.987.928-7.737-3.034-10.631-1.925-1.405-3.28-3.708-4.6-5.791-1.138-1.8-2.148-2.206-4.19-1.286-3.989,1.8-7.3,4.074-9.146,8.271-.395.9-2.035,1.252-3.1,1.857-.292-1.211-1.113-2.594-.784-3.6,1.574-4.84,5.254-7.764,9.675-9.988,1.4-.706,3.905-.751,2.954-3.666-.909-2.782-2.059-4.466-5.5-3.577-3.4.881-6.531,1.673-7.984,5.431-.287.742-1.815,1-2.772,1.488-.416-1-1.365-2.125-1.154-2.962a9.569,9.569,0,0,1,6.089-6.96c1.8-.673,3.745-.973,5.507-1.719,1.049-.445,2.517-1.325,2.657-2.195.312-1.925-.52-3.495-2.934-3.754a13.152,13.152,0,0,0-11.081,3.686c-.8.756-2.436.623-3.689.9.165-1.31-.143-3.022.573-3.863,3.586-4.213,8.375-5.634,13.825-5.373,1,.049,2.679-.518,2.945-1.218.648-1.714-.457-2.647-2.22-3.342-7.323-2.886-9.967-9.151-10.794-16.292a32.378,32.378,0,0,1,2.18-17c.754-1.73.339-3.965.486-5.966.375-5.119,2.384-9.249,7.341-11.346,4.281-1.813,11.32-.37,14.395,2.933,1.841,1.979,3.559,4.093,1.44,7.036-.388.539-.011,1.585-.113,2.382-.136,1.053-.067,2.711-.662,3.026-2.495,1.321-1.3,2.776-.489,4.275a47,47,0,0,0,2.474,4.288c1.939,2.821,4.788,2.968,6.756.2,1.63-2.288,2.909-4.822,4.5-7.509-3.146-.987-3.3-2.95-2.5-5.336.163-.482.174-1.36-.116-1.594-2.247-1.811-1.183-3.591,0-5.3,2.993-4.313,9.088-6.2,14.825-4.675,4.279,1.138,7.56,5.977,8.31,11.667.57,4.319,1.644,8.569,2.3,12.879,1.3,8.577.5,16.727-5.925,23.3-1.356,1.388-3.427,2.051-5.033,3.231a14.729,14.729,0,0,0-2.207,2.539c1.022.627,2.074,1.834,3.063,1.786,4.908-.241,9.3.817,13.023,4.133.479.426,1.225.817,1.339,1.336a28.328,28.328,0,0,1,.361,3.9c-1.206-.256-2.8-.111-3.549-.839a12.973,12.973,0,0,0-11.832-3.7,2.985,2.985,0,0,0-2.707,3.722c.131.82,1.718,1.752,2.8,2.019,4.715,1.169,9.471,2.274,11.46,7.415.433,1.118.191,3.325-.586,3.916-1.757,1.336-2.6-.381-3.367-1.857-1.66-3.191-7.181-6.009-10.54-4.8-1.355.489-2.175,2.832-2.876,4.486-.162.38,1.022,1.684,1.824,2.065,4.4,2.09,8.373,4.612,10.583,9.187a4.8,4.8,0,0,1,.771,2.31,12.586,12.586,0,0,1-1.139,2.992c-.946-.506-2.451-.793-2.747-1.552-1.871-4.805-5.584-7.407-10.2-8.912a3.351,3.351,0,0,0-2.874.749,96.176,96.176,0,0,0-6.458,7.845,6.9,6.9,0,0,0-.822,3.018c-.756,5.044-.769,10.321-2.319,15.1-3.616,11.161-21.272,15.263-28.826,5.988-3.02-3.708-3.769-9.908-1.219-13.328,1.487-2,3.117-2.767,5.22-.623,1.275,1.3,3.055,2.173,4.105,3.607.6.824.2,2.385.249,3.615a16.408,16.408,0,0,1-3.38-.6A10.574,10.574,0,0,1-318.555-2115.063Zm16.09-80.617a7.953,7.953,0,0,0,3.029,7.849c1.853,1.573,2.141,3.3.707,5.3-1.013,1.415-2.08,2.8-2.963,4.3-8.2,13.881-3.624,32.292,7.134,43.611a3.213,3.213,0,0,0,3.151-.019,35.474,35.474,0,0,0,4.672-5.739c7.9-11.688,9.944-29.271.3-41.21-2.03-2.512-1.836-4.719.8-6.862,2.261-1.841,2.641-4.474,2.473-7.688C-292.558-2186.021-292.558-2186.021-302.465-2195.68Zm19.214-8.721a10.018,10.018,0,0,1,2.153,1.749,14.246,14.246,0,0,1-.523,16.665,3.6,3.6,0,0,0-.2,3.053,74.5,74.5,0,0,0,4.478,8.452,3.079,3.079,0,0,0,2.668,1.164,8.288,8.288,0,0,0,3.591-2.365c4.578-5.223,4.934-11.437,4.388-18.045C-267.431-2202.59-275.264-2207.56-283.25-2204.4Zm-19.77-.056c-6.671-2.538-13.6.6-15.19,7.246a39.074,39.074,0,0,0-.7,11.95c.341,4.335,1.98,8.423,5.77,11.115,2.487,1.767,3.78,1.265,5.1-1.408a61.256,61.256,0,0,1,3.879-6.929c.97-1.455.968-2.291-.163-3.766C-308.9-2192.212-308.261-2198.832-303.02-2204.457Zm-13.11-3.385,8.351-2.3c-2.642-2.058-1.392-3.738.677-5.278C-312.007-2216.931-315.983-2213.6-316.13-2207.842Zm46.167-.291a5.319,5.319,0,0,0-2.368-5.946c-1.637-1.118-3.772-1.507-5.687-2.217l-.818,1.007c3.335,1.584,2.69,3.5.881,5.282Z" transform="translate(327.843 2220.377)" fill="#574c45"/>
      </g>
    </g>
  </g>
</svg>
