<svg xmlns="http://www.w3.org/2000/svg" width="200" height="200" viewBox="0 0 200 200">
  <g id="img-aquarius" transform="translate(-1094 1902)">
    <rect id="Rectangle_3" data-name="Rectangle 3" width="200" height="200" transform="translate(1094 -1902)" fill="rgba(217,217,217,0)"/>
    <g id="组_1" data-name="组 1" transform="translate(1123.182 -2316.574)">
      <path id="路径_1" data-name="路径 1" d="M97.1,494.733c.065.042.113.1.176.144s.143.067.212.113Z" fill="#78726f"/>
      <path id="路径_2" data-name="路径 2" d="M72.129,532.888c-.065-.044-.114-.1-.179-.147s-.14-.066-.206-.11Z" fill="#78726f"/>
      <path id="路径_3" data-name="路径 3" d="M97.274,494.877a7.405,7.405,0,0,0-10.045,2.147l-1.235,1.847a33.888,33.888,0,1,0-14.662,21.915L70.1,522.633A7.164,7.164,0,1,0,82,530.6l17.132-25.609A7.4,7.4,0,0,0,97.274,494.877Z" fill="#78726f"/>
      <path id="路径_4" data-name="路径 4" d="M102.519,512.936a2.485,2.485,0,0,0-2.76,4.132c.174.115,17.4,11.879,18.032,30.423a2.483,2.483,0,0,0,2.48,2.4c.029,0,.058,0,.087,0a2.483,2.483,0,0,0,2.4-2.567C122.037,526.191,103.316,513.467,102.519,512.936Z" fill="#78726f"/>
      <path id="路径_5" data-name="路径 5" d="M97.648,520.9a2.484,2.484,0,0,0-3.361,3.659c.151.139,15.03,14.1,11.853,31.958a2.485,2.485,0,0,0,2.011,2.88,2.519,2.519,0,0,0,.438.039,2.486,2.486,0,0,0,2.444-2.05C114.695,536.807,98.346,521.54,97.648,520.9Z" fill="#78726f"/>
      <path id="路径_6" data-name="路径 6" d="M88.665,529.446a2.486,2.486,0,0,0-.512,3.477c.122.164,12.132,16.61,5.63,33.615a2.484,2.484,0,0,0,4.641,1.774c7.466-19.525-5.718-37.594-6.283-38.355A2.483,2.483,0,0,0,88.665,529.446Z" fill="#78726f"/>
    </g>
  </g>
</svg>
