<svg xmlns="http://www.w3.org/2000/svg" width="200" height="200" viewBox="0 0 200 200">
  <g id="img-aries_h" transform="translate(-1372 1902)">
    <rect id="Rectangle_4" data-name="Rectangle 4" width="200" height="200" transform="translate(1372 -1902)" fill="rgba(217,217,217,0)"/>
    <g id="组_2" data-name="组 2" transform="translate(1284.8 -2340.419)">
      <path id="路径_5" data-name="路径 5" d="M217.967,566.863h-33.7a10.141,10.141,0,0,1-10.111-10.111V529.146a10.141,10.141,0,0,1,10.111-10.111h28.648c5.562,0,8.707,2.406,10.112,10.111l5.055,27.606A10.141,10.141,0,0,1,217.967,566.863Z" fill="#f93"/>
      <rect id="矩形_1" data-name="矩形 1" width="37.188" height="26.387" rx="5.586" transform="translate(204.697 537.063) rotate(14.788)" fill="#f93"/>
      <path id="路径_6" data-name="路径 6" d="M209.874,567.143,198.4,582.307a18.592,18.592,0,0,1-25.634,5.49l-12.16-7.87a18.593,18.593,0,0,1-5.49-25.635l11.47-15.164a18.593,18.593,0,0,1,25.635-5.49l12.16,7.87A18.593,18.593,0,0,1,209.874,567.143Z" fill="#f93"/>
      <circle id="椭圆_2" data-name="椭圆 2" cx="31.558" cy="31.558" r="31.558" transform="translate(147.2 487.477)" fill="#f93"/>
      <circle id="椭圆_3" data-name="椭圆 3" cx="2.809" cy="2.809" r="2.809" transform="translate(215.299 536.448)" fill="#fff"/>
      <path id="路径_7" data-name="路径 7" d="M174.528,519.035c0-8.46,8.484-11.113,14.231-7.713,6.641,3.928,7.271,12.471,2.953,18.416-4.631,6.375-12.954,7.786-21.043,4.863-11.182-4.042-16.462-15.566-12.15-30.293,3.693-12.611,17.268-23.584,35.985-16.831,0,0,13.918,6.34,18.328,21.5" fill="none" stroke="#fff" stroke-linecap="round" stroke-miterlimit="10" stroke-width="3.294"/>
    </g>
  </g>
</svg>
