<svg xmlns="http://www.w3.org/2000/svg" width="200" height="200" viewBox="0 0 200 200">
  <g id="img-leo" transform="translate(-2430 1902)">
    <rect id="Rectangle_8" data-name="Rectangle 8" width="200" height="200" transform="translate(2430 -1902)" fill="rgba(217,217,217,0)"/>
    <g id="组_22" data-name="组 22" transform="translate(2335.908 -2531.082)">
      <g id="组_14" data-name="组 14">
        <path id="路径_27" data-name="路径 27" d="M186.495,716.142c-6.783,14.144-17.924,30.1-26.678,25.906s-11.81-26.967-5.026-41.111,19.379-22.206,28.133-18.007S193.278,702,186.495,716.142Z" fill="#78726f"/>
        <path id="路径_28" data-name="路径 28" d="M202.317,716.142c6.783,14.144,17.924,30.1,26.678,25.906s11.809-26.967,5.026-41.111-19.379-22.206-28.134-18.007S195.534,702,202.317,716.142Z" fill="#78726f"/>
      </g>
      <path id="路径_29" data-name="路径 29" d="M202.335,778.219H186.6c-15.265,0-35.144-41.442-35.144-53.474l7.777-23.243c2.462-12.153,8.407-21.42,23.672-21.42H206.03c15.265,0,19.979,8.507,22.441,21.876l9.008,22.787C237.479,736.777,217.6,778.219,202.335,778.219Z" fill="#78726f"/>
      <g id="组_15" data-name="组 15">
        <path id="路径_30" data-name="路径 30" d="M181.357,728.871h-2.472c-7.411,0-12.122-4.921-10.628-10.355l3.3-12.02c1.036-3.768,6.239-6.611,11.643-6.611h1.8c5.4,0,9.825,2.843,9.825,6.611v12.02C194.831,723.95,188.768,728.871,181.357,728.871Z" fill="#fff"/>
        <path id="路径_31" data-name="路径 31" d="M210.211,728.871h-2.435c-7.3,0-13.272-4.921-13.272-10.355V706.5c0-3.768,4.355-6.611,9.678-6.611h1.775c5.323,0,10.448,2.843,11.469,6.611l3.254,12.02C222.152,723.95,217.511,728.871,210.211,728.871Z" fill="#fff"/>
      </g>
      <path id="路径_32" data-name="路径 32" d="M194.466,757.727h0c-7.47,0-14.242-4.137-15.142-9.774l-3-18.815c-1.486-9.311,6.573-18.146,18.146-18.146h0c11.574,0,19.633,8.835,18.147,18.146l-3,18.815C208.709,753.59,201.937,757.727,194.466,757.727Z" fill="#fff"/>
      <rect id="矩形_8" data-name="矩形 8" width="14.468" height="9.252" rx="2.104" transform="translate(187.232 718.145)" fill="#78726f"/>
      <g id="组_18" data-name="组 18">
        <g id="组_16" data-name="组 16">
          <path id="路径_33" data-name="路径 33" d="M183.216,739.3l8.759-.966,2.678-13.862" fill="none" stroke="#78726f" stroke-linecap="round" stroke-linejoin="round" stroke-width="1.756"/>
        </g>
        <g id="组_17" data-name="组 17">
          <path id="路径_34" data-name="路径 34" d="M205.717,739.3l-8.759-.966-2.678-13.862" fill="none" stroke="#78726f" stroke-linecap="round" stroke-linejoin="round" stroke-width="1.756"/>
        </g>
      </g>
      <g id="组_19" data-name="组 19">
        <rect id="矩形_9" data-name="矩形 9" width="8.184" height="4.677" rx="1.171" transform="matrix(0.969, 0.249, -0.249, 0.969, 181.147, 710.737)" fill="#78726f"/>
      </g>
      <g id="组_20" data-name="组 20">
        <rect id="矩形_10" data-name="矩形 10" width="8.184" height="4.677" rx="1.171" transform="translate(208.581 715.267) rotate(165.593)" fill="#78726f"/>
      </g>
      <g id="组_21" data-name="组 21">
        <path id="路径_35" data-name="路径 35" d="M166.574,702.9a6.928,6.928,0,1,1,10.043-9.545" fill="#fff"/>
        <path id="路径_36" data-name="路径 36" d="M221.986,702.9a6.928,6.928,0,1,0-10.043-9.545" fill="#fff"/>
      </g>
    </g>
  </g>
</svg>
