<svg xmlns="http://www.w3.org/2000/svg" width="200" height="200" viewBox="0 0 200 200">
  <g id="img-leo" transform="translate(-2430 1902)">
    <rect id="Rectangle_8" data-name="Rectangle 8" width="200" height="200" transform="translate(2430 -1902)" fill="rgba(217,217,217,0)"/>
    <g id="组_3" data-name="组 3" transform="translate(2275.633 -2506.231)">
      <path id="路径_12" data-name="路径 12" d="M265.9,713.514l-7.707-.849-1.86-9.632h.892a4.347,4.347,0,0,0,4.334-4.335v-.873a4.347,4.347,0,0,0-4.334-4.335h-6.253a4.348,4.348,0,0,0-4.335,4.335v.873a4.348,4.348,0,0,0,4.335,4.335h.893l-1.86,9.632-7.709.849a1.809,1.809,0,0,0,.2,3.607c.067,0,.133,0,.2-.01l9.033-1a1.812,1.812,0,0,0,1.577-1.454l.8-4.118.795,4.118a1.813,1.813,0,0,0,1.577,1.454l9.033,1c.067.006.134.01.2.01a1.809,1.809,0,0,0,.2-3.607Z" fill="#78726f"/>
      <path id="路径_13" data-name="路径 13" d="M245.006,692.021a2.411,2.411,0,0,0,1.2-4.671l-3.505-.9a2.412,2.412,0,1,0-1.2,4.673Z" fill="#78726f"/>
      <path id="路径_14" data-name="路径 14" d="M265.124,686.449l-3.5.9a2.411,2.411,0,0,0,1.2,4.671l3.5-.9a2.412,2.412,0,1,0-1.2-4.673Z" fill="#78726f"/>
      <path id="路径_15" data-name="路径 15" d="M294.9,675.74a40.956,40.956,0,0,0-12.346-15.4c-3.5-3.917-8.652-6.112-16.525-6.112H242.176c-8.136,0-13.69,2.567-17.522,6.764a41.619,41.619,0,0,0-11.472,14.745c-3.5,7.3-4.46,16.82-3.416,25.058.5,12.993,20.675,54.652,36.221,54.652H262.22c15.743,0,36.246-42.745,36.246-55.153l-.082-.207C299.288,692.015,298.3,682.832,294.9,675.74Zm-69.31-8.07a7.143,7.143,0,0,1,10.1.257l-10.358,9.843A7.145,7.145,0,0,1,225.591,667.67Zm47.276,36.675c-.02.16-.02.321-.047.482l-3.1,19.4c-.93,5.816-7.914,10.083-15.619,10.083s-14.69-4.267-15.619-10.083l-3.1-19.4c-.027-.167-.028-.333-.048-.5-6.049-1.035-9.619-5.542-8.268-10.452l3.407-12.4c1.07-3.889,6.436-6.82,12.01-6.82h1.858c5,0,9.154,2.366,9.963,5.659.8-3.293,4.89-5.659,9.815-5.659h1.832c5.489,0,10.775,2.931,11.827,6.82l3.359,12.4C282.48,698.82,278.9,703.349,272.867,704.345Zm9.621-26.575-10.358-9.843a7.144,7.144,0,1,1,10.358,9.843Z" fill="#78726f"/>
    </g>
  </g>
</svg>
