<svg xmlns="http://www.w3.org/2000/svg" width="200" height="200" viewBox="0 0 200 200">
  <g id="img-cancer" transform="translate(-1649 1902)">
    <rect id="Rectangle_5" data-name="Rectangle 5" width="200" height="200" transform="translate(1649 -1902)" fill="rgba(217,217,217,0)"/>
    <g id="Group_3" data-name="Group 3" transform="translate(0 -9.074)">
      <path id="Path_3" data-name="Path 3" d="M-69.175-1841.341c5.736-3.389,12.557-.081,11.023,10.188l5.3,5.941c5.01-4.765,9.916-8.373,13.4-13.041,3.6-4.824-1.51-7.946-3.7-11.321-18.364-.522-24.229-4.7-20.234-14.5l10.335.638c-1.1-3.141-1.834-5.363-2.668-7.545-.859-2.246-1.819-4.452-3.031-7.393,6.37-1.313,11.412-.107,15.64,3.331,7.621,6.2,5.586,14.18,3.161,21.995.641,1.148,1.127,2.2,1.77,3.144,6.174,9.084,6.009,10.833-2.081,18.537-3.119,2.97-6.353,5.821-9.442,8.642.255,3.645.495,7.071.786,11.224,7.007,2.907,13.987,6.83,15.057,16.011.178,1.529-.553,3.164-.864,4.75l-1.611.181c-1.508-3.76-2.463-7.889-4.671-11.181-2.428-3.62-6.466-5.318-12.587-5.021,2.125,2.325,3.288,3.754,4.611,5.016,5.733,5.471,6.4,12.158,4.521,19.331-.318,1.21-1.8,2.116-3.572,3.029,1.274-9.128,1.96-17.665-9.336-23.081.573,2.529.65,4.091,1.269,5.4,2.846,6,1.875,12.881-2.9,17.377a8.739,8.739,0,0,1-5.046,1.8c2.549-6.049,9.362-10.942,2.811-18.623l-16.181,11.9-15.852-11.419c-5.391,3.88-5.141,5.487,2.128,18.386-1.548-.528-3.411-.677-4.591-1.651a14.6,14.6,0,0,1-3.363-17.7,44.462,44.462,0,0,0,1.741-4.936c-6.115,1.449-8.889,5-9.71,9.46-.76,4.128-.162,8.506-.162,12.951-4.1-1.968-5.961-7.745-3.555-13.946,1.773-4.568,5.148-8.515,8.141-13.268-4.666-.448-8.684,1.118-11.157,4.649-2.254,3.218-3.27,7.3-6.1,11.537-.5-1.618-1.6-3.322-1.384-4.839a16.822,16.822,0,0,1,10.219-13.765c1.789-.8,3.562-1.639,4.967-2.286.269-3.972.5-7.394.769-11.34-3.625-3.417-7.689-7.068-11.544-10.928-5.028-5.035-5.542-7.9-1.392-13.546,2.87-3.905,3.208-7.409,1.987-11.987-3.235-12.126,6.636-21.853,19.958-18.835-1.753,4.531-3.471,8.975-5.46,14.116h10.443c3.421,10.432-3.1,15.051-20.2,14.153l-6.4,9.473,15.17,14.336,5.714-4.9c-.892-10.027,4.2-13.957,11.087-10.431Zm-21.877,9.953c-3.224,3.459-6.207,6.339-8.8,9.534a8.578,8.578,0,0,0-.7,10.255c5.464,9.467,14.054,15.635,22.867,21.942,8.518-5.406,15.982-11.368,21.628-19.312,4.131-5.812,3.683-10.381-1.243-15.634-2.133-2.273-4.5-4.33-6.658-6.394.708-2.035,1.28-3.676,1.852-5.317l-.8-1.523-8.06,2.617c-4.141-4.059-9.332-3.035-14.02.5-2.831-1.414-4.917-6-7.853-.809Zm-11.712-42.716c-4.115-.157-7.359,1.472-8.771,5.092-2.006,5.14-1.723,10.335,1.508,14.778,8.486,1.9,13.088.547,14.739-4.081C-105.738-1861.249-105.738-1861.249-102.764-1874.1Zm42.933,15.7c2.416,4.456,9.261,6.541,13.972,4.574,3.085-1.288,4.76-8.092,3.343-13.58-1.077-4.169-4.629-6.537-9.144-6.095C-48.976-1860.655-48.976-1860.655-59.831-1858.406Z" transform="translate(1826.757 33.968)" fill="#574c45"/>
      <path id="Path_18" data-name="Path 18" d="M-84.649-1822.728l-6.6,10.48c-.836-2.45-1.9-4.007-1.5-4.654a90.648,90.648,0,0,1,5.709-7.549Z" transform="translate(1826.757 33.968)" fill="#574c45"/>
    </g>
  </g>
</svg>
