<svg xmlns="http://www.w3.org/2000/svg" width="200" height="200" viewBox="0 0 200 200">
  <g id="img-aries_h" transform="translate(-1372 1902)">
    <rect id="Rectangle_4" data-name="Rectangle 4" width="200" height="200" transform="translate(1372 -1902)" fill="rgba(217,217,217,0)"/>
    <g id="Group_2" data-name="Group 2">
      <path id="Path_6" data-name="Path 6" d="M-325.824-1849.2c8.837,3.028,9.743,11.214,11.584,18.5,1.385,5.48,3.838,9.527,8.612,12.745,8.466,5.707,9.078,10.316,3.275,18.75a51.307,51.307,0,0,1-4.667,5.829c-4.43,4.766-9.492,6.314-15.692,3.222-9.417-4.7-19.816-4.212-29.863-4.457-3.5-.086-7.194,3.359-10.6,5.514-1.579,1-2.669,2.774-4.12,4.348-11.4-4.69-21.763-10.134-29.256-19.8-5.064-6.534-4.9-11.036.294-17.452,2.063-2.549,4.041-5.166,6.34-8.113-9.363-10.846-12.135-22.739-6.686-35.852,3.977-9.569,11.154-16.052,20.811-19.625C-356.544-1892.716-331.828-1884.714-325.824-1849.2Zm-3.281,2.981c-1.625-5.75-2.812-10.938-4.556-15.933-5.013-14.362-15.924-21.911-30.632-21.505-14.365.4-26.154,9.369-29.93,23.52-2.674,10.02-.608,19.33,7.281,26.463,7.346,6.642,16.022,8.734,25.463,4.791,7.524-3.142,11.19-9.439,11.687-17.206.4-6.2-2.49-11.274-8.088-14.445-7.09-4.015-15.751-1.44-18.562,5.626-1.5,3.772-1.741,8.012,1.775,10.494a14.825,14.825,0,0,0,9,2.152c1.512-.1,3.323-2.957,4.052-4.918.493-1.324-.665-3.262-1.145-5.161l-4.26.384c-.516,2.129-.945,3.9-1.562,6.45-3.419-2.223-4.009-4.546-2.76-7.217,1.505-3.22,4.392-5.161,7.687-3.632a12.111,12.111,0,0,1,5.946,5.942c1.456,3.957-.015,7.855-3.511,10.652a11.923,11.923,0,0,1-14,.493,13.445,13.445,0,0,1-5.887-14.28,15.561,15.561,0,0,1,12.168-12.5,18.707,18.707,0,0,1,19.635,7.918c5.05,7.779,4.711,15.868.065,23.57-5.219,8.652-13.377,12.376-23.308,11.3-4.7-.51-9.251-2.325-14.524-3.722-2.091,2.622-4.4,5.622-6.82,8.522-2.743,3.282-2.8,6.692-.461,10.082,6.4,9.285,15.765,14.385,25.843,18.569l8.907-8.259c-3.1-4.444-9.69-5.857-9.728-13.842a42.019,42.019,0,0,1,4.287,3.361c6.755,7.275,15.112,10.266,24.976,10.566,5.374.164,10.728,1.821,16.033,3.049,2.723.63,5.321,1.8,9.1,3.113,3.112-3.227,6.793-6.31,9.547-10.072,4.117-5.625,3.717-8.871-2.138-12.437-6.765-4.12-9.721-10.038-11.19-17.347C-319.975-1837.975-321.6-1844.217-329.105-1846.219Z" transform="translate(1826.757 33.968)" fill="#f93" stroke="rgba(0,0,0,0)" stroke-width="1"/>
      <path id="Path_20" data-name="Path 20" d="M-323.778-1821.966c-6.676-3.272-15.037-.939-18.022-9.611,3.544-2.711,6.949-1.744,10.232-.024C-327.944-1829.7-324.876-1827.239-323.778-1821.966Z" transform="translate(1826.757 33.968)" fill="#f93" stroke="rgba(0,0,0,0)" stroke-width="1"/>
    </g>
  </g>
</svg>
