<svg xmlns="http://www.w3.org/2000/svg" width="200" height="200" viewBox="0 0 200 200">
  <g id="img-cancer" transform="translate(-1649 1902)">
    <rect id="Rectangle_5" data-name="Rectangle 5" width="200" height="200" transform="translate(1649 -1902)" fill="rgba(217,217,217,0)"/>
    <g id="组_9" data-name="组 9" transform="translate(1379.508 -2341.61)">
      <rect id="矩形_2" data-name="矩形 2" width="45.736" height="35.849" rx="7.686" transform="translate(346.046 536.017)" fill="#78726f"/>
      <g id="组_5" data-name="组 5">
        <path id="路径_8" data-name="路径 8" d="M349.579,548.672S333.8,546.883,323.492,559.3" fill="none" stroke="#78726f" stroke-linecap="round" stroke-width="2.58"/>
        <path id="路径_9" data-name="路径 9" d="M350.718,555.349s-15.853,1.421-21.051,15.412" fill="none" stroke="#78726f" stroke-linecap="round" stroke-width="2.58"/>
        <path id="路径_10" data-name="路径 10" d="M355.58,561.464s-14.932,4.11-15.388,18.6" fill="none" stroke="#78726f" stroke-linecap="round" stroke-width="2.58"/>
        <g id="组_4" data-name="组 4">
          <path id="路径_11" data-name="路径 11" d="M353.229,541.984s-16.966-1.437-16.332-17.393" fill="none" stroke="#78726f" stroke-linecap="round" stroke-width="2.58"/>
          <path id="路径_12" data-name="路径 12" d="M341.687,531.834l-12.424-3.463c-2.928-.816-4.5-4.453-3.485-8.083l4.292-15.4c1.012-3.63,4.236-5.932,7.164-5.116l.294,22.962,12.13-19.5c2.928.816,4.5,4.454,3.485,8.083l-4.292,15.4C347.839,530.348,344.615,532.65,341.687,531.834Z" fill="#78726f"/>
        </g>
      </g>
      <g id="组_8" data-name="组 8">
        <path id="路径_13" data-name="路径 13" d="M388.871,548.672s15.782-1.789,26.088,10.629" fill="none" stroke="#78726f" stroke-linecap="round" stroke-width="2.58"/>
        <path id="路径_14" data-name="路径 14" d="M387.733,555.349s15.852,1.421,21.05,15.412" fill="none" stroke="#78726f" stroke-linecap="round" stroke-width="2.58"/>
        <path id="路径_15" data-name="路径 15" d="M382.871,561.464s14.931,4.11,15.387,18.6" fill="none" stroke="#78726f" stroke-linecap="round" stroke-width="2.58"/>
        <g id="组_7" data-name="组 7">
          <path id="路径_16" data-name="路径 16" d="M385.221,541.984s16.966-1.437,16.333-17.393" fill="none" stroke="#78726f" stroke-linecap="round" stroke-width="2.58"/>
          <path id="路径_17" data-name="路径 17" d="M396.763,531.834l12.424-3.463c2.929-.816,4.5-4.453,3.485-8.083l-4.292-15.4c-1.011-3.63-4.235-5.932-7.164-5.116l-.294,22.962-12.129-19.5c-2.929.816-4.5,4.454-3.485,8.083l4.292,15.4C390.611,530.348,393.835,532.65,396.763,531.834Z" fill="#78726f"/>
        </g>
      </g>
      <circle id="椭圆_4" data-name="椭圆 4" cx="4.607" cy="4.607" r="4.607" transform="translate(356.791 531.41)" fill="#78726f"/>
      <circle id="椭圆_5" data-name="椭圆 5" cx="4.607" cy="4.607" r="4.607" transform="translate(372.53 531.41)" fill="#78726f"/>
    </g>
  </g>
</svg>
