<svg xmlns="http://www.w3.org/2000/svg" width="200" height="200" viewBox="0 0 200 200">
  <g id="img-capricorn" transform="translate(-1909 1902)">
    <rect id="Rectangle_6" data-name="Rectangle 6" width="200" height="200" transform="translate(1909 -1902)" fill="rgba(217,217,217,0)"/>
    <g id="组_10" data-name="组 10" transform="translate(1468.379 -2341.772)">
      <path id="路径_18" data-name="路径 18" d="M568.816,569.884H542.954a7.781,7.781,0,0,1-7.758-7.758V540.943a7.781,7.781,0,0,1,7.758-7.759h21.983c4.267,0,6.681,1.847,7.758,7.759l3.879,21.183A7.781,7.781,0,0,1,568.816,569.884Z" fill="#78726f"/>
      <rect id="矩形_3" data-name="矩形 3" width="31.829" height="25.259" rx="5.06" transform="translate(555.449 546.177) rotate(14.788)" fill="#78726f"/>
      <path id="路径_19" data-name="路径 19" d="M562.606,570.1l-8.8,11.635a14.266,14.266,0,0,1-19.67,4.213l-9.331-6.039a14.266,14.266,0,0,1-4.212-19.67l8.8-11.636a14.266,14.266,0,0,1,19.671-4.212l9.33,6.039A14.265,14.265,0,0,1,562.606,570.1Z" fill="#78726f"/>
      <circle id="椭圆_6" data-name="椭圆 6" cx="24.215" cy="24.215" r="24.215" transform="translate(524.527 520.429)" fill="#78726f"/>
      <path id="路径_20" data-name="路径 20" d="M539.713,537.871h0c-2.875,6.091-10.611,4.968-14.278.808l-5.987-6.791a3.716,3.716,0,0,1-.22-3.573h0a4.113,4.113,0,0,1,2.984-2.284l9.048.3C536.8,526.522,542.587,531.779,539.713,537.871Z" fill="#78726f"/>
      <path id="路径_21" data-name="路径 21" d="M569.494,541.364s-6.54-49.183-73.873-49.592c0,0,57.181,7.5,62.626,51.915Z" fill="#78726f" stroke="#78726f" stroke-linecap="round" stroke-linejoin="round" stroke-width="3.308"/>
      <path id="路径_22" data-name="路径 22" d="M566.578,538.818s-9.8-36.8-70.515-27.935c0,0,49.97-1.017,61.526,34.557Z" fill="#78726f" stroke="#78726f" stroke-linecap="round" stroke-linejoin="round" stroke-width="2.857"/>
      <circle id="椭圆_7" data-name="椭圆 7" cx="3.27" cy="3.27" r="3.27" transform="translate(562.954 544.644)" fill="#fff"/>
    </g>
  </g>
</svg>
