<svg xmlns="http://www.w3.org/2000/svg" width="200" height="200" viewBox="0 0 200 200">
  <g id="img-aquarius_h" transform="translate(-1094 1902)">
    <rect id="Rectangle_3" data-name="Rectangle 3" width="200" height="200" transform="translate(1094 -1902)" fill="rgba(217,217,217,0)"/>
    <g id="Group_1" data-name="Group 1" transform="translate(0 -0.622)">
      <path id="Path_14" data-name="Path 14" d="M-677.486-1862.069l-3.271-5.3,21.2-19.982,4.872,2.7c11.365-3.023,21.906-.763,31.008,7.026,9.163,7.84,12.185,18.251,11.283,30.079,5.016,1.978,12.062-1.335,14.6,7.679l-34.705,34.771c-8.865-1.919-6.263-8.521-7.13-14.222-11.647.586-22.417-1.975-30.451-11.151C-678.1-1839.626-680.514-1850.27-677.486-1862.069Zm1.966-5.178,2.419,4.135c-2.538,11.21-1.876,21.782,6.646,30.632,8.415,8.739,18.974,10.027,30.694,7.991.322,5.213.6,9.644.784,12.7l31.582-30.671h-13.952c1.986-12.086.919-22.673-7.844-31.1-8.992-8.645-19.661-9.483-30.752-6.623l-4.607-2.69Z" transform="translate(1826.757 33.968)" fill="#f93"/>
      <path id="Path_15" data-name="Path 15" d="M-587.743-1785.5c-1.017-6.084-1.513-11.066-2.746-15.858a86.3,86.3,0,0,0-4.928-14c-2-4.413-4.7-8.507-7.653-13.737C-592.283-1826.332-580.706-1793.628-587.743-1785.5Z" transform="translate(1826.757 33.968)" fill="#f93"/>
      <path id="Path_16" data-name="Path 16" d="M-611.026-1819.258c8.341,2.169,16.387,25.472,12.04,32.549-.663-.377-1.894-.724-1.919-1.143C-601.581-1799.131-605.7-1809.34-611.026-1819.258Z" transform="translate(1826.757 33.968)" fill="#f93"/>
      <path id="Path_17" data-name="Path 17" d="M-611.67-1786.592c-.907-.371-1.742-.451-2.032-.89a9.179,9.179,0,0,1-1.011-2.685c-1.814-6.738-3.6-13.483-5.464-20.492C-613.935-1808.54-608.859-1794.036-611.67-1786.592Z" transform="translate(1826.757 33.968)" fill="#f93"/>
      <path id="Path_27" data-name="Path 27" d="M-633.716-1866.464l-17.729-5.267-.482-1.181c2.012-.592,4.091-1.845,6.023-1.649,5.238.531,10.076,2.222,12.968,6.851Z" transform="translate(1826.757 33.968)" fill="#f93"/>
    </g>
  </g>
</svg>
