<svg xmlns="http://www.w3.org/2000/svg" width="200" height="200" viewBox="0 0 200 200">
  <g id="img-cancer_h" transform="translate(-1649 1902)">
    <rect id="Rectangle_5" data-name="Rectangle 5" width="200" height="200" transform="translate(1649 -1902)" fill="rgba(217,217,217,0)"/>
    <path id="路径_8" data-name="路径 8" d="M483.565,527.96c-9.115-10.98-21.837-12.06-26.973-12.014a15.694,15.694,0,0,0-1.106-2.344c5.743-1.667,12.537-5.87,14.382-14.257l5.7-1.589c3.021-.841,4.639-4.593,3.594-8.336l-4.427-15.883c-1.042-3.743-4.368-6.117-7.387-5.274l-.3,23.072a2.619,2.619,0,0,0-.336.082l-12.181-19.583c-3.021.84-4.637,4.594-3.594,8.336l4.425,15.882c1.044,3.744,4.37,6.12,7.389,5.277l.873-.243c-2.943,5.9-9.662,7.541-12.11,7.942a15.851,15.851,0,0,0-4.353-2.416,4.674,4.674,0,0,0,.1-.968,4.751,4.751,0,1,0-9.5,0h-6.731a4.752,4.752,0,1,0-9.5,0,4.67,4.67,0,0,0,.072.712,15.8,15.8,0,0,0-4.937,2.585c-2.778-.517-8.861-2.285-11.609-7.861l.9.249c3.02.843,6.345-1.533,7.389-5.277l4.426-15.882c1.042-3.742-.574-7.5-3.6-8.336l-12.181,19.583a2.54,2.54,0,0,0-.336-.082l-.3-23.072c-3.019-.843-6.344,1.531-7.387,5.274l-4.427,15.883c-1.044,3.743.573,7.495,3.6,8.336l5.7,1.589c1.788,8.13,8.219,12.314,13.844,14.082a15.7,15.7,0,0,0-1.211,2.519c-5.494.05-17.572,1.46-26.331,12.014a2.657,2.657,0,1,0,4.088,3.395c6.8-8.187,16.267-9.8,21.227-10.044,0,.056-.008.111-.008.167v2.356c-5.747,1.567-15.313,5.761-19.382,16.719a2.656,2.656,0,1,0,4.98,1.851c3.01-8.1,9.9-11.606,14.624-13.1a15.729,15.729,0,0,0,1.122,3.824c-4.979,3.5-9.767,9.292-10.034,17.859a2.654,2.654,0,0,0,2.573,2.738c.028,0,.056,0,.084,0a2.658,2.658,0,0,0,2.654-2.575,16.8,16.8,0,0,1,7.652-13.6,15.785,15.785,0,0,0,11.563,5.068h15.5a15.792,15.792,0,0,0,11.815-5.345,16.922,16.922,0,0,1,8.043,13.878,2.655,2.655,0,0,0,2.653,2.575c.028,0,.056,0,.085,0a2.656,2.656,0,0,0,2.573-2.738c-.278-8.851-5.38-14.739-10.532-18.2a15.6,15.6,0,0,0,1-3.674c4.724,1.382,12.1,4.831,15.239,13.29a2.657,2.657,0,1,0,4.981-1.851c-4.231-11.39-14.382-15.462-20.027-16.882v-2.193c0-.066-.01-.131-.01-.2,4.75.139,14.776,1.523,21.873,10.072a2.657,2.657,0,0,0,4.088-3.395Z" transform="translate(1314.478 -2313.093)" fill="#f93"/>
  </g>
</svg>
