<svg xmlns="http://www.w3.org/2000/svg" width="200" height="200" viewBox="0 0 200 200">
  <g id="img-aries_h" transform="translate(-1372 1902)">
    <rect id="Rectangle_4" data-name="Rectangle 4" width="200" height="200" transform="translate(1372 -1902)" fill="rgba(217,217,217,0)"/>
    <path id="路径_7" data-name="路径 7" d="M290.615,513.574l-4.527-1.195-2.532-13.824c-1.449-7.944-4.692-10.427-10.428-10.427H270.45a32.536,32.536,0,0,0-21.034-30.417c-6.222-1.506-12.1-.991-17.164,1.58a23.892,23.892,0,0,0-11.968,14.6c-3.81,13.011.185,23.395,10.429,27.1,7.343,2.653,14.164,1.191,17.805-3.82a10.98,10.98,0,0,0,1.986-8.5,8.3,8.3,0,0,0-4.014-5.582,7.037,7.037,0,0,0-6.875-.213,5.626,5.626,0,0,0-2.683,5.248,3.393,3.393,0,1,1-6.785,0,12.37,12.37,0,0,1,6.106-11.142,13.856,13.856,0,0,1,13.691.265,15.123,15.123,0,0,1,7.2,10.046,17.619,17.619,0,0,1-3.139,13.863,19.471,19.471,0,0,1-16.207,7.946,27.712,27.712,0,0,1-9.4-1.732c-13.73-4.965-19.475-18.856-14.633-35.388a31.124,31.124,0,0,1,5.406-10.456,32.5,32.5,0,0,0,1.147,53.965l-6.8,9a19.174,19.174,0,0,0,5.663,26.439l12.541,8.117a19.172,19.172,0,0,0,26.439-5.663l11.831-15.638c.061-.1.108-.2.167-.29h4.3l9.211,2.432a11.542,11.542,0,0,0,14.063-8.19l1.072-4.061A11.539,11.539,0,0,0,290.615,513.574Zm-12.128-1.694a2.9,2.9,0,1,1,2.9-2.894A2.9,2.9,0,0,1,278.487,511.88Z" transform="translate(1222.647 -2310.871)" fill="#f93"/>
  </g>
</svg>
