<svg xmlns="http://www.w3.org/2000/svg" width="200" height="200" viewBox="0 0 200 200">
  <g id="img-sagittarius_h" transform="translate(-1649 1606)">
    <rect id="Rectangle_11" data-name="Rectangle 11" width="200" height="200" transform="translate(1649 -1606)" fill="rgba(217,217,217,0)"/>
    <path id="路径_19" data-name="路径 19" d="M124.553,843.1a3.1,3.1,0,0,0-3.23-.724l-17.687,6.354a3.091,3.091,0,0,0-1.139,5.094l3.467,3.468L104,859.253a39.316,39.316,0,0,0-53.37,2.09c-.043.042-.071.094-.11.139a1.668,1.668,0,0,1-1.847-.487,1.469,1.469,0,0,1,.064-2.3,2.833,2.833,0,0,0-4.033-3.98,7.367,7.367,0,0,0,5.033,12.525h.109c.115,0,.22-.032.334-.036L55.5,907.779l-4.517,4.52L42.6,911.1a3.092,3.092,0,0,0-2.621.875l-8.863,8.859a3.091,3.091,0,0,0,1.573,5.215l7.42,1.5,1.5,7.419a3.086,3.086,0,0,0,2.135,2.345,3.022,3.022,0,0,0,.894.133,3.091,3.091,0,0,0,2.184-.9l8.861-8.862a3.087,3.087,0,0,0,.874-2.621l-1.2-8.387,4.518-4.52,40.581,5.319c-.007.149-.045.292-.043.443a7.171,7.171,0,0,0,2.366,5.192,7.018,7.018,0,0,0,4.878,2.064,7.745,7.745,0,0,0,5.28-2.221,2.833,2.833,0,0,0-4.006-4.008,1.468,1.468,0,0,1-2.272.037,1.675,1.675,0,0,1-.5-1.837c.047-.042.1-.074.148-.121a39.394,39.394,0,0,0,2.062-53.39l1.966-1.967,3.5,3.494a3.089,3.089,0,0,0,5.093-1.141l6.355-17.686A3.087,3.087,0,0,0,124.553,843.1ZM68.778,859.681c7.523,0,16.07,3.989,23.823,10.978L61.01,902.265l-4.927-37.589a33.422,33.422,0,0,1,3.191-2.543A19.031,19.031,0,0,1,68.778,859.681Zm36.465,49.089a33.523,33.523,0,0,1-2.272,2.795l-37.594-4.927,31.613-31.63C106.156,885.216,111.346,898.485,105.243,908.77ZM96.63,866.628A51.137,51.137,0,0,0,79.8,856.058a32.878,32.878,0,0,1,19.832,7.566ZM46.519,928.093l-.763-3.776a3.137,3.137,0,0,0-.182-.594c-.03-.07-.072-.13-.107-.2a3.01,3.01,0,0,0-.179-.33c-.044-.064-.1-.121-.148-.183a3.284,3.284,0,0,0-.236-.279c-.038-.039-.084-.069-.124-.1a3.052,3.052,0,0,0-.342-.278c-.021-.012-.044-.022-.065-.034a3.027,3.027,0,0,0-1.035-.424l-3.782-.763,3.695-3.693,6.091.871.871,6.091Zm65.072-40.234a51.08,51.08,0,0,0-10.605-16.848L104,867.994A33.058,33.058,0,0,1,111.591,887.859Zm3.162-30.521-4.441-4.442,6.932-2.491Z" transform="translate(1671.794 -2395.192)" fill="#f93" stroke="rgba(0,0,0,0)" stroke-width="1"/>
  </g>
</svg>
