<svg xmlns="http://www.w3.org/2000/svg" width="80" height="80" viewBox="0 0 80 80">
  <g id="ic-phone_contact" transform="translate(-1664 595)">
    <rect id="Rectangle_7" data-name="Rectangle 7" width="80" height="80" transform="translate(1664 -595)" fill="none"/>
    <path id="Path_2" data-name="Path 2" d="M57.639,68.159a7.137,7.137,0,0,0-5.176-2.374,7.38,7.38,0,0,0-5.238,2.358l-4.839,4.824c-.4-.214-.8-.413-1.179-.613-.551-.276-1.072-.536-1.516-.812a52.6,52.6,0,0,1-12.6-11.486,31.031,31.031,0,0,1-4.135-6.524c1.256-1.149,2.42-2.343,3.553-3.492.429-.429.858-.873,1.286-1.3,3.216-3.216,3.216-7.382,0-10.6l-4.181-4.181c-.475-.475-.965-.965-1.424-1.455-.919-.95-1.884-1.93-2.879-2.849a7.249,7.249,0,0,0-5.13-2.251,7.5,7.5,0,0,0-5.207,2.251l-.031.031L3.731,34.941A11.2,11.2,0,0,0,.407,42.062a26.847,26.847,0,0,0,1.96,11.364A65.941,65.941,0,0,0,14.084,72.968a72.07,72.07,0,0,0,24,18.791,37.391,37.391,0,0,0,13.477,3.982c.322.015.659.031.965.031a11.54,11.54,0,0,0,8.837-3.8c.015-.031.046-.046.061-.077a34.821,34.821,0,0,1,2.68-2.772c.659-.628,1.332-1.286,1.991-1.976a7.64,7.64,0,0,0,2.313-5.3A7.36,7.36,0,0,0,66.047,76.6Zm5.483,16.126c-.015,0-.015.015,0,0-.6.643-1.21,1.225-1.868,1.868A40.274,40.274,0,0,0,58.3,89.217a7.383,7.383,0,0,1-5.758,2.435c-.23,0-.475,0-.7-.015a33.216,33.216,0,0,1-11.946-3.584,68.029,68.029,0,0,1-22.6-17.7A62.175,62.175,0,0,1,6.258,51.986,21.867,21.867,0,0,1,4.542,42.4a7.03,7.03,0,0,1,2.113-4.549l5.222-5.222a3.481,3.481,0,0,1,2.328-1.087,3.276,3.276,0,0,1,2.236,1.072l.046.046c.934.873,1.822,1.777,2.757,2.741.475.49.965.98,1.455,1.486l4.181,4.181c1.623,1.623,1.623,3.124,0,4.748-.444.444-.873.888-1.317,1.317-1.286,1.317-2.512,2.542-3.844,3.737-.031.031-.061.046-.077.077a3.124,3.124,0,0,0-.8,3.476l.046.138a33.566,33.566,0,0,0,4.947,8.071l.015.015a56.21,56.21,0,0,0,13.6,12.374,20.909,20.909,0,0,0,1.884,1.026c.551.276,1.072.536,1.516.812.061.031.123.077.184.107a3.32,3.32,0,0,0,1.516.383,3.274,3.274,0,0,0,2.328-1.057l5.238-5.238A3.465,3.465,0,0,1,52.432,69.9a3.119,3.119,0,0,1,2.205,1.118l.031.031,8.438,8.438C64.684,81.054,64.684,82.662,63.122,84.285Z" transform="translate(1679.642 -621.122) rotate(9)" fill="#5a5a5a"/>
  </g>
</svg>
