<svg xmlns="http://www.w3.org/2000/svg" width="69.635" height="63.963" viewBox="0 0 69.635 63.963">
  <g id="ic-business" transform="translate(250.57 -127.766)">
    <path id="路径_79" data-name="路径 79" d="M-200.611,137.4a9.641,9.641,0,0,0-9.629-9.63h-11.025a9.64,9.64,0,0,0-9.63,9.63v7.044h-2.477v47.29h35.238v-47.29h-2.477Zm-24.383,0a3.732,3.732,0,0,1,3.729-3.728h11.025a3.732,3.732,0,0,1,3.728,3.728v7.044h-18.482Z" fill="#fff"/>
    <path id="路径_80" data-name="路径 80" d="M-250.571,150.675v34.818a6.254,6.254,0,0,0,6.236,6.236h5.062v-47.29h-5.062A6.254,6.254,0,0,0-250.571,150.675Z" fill="#fff"/>
    <path id="路径_81" data-name="路径 81" d="M-187.171,144.439h-5.062v47.29h5.062a6.254,6.254,0,0,0,6.236-6.236V150.675A6.254,6.254,0,0,0-187.171,144.439Z" fill="#fff"/>
  </g>
</svg>
