<svg xmlns="http://www.w3.org/2000/svg" width="67.129" height="68.223" viewBox="0 0 67.129 68.223">
  <path id="ic-family" d="M-182.361,272.222l-9.644-9.3V240.529h-11.623v11.185l-8.593-8.287a5.187,5.187,0,0,0-7.128.035l-30.141,29.084,6.379-.031v31.332a4.918,4.918,0,0,0,4.9,4.9h44.89a4.919,4.919,0,0,0,4.9-4.9v-31.6ZM-204.89,299.54c-2.8,3.929-6.632,6.652-10.761,9.006a.817.817,0,0,1-.686.024c-4.365-2.512-8.45-5.372-11.235-9.7-2.037-3.166-2.479-6.507-.582-9.906,2.653-4.751,8.4-5.191,11.807-.945.093.115.2.226.351.407a7.662,7.662,0,0,1,4.024-3.039,7.1,7.1,0,0,1,8.5,4.351C-201.958,293.284-202.747,296.533-204.89,299.54Z" transform="translate(249.49 -240.529)" fill="#fff"/>
</svg>
