<svg xmlns="http://www.w3.org/2000/svg" width="81.488" height="56.162" viewBox="0 0 81.488 56.162">
  <g id="ic-friend" transform="translate(133.178 -246.695)">
    <path id="路径_87" data-name="路径 87" d="M-99.529,271.8a17.025,17.025,0,0,1-9.649,2.981,17.021,17.021,0,0,1-9.647-2.981c-8.448,6.814-14.352,21.232-14.352,31.053h25.716c0-8.539,3.618-20.213,9.968-29.2A26.038,26.038,0,0,0-99.529,271.8Z" fill="#fff"/>
    <path id="路径_88" data-name="路径 88" d="M-66.04,271.8a17.022,17.022,0,0,1-9.648,2.981,17.025,17.025,0,0,1-9.648-2.981,33.55,33.55,0,0,0-7.1,8.284h0c-.351.558-.687,1.129-1.015,1.707-.1.182-.205.364-.306.547q-.4.728-.78,1.47c-.063.124-.129.245-.191.37q-.447.9-.857,1.813c-.081.179-.158.359-.237.539q-.326.744-.627,1.5c-.061.152-.124.3-.184.454q-.363.932-.685,1.868c-.056.161-.108.321-.161.481q-.257.765-.485,1.528c-.049.161-.1.323-.145.484q-.271.939-.5,1.87c-.031.126-.057.25-.086.375q-.183.78-.333,1.547c-.033.163-.065.326-.095.488-.111.61-.211,1.214-.29,1.807-.01.075-.017.149-.026.224-.067.529-.119,1.048-.159,1.56-.011.153-.023.3-.033.455-.035.574-.06,1.139-.06,1.686h48C-51.689,293.037-57.592,278.619-66.04,271.8Z" fill="#fff"/>
    <path id="路径_89" data-name="路径 89" d="M-109.178,269.008a10.882,10.882,0,0,0,10.883-10.882,10.881,10.881,0,0,0-10.883-10.881,10.881,10.881,0,0,0-10.881,10.881A10.882,10.882,0,0,0-109.178,269.008Z" fill="#fff"/>
    <circle id="椭圆_3" data-name="椭圆 3" cx="10.882" cy="10.882" r="10.882" transform="translate(-87.12 268.43) rotate(-87.029)" fill="#fff"/>
  </g>
</svg>
