<svg xmlns="http://www.w3.org/2000/svg" width="62.361" height="62.361" viewBox="0 0 62.361 62.361">
  <path id="ic-health" d="M-325.759,246.465h-51.194c-3.071,0-5.584,3.7-5.584,8.223V300.6c0,4.522,2.513,8.223,5.584,8.223h51.194c3.071,0,5.584-3.7,5.584-8.223V254.688C-320.175,250.165-322.688,246.465-325.759,246.465Zm-8.073,35.281a1.879,1.879,0,0,1-1.879,1.879h-9.666v9.666a1.879,1.879,0,0,1-1.879,1.879h-8.2a1.879,1.879,0,0,1-1.879-1.879v-9.666H-367a1.879,1.879,0,0,1-1.879-1.879v-8.2A1.878,1.878,0,0,1-367,271.667h9.666V262a1.879,1.879,0,0,1,1.879-1.879h8.2A1.879,1.879,0,0,1-345.377,262v9.666h9.666a1.878,1.878,0,0,1,1.879,1.878Z" transform="translate(382.537 -246.465)" fill="#fff"/>
</svg>
