<svg xmlns="http://www.w3.org/2000/svg" width="87.18" height="63.908" viewBox="0 0 87.18 63.908">
  <g id="ic-love" transform="translate(388.725 -133.58)">
    <path id="路径_82" data-name="路径 82" d="M-302.865,164.476a11.46,11.46,0,0,0-10.274-7.323,10.045,10.045,0,0,0-2.886.426,12.162,12.162,0,0,0-6.385,4.9l-2.306,3.157-2.83-3.271c-.2-.223-.352-.4-.5-.586a11.429,11.429,0,0,0-8.871-4.645c-3.856,0-7.308,2.223-9.472,6.1-2.99,5.357-2.644,10.756,1.057,16.5.456.708.94,1.389,1.435,2.057l0,0h0c5.168,6.975,12.337,11.836,18.94,15.693,6.353-3.676,14.108-8.849,19.6-16.547C-301.3,175.24-300.5,170.008-302.865,164.476Z" fill="#fff"/>
    <path id="路径_83" data-name="路径 83" d="M-336.917,150.916A17.264,17.264,0,0,1-325.13,155.8a21.513,21.513,0,0,0-1.72-11.136c-3.614-8.467-12.2-12.829-20.316-10.4a18.328,18.328,0,0,0-9.616,7.262c-.374-.433-.616-.7-.839-.973-8.147-10.144-21.875-9.094-28.213,2.261-4.533,8.12-3.48,16.1,1.391,23.669,6.655,10.336,16.415,17.171,26.846,23.175a1.957,1.957,0,0,0,1.639-.058c2.372-1.353,4.7-2.758,6.968-4.241-.54-.735-1.068-1.483-1.57-2.263-4.921-7.642-5.356-15.561-1.259-22.9C-348.574,154.387-343,150.916-336.917,150.916Z" fill="#fff"/>
  </g>
</svg>
