<svg xmlns="http://www.w3.org/2000/svg" width="59.586" height="67.943" viewBox="0 0 59.586 67.943">
  <g id="ic-mind" transform="translate(240.352 -342.244)">
    <path id="路径_90" data-name="路径 90" d="M-181.4,364l-10.8-10.8c-.041-.041-.088-.071-.132-.108a26.553,26.553,0,0,0-21.428-10.848,26.593,26.593,0,0,0-26.593,26.593A26.585,26.585,0,0,0-226.5,392.182v14.943a3.072,3.072,0,0,0,3.064,3.063h22.961a3.072,3.072,0,0,0,3.063-3.063V395.2l11.439-2.289a3.073,3.073,0,0,0,2.4-3.605l-3.343-16.708,5.512-5.512A2.192,2.192,0,0,0-181.4,364Zm-13.885-.6a.387.387,0,0,1-.224.2l-17.245,5.82a9.072,9.072,0,0,1-.934,4.508,9.063,9.063,0,0,1-5.252,4.6,9.1,9.1,0,0,1-2.911.479,9.12,9.12,0,0,1-8.648-6.2,9.133,9.133,0,0,1,5.726-11.559,9.084,9.084,0,0,1,2.909-.479,9.114,9.114,0,0,1,7.836,4.454l6.229-2.1-1.52-4.507a.388.388,0,0,1,.244-.492l3.425-1.157a.393.393,0,0,1,.3.02.4.4,0,0,1,.195.224l1.52,4.507,2.931-.99-1.52-4.506a.39.39,0,0,1,.244-.493l3.425-1.155a.389.389,0,0,1,.492.244l1.644,4.872v0l1.157,3.426A.386.386,0,0,1-195.287,363.395Z" fill="#fff"/>
    <path id="路径_91" data-name="路径 91" d="M-221.863,365.644a4.192,4.192,0,0,0-1.348.223,4.232,4.232,0,0,0-2.654,5.358,4.228,4.228,0,0,0,4.01,2.876h0a4.2,4.2,0,0,0,1.348-.223,4.2,4.2,0,0,0,2.435-2.129,4.206,4.206,0,0,0,.219-3.228A4.229,4.229,0,0,0-221.863,365.644Z" fill="#fff"/>
  </g>
</svg>
