<svg xmlns="http://www.w3.org/2000/svg" width="72.949" height="72.949" viewBox="0 0 72.949 72.949">
  <g id="ic-money" transform="translate(134.516 -128.559)">
    <path id="路径_84" data-name="路径 84" d="M-105.961,154.948a4.321,4.321,0,0,0,1.379,3.258,7.181,7.181,0,0,0,4.071,1.691V149.436Q-105.959,150.189-105.961,154.948Z" fill="#fff"/>
    <path id="路径_85" data-name="路径 85" d="M-95.875,168.417v10.9q5.826-.694,5.825-5.45a5.047,5.047,0,0,0-1.378-3.8Q-92.619,168.923-95.875,168.417Z" fill="#fff"/>
    <path id="路径_86" data-name="路径 86" d="M-98.042,128.559a36.474,36.474,0,0,0-36.474,36.475,36.473,36.473,0,0,0,36.474,36.474,36.475,36.475,0,0,0,36.475-36.474A36.475,36.475,0,0,0-98.042,128.559ZM-85.351,182.7A16.538,16.538,0,0,1-95,186.833v7.016h-6.326v-6.766q-9.271-.313-14.783-5.889l5.637-5.637q3.57,3.571,9.96,3.758V167.978l-2-.251a14.378,14.378,0,0,1-8.708-3.822q-3.13-3.131-3.13-8.644a12.73,12.73,0,0,1,3.475-9.114,14.741,14.741,0,0,1,9.553-4.291v-5.638H-95v5.576a18.58,18.58,0,0,1,12.34,5.136l-5.512,5.45a12.108,12.108,0,0,0-7.7-3.006v10.9l2.38.376q5.765.939,8.52,3.508,3.442,3.259,3.445,9.4A11.962,11.962,0,0,1-85.351,182.7Z" fill="#fff"/>
  </g>
</svg>
