<svg xmlns="http://www.w3.org/2000/svg" width="79.531" height="59.053" viewBox="0 0 79.531 59.053">
  <path id="ic-school" d="M-309.455,390.952v-11.7c1.356-2.358.772-5.717-1.59-8.078l-31.639-15.4c-2.741-2.739-6.829-3.093-9.132-.79l-33.22,16.977c-2.3,2.3-1.951,6.391.79,9.13l13.071,5.544v18.379c0,4.137,2.9,7.5,6.472,7.5h34.116c3.568,0,6.471-3.366,6.471-7.5V386.562l10.793-4.873v9.263a4.348,4.348,0,0,0-2.429,3.891,4.364,4.364,0,0,0,4.363,4.363,4.364,4.364,0,0,0,4.363-4.363A4.348,4.348,0,0,0-309.455,390.952Zm-20.161,14.064c0,1.246-.674,2-.971,2H-364.7c-.3,0-.972-.757-.972-2V388.969l13.069,5.543c2.74,2.74,6.828,3.094,9.131.791l13.859-6.258Z" transform="translate(386.557 -353.467)" fill="#fff"/>
</svg>
