<svg xmlns="http://www.w3.org/2000/svg" width="21.001" height="21.003" viewBox="0 0 21.001 21.003">
  <path id="ic-custom" d="M418.2,1099.049v-.813c.008-.019.016-.037.023-.056a.66.66,0,0,1,.41-.415,3.1,3.1,0,0,0,1.074-.739,2.122,2.122,0,0,0,.672-1.619,1.855,1.855,0,0,0-.289-.96,3.135,3.135,0,0,0-1.381-1.15.719.719,0,0,1-.357-.254c-.057-.093-.1-.194-.152-.291v-.882a.105.105,0,0,0,.009-.019,4.395,4.395,0,0,1,.409-1.11,2.083,2.083,0,0,1,.493-.655.613.613,0,0,1,.5-.168,1.526,1.526,0,0,1,.24.056,3.141,3.141,0,0,0,.85.209,4.434,4.434,0,0,0,.692-.017,2.094,2.094,0,0,0,.955-.378,1.7,1.7,0,0,0,.675-.828,3.526,3.526,0,0,0,.2-.986,4.163,4.163,0,0,0-.123-1.287.634.634,0,0,1-.012-.29,1.016,1.016,0,0,1,.392-.559,4.06,4.06,0,0,1,1.515-.69c.129-.032.259-.057.389-.085h.606a.861.861,0,0,1,.425.448c.036.072.061.149.1.221a2.589,2.589,0,0,0,1.083,1.174,2.163,2.163,0,0,0,1.6.176,2.318,2.318,0,0,0,1.442-1.037,2.668,2.668,0,0,0,.192-.372,1.308,1.308,0,0,1,.533-.61h.606c.053.013.1.028.159.039a3.757,3.757,0,0,1,1.264.5,2.252,2.252,0,0,1,.733.733.442.442,0,0,1,.07.309,1.794,1.794,0,0,1-.1.364,2.451,2.451,0,0,0-.169,1.46,2.223,2.223,0,0,0,.6,1.143,1.988,1.988,0,0,0,1.229.63,3.083,3.083,0,0,0,.8,0,2.592,2.592,0,0,0,.839-.252.735.735,0,0,1,.854.121,2.667,2.667,0,0,1,.344.435,4.175,4.175,0,0,1,.474,1.147,3.179,3.179,0,0,1,.145.845.751.751,0,0,1-.5.726,2.658,2.658,0,0,0-1.185.876,2.221,2.221,0,0,0-.415,1.981,2.187,2.187,0,0,0,1.323,1.536,1.053,1.053,0,0,1,.734,1.226,3.884,3.884,0,0,1-.321,1.113,2.44,2.44,0,0,1-.529.8,1.076,1.076,0,0,1-1.132.281,3.576,3.576,0,0,0-1.046-.187,3.117,3.117,0,0,0-.8.1,1.544,1.544,0,0,0-.773.424,2.231,2.231,0,0,0-.629,1.2,2.547,2.547,0,0,0,.2,1.511.854.854,0,0,1-.192.992,3.006,3.006,0,0,1-.674.459,4.162,4.162,0,0,1-1.519.477.838.838,0,0,1-.3-.011.89.89,0,0,1-.568-.556,3.329,3.329,0,0,0-.391-.684,2.3,2.3,0,0,0-1.441-.926,2.066,2.066,0,0,0-1.41.237,2.727,2.727,0,0,0-1.214,1.4.842.842,0,0,1-.757.549,1.871,1.871,0,0,1-.653-.074,5.831,5.831,0,0,1-1.073-.381,3.053,3.053,0,0,1-.942-.647.764.764,0,0,1-.233-.477.926.926,0,0,1,.082-.435,2.824,2.824,0,0,0,.279-.956,2.084,2.084,0,0,0-.249-1.207,1.818,1.818,0,0,0-.766-.775,2.308,2.308,0,0,0-.79-.187,3.546,3.546,0,0,0-1.342.16.921.921,0,0,1-.91-.2,1.72,1.72,0,0,1-.338-.456A4.74,4.74,0,0,1,418.2,1099.049Zm10.449-8.434a4.914,4.914,0,1,0,4.923,4.908A4.914,4.914,0,0,0,428.646,1090.615Z" transform="translate(-418.197 -1085.063)" fill="#ff9833"/>
</svg>
