<svg xmlns="http://www.w3.org/2000/svg" width="200" height="200" viewBox="0 0 200 200">
  <g id="img-leo_h" transform="translate(-2430 1902)">
    <rect id="Rectangle_8" data-name="Rectangle 8" width="200" height="200" transform="translate(2430 -1902)" fill="rgba(217,217,217,0)"/>
    <g id="Group_6" data-name="Group 6" transform="translate(0 -11.275)">
      <path id="Path_7" data-name="Path 7" d="M743.124-1842.4c3.658,4.292,7.531,8.422,10.923,12.914,4.9,6.481,2.955,17.934-3.585,22.864-.786.592-1.665,1.061-2.958,1.875,1.88,7.18-1.1,12.03-7.491,14.579l-16.074-4.329c-5.02,8.86-10.98,16.393-20.814,21.94.051-12.819-9.926-14.217-17.882-17.883-10.053-4.633-18.842-10.636-23.144-21.472-8.1-20.411-1.3-51.905,24.562-61.422,13.795-5.077,27.583-5.18,39.465,5.108a120.854,120.854,0,0,1,14.994,15.645c1.909,2.376,1.983,6.224,2.891,9.4Zm-5.176.411,1.585-.664c-.8-2.857-.686-6.9-2.568-8.335a43.792,43.792,0,0,1-11.417-12.233,15.273,15.273,0,0,0-4.382-4.017c-10.863-7.717-30.432-6.415-42.252,2.738-13.372,10.354-19.391,30.974-14.231,47.892,3.019,9.9,9.672,16.14,18.93,20.127a15.793,15.793,0,0,0-2.007-4.388c-7.238-12.4-9.276-25.516-4.961-39.319.737-2.358.806-6.268,5.976-5.367-10.171,27.4-1.438,47.59,23.106,61.733,4.609-7.849,3.635-14.014-3.171-20.5-13.664-13.022-15.322-28.015-4.279-40.6,2.5-2.849,5.641-5.136,8.49-7.678.946-.843,1.9-1.67,3.364-2.949-10.356-5.993-11.863,2.306-14.347,8.556-2.773-3.311-2.971-5.734-1.192-8.973a11.026,11.026,0,0,1,12.308-5.549c4.36.934,7.5,3.27,8.138,8.388-2.7,1.776-5.416,3.368-7.92,5.243-14.086,10.547-16.184,25.616-4.444,37.722,6.521,6.725,11.41,13.36,9.424,23.2-.037.186.389.464.918,1.058,7.078-6.445,8.549-14.881,7.639-24.707,6.454,3.306,3.046,8.467,5.347,12.359,1.962.461,4.362.979,6.737,1.6s4.726,1.34,7.173,2.041l4.283-3.9c-.521-2.969-.992-5.66-1.447-8.256a21.533,21.533,0,0,1,1.978-1.429c9.3-4.993,10.959-13.556,4.086-21.525C745.245-1833.856,741.573-1837.9,737.948-1841.985Z" transform="translate(1826.757 33.968)" fill="#f93" stroke="rgba(0,0,0,0)" stroke-width="1"/>
      <path id="Path_21" data-name="Path 21" d="M722.166-1838.63l9.434-3.792c3.307,5.058,3,8.4-1.056,12.813-.775-1.944-1.459-3.657-2.224-5.574l-5.845-1.947Z" transform="translate(1826.757 33.968)" fill="#f93" stroke="rgba(0,0,0,0)" stroke-width="1"/>
    </g>
  </g>
</svg>
