<svg xmlns="http://www.w3.org/2000/svg" width="200" height="200" viewBox="0 0 200 200">
  <g id="img-capricorn" transform="translate(-1909 1902)">
    <rect id="Rectangle_6" data-name="Rectangle 6" width="200" height="200" transform="translate(1909 -1902)" fill="rgba(217,217,217,0)"/>
    <g id="Group_4" data-name="Group 4" transform="translate(0 -2.228)">
      <path id="Path_9" data-name="Path 9" d="M209.965-1785.338c2.253-7.326,7.822-13.955,2.177-19.947-3.151-3.344-8.913-4.233-14.817-6.8-.865,5.662-1.719,9.633-2.02,13.644-.36,4.782-2.445,7.477-7.406,7.483-10.623.012-21.271.442-31.86-.154-8.6-.483-11.149-4.486-7.929-12.256,3.292-7.943,7.629-15.454,11.521-23.148.717-1.416,1.5-2.8,2.477-4.628-5.107-1.641-9.76-2.755-14.078-4.634-4.215-1.834-8.079-4.46-9.957-9.684,5.926-.313,11.489-.03,16.8-1.051,5.271-1.013,10.29-3.34,16.243-5.372,1.2-5.336-.349-10.7-4.371-15.287-6.211-7.083-14.575-10.185-23.558-11.806-3.539-.639-7.167-.783-10.754-1.152l-.38-1.319c1.089-.674,2.1-1.7,3.281-1.968,13.715-3.121,27.382-3.517,40.795,1.455,11.417,4.232,19.316,12.046,23.495,23.558a11.9,11.9,0,0,0,2.36,4.241c9.111,9.341,18.35,18.559,27.5,27.862,2.432,2.473,2.964,5.212,1.571,8.654-2.726,6.732-4.951,13.665-7.532,20.459C221.279-1791.278,216.952-1787.659,209.965-1785.338Zm9.592-14.147c2.177-5.612,4.052-11.367,6.628-16.79,2-4.216,1.106-7.061-2.1-10.107-4.573-4.341-8.708-9.14-13.182-13.591-3.7-3.682-7.647-7.114-11.422-10.723-1.037-.991-2.337-2.084-2.689-3.358-5.112-18.505-18.729-25.537-36.4-27.158-2.663-.244-5.347-.267-8.021-.392q-.415.758-.83,1.515c16.855,4.912,26.81,14.326,23.206,32.383l-24.87,6.677-.066,2.142,19.2,4.466c-6.689,12.534-15.767,23.41-18.56,37.888,13.971,3.741,26.953,3.041,39.493,1.127a14.614,14.614,0,0,0,1.093-2.454c.421-3.128.792-6.262,1.169-9.4.723-5.992,2.944-7.878,9-6.928C209.969-1812.809,218.125-1810.457,219.557-1799.485Z" transform="translate(1826.757 33.968)" fill="#574c45"/>
      <path id="Path_23" data-name="Path 23" d="M193.482-1841.405c6.191-.791,9.732,2.031,10.515,8.084C196.948-1832.871,193.055-1835.74,193.482-1841.405Z" transform="translate(1826.757 33.968)" fill="#574c45"/>
      <path id="Path_24" data-name="Path 24" d="M163.025-1801.231c-3.761-4.346-.531-13.2,5.815-15.676C166.742-1811.253,165.034-1806.648,163.025-1801.231Z" transform="translate(1826.757 33.968)" fill="#574c45"/>
    </g>
  </g>
</svg>
