<svg xmlns="http://www.w3.org/2000/svg" width="200" height="200" viewBox="0 0 200 200">
  <g id="img-sagittarius" transform="translate(-1649 1606)">
    <rect id="Rectangle_11" data-name="Rectangle 11" width="200" height="200" transform="translate(1649 -1606)" fill="rgba(217,217,217,0)"/>
    <g id="Group_10" data-name="Group 10" transform="translate(18 -3)">
      <path id="Path_2" data-name="Path 2" d="M-119.767-1514.478c-4.528-15.689-8.8-30.481-12.994-45.027-8.1-6.157-8.853-8.358-4.426-13.582l5.68,1.409c22.582-14.733,43.189-7.549,64.323,7.587l3.572-4.027-7.109-8.116,25.382-9.573,1.481,1.489c-3.022,8.174-6.043,16.348-9.374,25.359l-8.454-7.152-3.488,4.19c14.392,20.263,21.726,40.668,7.314,63.661.268.866.609,1.952.939,3.042.325,1.074.638,2.151.92,3.1-5.726,4.81-8.966,3.726-13.725-4.683l-45.608-13.219c-.338,11.519-9.1,16.65-15.731,23.418l-1.49-.4c.332-3.554.665-7.108,1.051-11.232l-11.191,1.177-.535-1.313C-136.776-1505.437-131.261-1513.7-119.767-1514.478Zm-9.129-46.463c4.126,14.309,8.276,28.7,12.234,42.431l35.317-34.434c-7.954-7.3-16.87-13.029-27.947-14.8C-116.57-1568.907-123.232-1567.962-128.9-1560.941Zm52.313,13.4-34.849,34.421,42.444,12.205C-56.553-1510.654-61.544-1536.53-76.583-1547.54Zm19.3,37.359c8.113-13.452-.021-39.658-15.5-52.618-14.88-12.461-38.841-16.523-47.849-9.013,18.413-2.108,32.144,6.108,44.075,17.85C-64.457-1542.059-56.078-1528.22-57.282-1510.181Zm.983-56.231,2.06-1.155q1.758-5.139,3.515-10.28l-1.127-1.048-10.89,3.813Zm-69.744,67.89,2.08.649,4.8-11.263c-7.453-.52-9.978.733-12.107,5.45l4.4.766C-126.568-1501.317-126.305-1499.92-126.043-1498.522Zm62.926.66-1.548.725,1.987,3.308,1.227-.7Zm-69.712-67.529c.247-.589.36-.857.61-1.456l-2.34-.529-.288.71Zm73.891,59.458-.158.254.233.043Z" transform="translate(1826.757 33.968)" fill="#574c45"/>
    </g>
  </g>
</svg>
