<svg xmlns="http://www.w3.org/2000/svg" width="200" height="200" viewBox="0 0 200 200">
  <g id="img-libra_h" transform="translate(-1094 1606)">
    <rect id="Rectangle_9" data-name="Rectangle 9" width="200" height="200" transform="translate(1094 -1606)" fill="rgba(217,217,217,0)"/>
    <g id="Group_12" data-name="Group 12" transform="translate(-20 -11)">
      <path id="Path_1" data-name="Path 1" d="M-649.267-1546.766c-12.56-4.551-12.56-4.551-13.851-10.437a13.431,13.431,0,0,1,2.8.365c5.477,1.981,10.381.458,15.314-2.032,7.663-3.868,15.461-7.467,24.205-11.662.729-4.211,2.462-9.53,9.548-9.579,4.481-.031,7.074,3.308,8.582,9.52,9.792,4.715,18.826,9.617,28.315,13.369,3.993,1.578,8.95.723,13.84.995-.6,7.113-7.218,7.236-13.073,9.249,3.16,8.25,6.22,16.245,9.284,24.238.594,1.551,1.127,3.132,1.818,4.639,2.819,6.149,2.316,9.8-2.049,14.281a15.062,15.062,0,0,1-16.519,3.7c-5.439-2.132-10.3-7.984-10.1-12.535.062-1.4.942-2.774,1.481-4.146q5.743-14.6,11.477-29.2a9.642,9.642,0,0,0,.161-2.412l-23.9-9.406c-1.3,4.334-2.935,7.352-2.982,10.4-.216,13.965-.023,27.938.1,41.907.058,6.77,2.87,11.686,9.408,14.473,2.208.941,3.855,3.193,6.236,5.261-5.808,7.938-13.653,6.345-20.47,6.232-8.1-.133-17.254,2.5-24.786-6.223,2.851-2.23,4.835-4.51,7.338-5.6,5.831-2.529,8.423-7.085,8.536-12.928q.426-21.946.133-43.9c-.032-2.637-1.546-5.255-2.373-7.875-9.7-1.17-15.876,5.969-25.116,7.36,4.842,12.333,9.357,23.832,14.128,35.986a15.845,15.845,0,0,1-13.046,13.518,15.105,15.105,0,0,1-16.092-8.408,12.8,12.8,0,0,1-.228-8.735C-657.5-1526.6-653.28-1536.64-649.267-1546.766Zm42.105-27.094-1.748-1.82c-2.023.466-5.656.673-5.779,1.443-.451,2.805.271,5.8.634,9.577-10.826-1.486-20.133,3.672-28.884,10.284,4.438-1.14,8.56-3.1,12.831-4.663,10.063-3.67,14.154-1.155,15.869,9.5a9.206,9.206,0,0,1,.147,1.488c-.035,14.3.167,28.607-.221,42.9-.209,7.731-3.234,14.237-11.151,17.367-.915.362-1.585,1.346-2.479,2.14,5.185,3.033,28.783,2.723,32.568-.358a11.421,11.421,0,0,0-2.284-1.751c-6.648-2.778-10.61-7.853-10.849-14.872-.531-15.6-1.91-31.373-.23-46.78,1.449-13.283,6.133-12.905,15.894-9.48,2.189.768,4.275,1.83,6.427,2.71,2.114.864,4.253,1.668,6.38,2.5l.568-1.357c-4.811-2.517-9.414-5.637-14.491-7.381-5.178-1.779-10.821-2.206-15.917-3.161C-608.946-1568.42-608.054-1571.14-607.162-1573.86ZM-646.4-1538.5h-1.842c-2.727,7.238-5.455,14.475-8.381,22.243h18.928C-640.828-1524.268-643.613-1531.385-646.4-1538.5Zm71.45-.454-1.476-.055c-2.868,7.5-5.737,15.007-8.721,22.815h18.992Zm-82.5,27.625c1.131,5.135,4.5,7.788,9.556,7.958,5.974.2,9.438-2.218,10.971-7.958Zm71.646.034c1.536,5.714,4.938,8.1,10.69,7.912,5.179-.171,8.379-2.759,9.375-7.912Z" transform="translate(1826.757 33.968)" fill="#f93" stroke="rgba(0,0,0,0)" stroke-width="1"/>
    </g>
  </g>
</svg>
