<svg xmlns="http://www.w3.org/2000/svg" xmlns:xlink="http://www.w3.org/1999/xlink" width="290" height="140" viewBox="0 0 290 140">
  <defs>
    <clipPath id="clip-path">
      <rect id="矩形_3211" data-name="矩形 3211" width="290" height="140" transform="translate(832 14)" fill="#fff" stroke="#707070" stroke-width="1"/>
    </clipPath>
    <linearGradient id="linear-gradient" x1="1" y1="0.5" x2="0.137" y2="0.772" gradientUnits="objectBoundingBox">
      <stop offset="0" stop-color="#ff9e6b"/>
      <stop offset="0.105" stop-color="#fe8d00"/>
      <stop offset="0.34" stop-color="#ffbb87"/>
      <stop offset="1" stop-color="#fff"/>
    </linearGradient>
    <clipPath id="clip-path-2">
      <rect id="矩形_4" data-name="矩形 4" width="242" height="90" transform="translate(45 176)" fill="#d2d2d2"/>
    </clipPath>
  </defs>
  <g id="logo_header" transform="translate(-832 -14)" clip-path="url(#clip-path)">
    <g id="logo" transform="translate(759)">
      <g id="组_16311" data-name="组 16311" transform="translate(169 -34)">
        <circle id="椭圆_166" data-name="椭圆 166" cx="94" cy="94" r="94" fill="#fff"/>
        <circle id="椭圆_164" data-name="椭圆 164" cx="94" cy="94" r="94" opacity="0.43" fill="url(#linear-gradient)"/>
      </g>
      <g id="蒙版组_1" data-name="蒙版组 1" transform="translate(35 -141)" clip-path="url(#clip-path-2)">
        <g id="PayNow_交易流程" transform="translate(39 159.688)">
          <path id="联合_6" data-name="联合 6" d="M17.851,62.907A167.125,167.125,0,0,1,9.626,46.139H9.345c.351,6.339.491,13.035.491,20.781V67.2H0V7.952L12.506,33.744l17.57,33.669S23.9,50.4,33.367,34.886c-5.914-2.083-9.847-5.782-9.847-10,0-6.509,9.373-11.787,20.937-11.787S65.4,18.379,65.4,24.888c0,2.589-1.483,4.983-4,6.927a33.5,33.5,0,0,1,7.791-.886,31.014,31.014,0,0,1,17.367,5.019l-1.4-4.815H96.045l2.812,14.161c.633,3.523,1.335,7.329,1.9,11.271h.21c.633-3.873,1.687-7.818,2.46-11.2l3.653-14.231h8.434l3.444,13.738c.982,3.946,1.9,7.752,2.528,11.694h.14c.492-3.873,1.2-7.818,2.039-11.762l2.881-13.67h10.47L126.476,65.581h-9.981L113.26,53.539a103.231,103.231,0,0,1-2.246-10.78h-.142a91.439,91.439,0,0,1-2.179,10.706L105.25,65.581H95.2L93.894,61.1a21.321,21.321,0,0,1-6.713,7.133A30.565,30.565,0,0,1,69.19,73.8a30.94,30.94,0,0,1-18.064-5.49Q42.237,62.08,42.24,52.363q0-9.792,8.885-15.944.376-.26.756-.508a35.682,35.682,0,0,1-7.425.762q-.764,0-1.515-.03c-11.829,17.25.094,44.582.094,44.582L31.942,88.11ZM53.475,38.884q-7.934,5.184-7.932,13.479t7.932,13.474A28.132,28.132,0,0,0,69.19,70.43,27.551,27.551,0,0,0,84.83,65.837Q91,61.8,92.373,55.884L88.2,41.567a21.623,21.623,0,0,0-3.366-2.683,27.58,27.58,0,0,0-15.641-4.59A27.921,27.921,0,0,0,53.475,38.884Zm85.774,33.832V67.647l-1.758,5.068h-.72l-1.749-5.151v5.151h-.773V66.661h1.2l1.432,4.289c.133.4.227.7.289.9.071-.22.178-.545.322-.971l1.452-4.214h1.073v6.054Zm-8.59,0v-5.34H128.67v-.715h4.792v.715h-2v5.34ZM67.788,53.193a8.908,8.908,0,0,1-1.553-5.106,9.511,9.511,0,0,1,.585-3.255H65.19l.372-1.984,4.737.964L69.858,45.6,68.164,45.3a8.736,8.736,0,0,0-.443,2.749q0,5.273,4.659,6.984a6.657,6.657,0,0,0,2.369.445,7.044,7.044,0,0,0,4.361-1.449,7.892,7.892,0,0,0,2.737-3.753L80.367,49.9l.6-1.633,4.956,1.038L84.735,51.46l-1.48-.67a9.72,9.72,0,0,1-3.33,4.466,8.456,8.456,0,0,1-5.181,1.712A7.814,7.814,0,0,1,67.788,53.193Zm12.289-8.08a3.108,3.108,0,0,1-.965-2.343,3.3,3.3,0,0,1,3.341-3.344,3.087,3.087,0,0,1,2.336.964,3.308,3.308,0,0,1,.929,2.379,3.3,3.3,0,0,1-3.265,3.276A3.279,3.279,0,0,1,80.077,45.113Zm-9.628-2.464a3.228,3.228,0,0,1-.967-2.379,3.114,3.114,0,0,1,.967-2.344A3.286,3.286,0,0,1,72.823,37a3.082,3.082,0,0,1,2.333.964,3.293,3.293,0,0,1,.929,2.378,3.3,3.3,0,0,1-3.262,3.275A3.218,3.218,0,0,1,70.449,42.649Zm1.734-15.287a2.844,2.844,0,0,1-.591-2.042V22.49h-.913V20.91h.913v-1.3l2.094-.579V20.91H75.22v1.58H73.686V25c0,.832.212,1.212.844,1.212a2.63,2.63,0,0,0,.635-.056l.011,1.622a4.46,4.46,0,0,1-1.374.184A2.26,2.26,0,0,1,72.183,27.362Zm-3.459.594a1.274,1.274,0,1,1,.012,0Zm13.3-.154-.646-2.411a20.011,20.011,0,0,1-.45-2.154H80.9a18.387,18.387,0,0,1-.436,2.141l-.69,2.424h-2.01L75.75,20.908h2.18l.565,2.832c.124.706.265,1.467.379,2.256h.042c.128-.776.338-1.563.495-2.24l.728-2.848h1.689l.688,2.75c.2.789.379,1.55.507,2.338h.029c.1-.776.237-1.563.406-2.354l.576-2.734h2.092L84.02,27.8ZM41.752.03,47.981,0,44.9,7.691Z" transform="translate(107.485 17.313)" fill="#ef7e00"/>
          <path id="联合_5" data-name="联合 5" d="M65.452,54.314a16.865,16.865,0,0,0,4.635-1.834,12.288,12.288,0,0,0,4.427-4.3,2.981,2.981,0,0,0,.565-1.548,4.617,4.617,0,0,0-.424-1.76L62.008,13.384H73.883l5.129,16.911c.565,2.04,1.264,4.575,1.688,6.409h.211c.491-1.834,1.054-4.438,1.546-6.409l4.217-16.911H98.128L90.117,36.068C85.2,49.735,81.894,55.16,78.028,58.611A18.743,18.743,0,0,1,67.7,63.333ZM32.657,38.041c0-8.948,8.011-13.174,20.17-13.174v-.421c0-1.833-.987-4.438-6.257-4.438a20.078,20.078,0,0,0-9.487,2.535l-1.97-6.832a28.2,28.2,0,0,1,13.354-3.1c11.457,0,15.039,6.765,15.039,14.865V39.52a44.724,44.724,0,0,0,.563,8.314H54.44l-.632-3.453H53.6a12.377,12.377,0,0,1-9.84,4.226C36.8,48.607,32.657,43.537,32.657,38.041ZM43.2,36.984c0,2.747,1.827,4.087,4.217,4.087a5.9,5.9,0,0,0,5.549-3.944,7.628,7.628,0,0,0,.212-1.834V31.561C47.557,31.561,43.2,32.9,43.2,36.984ZM0,47.835V.987A87.419,87.419,0,0,1,14.476,0c6.607,0,11.386,1.268,14.546,3.876a13.588,13.588,0,0,1,4.988,10.919c0,4.72-1.474,8.665-4.286,11.27-3.651,3.381-9.134,5-15.458,5a18.209,18.209,0,0,1-3.653-.282v17.05ZM10.613,8.523v14.02a16.251,16.251,0,0,0,3.583.281c5.692,0,9.206-2.886,9.206-7.682,0-4.364-2.952-6.971-8.363-6.971A19.274,19.274,0,0,0,10.613,8.523Z" transform="translate(6 37.715)" fill="#fff"/>
          <path id="Fill-16" d="M106.627,44.6c0,10.63,11.451,19.247,25.575,19.247h0c14.128,0,25.576-8.618,25.576-19.247h0c0-10.63-11.448-19.247-25.576-19.247h0c-14.124,0-25.575,8.618-25.575,19.247" transform="translate(44.463 24.674)" fill="none" fill-rule="evenodd"/>
          <path id="联合_2" data-name="联合 2" d="M9.895,7.2A3.372,3.372,0,0,1,6.338,3.653,3.442,3.442,0,0,1,10.022,0a3.347,3.347,0,0,1,3.5,3.539A3.447,3.447,0,0,1,9.911,7.2ZM8.531,3.611c0,1.169.494,2.058,1.393,2.058h.014c.843,0,1.365-.832,1.365-2.072,0-1.014-.393-2.057-1.365-2.057C8.926,1.539,8.531,2.582,8.531,3.611ZM0,3.668A3.588,3.588,0,0,1,3.934,0,5,5,0,0,1,5.565.268L5.228,1.863a2.917,2.917,0,0,0-1.195-.212A1.782,1.782,0,0,0,2.191,3.582,1.8,1.8,0,0,0,4.074,5.528,3.041,3.041,0,0,0,5.3,5.3L5.55,6.88A4.864,4.864,0,0,1,3.638,7.2,3.347,3.347,0,0,1,0,3.668ZM23.165,7.049V3.314c0-1-.321-1.577-1.009-1.577a1.069,1.069,0,0,0-1,.746,2.229,2.229,0,0,0-.068.534V7.049H19.006V3.189c0-.862-.309-1.452-1-1.452a1.091,1.091,0,0,0-1,.759,1.494,1.494,0,0,0-.088.55v4H14.845V2.355c0-.859-.028-1.578-.057-2.2H16.6l.086.944h.043A2.372,2.372,0,0,1,18.809,0a1.947,1.947,0,0,1,1.885,1.185h.028a2.989,2.989,0,0,1,.9-.846A2.614,2.614,0,0,1,22.928,0c1.323,0,2.32.932,2.32,2.987V7.049Z" transform="translate(139.117 38.065)" fill="#fff"/>
        </g>
      </g>
    </g>
  </g>
</svg>
