<svg xmlns="http://www.w3.org/2000/svg" xmlns:xlink="http://www.w3.org/1999/xlink" width="1920" height="1080" viewBox="0 0 1920 1080">
  <defs>
    <linearGradient id="linear-gradient" x1="1" x2="0" y2="1" gradientUnits="objectBoundingBox">
      <stop offset="0" stop-color="#ffbf47"/>
      <stop offset="0.146" stop-color="#fdb547"/>
      <stop offset="0.509" stop-color="#fb911a"/>
      <stop offset="0.844" stop-color="#fe8220"/>
      <stop offset="1" stop-color="#fd831a"/>
    </linearGradient>
  </defs>
  <g id="bg_contact" transform="translate(134 -8491)">
    <rect id="矩形_3286" data-name="矩形 3286" width="1920" height="1080" transform="translate(-134 8491)" fill="url(#linear-gradient)"/>
    <path id="路径_262" data-name="路径 262" d="M333.1,693.073c48.765,6.271,97.95,7.209,147.021,9.09,22.5.862,44.556-.175,65.326,7.894,19.449,7.558,34.977,22.727,55.044,29.23,15.574,5.044,32.375,4.867,48.641,3.017,68.8-7.828,133.571-46.144,173.563-102.675,36.627-51.773,51.92-118.02,42.327-180.655-5.82-37.99-23.3-73.419-27.493-111.7-4.43-40.467,11.027-75.747,20.793-114.229a293.124,293.124,0,0,0,8.808-82.307c-.565-15.941-2.568-32.278-10.109-46.334C836.538,66.23,784.886,59.026,741.774,63.33a403.484,403.484,0,0,0-153.552,47.713c-37.07,20.469-73.786,50.264-116.329,58.342-47.971,9.107-85.076-23.767-128.248-38.761C246.507,96.886,129.227,163.159,86.4,251.3c-52.863,108.814-46.845,286.821,52.1,367.575,53.922,44.007,123.406,64.807,192.41,73.909Q332.009,692.934,333.1,693.073Z" transform="translate(365.591 8582.163)" fill="#ffbf47" opacity="0.6"/>
    <g id="组_17749" data-name="组 17749" transform="translate(55.777 8864.327)">
      <path id="路径_140" data-name="路径 140" d="M89.565,125.906a6.455,6.455,0,0,0-2.129,7.858c2.129,4.912,11.461,19.482,24.067,18.99.516-.02-15.881-26.848-15.881-26.848Z" transform="translate(33.915 -16.751)" fill="#f97a5d"/>
      <g id="组_17707" data-name="组 17707" transform="translate(0 0)">
        <g id="组_17705" data-name="组 17705" transform="translate(43.266 365.897)">
          <path id="路径_141" data-name="路径 141" d="M109.34,265.1s-15.764-14.084-20.811-11.562c-6.166,3.083-41.46,37.661-40.079,53.954.565,6.67,8.334.954,22.174-13.4s31.274-8.2,31.274-8.2Z" transform="translate(-48.41 -253.236)" fill="#6e5395"/>
        </g>
        <g id="组_17706" data-name="组 17706" transform="translate(81.027 390.093)">
          <path id="路径_142" data-name="路径 142" d="M128.607,276.651l-19.032-11.415s-49.328,46.245-41.62,52.411c5.845,4.676,9.279.482,23.122-13.875s31.379-6.1,31.379-6.1Z" transform="translate(-67.137 -265.236)" fill="#6e5395"/>
        </g>
        <path id="路径_143" data-name="路径 143" d="M193.407,195.443l3.569,50.675L117.757,225.48Z" transform="translate(65.337 53.923)" fill="#e0a584"/>
        <path id="路径_144" data-name="路径 144" d="M122.9,211.2s69.294,4.365,78.521,1.288c0,0,13.544,133.033-10.554,147.385s-78.172-6.664-78.172-6.664l14.6-28.707,31.479-2.053V271.189l-2.256.512Z" transform="translate(60.193 69.942)" fill="#1d262d"/>
        <path id="路径_145" data-name="路径 145" d="M81.188,301.948s-17.429,7.178-11.79,24.61c0,0,59.495,46.652,88.445,35.885,16.22-6.031,33.643-52.048,45.832-91.361l42.894-58.589s-20.23,1.012-26.979.986c-12.9-.048-51.542-2.274-51.542-2.274s-20.184,105.613-27.376,108.173S81.188,301.948,81.188,301.948Z" transform="translate(15.045 69.942)" fill="#2c373f"/>
        <path id="路径_146" data-name="路径 146" d="M125.766,220.457s41.529-38.964,48.705-49.219,22.559-44.6,41.525-58.958L206.769,92.8s5.64-3.075,9.227,5.126c0,0,13.328-26.658,16.405-26.146s-6.15,20.506-6.15,20.506,12.82-18.456,16.407-17.942-9.231,20.748-9.231,20.748,14.354-16.647,16.407-14.6-11.279,14.6-11.279,14.6,14.352-8.241,15.891-5.525-14.352,9.9-14.352,9.9-1.538,11.792-11.277,16.917c0,0-19.286,52.1-36.718,69.024l-56,58.2Z" transform="translate(73.477 -71.771)" fill="#ffc5b1"/>
        <path id="路径_147" data-name="路径 147" d="M176.621,155.526s-39.347,41.162-49.669,48.241-44.809,22.142-59.341,40.974l-19.4-9.412s-3.127,5.611,5.043,9.275c0,0-26.783,13.08-26.3,16.163s20.563-5.96,20.563-5.96-18.577,12.647-18.1,16.236,20.833-9.033,20.833-9.033-16.778,14.2-14.748,16.266,14.7-11.14,14.7-11.14-8.374,14.278-5.67,15.84,10.027-14.262,10.027-14.262,11.8-1.424,17.024-11.118c0,0,49.354-19.637,66.437-36.909l61.418-43.519Z" transform="translate(-26.953 13.353)" fill="#ffc5b1"/>
        <path id="路径_148" data-name="路径 148" d="M118.527,154.081l-19.9,19.48,5.047,21.964S123.28,242.6,126.244,254.08c4.607,17.857-2.845,45.082-2.845,45.082s33.24-2.758,63.485-3.783,40.138-10.769,40.138-10.769S200.8,197.271,182.7,172.859,158,140.807,158,140.807l-26.658,5.827Z" transform="translate(45.893 -1.607)" fill="#fff"/>
        <path id="路径_149" data-name="路径 149" d="M152.8,177.547,173.537,164.3s3.168-14.2-21.839-30.937l-29.326,18.373Z" transform="translate(70.027 -9.175)" fill="#fff"/>
        <path id="路径_150" data-name="路径 150" d="M118.076,156.5c-11.368,1.595-32.143,30.407-34.46,30.35,0,0,14.621,23.86,26.2,24.634C109.819,211.481,160.786,150.506,118.076,156.5Z" transform="translate(30.637 13.919)" fill="#fff"/>
        <path id="路径_151" data-name="路径 151" d="M152.507,179.581s-16.524-12.344-15.951-17.268c.145-1.24,2.436-3.252,3.031-5.039,3.2-9.61-12.243-34.379-21.734-39.6-7.467-4.107-4.194-4.47-19.907,4.867s-6.761,25.487.256,33.836c6.634,7.894,14.231,11.277,21.067,11.846l9.719,21.587Z" transform="translate(36.335 -27.914)" fill="#ffc5b1"/>
        <path id="路径_152" data-name="路径 152" d="M106.242,167.372c-3.125-7.666,2.793-17.323,13.219-21.575s21.414-1.49,24.545,6.174-7.37,19.186-13.227,21.575S109.365,175.034,106.242,167.372Z" transform="translate(52.784 1.434)" fill="#ffc5b1"/>
      </g>
      <path id="路径_153" data-name="路径 153" d="M96.689,135.487s-5.359-.3-5.954,3.277,9.826,3.573,13.7.893Z" transform="translate(37.847 -7.02)" fill="#ffc5b1"/>
      <path id="路径_154" data-name="路径 154" d="M106.061,167.6c-1.018-6.454-7.894-11.253-7.553-17.542,3.3.024,5.416-4.059,3.914-7.547-.589-1.371-1.591-2.547-2.228-3.9s-.807-3.123.171-3.886a3.228,3.228,0,0,1,1.69-.486c4.89-.5,13.262.964,17.76-.7,4.285-1.587,8.872-4.676,8.426-9.922-.389-4.567-4.424-8.273-8.128-11.07-2.125-1.605-8.192-5.8-10.479-5.422-3.5.583-4.341,5.243-4.6,9.146a6.068,6.068,0,0,0-8.174-.062c-2.125,1.893-3.129,4.9-4.057,7.807s-1.907,5.92-4,7.85c-1.956,1.8-5.047,3.162-4.642,6.22.482,3.646,5.245,4.942,7.446,8.049-.54-.762-1,4.105-.69,4.932.94,2.486,3.285,4.129,4.98,6.033C99.512,161.157,101.278,165.236,106.061,167.6Z" transform="translate(31.155 -35.86)" fill="#f97a5d"/>
      <path id="路径_155" data-name="路径 155" d="M116.008,129.789,103.8,136.1S118.464,146.751,116.008,129.789Z" transform="translate(51.148 -12.805)" fill="#fff"/>
      <path id="路径_156" data-name="路径 156" d="M105.068,131.594c.665,1.266-.323,3.1-2.208,4.089s-3.954.77-4.619-.5.321-3.1,2.206-4.089S104.4,130.327,105.068,131.594Z" transform="translate(45.29 -12.105)" fill="#f4b19f"/>
      <path id="路径_157" data-name="路径 157" d="M113.91,125.553c.667,1.266-.321,3.1-2.206,4.089s-3.954.77-4.621-.494.323-3.1,2.208-4.091S113.245,124.286,113.91,125.553Z" transform="translate(54.277 -18.245)" fill="#f4b19f"/>
      <g id="组_17708" data-name="组 17708" transform="translate(150.557 106.34)">
        <path id="路径_158" data-name="路径 158" d="M109.695,134.707c-.056-.071.171-.371.7-.752a13.125,13.125,0,0,0,2.03-1.51c.645-.682.877-2.1-.109-2.3-1.028-.349-2.192.829-3.529,1.948l-.982.815a2.18,2.18,0,0,1-1.6.6,3.612,3.612,0,0,1-2.28-1.607,11.128,11.128,0,0,1-1.9-3.668c-.655-2.274-.361-3.742-.2-3.728.22-.012.294,1.4,1.127,3.4a12.171,12.171,0,0,0,1.96,3.19c.444.54,1.006,1.044,1.4,1.061.169.008.3-.048.615-.313s.641-.54.97-.815c.671-.544,1.256-1.095,2.024-1.607a3.259,3.259,0,0,1,2.77-.5,2.1,2.1,0,0,1,1.442,2.285,3.2,3.2,0,0,1-1.01,1.918,8.053,8.053,0,0,1-2.472,1.3C110.074,134.648,109.757,134.785,109.695,134.707Z" transform="translate(-101.621 -124.51)" fill="#f97a5d"/>
      </g>
      <path id="路径_159" data-name="路径 159" d="M104.123,142.648s7.789.044,12.017-2.557a18.143,18.143,0,0,1-10.731,5.529Z" transform="translate(51.48 -2.334)" fill="#eda091"/>
      <g id="组_17709" data-name="组 17709" transform="translate(154.241 104.81)">
        <path id="路径_160" data-name="路径 160" d="M108.187,124.325c-.071.385-1.159.5-2.311,1.012-1.165.472-2.008,1.169-2.335.954-.333-.177.218-1.567,1.795-2.23S108.291,123.962,108.187,124.325Z" transform="translate(-103.448 -123.751)" fill="#2c373f"/>
      </g>
      <g id="组_17710" data-name="组 17710" transform="translate(143.63 111.195)">
        <path id="路径_161" data-name="路径 161" d="M98.271,131.118c-.292-.218.167-1.472,1.288-2.726,1.135-1.282,2.585-1.71,2.738-1.353s-.722,1.163-1.718,2.291S98.59,131.358,98.271,131.118Z" transform="translate(-98.185 -126.918)" fill="#2c373f"/>
      </g>
      <g id="组_17711" data-name="组 17711" transform="translate(137.283 106.189)">
        <path id="路径_162" data-name="路径 162" d="M95.555,131.708c-.631-.47-1.125-2.47,1.29-5.168,2.44-2.758,5.164-2.274,5.491-1.506.349.752-.557,1.823-2.7,4.246C97.468,131.7,96.238,132.22,95.555,131.708Z" transform="translate(-95.037 -124.435)" fill="#f97a5d"/>
      </g>
      <g id="组_17712" data-name="组 17712" transform="translate(150.517 98.401)">
        <path id="路径_163" data-name="路径 163" d="M101.706,125.005c-.349-.653.036-2.553,3.176-3.879,3.186-1.369,5.311.141,5.281.925-.006.78-1.208,1.327-4,2.533C103.337,125.767,102.081,125.717,101.706,125.005Z" transform="translate(-101.601 -120.573)" fill="#f97a5d"/>
      </g>
    </g>
    <g id="组_17750" data-name="组 17750" transform="translate(1352.203 8901.551)">
      <g id="组_17714" data-name="组 17714" transform="translate(138.575 146.132)">
        <path id="路径_164" data-name="路径 164" d="M465.857,132.163c.183.181-2.82,3.56-9.052,7.237a54.326,54.326,0,0,1-54.062.4c-6.285-3.586-9.339-6.921-9.158-7.1.259-.329,3.674,2.484,9.967,5.566a57.872,57.872,0,0,0,52.423-.387C462.219,134.7,465.594,131.837,465.857,132.163Z" transform="translate(-393.578 -132.138)" fill="#6e5395"/>
      </g>
      <g id="组_17715" data-name="组 17715" transform="translate(79.977 129.491)">
        <path id="路径_165" data-name="路径 165" d="M423.757,134.4c-.17.376-3.5-1.006-9.1-2.253a96.908,96.908,0,0,0-9.952-1.638c-3.787-.417-7.973-.75-12.393-1.065s-8.655-.666-12.5-1.144a80.841,80.841,0,0,1-10.144-1.886c-5.713-1.491-8.947-3.255-8.834-3.5.147-.378,3.549.784,9.206,1.8,2.824.537,6.228.954,10.02,1.333,3.8.347,8,.63,12.429.941s8.667.721,12.51,1.272a70.366,70.366,0,0,1,10.1,2.2C420.76,132.19,423.884,134.167,423.757,134.4Z" transform="translate(-360.835 -122.839)" fill="#6e5395"/>
      </g>
      <path id="路径_166" data-name="路径 166" d="M368.246,98.462c10.62-2.251,21.621-.313,32.33,1.471s21.827,3.393,32.3.521c18.9-5.188,33.252-24.286,52.852-24.132,8.071.063,15.681,3.51,23.545,5.333,9.764,2.266,19.937,2.021,29.828,3.638s20.112,5.593,25.7,13.913c6.633,9.874,4.812,23.8-2.148,33.449s-18.1,15.52-29.524,18.849c-7.966,2.321-16.452,3.665-23.346,8.284-6.972,4.671-11.525,12.193-18.024,17.506-16.3,13.329-41.67,9.51-58.509-3.135-4.231-3.178-8.154-6.863-12.905-9.19-19.334-9.462-47.14,3.066-63.791-14.154C339.645,133.33,342.054,104.017,368.246,98.462Z" transform="translate(-292.729 -30.081)" fill="#6e5395"/>
      <g id="组_17717" data-name="组 17717" transform="translate(0 0)">
        <g id="组_17716" data-name="组 17716">
          <path id="路径_167" data-name="路径 167" d="M355.378,281.653s17.716,37.968,19.786,30.938,1.383-23.919.274-26.329-8.356-13.061-8.356-13.061Z" transform="translate(-285.168 125.385)" fill="#f4b19f"/>
          <path id="路径_168" data-name="路径 168" d="M428.6,116.9c1.639,2.1.544-.157,2.4,2.872,7.713-.27,12.891-6.8,12.891-6.8s12.245.326,12.1-1.861-11.737-1.373-11.737-1.373,12.268-3.855,11.6-5.779-14.833,4.211-14.833,4.211S455.308,99.3,453.2,97.88s-15.862,6.325-15.862,6.325,11.951-9.816,10.16-11.083-18.364,11.511-18.364,11.511c.242-6.283-4.268-6.063-4.268-6.063l.186,15.346A27.272,27.272,0,0,1,428.6,116.9Z" transform="translate(-230.299 -16.884)" fill="#ffc5b1"/>
          <path id="路径_169" data-name="路径 169" d="M332.968,81.044c-2.622.481-.589-.43-3.989.608-5.586-5.324-4.845-13.7-4.845-13.7s-9.367-7.883-7.814-9.424S326.01,65.3,326.01,65.3s-6.613-11.026-4.834-12.019,8.3,13,8.3,13-4.8-16.121-2.276-15.785,7.662,15.257,7.662,15.257-2.418-15.271-.243-15.03,6.1,20.8,6.1,20.8c3.991-4.861,7.214-1.7,7.214-1.7L337.811,80.94A38.888,38.888,0,0,0,332.968,81.044Z" transform="translate(-316.147 -50.484)" fill="#ffc5b1"/>
          <path id="路径_170" data-name="路径 170" d="M369.122,103.4c-3.388-.555-11.579,4.889-15.677,13.762-2.294,4.965-3.873,10.01-1.238,18.088,1.238,3.8,3.835,4.274,4.413,5.976.732,2.155-1.693,8.948-1.693,8.948l9.671,3.9c.628-4.666,1.34-9.362,6.1-11.388a49.516,49.516,0,0,0,5.36-2.2c4.531-2.6,6.949-8.279,8.81-12.93C386.252,124.084,377.615,104.787,369.122,103.4Z" transform="translate(-288.755 -8.733)" fill="#ffc5b1"/>
          <path id="路径_171" data-name="路径 171" d="M382.9,179.931l-16.2-6.5s-48.077,89.157-47.879,113.894,66.031,74.26,66.031,74.26l11.1-9.6s-20.327-35.439-31.192-47.936S382.9,179.931,382.9,179.931Z" transform="translate(-314.039 46.6)" fill="#f4b19f"/>
          <path id="路径_172" data-name="路径 172" d="M404.011,242.175s35.705-16.941,28.531-18.437-23.955.564-26.265,1.867-12.34,9.385-12.34,9.385Z" transform="translate(-254.719 85.917)" fill="#ffc5b1"/>
          <path id="路径_173" data-name="路径 173" d="M382,176.63l-24.576,8.941s-24.583,108.122-15.2,125.1,35.738,5.745,73.274-14.743l31.441-17.163-10.493-6.985s-36.586,7.169-46.861,14.317c0,0,5.36-15.192,12.512-36.638S414.181,206.118,382,176.63Z" transform="translate(-297.236 49.128)" fill="#ffc5b1"/>
          <path id="路径_174" data-name="路径 174" d="M346.611,140.933c0-7.184,2.312-12.381,9.5-12.381s17.113,2.52,17.113,9.705-5.661,18.854-12.846,18.854S346.611,148.12,346.611,140.933Z" transform="translate(-292.091 11.163)" fill="#ffc5b1"/>
          <path id="路径_175" data-name="路径 175" d="M371.467,176.5s-22.34-24.176-26.807-47.857-12.064-62.1-12.064-62.1l-8.49,2.443s-4.023,52.514,0,60.557,23.668,61.586,29.653,75.647Z" transform="translate(-311.274 -37.809)" fill="#ffc5b1"/>
          <path id="路径_176" data-name="路径 176" d="M363.191,165.459s1.718-7.52,29.966-17.741S474.7,104.373,474.7,104.373l5.319,6.083s-28.957,33.447-45.8,39.315-52.627,29-56.308,30.85C372.336,183.42,372.406,186.946,363.191,165.459Z" transform="translate(-278.998 -7.93)" fill="#ffc5b1"/>
          <path id="路径_177" data-name="路径 177" d="M359.8,127.978s-22.7,7.355-22.7,41.889c0,0,.014,47.3,5.364,55.905a47.843,47.843,0,0,0,19.538,0c11.368-2.337,22.371-10.724,22.371-10.724l17.854-53.6-2.137-25.112-24.275-4.689s6.965,32.543-18.229,18.553c-4.9-2.718,7.2-21.182,7.2-21.182Z" transform="translate(-299.602 10.71)" fill="#2c373f"/>
          <path id="路径_178" data-name="路径 178" d="M343.984,162.424l-11.184-23.3s1.6-14.133,22.135-19.2c0,0,2.076,7.125,4.352,9.847s8.9,5.616,8.9,5.616Z" transform="translate(-302.996 4.35)" fill="#2c373f"/>
          <path id="路径_179" data-name="路径 179" d="M365.4,164.5l35.562-7.289s6.183-12.81-8.478-28.049c0,0-27.74,1.675-31.33,1.974-3.535.3-1.108,3.016-1.108,3.016Z" transform="translate(-282.126 11.642)" fill="#2c373f"/>
        </g>
        <path id="路径_180" data-name="路径 180" d="M357.357,179.5s-33.637,62.189-39.193,73.3c0,0,99.235,45.584,139.518-9.285,0,0-22.915-48.5-58.339-66.964h0l-15.282-4.574L357.955,179.2" transform="translate(-314.554 45.457)" fill="#2c373f"/>
      </g>
      <path id="路径_181" data-name="路径 181" d="M370.161,117.484s3.832-3.832,6.189-1.179-8.546,6.484-8.546,6.484Z" transform="translate(-275.355 0.753)" fill="#ffc5b1"/>
      <g id="组_17718" data-name="组 17718" transform="translate(58.002 61.417)">
        <path id="路径_182" data-name="路径 182" d="M455.447,89.364c.039.134-1.442.773-4.266,1.444a58.838,58.838,0,0,1-12.2,1.4,120.833,120.833,0,0,1-18.124-1.274c-6.763-.9-14.11-2.214-21.839-3.057a83.306,83.306,0,0,0-21.708.086A48.847,48.847,0,0,0,360.7,93.674a37.013,37.013,0,0,0-9.231,7.475c-1.87,2.13-2.71,3.488-2.9,3.375-.1-.055.456-1.587,2.151-3.973a32.939,32.939,0,0,1,9.077-8.363,47.7,47.7,0,0,1,17.138-6.461,80.193,80.193,0,0,1,22.346-.3c7.858.857,15.214,2.25,21.9,3.259a142.222,142.222,0,0,0,17.809,1.777C449.183,90.753,455.354,88.944,455.447,89.364Z" transform="translate(-348.556 -84.802)" fill="#6e5395"/>
      </g>
      <g id="组_17719" data-name="组 17719" transform="translate(70.486 106.511)">
        <path id="路径_183" data-name="路径 183" d="M360.341,119.55c-.011.15-1.1.254-2.769-.3a3.723,3.723,0,0,1-1.351-.75,2.176,2.176,0,0,1-.558-.814,1.842,1.842,0,0,1,.012-1.392c.052-.081.05-.272.156-.276l.322-.009a2.308,2.308,0,0,1,.694.084,5.577,5.577,0,0,0,.895.091,7.03,7.03,0,0,0,1.688-.17,6.843,6.843,0,0,0,4.582-3.574c.732-1.4.8-2.455.991-2.445.138-.016.41,1.1-.2,2.8a7.015,7.015,0,0,1-1.706,2.611,7.124,7.124,0,0,1-3.4,1.813,7.263,7.263,0,0,1-2.869.073c-.118-.021-.1-.048-.127-.032a.081.081,0,0,0-.02.07,1.183,1.183,0,0,0,.26.453,3.11,3.11,0,0,0,.963.668C359.346,119.155,360.367,119.366,360.341,119.55Z" transform="translate(-355.532 -109.999)" fill="#f97a5d"/>
      </g>
      <path id="路径_184" data-name="路径 184" d="M353.761,115.567l13.1,5.161S355.35,128.667,353.761,115.567Z" transform="translate(-286.445 0.909)" fill="#fff"/>
      <path id="路径_185" data-name="路径 185" d="M366.373,118.4c-.465.882-1.908,1.038-3.223.345s-2-1.969-1.541-2.853,1.91-1.038,3.225-.345S366.838,117.521,366.373,118.4Z" transform="translate(-280.362 0.555)" fill="#f4b19f"/>
      <path id="路径_186" data-name="路径 186" d="M358.263,113.965c-.4.916-1.824,1.181-3.189.591s-2.148-1.811-1.752-2.727,1.824-1.181,3.187-.591S358.659,113.049,358.263,113.965Z" transform="translate(-286.872 -2.758)" fill="#f4b19f"/>
      <path id="路径_187" data-name="路径 187" d="M353.326,123.6s4.594,3.846,9.383,2.606c0,0-1.652,2.479-8.011,1.57C354.7,127.77,355.228,125.041,353.326,123.6Z" transform="translate(-286.788 7.248)" fill="#eda091"/>
      <path id="路径_188" data-name="路径 188" d="M364.421,112.814a1.038,1.038,0,1,1-1.038-1.036A1.038,1.038,0,0,1,364.421,112.814Z" transform="translate(-279.666 -2.083)" fill="#2c373f"/>
      <ellipse id="椭圆_2" data-name="椭圆 2" cx="1.037" cy="1.037" rx="1.037" ry="1.037" transform="translate(74.186 106.635)" fill="#2c373f"/>
      <g id="组_17720" data-name="组 17720" transform="translate(84.364 105.161)">
        <path id="路径_189" data-name="路径 189" d="M367.012,112.052c-.32.134-.94-.614-1.877-1.221-.918-.634-1.849-.918-1.847-1.267-.03-.333,1.269-.6,2.531.245S367.332,111.951,367.012,112.052Z" transform="translate(-363.287 -109.244)" fill="#6e5395"/>
      </g>
      <g id="组_17721" data-name="组 17721" transform="translate(73.12 102.236)">
        <path id="路径_190" data-name="路径 190" d="M357,108.306c-.021-.324,1.093-.734,2.586-.693,1.519.032,2.642.77,2.486,1.077s-1.2.177-2.534.152S357.026,108.658,357,108.306Z" transform="translate(-357.004 -107.61)" fill="#6e5395"/>
      </g>
      <path id="路径_191" data-name="路径 191" d="M359.618,295.232s5.449,19.341,11.076,17.759,1.4-28.577,1.4-28.577l-5.616-8.873S371.75,320.727,359.618,295.232Z" transform="translate(-281.819 127.233)" fill="#2c373f"/>
      <path id="路径_192" data-name="路径 192" d="M398.014,229.525s3.962-4.324,8.766-5.043,21.977-2.763,24.5-.481-13.918,9.933-13.918,9.933,5.729-3.649,3.35-5.009C416.508,226.522,398.014,229.525,398.014,229.525Z" transform="translate(-251.5 85.705)" fill="#2c373f"/>
      <path id="路径_193" data-name="路径 193" d="M394.207,230.165l5.376,10.915,2.932-1.629L395.347,228.7Z" transform="translate(-254.506 90.244)" fill="#2c373f"/>
      <path id="路径_194" data-name="路径 194" d="M366.438,270.755l-13.2,11.893,3.91,3.258,11.078-12.056Z" transform="translate(-286.854 123.455)" fill="#2c373f"/>
    </g>
  </g>
</svg>
