<svg xmlns="http://www.w3.org/2000/svg" xmlns:xlink="http://www.w3.org/1999/xlink" width="1920" height="1080" viewBox="0 0 1920 1080">
  <defs>
    <linearGradient id="linear-gradient" x1="1.048" y1="0.009" x2="0.133" y2="0.805" gradientUnits="objectBoundingBox">
      <stop offset="0" stop-color="#fff"/>
      <stop offset="1" stop-color="#fff" stop-opacity="0"/>
    </linearGradient>
    <linearGradient id="linear-gradient-2" x1="0.923" y1="-0.339" x2="0.201" y2="0.946" xlink:href="#linear-gradient"/>
    <linearGradient id="linear-gradient-3" x1="1.15" y1="-0.034" x2="0.161" y2="0.814" xlink:href="#linear-gradient"/>
    <filter id="路径_423" x="757.222" y="320.131" width="407.19" height="67.359" filterUnits="userSpaceOnUse">
      <feOffset dy="4" input="SourceAlpha"/>
      <feGaussianBlur stdDeviation="3" result="blur"/>
      <feFlood flood-color="#fff"/>
      <feComposite operator="in" in2="blur"/>
      <feComposite in="SourceGraphic"/>
    </filter>
  </defs>
  <g id="bg_fee" transform="translate(3803 -5069)">
    <rect id="矩形_3339" data-name="矩形 3339" width="1920" height="1080" transform="translate(-3803 5069)" fill="#f6e5de"/>
    <g id="组_17839" data-name="组 17839" transform="translate(-4120 4950)">
      <g id="组_17617" data-name="组 17617" transform="translate(-350)">
        <rect id="矩形_3201" data-name="矩形 3201" width="1120" height="234" rx="20" transform="translate(1067 548)" fill="#fff"/>
        <g id="矩形_3265" data-name="矩形 3265" transform="translate(1097 627)" fill="#ffe9d0" stroke="#fff" stroke-width="1">
          <rect width="395" height="63" stroke="none"/>
          <rect x="0.5" y="0.5" width="394" height="62" fill="none"/>
        </g>
        <path id="路径_432" data-name="路径 432" d="M-13.608.312c3.864,0,6.216-2.3,6.216-5.136,0-2.592-1.512-3.888-3.6-4.776l-2.424-1.032c-1.44-.576-2.856-1.152-2.856-2.664,0-1.416,1.176-2.28,2.976-2.28a5.626,5.626,0,0,1,3.888,1.584l1.464-1.776A7.566,7.566,0,0,0-13.3-18c-3.36,0-5.808,2.088-5.808,4.872,0,2.568,1.9,3.912,3.6,4.632l2.448,1.056c1.632.72,2.832,1.224,2.832,2.832,0,1.488-1.2,2.5-3.336,2.5a6.848,6.848,0,0,1-4.7-2.088L-19.9-2.28A8.812,8.812,0,0,0-13.608.312ZM.96-1.8c-1.9,0-3.168-1.656-3.456-5.16A4.111,4.111,0,0,1,.792-9.024c1.9,0,2.9,1.272,2.9,3.552S2.5-1.8.96-1.8ZM5.976-16.1A5.932,5.932,0,0,0,1.56-18c-3.48,0-6.672,2.712-6.672,9.5,0,6,2.736,8.808,6.1,8.808,2.88,0,5.28-2.28,5.28-5.784,0-3.744-1.992-5.568-4.968-5.568A5.311,5.311,0,0,0-2.544-9c.12-5.04,1.992-6.744,4.248-6.744a3.8,3.8,0,0,1,2.76,1.32ZM14.136.312c3.456,0,5.712-3.072,5.712-9.216,0-6.1-2.256-9.1-5.712-9.1-3.48,0-5.712,2.976-5.712,9.1C8.424-2.76,10.656.312,14.136.312Zm0-2.184c-1.8,0-3.072-1.92-3.072-7.032,0-5.064,1.272-6.912,3.072-6.912s3.072,1.848,3.072,6.912C17.208-3.792,15.936-1.872,14.136-1.872Z" transform="translate(1295 668)" fill="#9f611c"/>
        <g id="矩形_3273" data-name="矩形 3273" transform="translate(1491 627)" fill="#ffe9d0" stroke="#fff" stroke-width="1">
          <rect width="348" height="63" stroke="none"/>
          <rect x="0.5" y="0.5" width="347" height="62" fill="none"/>
        </g>
        <path id="路径_431" data-name="路径 431" d="M-43.824-9.816a17.445,17.445,0,0,0-1.512-1.968,17.971,17.971,0,0,0,1.7-2.424l-1.464-.264a9.431,9.431,0,0,1-1.152,1.656l-.84-.84a12.094,12.094,0,0,0,1.32-1.944l-1.44-.24a6.106,6.106,0,0,1-.84,1.272,14.044,14.044,0,0,0-1.128-.96l-1.176.744c.456.384.912.792,1.344,1.224a10.382,10.382,0,0,1-1.944,1.488,3.322,3.322,0,0,1,.936.984A12.991,12.991,0,0,0-48.072-12.6a9.407,9.407,0,0,1,.816.888,14.548,14.548,0,0,1-2.88,2.16,3.666,3.666,0,0,1,.912,1.008,17.807,17.807,0,0,0,2.856-2.16,16.4,16.4,0,0,1,1.3,1.8Zm.288,1.44h-7.488v-7.7h7.488Zm2.016-9.5h-6c.288-.6.672-1.32,1.032-2.016l-2.28-.384a19.606,19.606,0,0,1-.768,2.4h-3.432V-6.552H-41.52ZM-44.688-2.736c-.48-.912-1.512-2.5-2.256-3.648l-1.44.672c.744,1.224,1.7,2.856,2.184,3.816Zm-9.024-3.5a31.605,31.605,0,0,0-1.44-4.584l-1.536.432a18.053,18.053,0,0,1,.6,1.824l-3.144.552a47.333,47.333,0,0,0,5.064-7.632l-1.824-.96a32.193,32.193,0,0,1-1.68,3.264l-2.136.168A36.222,36.222,0,0,0-56.5-19.368l-1.992-.816a27.3,27.3,0,0,1-2.76,5.952c-.456.72-.84,1.2-1.248,1.32.216.528.528,1.488.648,1.9a11.543,11.543,0,0,1,3.072-.576,23.307,23.307,0,0,1-1.8,2.568c-.7.864-1.224,1.464-1.776,1.584a10.483,10.483,0,0,1,.672,1.872c.456-.264,1.2-.5,6.048-1.44q.18.72.288,1.3ZM-61.128-4.7A21.613,21.613,0,0,1-62.376.768a9.981,9.981,0,0,1,1.56.576,28.021,28.021,0,0,0,1.32-5.76Zm2.256.264A44.874,44.874,0,0,1-58.3.624L-56.712.24a41.112,41.112,0,0,0-.648-5.016ZM-56.64-4.9A29.16,29.16,0,0,1-55.7-.864l1.536-.48a32.331,32.331,0,0,0-1.008-3.984ZM-53.016.816a24.156,24.156,0,0,0,1.608-5.232l-1.56-.576A19.6,19.6,0,0,1-54.624.072Zm4.7-1.056c-.816,0-.936-.1-.936-.648V-4.944H-51.12V-.888c0,1.752.5,2.256,2.568,2.256h3.144c1.656,0,2.16-.672,2.376-3.288a4.661,4.661,0,0,1-1.656-.7c-.1,2.064-.24,2.376-.912,2.376Zm4.44-4.272A52.7,52.7,0,0,1-41.9.432l1.632-.744c-.456-1.272-1.32-3.264-2.088-4.824Zm10.512-2.5V-8.472h4.752v1.464Zm0-4.368h4.752v1.488H-33.36Zm12.024,0v1.488h-5.04v-1.488Zm0,4.368h-5.04V-8.472h5.04Zm-5.04,6.384v-1.7h8.208V-4.08h-8.208V-5.448h7.32v-7.464h-7.32v-1.224H-16.8v-1.776h-9.576V-17.5c2.712-.192,5.28-.456,7.344-.816l-1.128-1.752a130.134,130.134,0,0,1-15.984,1.248,6.965,6.965,0,0,1,.456,1.752c2.232-.048,4.68-.12,7.08-.264v1.416h-9.336v1.776h9.336v1.224h-6.936v7.464h6.936V-4.08h-7.68v1.752h7.68v1.7h-9.456v1.8h21.432v-1.8ZM2.04-17.088H-8.928v-1.08H2.04Zm0,2.28H-8.928v-1.1H2.04ZM4.3-19.392H-11.088v5.808H4.3Zm3.072,6.72H-14.064v1.632H7.368ZM-9.408-5.4V-6.528h4.92V-5.4Zm0-3.456h4.92v1.1h-4.92ZM2.76-7.752H-2.328v-1.1H2.76Zm0,2.352H-2.328V-6.528H2.76ZM-2.328-.384V-1.536H5.424V-3.048H-2.328v-1.08H4.944v-6H-11.52v6h7.032v1.08H-12.12v1.512h7.632V-.384H-14.16v1.7H7.464v-1.7ZM21.384-3.312V-5.64l-5.4-1.944L12.36-8.9V-9l3.624-1.344,5.4-1.92v-2.352L9.528-9.984V-7.92ZM28.728.312a5.828,5.828,0,0,0,5.952-6.12c0-3.864-2.424-5.616-5.376-5.616a4.98,4.98,0,0,0-2.424.624l.408-4.536H33.84v-2.328H24.888L24.36-9.288,25.7-8.4a4.647,4.647,0,0,1,2.832-1.008c2.016,0,3.36,1.344,3.36,3.7a3.452,3.452,0,0,1-3.5,3.768,5.652,5.652,0,0,1-4.128-1.9l-1.32,1.8A7.817,7.817,0,0,0,28.728.312ZM38.064,0h2.688V-3.408l2.232-2.568L46.56,0h3L44.568-7.848,49.056-13.2H46.008L40.824-6.792h-.072V-19.128H38.064ZM56.112,5.928c4.224,0,6.912-2.064,6.912-4.608,0-2.256-1.632-3.216-4.752-3.216H55.848c-1.68,0-2.208-.5-2.208-1.3a1.75,1.75,0,0,1,.72-1.392,4.588,4.588,0,0,0,1.848.408c2.76,0,4.944-1.656,4.944-4.536a3.569,3.569,0,0,0-.864-2.424h2.52V-13.2h-4.68a5.5,5.5,0,0,0-1.92-.336c-2.736,0-5.112,1.752-5.112,4.752a4.517,4.517,0,0,0,1.728,3.5v.1A3.257,3.257,0,0,0,51.36-2.736a2.427,2.427,0,0,0,1.2,2.184v.12a3.488,3.488,0,0,0-1.92,2.88C50.64,4.752,52.944,5.928,56.112,5.928Zm.1-11.88a2.574,2.574,0,0,1-2.5-2.832,2.513,2.513,0,0,1,2.5-2.808,2.526,2.526,0,0,1,2.5,2.808A2.574,2.574,0,0,1,56.208-5.952ZM56.52,4.1c-2.184,0-3.528-.768-3.528-2.064A2.374,2.374,0,0,1,54.12.12,8.391,8.391,0,0,0,55.9.312h1.992c1.608,0,2.472.336,2.472,1.44C60.36,2.976,58.824,4.1,56.52,4.1Z" transform="translate(1665 668)" fill="#9f611c"/>
        <g id="矩形_3279" data-name="矩形 3279" transform="translate(1838 627)" fill="#ffe9d0" stroke="#fff" stroke-width="1">
          <rect width="319" height="63" stroke="none"/>
          <rect x="0.5" y="0.5" width="318" height="62" fill="none"/>
        </g>
        <path id="路径_430" data-name="路径 430" d="M-47.136,0h10.08V-2.28h-3.456V-17.664H-42.6a10.851,10.851,0,0,1-3.84,1.344v1.752h3.168V-2.28h-3.864Zm14.88-6.888,3.48-5.328c.5-.912.984-1.824,1.416-2.712h.1c-.048.96-.144,2.448-.144,3.408v4.632Zm9.7,0h-2.256V-17.664h-3.192L-35.04-6.6v1.848h7.632V0h2.592V-4.752h2.256Zm7.152,7.2a5.828,5.828,0,0,0,5.952-6.12c0-3.864-2.424-5.616-5.376-5.616a4.98,4.98,0,0,0-2.424.624l.408-4.536H-10.3v-2.328h-8.952l-.528,8.376,1.344.888A4.647,4.647,0,0,1-15.6-9.408c2.016,0,3.36,1.344,3.36,3.7a3.452,3.452,0,0,1-3.5,3.768,5.652,5.652,0,0,1-4.128-1.9l-1.32,1.8A7.817,7.817,0,0,0-15.408.312ZM12.336-18.36H-4.56v2.16h16.9ZM8.9-.624C8.04-.624,7.9-.768,7.9-1.632V-9.624h6.528v-2.16h-21.1v2.16H-.888C-1.224-5.4-2.04-1.824-7.056.048a5.867,5.867,0,0,1,1.392,1.8C-.024-.408,1.056-4.56,1.488-9.624h4.1v8.016c0,2.352.624,3.1,3,3.1h3.192c2.232,0,2.808-1.176,3.048-5.328a7.14,7.14,0,0,1-2.088-.96c-.1,3.552-.24,4.176-1.128,4.176ZM16.128,4.32h1.92L24.72-19.152H22.8ZM31.44-20.04a26.9,26.9,0,0,1-5.472,9.24,14.89,14.89,0,0,1,1.224,2.256,24,24,0,0,0,1.872-2.328V1.848h2.112v-16.08a37.044,37.044,0,0,0,2.352-5.184ZM48.1-8.448h-6.36V-13.2h5.28v-2.184h-5.28v-4.464H39.5v4.464H36.816c.288-1.008.552-2.04.768-3.072l-2.16-.432A21.335,21.335,0,0,1,32.568-10.9a14.746,14.746,0,0,1,1.92,1.08A17.119,17.119,0,0,0,36.1-13.2H39.5v4.752H32.856v2.184H39.5V1.872h2.232V-6.264H48.1Z" transform="translate(1998 668)" fill="#9f611c"/>
        <g id="矩形_3263" data-name="矩形 3263" transform="translate(1097 578)" fill="#ef7e00" stroke="#fff" stroke-width="1">
          <rect width="395" height="50" stroke="none"/>
          <rect x="0.5" y="0.5" width="394" height="49" fill="none"/>
        </g>
        <path id="路径_429" data-name="路径 429" d="M-24.7-8.232c-.552-.648-2.856-3.216-3.792-4.128v-.624h3.144V-15.12h-3.144v-5.016h-2.256v5.016h-3.84v2.136h3.552a24.219,24.219,0,0,1-4.3,8.544,12.561,12.561,0,0,1,1.176,2.16,22.162,22.162,0,0,0,3.408-6.36V1.9h2.256V-9.744a41.888,41.888,0,0,1,2.424,3.432Zm11.664-6.888h-2.376v-4.992H-17.76v4.992h-6.792v2.136h6.1a25.412,25.412,0,0,1-7.752,9.408,9.5,9.5,0,0,1,1.608,1.8,28.675,28.675,0,0,0,6.84-8.088v8.88c0,.432-.168.576-.6.576-.432.024-1.944.024-3.384-.024a10.737,10.737,0,0,1,.792,2.28,12.362,12.362,0,0,0,4.344-.432c.864-.36,1.2-.984,1.2-2.4v-12h2.376ZM-2.064-7.2C-2.5-7.728-4.32-9.624-5.112-10.32V-11.5h2.568v-1.032H10.944v-1.464H5.184v-1.056H9.816V-16.44H5.184v-1.032h5.208v-1.44H5.184v-1.224H2.952v1.224h-4.9v1.44h4.9v1.032H-1.464v1.392H2.952v1.056h-5.64v.408H-5.112v-3.648A24.124,24.124,0,0,0-2.16-18.12l-1.536-1.7a33.432,33.432,0,0,1-7.248,1.752,6.88,6.88,0,0,1,.648,1.728c.96-.12,1.992-.264,3.024-.456v3.216h-3.456V-11.5H-7.44A24.593,24.593,0,0,1-11.352-4.32a12.115,12.115,0,0,1,1.1,2.064A25.106,25.106,0,0,0-7.272-7.68V1.848h2.16V-8.04A26.113,26.113,0,0,1-3.36-5.448ZM7.584-8.76H.888v-1.3h6.7Zm0,2.688H.888v-1.32h6.7Zm0,2.688H.888V-4.7h6.7ZM9.672-11.5h-10.8v9.552H1.416A16.438,16.438,0,0,1-3.792.552a11.422,11.422,0,0,1,1.416,1.44A19.958,19.958,0,0,0,3.336-.888L1.68-1.944H9.672ZM5.184-.864C6.648.048,8.328,1.2,9.264,1.92L11.208.84C10.1.1,8.256-1.032,6.672-1.944Zm11.136-16.2H21.7v4.032H16.32Zm2.448,8.3c.1-.768.144-1.536.192-2.3h4.9v-7.968H14.28v7.968h2.5C16.56-6.888,16.032-2.232,12.816.36a5.589,5.589,0,0,1,1.536,1.56c2.52-2.112,3.624-5.3,4.176-8.688h3.36c-.192,4.32-.432,6.024-.84,6.456-.168.24-.408.264-.792.264a24.175,24.175,0,0,1-2.568-.12A4.612,4.612,0,0,1,18.312,1.8a18.1,18.1,0,0,0,2.9-.048A2.051,2.051,0,0,0,22.848.984C23.5.24,23.736-1.992,24-7.848c.024-.288.024-.912.024-.912Zm9.384-8.5h-2.16V-4.008h2.16Zm3.576-2.4V-.936c0,.432-.168.576-.624.6-.48,0-1.992.024-3.624-.048a10.335,10.335,0,0,1,.792,2.28,14.046,14.046,0,0,0,4.512-.384C33.624,1.1,33.96.456,33.96-.936v-18.72Z" transform="translate(1295 612)" fill="#fff"/>
        <g id="矩形_3272" data-name="矩形 3272" transform="translate(1491 578)" fill="#ef7e00" stroke="#fff" stroke-width="1">
          <rect width="348" height="50" stroke="none"/>
          <rect x="0.5" y="0.5" width="347" height="49" fill="none"/>
        </g>
        <path id="路径_428" data-name="路径 428" d="M-41.976-7.008V-8.472h4.752v1.464Zm0-4.368h4.752v1.488h-4.752Zm12.024,0v1.488h-5.04v-1.488Zm0,4.368h-5.04V-8.472h5.04Zm-5.04,6.384v-1.7h8.208V-4.08h-8.208V-5.448h7.32v-7.464h-7.32v-1.224h9.576v-1.776h-9.576V-17.5c2.712-.192,5.28-.456,7.344-.816l-1.128-1.752A130.134,130.134,0,0,1-44.76-18.816a6.965,6.965,0,0,1,.456,1.752c2.232-.048,4.68-.12,7.08-.264v1.416H-46.56v1.776h9.336v1.224H-44.16v7.464h6.936V-4.08H-44.9v1.752h7.68v1.7H-46.68v1.8h21.432v-1.8ZM-6.576-17.088H-17.544v-1.08H-6.576Zm0,2.28H-17.544v-1.1H-6.576Zm2.256-4.584H-19.7v5.808H-4.32Zm3.072,6.72H-22.68v1.632H-1.248ZM-18.024-5.4V-6.528h4.92V-5.4Zm0-3.456h4.92v1.1h-4.92Zm12.168,1.1h-5.088v-1.1h5.088Zm0,2.352h-5.088V-6.528h5.088ZM-10.944-.384V-1.536h7.752V-3.048h-7.752v-1.08h7.272v-6H-20.136v6H-13.1v1.08h-7.632v1.512H-13.1V-.384h-9.672v1.7H-1.152v-1.7ZM10.68-3.1C10.1-3.84,7.632-6.816,6.7-7.776c.048-.336.072-.648.1-.984h3.792V-10.8H6.912c.024-.528.024-1.008.024-1.488v-2.04h3.216V-16.32H6.936v-3.552H4.848v3.552H1.584v1.992H4.848v2.04c0,.48,0,.96-.024,1.488h-3.7v2.04h3.6C4.44-5.664,3.576-2.28.888,0A7.574,7.574,0,0,1,2.5,1.536,13.063,13.063,0,0,0,6.288-5.472,45.5,45.5,0,0,1,9.144-1.464Zm2.784-6.672h6.12V-7.8h-6.12Zm0-3.744h6.12v1.944h-6.12Zm0-3.72h6.12v1.92h-6.12ZM19.512-.5c-.432,0-.5-.048-.5-.624v-4.68H21.72V-19.224H11.376V-5.808H13.44C13.08-3.024,12.192-.96,8.616.216A6.005,6.005,0,0,1,9.864,1.9c4.128-1.512,5.28-4.152,5.688-7.7h1.392v4.68c0,1.992.432,2.592,2.232,2.592h1.848c1.368,0,1.92-.6,2.136-2.952A5.288,5.288,0,0,1,21.336-2.3c-.048,1.584-.168,1.8-.552,1.8Zm23.376-4.56v3.672H36.36V-5.064Zm-8.64,6.888H36.36V.576h6.528v1.2H45.1V-7.032H34.248Zm-.84-11.4c-.456-.6-2.328-3.072-2.928-3.672v-.288H32.9v-.216A11.839,11.839,0,0,1,34.08-12.12a17.159,17.159,0,0,0,1.728-1.944,14.068,14.068,0,0,0,2.376,2.712A23.693,23.693,0,0,1,32.928-9Zm9.48-6.288A13.051,13.051,0,0,1,39.84-12.5a12.143,12.143,0,0,1-2.88-3.312l.048-.048Zm1.656-2.064-.36.1h-6.12A18.4,18.4,0,0,0,38.88-19.7l-1.968-.552a15.921,15.921,0,0,1-4.008,6.24V-15.6H30.48v-4.512H28.368V-15.6H25.224v2.064h2.832A24.624,24.624,0,0,1,24.7-5.064a11.258,11.258,0,0,1,1.08,2.232A24.18,24.18,0,0,0,28.368-9V1.9H30.48V-10.656c.6,1.008,1.224,2.136,1.536,2.784l.24-.288a8.5,8.5,0,0,1,.768,1.44A26.151,26.151,0,0,0,39.96-9.96a21.661,21.661,0,0,0,6.48,2.976,7.983,7.983,0,0,1,.792-2.064,19.735,19.735,0,0,1-5.616-2.208,16.456,16.456,0,0,0,4.344-5.832Z" transform="translate(1665 612)" fill="#fff"/>
        <g id="矩形_3278" data-name="矩形 3278" transform="translate(1838 578)" fill="#ef7e00" stroke="#fff" stroke-width="1">
          <rect width="319" height="50" stroke="none"/>
          <rect x="0.5" y="0.5" width="318" height="49" fill="none"/>
        </g>
        <path id="路径_427" data-name="路径 427" d="M-17.472-4.3H-6.264v1.272H-17.472Zm7.08-8.016v1.584h-5.352a5.214,5.214,0,0,0,1.44-1.584Zm-5.3-2.664a4.465,4.465,0,0,1-.288,1.272h-2.784c.072-.408.144-.84.216-1.272Zm2.04-2.568h3.264v1.176h-3.264Zm8.544,0v1.176H-8.28v-1.176Zm-5.28,3.84H-13.8a5.436,5.436,0,0,0,.144-1.272h3.264Zm6.624,1.392a1.611,1.611,0,0,1-.24.744.67.67,0,0,1-.552.168c-.24,0-.816-.024-1.464-.1a4.691,4.691,0,0,1,.288.768H-8.28v-1.584Zm-2.5,4.176H-17.472V-9.36H-6.264Zm0,2.544H-17.472V-6.84H-6.264ZM-4.008-1.68v-8.376a3.389,3.389,0,0,0,.528-.024,1.919,1.919,0,0,0,1.248-.48,4.92,4.92,0,0,0,.624-2.5c.024-.24.048-.648.048-.648H-8.28v-1.272h5.208v-3.96H-8.28v-1.2h-2.112v1.2h-3.264v-1.2h-2.016v1.2h-5.664v1.392h5.664v1.176h-4.656a37.788,37.788,0,0,1-.648,4.056h3.96c-1.008.816-2.736,1.512-5.64,1.968A8.1,8.1,0,0,1-21.6-8.592a18.62,18.62,0,0,0,1.968-.432V-1.68h3.7A28.387,28.387,0,0,1-22.68.288,12.888,12.888,0,0,1-21.072,1.92,32.858,32.858,0,0,0-13.7-.912l-1.728-.768h6.36l-.912.888a61.086,61.086,0,0,1,6.912,2.64L-1.416.48C-2.9-.144-5.208-.984-7.464-1.68ZM13.3-7.344V-10.9H19.1v3.552Zm-7.536,0c.072-.888.1-1.776.1-2.592v-.96h5.208v3.552Zm5.3-9.024v3.384H5.856v-3.384Zm8.04,3.384H13.3v-3.384H19.1Zm2.232-5.52H3.648V-9.96c0,3.384-.24,7.632-2.856,10.536A7.387,7.387,0,0,1,2.544,2.04a13.767,13.767,0,0,0,3-7.272h5.52V1.632H13.3V-5.232H19.1v4.3c0,.456-.168.6-.6.6-.456,0-2.04.024-3.576-.048a9.222,9.222,0,0,1,.744,2.16,13.138,13.138,0,0,0,4.488-.384c.864-.336,1.176-1.008,1.176-2.3Z" transform="translate(1998 612)" fill="#fff"/>
        <g id="矩形_3274" data-name="矩形 3274" transform="translate(1097 689)" fill="#ffd9af" stroke="#fff" stroke-width="1">
          <rect width="395" height="63" stroke="none"/>
          <rect x="0.5" y="0.5" width="394" height="62" fill="none"/>
        </g>
        <path id="路径_426" data-name="路径 426" d="M-13.608.312c3.864,0,6.216-2.3,6.216-5.136,0-2.592-1.512-3.888-3.6-4.776l-2.424-1.032c-1.44-.576-2.856-1.152-2.856-2.664,0-1.416,1.176-2.28,2.976-2.28a5.626,5.626,0,0,1,3.888,1.584l1.464-1.776A7.566,7.566,0,0,0-13.3-18c-3.36,0-5.808,2.088-5.808,4.872,0,2.568,1.9,3.912,3.6,4.632l2.448,1.056c1.632.72,2.832,1.224,2.832,2.832,0,1.488-1.2,2.5-3.336,2.5a6.848,6.848,0,0,1-4.7-2.088L-19.9-2.28A8.812,8.812,0,0,0-13.608.312ZM.072-8.64c-1.848,0-2.856-1.3-2.856-3.552,0-2.3,1.2-3.672,2.712-3.672,1.92,0,3.24,1.584,3.5,5.064A4.237,4.237,0,0,1,.072-8.64ZM-5.064-1.56A6.062,6.062,0,0,0-.552.312c3.408,0,6.576-2.784,6.576-9.744C6.024-15.264,3.288-18-.1-18c-2.856,0-5.256,2.3-5.256,5.808,0,3.7,1.992,5.544,4.944,5.544A5.311,5.311,0,0,0,3.48-8.712C3.312-3.672,1.464-1.944-.672-1.944a3.938,3.938,0,0,1-2.9-1.32ZM14.136.312c3.456,0,5.712-3.072,5.712-9.216,0-6.1-2.256-9.1-5.712-9.1-3.48,0-5.712,2.976-5.712,9.1C8.424-2.76,10.656.312,14.136.312Zm0-2.184c-1.8,0-3.072-1.92-3.072-7.032,0-5.064,1.272-6.912,3.072-6.912s3.072,1.848,3.072,6.912C17.208-3.792,15.936-1.872,14.136-1.872Z" transform="translate(1295 730)" fill="#9f611c"/>
        <g id="矩形_3277" data-name="矩形 3277" transform="translate(1491 689)" fill="#ffd9af" stroke="#fff" stroke-width="1">
          <rect width="348" height="63" stroke="none"/>
          <rect x="0.5" y="0.5" width="347" height="62" fill="none"/>
        </g>
        <path id="路径_425" data-name="路径 425" d="M-50.664-9.816a17.445,17.445,0,0,0-1.512-1.968,17.971,17.971,0,0,0,1.7-2.424l-1.464-.264a9.431,9.431,0,0,1-1.152,1.656l-.84-.84a12.094,12.094,0,0,0,1.32-1.944l-1.44-.24a6.106,6.106,0,0,1-.84,1.272,14.044,14.044,0,0,0-1.128-.96l-1.176.744c.456.384.912.792,1.344,1.224a10.382,10.382,0,0,1-1.944,1.488,3.322,3.322,0,0,1,.936.984A12.991,12.991,0,0,0-54.912-12.6a9.407,9.407,0,0,1,.816.888,14.548,14.548,0,0,1-2.88,2.16,3.666,3.666,0,0,1,.912,1.008,17.807,17.807,0,0,0,2.856-2.16,16.4,16.4,0,0,1,1.3,1.8Zm.288,1.44h-7.488v-7.7h7.488Zm2.016-9.5h-6c.288-.6.672-1.32,1.032-2.016l-2.28-.384a19.606,19.606,0,0,1-.768,2.4h-3.432V-6.552H-48.36ZM-51.528-2.736c-.48-.912-1.512-2.5-2.256-3.648l-1.44.672c.744,1.224,1.7,2.856,2.184,3.816Zm-9.024-3.5a31.605,31.605,0,0,0-1.44-4.584l-1.536.432a18.053,18.053,0,0,1,.6,1.824l-3.144.552a47.333,47.333,0,0,0,5.064-7.632l-1.824-.96a32.193,32.193,0,0,1-1.68,3.264l-2.136.168a36.222,36.222,0,0,0,3.312-6.192l-1.992-.816a27.3,27.3,0,0,1-2.76,5.952c-.456.72-.84,1.2-1.248,1.32.216.528.528,1.488.648,1.9a11.543,11.543,0,0,1,3.072-.576,23.307,23.307,0,0,1-1.8,2.568c-.7.864-1.224,1.464-1.776,1.584a10.483,10.483,0,0,1,.672,1.872c.456-.264,1.2-.5,6.048-1.44q.18.72.288,1.3ZM-67.968-4.7A21.613,21.613,0,0,1-69.216.768a9.981,9.981,0,0,1,1.56.576,28.022,28.022,0,0,0,1.32-5.76Zm2.256.264A44.873,44.873,0,0,1-65.136.624L-63.552.24A41.112,41.112,0,0,0-64.2-4.776ZM-63.48-4.9a29.16,29.16,0,0,1,.936,4.032l1.536-.48a32.331,32.331,0,0,0-1.008-3.984ZM-59.856.816a24.156,24.156,0,0,0,1.608-5.232l-1.56-.576A19.6,19.6,0,0,1-61.464.072Zm4.7-1.056c-.816,0-.936-.1-.936-.648V-4.944H-57.96V-.888c0,1.752.5,2.256,2.568,2.256h3.144c1.656,0,2.16-.672,2.376-3.288a4.661,4.661,0,0,1-1.656-.7c-.1,2.064-.24,2.376-.912,2.376Zm4.44-4.272A52.7,52.7,0,0,1-48.744.432l1.632-.744c-.456-1.272-1.32-3.264-2.088-4.824Zm10.512-2.5V-8.472h4.752v1.464Zm0-4.368h4.752v1.488H-40.2Zm12.024,0v1.488h-5.04v-1.488Zm0,4.368h-5.04V-8.472h5.04Zm-5.04,6.384v-1.7h8.208V-4.08h-8.208V-5.448h7.32v-7.464h-7.32v-1.224h9.576v-1.776h-9.576V-17.5c2.712-.192,5.28-.456,7.344-.816L-27-20.064a130.134,130.134,0,0,1-15.984,1.248,6.965,6.965,0,0,1,.456,1.752c2.232-.048,4.68-.12,7.08-.264v1.416h-9.336v1.776h9.336v1.224h-6.936v7.464h6.936V-4.08h-7.68v1.752h7.68v1.7H-44.9v1.8h21.432v-1.8ZM-4.8-17.088H-15.768v-1.08H-4.8Zm0,2.28H-15.768v-1.1H-4.8Zm2.256-4.584H-17.928v5.808H-2.544Zm3.072,6.72H-20.9v1.632H.528ZM-16.248-5.4V-6.528h4.92V-5.4Zm0-3.456h4.92v1.1h-4.92Zm12.168,1.1H-9.168v-1.1H-4.08Zm0,2.352H-9.168V-6.528H-4.08ZM-9.168-.384V-1.536h7.752V-3.048H-9.168v-1.08H-1.9v-6H-18.36v6h7.032v1.08H-18.96v1.512h7.632V-.384H-21v1.7H.624v-1.7ZM14.544-3.312V-5.64l-5.4-1.944L5.52-8.9V-9l3.624-1.344,5.4-1.92v-2.352L2.688-9.984V-7.92ZM17.52,0H27.6V-2.28H24.144V-17.664H22.056a10.851,10.851,0,0,1-3.84,1.344v1.752h3.168V-2.28H17.52ZM35.976.312c3.456,0,5.712-3.072,5.712-9.216,0-6.1-2.256-9.1-5.712-9.1-3.48,0-5.712,2.976-5.712,9.1C30.264-2.76,32.5.312,35.976.312Zm0-2.184c-1.8,0-3.072-1.92-3.072-7.032,0-5.064,1.272-6.912,3.072-6.912s3.072,1.848,3.072,6.912C39.048-3.792,37.776-1.872,35.976-1.872ZM44.9,0h2.688V-3.408l2.232-2.568L53.4,0h3L51.408-7.848,55.9-13.2H52.848L47.664-6.792h-.072V-19.128H44.9ZM62.952,5.928c4.224,0,6.912-2.064,6.912-4.608,0-2.256-1.632-3.216-4.752-3.216H62.688c-1.68,0-2.208-.5-2.208-1.3a1.75,1.75,0,0,1,.72-1.392,4.588,4.588,0,0,0,1.848.408c2.76,0,4.944-1.656,4.944-4.536a3.569,3.569,0,0,0-.864-2.424h2.52V-13.2h-4.68a5.5,5.5,0,0,0-1.92-.336c-2.736,0-5.112,1.752-5.112,4.752a4.517,4.517,0,0,0,1.728,3.5v.1A3.257,3.257,0,0,0,58.2-2.736,2.427,2.427,0,0,0,59.4-.552v.12a3.488,3.488,0,0,0-1.92,2.88C57.48,4.752,59.784,5.928,62.952,5.928Zm.1-11.88a2.574,2.574,0,0,1-2.5-2.832,2.513,2.513,0,0,1,2.5-2.808,2.526,2.526,0,0,1,2.5,2.808A2.574,2.574,0,0,1,63.048-5.952ZM63.36,4.1c-2.184,0-3.528-.768-3.528-2.064A2.374,2.374,0,0,1,60.96.12a8.391,8.391,0,0,0,1.776.192h1.992c1.608,0,2.472.336,2.472,1.44C67.2,2.976,65.664,4.1,63.36,4.1Z" transform="translate(1665 730)" fill="#9f611c"/>
        <g id="矩形_3280" data-name="矩形 3280" transform="translate(1838 689)" fill="#ffd9af" stroke="#fff" stroke-width="1">
          <rect width="319" height="63" stroke="none"/>
          <rect x="0.5" y="0.5" width="318" height="62" fill="none"/>
        </g>
        <path id="路径_424" data-name="路径 424" d="M-47.136,0h10.08V-2.28h-3.456V-17.664H-42.6a10.851,10.851,0,0,1-3.84,1.344v1.752h3.168V-2.28h-3.864Zm16.248,0h2.832c.288-6.912.936-10.8,5.088-15.984v-1.68H-34.344v2.328h8.3C-29.448-10.584-30.576-6.456-30.888,0Zm15.48.312a5.828,5.828,0,0,0,5.952-6.12c0-3.864-2.424-5.616-5.376-5.616a4.98,4.98,0,0,0-2.424.624l.408-4.536H-10.3v-2.328h-8.952l-.528,8.376,1.344.888A4.647,4.647,0,0,1-15.6-9.408c2.016,0,3.36,1.344,3.36,3.7a3.452,3.452,0,0,1-3.5,3.768,5.652,5.652,0,0,1-4.128-1.9l-1.32,1.8A7.817,7.817,0,0,0-15.408.312ZM12.336-18.36H-4.56v2.16h16.9ZM8.9-.624C8.04-.624,7.9-.768,7.9-1.632V-9.624h6.528v-2.16h-21.1v2.16H-.888C-1.224-5.4-2.04-1.824-7.056.048a5.867,5.867,0,0,1,1.392,1.8C-.024-.408,1.056-4.56,1.488-9.624h4.1v8.016c0,2.352.624,3.1,3,3.1h3.192c2.232,0,2.808-1.176,3.048-5.328a7.14,7.14,0,0,1-2.088-.96c-.1,3.552-.24,4.176-1.128,4.176ZM16.128,4.32h1.92L24.72-19.152H22.8ZM31.44-20.04a26.9,26.9,0,0,1-5.472,9.24,14.89,14.89,0,0,1,1.224,2.256,24,24,0,0,0,1.872-2.328V1.848h2.112v-16.08a37.044,37.044,0,0,0,2.352-5.184ZM48.1-8.448h-6.36V-13.2h5.28v-2.184h-5.28v-4.464H39.5v4.464H36.816c.288-1.008.552-2.04.768-3.072l-2.16-.432A21.335,21.335,0,0,1,32.568-10.9a14.746,14.746,0,0,1,1.92,1.08A17.119,17.119,0,0,0,36.1-13.2H39.5v4.752H32.856v2.184H39.5V1.872h2.232V-6.264H48.1Z" transform="translate(1998 730)" fill="#9f611c"/>
      </g>
    </g>
    <g id="deco_box" transform="translate(-3096.973 5667.708)">
      <path id="路径_108" data-name="路径 108" d="M397.25,172.823s28.041,21.572,1.219,68.043Z" transform="translate(87.067 12.345)" fill="#fff"/>
      <path id="路径_109" data-name="路径 109" d="M430.842,167.705V332.294L256.5,290.842V116.5Z" transform="translate(56.218)" fill="#ffd286"/>
      <path id="路径_110" data-name="路径 110" d="M278.2,116.5,157.5,182.335v162.15l120.7-53.644Z" transform="translate(34.52)" fill="#f4bd6c"/>
      <path id="路径_111" data-name="路径 111" d="M157.5,313.144l149.959,34.137L452.54,300.952,278.2,259.5Z" transform="translate(34.52 31.342)" fill="#dda254"/>
      <path id="路径_112" data-name="路径 112" d="M208.739,245.834s.61,13.106,11.582,12.192,28.651-50.6,28.651-83.514-10.668-41.757-34.137-35.966S82.25,220.232,82.25,220.232s8.534,19.507,39.318,15.544c0,0,8.839,19.507,39.623,13.716,0,0,12.793,12.087,26.212,7.01C196.021,253.242,208.739,245.834,208.739,245.834Z" transform="translate(18.027 4.47)" fill="#fff"/>
      <path id="路径_113" data-name="路径 113" d="M114.5,223.324l51.916-29.617-49.6,33.16A18.364,18.364,0,0,1,114.5,223.324Z" transform="translate(25.096 16.922)" fill="#b1c2b3"/>
      <path id="路径_114" data-name="路径 114" d="M147,233l34.836-20.851-32.762,22.557Z" transform="translate(32.219 20.964)" fill="#b1c2b3"/>
      <path id="路径_115" data-name="路径 115" d="M186,227.81a59.042,59.042,0,0,0,11.7-8.679s-2.9,6.076-11.354,11.091Z" transform="translate(40.767 22.494)" fill="#b1c2b3"/>
      <path id="路径_116" data-name="路径 116" d="M341.764,134.751v170.1L213.144,355.929l34,7.741,134.571-49.315V146.486Z" transform="translate(46.716 4)" fill="#fffad7"/>
      <g id="组_17701" data-name="组 17701" transform="translate(324.04 260.226)">
        <g id="组_17697" data-name="组 17697" transform="translate(0.712)">
          <line id="直线_1" data-name="直线 1" x2="10.326" y2="2.354" stroke-width="1.417" stroke="#a73e5c" stroke-linecap="round" stroke-linejoin="round" fill="none"/>
          <line id="直线_2" data-name="直线 2" x2="6.258" y2="1.427" transform="translate(15.646 3.567)" fill="none" stroke="#a73e5c" stroke-linecap="round" stroke-linejoin="round" stroke-width="1.417"/>
          <line id="直线_3" data-name="直线 3" x2="22.843" y2="5.208" transform="translate(26.598 6.064)" fill="none" stroke="#a73e5c" stroke-linecap="round" stroke-linejoin="round" stroke-width="1.417"/>
          <line id="直线_4" data-name="直线 4" x2="2.155" y2="0.491" transform="translate(54.17 12.35)" fill="none" stroke="#a73e5c" stroke-linecap="round" stroke-linejoin="round" stroke-width="1.417"/>
        </g>
        <g id="组_17698" data-name="组 17698" transform="translate(0.475 6.824)">
          <line id="直线_5" data-name="直线 5" x2="19.522" y2="4.451" stroke-width="1.417" stroke="#a73e5c" stroke-linecap="round" stroke-linejoin="round" fill="none"/>
          <line id="直线_6" data-name="直线 6" x2="3.254" y2="0.742" transform="translate(24.402 5.563)" fill="none" stroke="#a73e5c" stroke-linecap="round" stroke-linejoin="round" stroke-width="1.417"/>
          <line id="直线_7" data-name="直线 7" x2="21.186" y2="4.83" transform="translate(35.139 8.011)" fill="none" stroke="#a73e5c" stroke-linecap="round" stroke-linejoin="round" stroke-width="1.417"/>
        </g>
        <g id="组_17699" data-name="组 17699" transform="translate(0.237 13.647)">
          <line id="直线_8" data-name="直线 8" x2="14.316" y2="3.264" stroke-width="1.417" stroke="#a73e5c" stroke-linecap="round" stroke-linejoin="round" fill="none"/>
          <line id="直线_9" data-name="直线 9" x2="7.483" y2="1.706" transform="translate(22.776 5.192)" fill="none" stroke="#a73e5c" stroke-linecap="round" stroke-linejoin="round" stroke-width="1.417"/>
          <line id="直线_10" data-name="直线 10" x2="2.278" y2="0.519" transform="translate(35.139 8.011)" fill="none" stroke="#a73e5c" stroke-linecap="round" stroke-linejoin="round" stroke-width="1.417"/>
          <line id="直线_11" data-name="直线 11" x2="14.028" y2="3.198" transform="translate(42.297 9.643)" fill="none" stroke="#a73e5c" stroke-linecap="round" stroke-linejoin="round" stroke-width="1.417"/>
        </g>
        <g id="组_17700" data-name="组 17700" transform="translate(0 20.471)">
          <line id="直线_12" data-name="直线 12" x2="42.297" y2="9.643" stroke-width="1.417" stroke="#a73e5c" stroke-linecap="round" stroke-linejoin="round" fill="none"/>
          <line id="直线_13" data-name="直线 13" x2="10.593" y2="2.415" transform="translate(45.732 10.426)" fill="none" stroke="#a73e5c" stroke-linecap="round" stroke-linejoin="round" stroke-width="1.417"/>
        </g>
      </g>
      <g id="组_17703" data-name="组 17703" transform="translate(440.757 162.613)">
        <g id="组_17702" data-name="组 17702" transform="translate(4.133 6.811)">
          <path id="路径_117" data-name="路径 117" d="M370.967,159.909l-6.057,8.229,3.659,1.013v13l4.795,1.327v-13l3.659,1.013Z" transform="translate(-364.91 -159.909)" fill="#a73e5c"/>
          <path id="路径_118" data-name="路径 118" d="M383.231,163.3l-6.057,8.229,3.659,1.013v13l4.795,1.327v-13l3.659,1.013Z" transform="translate(-362.222 -159.165)" fill="#a73e5c"/>
          <path id="路径_119" data-name="路径 119" d="M387.682,187.831l-19.874-5.5v-3.123l19.874,5.5Z" transform="translate(-364.275 -155.679)" fill="#a73e5c"/>
        </g>
        <path id="路径_120" data-name="路径 120" d="M396.852,199.432l-35.331-9.779V154.323l35.331,9.779Z" transform="translate(-361.521 -154.323)" fill="none" stroke="#a73e5c" stroke-miterlimit="10" stroke-width="1"/>
      </g>
      <path id="路径_121" data-name="路径 121" d="M213.144,325.348l128.621-51.073,39.954,9.5L247.147,333.089Z" transform="translate(46.716 34.58)" fill="#e2d69f"/>
      <path id="路径_122" data-name="路径 122" d="M443.67,300.4,276.847,262l-113.18,50.6S266,281.1,309.317,282.32s92.683,15.849,99.7,27.228Z" transform="translate(35.872 31.89)" fill="#231f20" style="mix-blend-mode: soft-light;isolation: isolate"/>
      <path id="路径_123" data-name="路径 123" d="M202.612,239.405s-10.567,2.337-11.277-11.988c0,0-12.7,9.041-22.555,11.277s-10.363-.462-10.363-.462v11.688s10.565,3.658,29.26-9.5C187.677,240.422,192.046,246.415,202.612,239.405Z" transform="translate(34.721 24.31)" fill="#231f20" style="mix-blend-mode: soft-light;isolation: isolate"/>
      <path id="路径_124" data-name="路径 124" d="M198.78,239.722s-8.567,1.07-8.854-10.067c0,0-16.277,12.993-30.485,10.637V244a34.1,34.1,0,0,0,28.487-9.352S189.428,243.22,198.78,239.722Z" transform="translate(34.946 24.801)" fill="#231f20" style="mix-blend-mode: soft-light;isolation: isolate"/>
      <path id="路径_125" data-name="路径 125" d="M259.667,119.667,427.4,168.729v93.119s-65.734-94.228-167.738-118.205Z" transform="translate(56.913 0.694)" fill="#fff" opacity="0.5" style="mix-blend-mode: soft-light;isolation: isolate"/>
      <path id="路径_126" data-name="路径 126" d="M260.046,287.808V122L219,145.164s20.726-2.159,26.822,55.205,6.1,90.755,6.1,90.755Z" transform="translate(47.999 1.205)" fill="#231f20" style="mix-blend-mode: soft-light;isolation: isolate"/>
      <path id="路径_127" data-name="路径 127" d="M170.467,192.25l-50.748,28.955s-24.079,3.505-34.594-12.649l16.154-10.668s-2.9,11.43,10.058,13.868S170.467,192.25,170.467,192.25Z" transform="translate(18.657 16.603)" fill="#e9f2d7"/>
      <path id="路径_128" data-name="路径 128" d="M120.125,223.9s13.868,13.128,32.765,7.337L186.824,210s-34.264,22.469-55.8,6.705Z" transform="translate(26.328 20.493)" fill="#e9f2d7"/>
      <path id="路径_129" data-name="路径 129" d="M152.167,233.642s7.925,5.709,16.255,3.475,26.037-10.973,36.69-20.116c0,0-26.644,16.255-41.827,9.347Z" transform="translate(33.351 22.027)" fill="#e9f2d7"/>
      <path id="路径_130" data-name="路径 130" d="M198.848,228.539s-6.023,8.239-10.973,10.069c0,0,1.6,8.371,9.411,7.152s23.2-39.776,25.488-62.635c0,0-11.735,43.586-20.269,50.291S198.848,228.539,198.848,228.539Z" transform="translate(41.178 14.603)" fill="#e9f2d7"/>
      <path id="路径_131" data-name="路径 131" d="M120.125,226.966,165.692,196,124.64,230.291A10.265,10.265,0,0,1,120.125,226.966Z" transform="translate(26.328 17.424)" fill="#e9f2d7" style="mix-blend-mode: multiply;isolation: isolate"/>
      <path id="路径_132" data-name="路径 132" d="M181.884,214.5l-29.717,19.69,2.974,1.7Z" transform="translate(33.351 21.479)" fill="#e9f2d7" style="mix-blend-mode: multiply;isolation: isolate"/>
      <path id="路径_133" data-name="路径 133" d="M198.848,220.375s-6.793,8.824-10.973,10.069c0,0-.143,1.319,1.871,4.16C189.747,234.6,198.543,228.681,198.848,220.375Z" transform="translate(41.177 22.767)" fill="#e9f2d7" style="mix-blend-mode: multiply;isolation: isolate"/>
      <path id="路径_134" data-name="路径 134" d="M400.833,187.333v40.64s7.289-13.641,7.113-26.62C407.946,201.354,402.459,200.948,400.833,187.333Z" transform="translate(87.853 15.525)" fill="#e9f2d7"/>
      <path id="路径_135" data-name="路径 135" d="M401.875,201.25v17.678a87.4,87.4,0,0,0,3.962-11.81S403.145,205.669,401.875,201.25Z" transform="translate(88.081 18.575)" fill="#e9f2d7" style="mix-blend-mode: multiply;isolation: isolate"/>
      <path id="路径_136" data-name="路径 136" d="M192.414,154.323,9,271.628V372.263L240.993,250.93S260.008,158.374,192.414,154.323Z" transform="translate(1.973 8.29)" fill="url(#linear-gradient)" style="mix-blend-mode: overlay;isolation: isolate"/>
      <path id="路径_137" data-name="路径 137" d="M259.859,329.44,145.91,303.5,8.338,368.5,0,421.618Z" transform="translate(46 41.78)" fill="url(#linear-gradient-2)" style="mix-blend-mode: overlay;isolation: isolate"/>
      <path id="路径_138" data-name="路径 138" d="M147.261,237.9v60.774L18.353,359.582l2.538-57.138Z" transform="translate(44.649 46.607)" fill="url(#linear-gradient-3)" style="mix-blend-mode: overlay;isolation: isolate"/>
    </g>
    <g transform="matrix(1, 0, 0, 1, -3803, 5069)" filter="url(#路径_423)">
      <path id="路径_423-2" data-name="路径 423" d="M-149.955-25.312q2.479,0,2.742,2.953V6.275q-.053,1.688-1.582,1.74h-6.434V-11.707h-9.914q-3.006,0-3.006-3.059v-7.646H-171.1q-1.846,10.441-13.553,13.447h-.105V8.068h-7.963V-25.312h10.969A21.676,21.676,0,0,0-187.186-29a13.7,13.7,0,0,0,5.326-3.639h-11.918V-35.6h17.666a5.75,5.75,0,0,0,1.371-1.635,4.812,4.812,0,0,1,1.74-2q1.9-1.266,7.436-1.318a16.04,16.04,0,0,0,.422,4.113,1.966,1.966,0,0,0,.475.844h18.088v2.953h-11.391a18.818,18.818,0,0,0,5.221,3.586,15.7,15.7,0,0,0-5.273,3.744Zm-9.967,0a18.821,18.821,0,0,0-5.484-3.744,14.737,14.737,0,0,0,5.221-3.586H-179.75A19.206,19.206,0,0,0-174.53-29a14.7,14.7,0,0,0-5.168,3.691Zm-.844,2.9v7.7h5.537v-7.7ZM-184.76-11.391a26.234,26.234,0,0,0,3.322-4.113,18.017,18.017,0,0,0,2.162-6.908h-5.484Zm26.314,16.137h-22.623V-9.281h20.145q2.479.053,2.479,2.742ZM-173.422-6.486V1.846h7.436V-6.486ZM-94.152-19.2h-38.6v-20.2h36.387q2.215.053,2.215,2.426Zm-30.691-17.3V-22.2h22.729V-36.492Zm10.072,43.559h-22.043V-16.242h19.67q2.373.053,2.373,2.584Zm-14.291-20.3V3.955h6.75V-13.236Zm39.445,20.25h-22.254V-16.242H-91.99q2.373.053,2.373,2.584Zm-14.344-20.3V3.955h6.855V-13.289Zm48.948-27.58h7.383v2.584h10.811q1.318.369,1.582,2.268v6.012H-47.63v2.584h5.8q8.965.105,9.229,4.271,0,5.484-10.178,5.854-1.055,0-2.215-.105-.686-.053-.686-.633a.565.565,0,0,1,.422-.633q4.43-.369,4.9-3.8-.053-2-4.219-2.057H-47.63v6.961h-7.383v-6.961h-5.959Q-64.61-18.088-78.8-16.664q-.949,0-1.055-.316a.8.8,0,0,1,.422-.791q8.6-2.109,11.127-6.75h-4.641a9.935,9.935,0,0,1-4.43,3.111q-1.529,0-1.529-1.687v-9.809h11.654V-35.49H-79.534v-2.795h12.287v-2.479h7.488v2.479h4.746ZM-71.835-27.422h4.482a7.1,7.1,0,0,0,.105-1.16v-1.424h-4.535v1.635A7.709,7.709,0,0,1-71.835-27.422Zm11.918,0h4.9v-2.584h-4.746v1.424A10.3,10.3,0,0,1-59.917-27.422Zm.158-8.068v2.584h4.746V-35.49Zm12.129,2.584h5.221V-35.49H-47.63ZM-72.889,1.635h-4.9v-17.93h40.131q2.215.053,2.215,2.426v15.5h-4.641q.58.633,1.055,1.16a32.423,32.423,0,0,0,3.27,3.111q0,1.318-.686,1.424a4.329,4.329,0,0,1-2.057-.475,29.8,29.8,0,0,1-7.752-2.9,20.765,20.765,0,0,1-3.428-2.32H-62.817a22.432,22.432,0,0,1-5.326,3.639A32.776,32.776,0,0,1-75.1,7.7a4.529,4.529,0,0,1-1.687.422q-.316,0-.316-1.055A24.488,24.488,0,0,0-72.889,1.635ZM-69.936-13.5V-1.266h26.684V-13.5Zm6.908.527a15.29,15.29,0,0,0,5.484,3.9,14.474,14.474,0,0,0-5.484,3.955q-.738-1.74-5.484-3.955A12.467,12.467,0,0,0-63.028-12.973Zm12.5,3.48a15.954,15.954,0,0,0,5.484,3.9A14.273,14.273,0,0,0-50.53-1.582q-.738-1.793-5.484-4.008A12.467,12.467,0,0,0-50.53-9.492Zm39.4-11.021v7.066a36.864,36.864,0,0,1-.422,4.061h8.016V-20.514Zm-1,14.08Q-14.66,4.008-23.045,8.49A62.836,62.836,0,0,0-19.934-9.281V-29.32q.527-7.436,8.068-11.285l2.109.686q-.264.686-.475,1.424H17.3q3.059,0,3.27,3.428V6.064Q20.514,7.646,19.09,7.7H11.813V-6.434H4.588V7.646H-3.533V-6.434Zm1.371-29.109a46.257,46.257,0,0,0-.422,4.852l.053,7.225h7.594V-35.543ZM11.813-9.387V-20.514H4.588V-9.387Zm0-14.08V-35.543H4.588v12.076Zm35.079-17.3,1.318,2.742a48.91,48.91,0,0,1-4.957,2q-.791.264-1.687.527v8.068h5.748v2.9H41.565v7.646h5.643v2.9H41.565v8.068H71.2V-14.4H65.981v-2.9H71.2v-7.436H65.981v-2.9H71.2v-8.49H66.139v-2.848h9.439q2.689,0,2.848,2.953V-5.906h3.164v2.9H31.809v-2.9h2.584V-38.127h6.064q.9-.264,1.582-.527A44.266,44.266,0,0,0,46.891-40.764ZM41.249-1.74H51.69a22.054,22.054,0,0,1-7.436,6.486,33.848,33.848,0,0,1-8.016,3.217,4.191,4.191,0,0,1-1.74.475q-.369,0-.369-1.107A30.345,30.345,0,0,0,41.249-1.74Zm31.271,0a28.133,28.133,0,0,0,2.742,4.377A60.152,60.152,0,0,0,79.27,7.172q0,1.055-.527,1.107a2.986,2.986,0,0,1-1.529-.369A27.362,27.362,0,0,1,68.565,3.9,22.858,22.858,0,0,1,62.606-1.74Zm-16.031-30.9-.316,3.48h4.482q3.533,0,3.85,4.113v10.125q-.158,7.752-4.957,7.91a28.1,28.1,0,0,1-6.539-1.107q-.211.9-.369,1.529L47.1-7.225a135.307,135.307,0,0,0,2.426-14.555l5.7.316q-.738,5.643-1.477,9.65a7.324,7.324,0,0,0,2.057.58q2.689,0,2.742-5.168v-8.754H49.317l1.371-14.924h6.486l-.369,3.955h7.8v3.48Zm34.182-.316h6.223V-40.5h7.8v7.541h5.59v2.9H104.7v7.277a63.346,63.346,0,0,1-.58,7.225h6.7v2.9h-5.379a62.485,62.485,0,0,0,2.268,6.7Q109.339-1.74,111.4,2.32a37.619,37.619,0,0,0,4.008-8.7h-3.9V-39.393h21.99q2.479.053,2.479,2.742v30.27h-3.586V4.641h5.8l-.369,2.848H127.427q-2.848,0-2.848-2.9V-6.381h-.844q-5.115,13.131-15.5,14.607-1.371,0-1.371-.633a19.209,19.209,0,0,0,3.322-3.428,4.266,4.266,0,0,1-.9-.475,27.061,27.061,0,0,1-7.857-8.49Q97.58,4.641,89.248,8.174q-1.318,0-1.318-.686a45.377,45.377,0,0,0,8.227-20.145H88.931v-2.9h7.646q.264-2.426.316-4.852v-9.65H90.671Zm31.8-.264a13.709,13.709,0,0,0,4.957,3.955,12.893,12.893,0,0,0-4.957,4.008q-.527-1.371-3.27-3.006v7.225a12.84,12.84,0,0,0,3.375-3.375,14.455,14.455,0,0,0,4.957,4.219,12.842,12.842,0,0,0-4.957,4.271Q122-17.455,119.2-19.2v10.02h8.859V-36.7H119.2v6.592A13.093,13.093,0,0,0,122.47-33.223Zm23.161-1.213h8.807V-40.5H161.5v6.064h4.852v2.9H161.5v14.027a47.88,47.88,0,0,0,5.484,5.537v-1.266h22.887q2.848.053,2.848,3.111V7.436H166.989V-10.178l-1.9,2.162A50.733,50.733,0,0,1,161.5-11.76V8.121h-7.066V-8.016A22.466,22.466,0,0,1,146.053,5.7a58.028,58.028,0,0,0,2.531-17.455q-.264-6.012-3.428-6.223v-2.584l8.7-10.969h-8.227Zm8.807,7.014-3.9,5.326a6.793,6.793,0,0,1,3.9,4.852Zm36.809-10.283q2.109,0,2.109,2.637a39.835,39.835,0,0,1-9.281,12.34,43.237,43.237,0,0,0,10.547,6.8,1.226,1.226,0,0,1,.791,1.055q-.053.422-1.107.686a43.452,43.452,0,0,1-14.291-5.484,37,37,0,0,1-13.764,5.484q-1.529,0-1.529-.58a1.489,1.489,0,0,1,.316-1,37.464,37.464,0,0,0,10.389-6.908,36.569,36.569,0,0,1-5.537-5.168,18.451,18.451,0,0,1-2.426,1.529,5.383,5.383,0,0,1-2.162.58q-.422,0-.422-1.371a51.111,51.111,0,0,0,5.537-13.289H178.8a20.5,20.5,0,0,1-1.107,2.689ZM175-33.064a55.33,55.33,0,0,0,4.588,5.854,41.37,41.37,0,0,0,4.641-7.594h-8.068Q175.584-33.908,175-33.064Zm-.475,22.729V4.377h10.441V-10.336Z" transform="translate(960 366)" fill="#ee8000"/>
    </g>
  </g>
</svg>
