<svg xmlns="http://www.w3.org/2000/svg" xmlns:xlink="http://www.w3.org/1999/xlink" width="375" height="667" viewBox="0 0 375 667">
  <defs>
    <linearGradient id="linear-gradient" x1="1" x2="0" y2="1" gradientUnits="objectBoundingBox">
      <stop offset="0" stop-color="#ffbf47"/>
      <stop offset="0.146" stop-color="#fdb547"/>
      <stop offset="0.509" stop-color="#fb911a"/>
      <stop offset="0.844" stop-color="#fe8220"/>
      <stop offset="1" stop-color="#fd831a"/>
    </linearGradient>
    <clipPath id="clip-cover7_m">
      <rect width="375" height="667"/>
    </clipPath>
  </defs>
  <g id="cover7_m" clip-path="url(#clip-cover7_m)">
    <rect width="375" height="667" fill="#fff"/>
    <rect id="cover1" width="375" height="667" fill="url(#linear-gradient)"/>
    <path id="路径_195" data-name="路径 195" d="M232.261,465.629c31.183,4.01,62.636,4.61,94.014,5.813,14.387.551,28.492-.112,41.774,5.048,12.437,4.833,22.366,14.533,35.2,18.691,9.959,3.226,20.7,3.112,31.1,1.929a159.971,159.971,0,0,0,110.987-65.657c23.421-33.107,33.2-75.469,27.066-115.522-3.721-24.293-14.9-46.948-17.581-71.426-2.833-25.877,7.051-48.437,13.3-73.045a187.443,187.443,0,0,0,5.632-52.632c-.361-10.194-1.642-20.64-6.464-29.629-13.1-24.413-46.128-29.019-73.7-26.267A258.013,258.013,0,0,0,395.4,93.443c-23.7,13.089-47.183,32.142-74.388,37.307-30.676,5.823-54.4-15.2-82.01-24.786-62.116-21.574-137.112,20.805-164.5,77.17-33.8,69.582-29.956,183.411,33.318,235.05,34.481,28.141,78.914,41.442,123.039,47.262Q231.563,465.54,232.261,465.629Z" transform="translate(-37.41 114.904)" fill="#ffbf47" opacity="0.6"/>
    <path id="路径_529" data-name="路径 529" d="M2.492-17.7H11.1a3.8,3.8,0,0,0,.68-1.444,5.2,5.2,0,0,1,.793-1.812q.68-.793,4.135-.821a18.287,18.287,0,0,0,.227,3.257,2.131,2.131,0,0,0,.312.821h9.147v1.558H24.129a96.31,96.31,0,0,1-1.756,17.53h5.154V2.945H1.473V1.388H6Q4.588-4.7,4.56-16.143H2.492ZM10.535,1.388h7.108a102.927,102.927,0,0,0,1.982-17.53H9.091A85.549,85.549,0,0,0,10.535,1.388Zm31.3-1.416A26.113,26.113,0,0,1,38.8-6.372h4.814a45.076,45.076,0,0,0,1.246,4.7Q45.658.708,46.678,3a2.838,2.838,0,0,1,.312.935q0,.2-.651.2a3.052,3.052,0,0,1-.963-.453,12.316,12.316,0,0,1-2.521-2.351,27.719,27.719,0,0,1-4.673,1.331,51.935,51.935,0,0,1-6.655.566l-.085-1.586q.878-.028,1.643-.057V-21.269H44.638q.935.113.935,1.189V-7.986H37.388V1.133q.368-.057.651-.113A26.3,26.3,0,0,0,41.835-.028ZM39.258-17.757a9.081,9.081,0,0,0,1.869,1.982v-4.05H37.388v4.163A7.168,7.168,0,0,0,39.258-17.757Zm-1.869,3.682v4.531h3.738V-14.1a10.237,10.237,0,0,0-1.869,2.1A4.659,4.659,0,0,0,37.388-14.075ZM51.464,2.181V4.3H47.5V-21.042h8.779q1.444,0,1.529,2.464V-.595a3.034,3.034,0,0,1-.85,2.237,4.386,4.386,0,0,1-2.322.623Q52.738,2.266,51.464,2.181Zm0-21.608V.595q.878.057,1.643.057.51,0,.538-1.048V-19.428ZM67.98-10.252H82.65v1.558H81.007v4.531h2.464v1.558H81.007V4.05H76.986V-2.605H73.7v1.331q-.4,4.3-5.3,5.919A8.772,8.772,0,0,0,69.651.651V-2.605H67.272V-4.163h2.379v-1.9a3.629,3.629,0,0,1,1.586-2.634H67.98Zm5.947,1.558a10.389,10.389,0,0,0-.255,1.982v2.549h3.313V-8.694Zm7.76-10.394a7.621,7.621,0,0,0,2.549,2.266A6.913,6.913,0,0,0,81.687-14.5a4.542,4.542,0,0,0-1.926-1.926v2.662h4.673v-6.23H79.761v2.832A5.867,5.867,0,0,0,81.687-19.088ZM67.98-19.173a7.621,7.621,0,0,0,2.549,2.266,6.913,6.913,0,0,0-2.549,2.322,3.966,3.966,0,0,0-1.614-1.7v2.577h4.5v-6.372h-4.5v2.634A7.009,7.009,0,0,0,67.98-19.173Zm-1.614,7V4.475H62.6V-21.5h10.79q1.246.142,1.246,1.558v7.76Zm18.068-.057H76.023V-21.5H86.785q1.388,0,1.444,1.869V4.361H84.434ZM117.065-21.1q.963,0,.963,1.1a11.928,11.928,0,0,1-3.257,2.124,16.108,16.108,0,0,1-2.974,1.133q.538.4,1.1.736h3.823q1.444,0,1.558,1.643V-.736q-.028.68-.651.708h-3.2v-4.56h-1.954V-.113h-3.908V-4.588h-2.351a6.757,6.757,0,0,1-3.6,5.069,18.764,18.764,0,0,0,8.808,1.954,11.192,11.192,0,0,0,4.645-.736,3.062,3.062,0,0,0,1.048-.85,1.361,1.361,0,0,1,.793-.708.977.977,0,0,1,.878,1.048A4.4,4.4,0,0,1,115.96,3.4a17.587,17.587,0,0,1-5.013.595q-8.015,0-12.687-3.455A13.644,13.644,0,0,1,93.5,3.767a2.106,2.106,0,0,1-.595.142q-.255-.057-.255-.623a19.982,19.982,0,0,0,5.3-10.847H95.825q-.595.34-1.161.595a1.784,1.784,0,0,1-.85.17q-.255-.057-.255-.595a19.191,19.191,0,0,0,2.945-6.57H92.823V-15.35h7.76q.991,0,.991,1.218A13.669,13.669,0,0,1,98.742-9.8q-.34.34-.708.68h3.115a1.2,1.2,0,0,1,1.218.623v-4.928q.227-2.322,3.342-3.512l.963.34a5.481,5.481,0,0,0-.142.595h2.832a40.808,40.808,0,0,1-3.823-2.351l1.586-1.218h-4.361V-21.1ZM99.789-1.416A13.328,13.328,0,0,0,101.97.113a24.606,24.606,0,0,0,.4-3.852V-7.25A19.8,19.8,0,0,1,99.789-1.416Zm8.241-18.153q1.3,1.076,2.719,2.124.312-.283.623-.595a4.72,4.72,0,0,0,1.02-1.529Zm-1.7,5.154v3.483h2.237v-3.483Zm0,5.041.028,3.229h2.209V-9.374Zm6.146-5.041v3.483h1.954v-3.483Zm0,5.041v3.229h1.954V-9.374ZM96.7-21.212a8.174,8.174,0,0,0,2.69,2.8,7.419,7.419,0,0,0-2.69,2.8q-.368-1.218-2.69-2.8A6.667,6.667,0,0,0,96.7-21.212Zm31.158,9.063h16.766v1.558h-6.174v5.268h7.363v1.558h-7.363V2.039h10.422V3.625H123.669V2.039h10.592V-3.767h-7.42V-5.324h7.42v-5.268h-6.4ZM124.8-21.155h19.853a28.721,28.721,0,0,0,4.729,10.28.7.7,0,0,1,.17.4q-.028.227-.453.227-6.23-1.3-9.062-9.374h-6.372a18.91,18.91,0,0,1-9.912,9.544q-.651,0-.736-.113a.966.966,0,0,1,.17-.595,24.768,24.768,0,0,0,5.409-8.836H124.8ZM170.913-7.788l4.984-3,.991,1.189-3.144,1.926a24.127,24.127,0,0,0,6.315,9.147q.142.057.142.34a.379.379,0,0,1-.425.34Q174.4,1.359,171-4.191V1.9q0,2.492-2.662,2.492a12.408,12.408,0,0,1-1.982-.17,10.874,10.874,0,0,1-5.183-2.181l.991-1.388a6.147,6.147,0,0,0,2.209,1.359,8.962,8.962,0,0,0,2.039.51V-3.427L155.648,3.908l-1.1-1.388L166.41-5.466q0-1.246-.028-2.266L155.62-.906l-1.048-1.274,11.7-7.42a15.187,15.187,0,0,0-.368-2.011L155.762-5.636l-1.1-1.388L164.966-13h-5.579v-1.586H174.17V-13h-6.032Q170.573-11.64,170.913-7.788Zm-12.149-9.232v5.806h-4.3v-7.42H163.8a4.6,4.6,0,0,0,.623-1.02,2.869,2.869,0,0,1,.906-1.274q.963-.793,3.823-.85a12.031,12.031,0,0,0,.227,2.634,1.253,1.253,0,0,0,.2.51h8.3a1.1,1.1,0,0,1,1.189,1.133v6h-4.361v-5.522Zm28.864-4.135a10.626,10.626,0,0,0,3.625,3.229,9.714,9.714,0,0,0-3.625,3.285q-.51-1.444-3.625-3.285A8.287,8.287,0,0,0,187.628-21.155Zm3.823,8.27q-1.189,2.237-1.189,7.307A12.065,12.065,0,0,1,188.846.566a9.069,9.069,0,0,1-5.353,3.568A11.11,11.11,0,0,0,185.617-1.9a19.654,19.654,0,0,1,1.161-6.8A8.272,8.272,0,0,1,191.451-12.886Zm1.614,4.673h7.7a7.92,7.92,0,0,0-3.144-2.917,7.478,7.478,0,0,0,3.172-3.059,9.507,9.507,0,0,0,3.172,3.059,8.473,8.473,0,0,0-3.115,2.917h7.335q.991,0,.991,1.359a14.464,14.464,0,0,1-3.568,4.39,16.768,16.768,0,0,1-3.37,2.1,7.581,7.581,0,0,1,1.444.935,19.339,19.339,0,0,0,4.758,2.889,7.182,7.182,0,0,1-2.832.425,9.753,9.753,0,0,1-1.643-.2,9.561,9.561,0,0,1-2.945-1.048,18.8,18.8,0,0,1-2.464-1.586,15.2,15.2,0,0,0-4.588-1.869q-.736-.142-.736-.312,0-.2.736-.4a14.061,14.061,0,0,1,2.521-.227,12.86,12.86,0,0,1,3.908.566,15.37,15.37,0,0,0,3.71-5.466H193.065ZM200.8-19.371q-2.775,7.25-8.949,9.742a1.044,1.044,0,0,1-.566-.085,1.1,1.1,0,0,1,.085-.481,30.919,30.919,0,0,0,5.268-11.017h8.553a28.254,28.254,0,0,0,5.211,10.9q0,.481-.142.51a.917.917,0,0,1-.566-.17Q204.28-12.6,200.8-19.371Zm20.368-.708h7.448v-1.728h4.248v1.728h7.5v1.558h-7.5v2.152h5.494q1.331.028,1.331,1.473v9.431h-6.825V4.361h-4.248V-5.466h-6.684v-10.9h6.684v-2.152h-7.448Zm5.069,5.239v2.86h2.379v-2.86Zm0,4.418v3.37h2.379v-3.37Zm6.627,3.37h2.322v-3.37h-2.322Zm2.322-4.928v-2.86h-2.322v2.86Zm-17.615-9.176a10.626,10.626,0,0,0,3.625,3.229,9.714,9.714,0,0,0-3.625,3.285q-.51-1.444-3.625-3.285A8.5,8.5,0,0,0,217.568-21.155Zm3.823,8.27q-1.133,2.152-1.133,7.108A12.8,12.8,0,0,1,218.927.481,8.7,8.7,0,0,1,213.8,4.135a10.373,10.373,0,0,0,1.954-5.579,21.8,21.8,0,0,1,1.133-7.08A8.2,8.2,0,0,1,221.391-12.886Zm1.7,8.694h4.984A14.78,14.78,0,0,1,224.591.878a12.562,12.562,0,0,1-3.71,2.521,2.448,2.448,0,0,1-.85.2q-.17-.028-.17-.51A17.241,17.241,0,0,0,221.816.113,15.062,15.062,0,0,0,223.09-4.191Zm14.953.028a20.493,20.493,0,0,0,1.331,3.37,38.733,38.733,0,0,0,1.9,3.568q0,.453-.227.481a1.3,1.3,0,0,1-.68-.17,12.109,12.109,0,0,1-4.191-3.03,14.929,14.929,0,0,1-2.889-4.22ZM50.031,15.742h3.937v-2.69h3.738v2.69h3.285V17.3H57.705v4.9h3.653v1.558h-3V29a6.056,6.056,0,0,0,1.756-2.1A7.806,7.806,0,0,0,62.6,29.478a5.919,5.919,0,0,0-1.133.85h4.673V26.419H61.812V24.833H74.924v1.586H70.308v3.908h5.353v1.586H70.308v4.758H66.145V31.913h-5.1v-1.1a11.719,11.719,0,0,0-.935,1.274,4.836,4.836,0,0,0-1.756-2.1v6.089a22.672,22.672,0,0,0,8.949,1.473,18.123,18.123,0,0,0,5.607-.651,5.89,5.89,0,0,0,1.161-.765,1.794,1.794,0,0,1,.991-.651.977.977,0,0,1,.878,1.048q-.708,1.331-3.285,2.039a25.656,25.656,0,0,1-5.777.538q-8.893,0-14.217-4.135a5.832,5.832,0,0,1-3.653,4.814l-.283-4.333a4.979,4.979,0,0,0,1.218-3.625V25.569h3.795v6.2a6.467,6.467,0,0,0,.878,1.473V23.757H49.436V22.2h4.531V17.3H50.031Zm17.813.085a8,8,0,0,0,2.719,2.492V15.2H66.117v2.549A7.351,7.351,0,0,0,67.844,15.827Zm-1.728,3.483V21.52h4.446v-2.86a8.135,8.135,0,0,0-2.719,2.549A4.764,4.764,0,0,0,66.117,19.311ZM74.7,23.134H62.152V13.646H73.508q1.189.028,1.189,1.3Zm30.054,5.777h1.189v1.558h-4.418a27.4,27.4,0,0,0,1.529,3.483,38.921,38.921,0,0,0,2.605,4.248,2.02,2.02,0,0,1,.453.85q0,.2-.708.2a3.669,3.669,0,0,1-1.161-.4,18.106,18.106,0,0,1-7.675-8.383H96.4q-1.982,6.542-6.684,8.893-.736,0-.736-.368a30.563,30.563,0,0,0,3.483-8.524h-3.4V28.911H92.8a41.11,41.11,0,0,0,.765-7.137v-3.88H89.826V16.309h3.738V13.193h4.248v3.115h5.381q1.473,0,1.558,1.614ZM97.813,17.895V20.5a40.014,40.014,0,0,1-.991,8.411h3.512V17.895ZM84.5,13.137H88.41V21.52a46.087,46.087,0,0,0,3.313,3.427L90.195,26.7a23.919,23.919,0,0,1-1.784-1.869V39.418H84.5Zm-4.22,8.241q.227-2.662,3.483-4.021l.566.2a10.97,10.97,0,0,0-.481,3.229l.028,8.043a7.17,7.17,0,0,1-4.446,6.6,16.957,16.957,0,0,0,.85-4.9ZM109.741,13.9h11.923v1.558h-1.586V39.3H116.34V34.6a15.289,15.289,0,0,0-5.607,2.577l-1.02-1.614q.566-.34,1.1-.623V15.459h-1.076Zm4.814,19.484a17.081,17.081,0,0,1,1.784-.481V27.92h-1.784Zm0-7.023h1.784V21.689h-1.784Zm0-6.23h1.784V15.459h-1.784Zm6.4,6.372h2.974v5.862h.821a3.435,3.435,0,0,0,.028-.425V26.306h3.342V30.95q-.255,6.712-5.3,8.411-.793,0-.793-.425a10.072,10.072,0,0,0,2.492-4.956H122.74a1.6,1.6,0,0,1-1.784-1.841Zm8.015-.283h3.2v6.4h.538q.17,0,.255-.765.028-.623.028-2.039V26.391h3.087v5.3a3.248,3.248,0,0,1-.368,1.813,1.575,1.575,0,0,1-1.388.651h-2.152v5.013h-3.2Zm-8.241-5.749a6.742,6.742,0,0,1,1.5-4.078,11.2,11.2,0,0,1,2.209-1.643,20.379,20.379,0,0,0,2.266-1.5,4.427,4.427,0,0,1-1.416,3.71,4.034,4.034,0,0,0-1.5,2.181h.51l.453-.283a9.278,9.278,0,0,0,2.464-2.209,2.359,2.359,0,0,1,.538,1.643,3.7,3.7,0,0,1-1.841,2.747,4.8,4.8,0,0,0-1.9,2.775h1.643q-.2-.736-.368-1.586l1.982-.878q.425,1.954,1.02,3.993h-7.646A7.837,7.837,0,0,1,122.4,20.7l.227-.227Zm7.562,0a6.948,6.948,0,0,1,1.444-4.078,11.125,11.125,0,0,1,2.124-1.643,18.078,18.078,0,0,0,2.181-1.5,4.63,4.63,0,0,1-1.3,3.71,3.9,3.9,0,0,0-1.388,2.181h.538a7.752,7.752,0,0,1,.736-.453,9.72,9.72,0,0,0,2.521-2.266,2.359,2.359,0,0,1,.538,1.643,3.86,3.86,0,0,1-1.9,2.86,4.931,4.931,0,0,0-1.982,2.889h1.841q-.227-.736-.425-1.586l1.982-.878q.481,1.954,1.161,3.993h-7.93a8.234,8.234,0,0,1,1.784-4.758l.113-.113Zm12.155-6.655h5.183V12.91h3.4v.906h4.9v1.473h-4.9v.51h3.6q1.048.028,1.048,1.133v4.135h-4.645V21.6h4.928v1.473h-4.928V24.89H150.7V23.474h3.115v2.747l.51-.057a14.908,14.908,0,0,0,4.135-1.133q-.028,2.407-1.473,3.115a42.456,42.456,0,0,1-4.928.68,12.879,12.879,0,0,0-3.823.821H153.7q1.982-.283,4.191-.566a15.5,15.5,0,0,0,4.843-1.416q-.425,3.144-2.521,3.965a35.5,35.5,0,0,1-5.692.708,20.574,20.574,0,0,0-5.777,1.189h12.178a8.874,8.874,0,0,1-1.218-.906l3.285-1.671a33.8,33.8,0,0,0,3.37,4.191h-2.889a11.419,11.419,0,0,0,2.549,1.869A8.033,8.033,0,0,0,162.9,39.56q-.425-1.1-3.115-2.549a6.682,6.682,0,0,0,2.549-1.869h-6.429V39.5h-4.645V35.142H144.5a9.938,9.938,0,0,0,2.775,2.011,8.1,8.1,0,0,0-3.115,2.407q-.425-1.048-3.115-2.407a6.686,6.686,0,0,0,2.775-2.011h-2.209q.51-2.521,4.956-4.05a2.618,2.618,0,0,1,.312-.085H142.2q.4-1.982,3.823-3.257a51.441,51.441,0,0,1,7-1.416H141.834a.939.939,0,0,1-1.048-1.076V23.474h3V24.89h1.841V23.077H140.3V21.6h5.324v-.538h-4.7V15.8h4.7v-.51h-5.183Zm3.88,3.229v.68h1.3v-.68Zm0,1.982v.765h1.3v-.765Zm4.7.765h1.161v-.765h-1.161Zm1.161-2.067v-.68h-1.161v.68Zm8.213-2.945v1.728q-.2,1.813-2.917,1.9h-1.3a7.85,7.85,0,0,0,.623-3.455V13.222h9.2q.935.142.935,1.614v.793q.028,1.133.68,1.189h.85V18.4H163.1a1.579,1.579,0,0,1-1.473-1.643V14.779Zm6.542,4.135q.906,0,.906,1.1a14.813,14.813,0,0,1-3.37,2.577,8.1,8.1,0,0,1,.906.68,15.76,15.76,0,0,0,3.852,2.605,7.018,7.018,0,0,1-2.69.4,8.288,8.288,0,0,1-1.331-.17,7.333,7.333,0,0,1-2.379-.963,11.661,11.661,0,0,1-1.473-.991,24.328,24.328,0,0,1-4.39,1.416q-.623,0-.623-.227a.671.671,0,0,1,.113-.425,20.529,20.529,0,0,0,3.342-1.812,11.8,11.8,0,0,0-2.662-1.02q-.595-.142-.595-.283,0-.2.68-.368a12.245,12.245,0,0,1,2.351-.227,10.037,10.037,0,0,1,2.181.227,7.6,7.6,0,0,0,.793-.991h-6.287V18.914Zm18.357,4.56a5.826,5.826,0,0,1-2.917,5.353,12.045,12.045,0,0,1-6.259,1.444v6.117H170.5V17.045h4.616Q183.3,17.045,183.3,23.474Zm-3.823.028q0-4.786-5.353-4.871V28.713A6.133,6.133,0,0,0,178,27.269,4.984,4.984,0,0,0,179.477,23.5Zm18.584,12.886h-3.653V35.68a4.083,4.083,0,0,1-2.436,1.048,4.034,4.034,0,0,1-3.115-1.331,4.955,4.955,0,0,1,.425-6.938,5.55,5.55,0,0,1,3.823-1.473,4.066,4.066,0,0,1,1.3.283V25.4a1.039,1.039,0,0,0-1.189-1.161,7.052,7.052,0,0,0-3.71,1.274l-.312-1.529a8.5,8.5,0,0,1,4.078-1.274,4.436,4.436,0,0,1,3.6,1.558,5.94,5.94,0,0,1,1.189,3.852Zm-3.653-2.294V28.77a2.961,2.961,0,0,0-1.161-.227,1.98,1.98,0,0,0-1.784,1.218A4.428,4.428,0,0,0,190.9,32a5.067,5.067,0,0,0,.368,1.926q.425,1.218,1.274,1.218a1.926,1.926,0,0,0,1.02-.368Q193.983,34.462,194.408,34.094ZM215.059,23.36,207.3,40.777l-1.756-.736L207.809,35q-1.954-1.671-3.427-7.193a16.96,16.96,0,0,0-1.841-4.786,6.015,6.015,0,0,1,3.653.906,6.552,6.552,0,0,1,1.9,3.313,37.9,37.9,0,0,0,1.529,3.795l3.738-8.354Zm16.4,13.027H228.6l-6.91-14.245V36.388h-3.653V17.045h3l6.769,13.82V17.045h3.653ZM246.874,29.7a7.454,7.454,0,0,1-1.671,4.928,5.925,5.925,0,0,1-4.7,2.1,5.481,5.481,0,0,1-4.39-2.011,7.07,7.07,0,0,1-1.586-4.645A8.365,8.365,0,0,1,236.055,25a5.44,5.44,0,0,1,4.588-2.322,5.737,5.737,0,0,1,4.7,2.039A7.63,7.63,0,0,1,246.874,29.7Zm-3.937,0a20.758,20.758,0,0,0-.2-3.4q-.481-2.294-1.869-2.294t-1.954,2.521a15.79,15.79,0,0,0-.368,3.653,13.264,13.264,0,0,0,.312,3.059q.538,2.067,1.7,2.067Q242.937,35.312,242.937,29.7Zm20.708-6.2-2.294,12.886H258.8l-2.011-7.845L254.5,36.388h-2.492l-2.351-13,3.6-.651.906,5.154,1.161-4.333h1.728l1.784,7.165,1.388-8.015Zm18.725-8.185h-1.586V25.8h1.586Zm-1.586,12.036v9.827h12.234l-.227,1.7H278.321a1.439,1.439,0,0,1-1.614-1.643V13.76h14.812q.708.2.85,1.218V27.354Zm5.664-1.558H288.2V15.317h-1.756ZM275.4,35.878h-8.5V15.346h7.448q1.048.028,1.048,1.133Zm-4.758-19.2V34.49h1.1V16.677Z" transform="translate(41 130)" fill="#fff"/>
    <g id="组_17722" data-name="组 17722" transform="translate(-128.359 394.467)">
      <g id="组_17714" data-name="组 17714" transform="translate(465.588 208.075)">
        <path id="路径_164" data-name="路径 164" d="M471.525,132.165c.2.195-3.042,3.839-9.762,7.8a58.587,58.587,0,0,1-58.3.43c-6.778-3.868-10.071-7.463-9.876-7.662.28-.355,3.962,2.679,10.748,6a62.41,62.41,0,0,0,56.533-.417C467.6,134.9,471.241,131.814,471.525,132.165Z" transform="translate(-393.578 -132.138)" fill="#6e5395"/>
      </g>
      <g id="组_17715" data-name="组 17715" transform="translate(402.396 190.129)">
        <path id="路径_165" data-name="路径 165" d="M428.691,135.307c-.183.405-3.769-1.085-9.81-2.43a104.506,104.506,0,0,0-10.733-1.766c-4.084-.45-8.6-.809-13.365-1.148s-9.333-.718-13.479-1.233a87.183,87.183,0,0,1-10.939-2.034c-6.161-1.608-9.648-3.511-9.527-3.777.158-.407,3.827.845,9.928,1.945,3.046.579,6.716,1.029,10.806,1.438,4.1.374,8.627.679,13.4,1.015s9.347.778,13.491,1.372a75.888,75.888,0,0,1,10.891,2.374C425.459,132.923,428.828,135.056,428.691,135.307Z" transform="translate(-360.835 -122.839)" fill="#6e5395"/>
      </g>
      <path id="路径_166" data-name="路径 166" d="M370.006,100.2c11.453-2.428,23.316-.338,34.865,1.586s23.538,3.659,34.829.562c20.385-5.6,35.859-26.19,57-26.024,8.7.068,16.911,3.785,25.391,5.751,10.53,2.443,21.5,2.179,32.167,3.924s21.689,6.031,27.719,15c7.153,10.648,5.19,25.669-2.316,36.072S560.134,153.81,547.818,157.4c-8.59,2.5-17.742,3.953-25.177,8.934-7.519,5.037-12.429,13.149-19.437,18.879-17.578,14.375-44.938,10.256-63.1-3.381-4.563-3.428-8.793-7.4-13.917-9.911-20.85-10.2-50.836,3.306-68.793-15.264C339.162,137.8,341.76,106.189,370.006,100.2Z" transform="translate(27.579 24.029)" fill="#6e5395"/>
      <g id="组_17717" data-name="组 17717" transform="translate(316.147 50.484)">
        <g id="组_17716" data-name="组 17716">
          <path id="路径_167" data-name="路径 167" d="M355.378,282.315s19.105,40.945,21.338,33.364,1.492-25.794.3-28.394S368,273.2,368,273.2Z" transform="translate(-279.662 156.641)" fill="#f4b19f"/>
          <path id="路径_168" data-name="路径 168" d="M428.89,118.773c1.768,2.264.587-.17,2.588,3.1,8.318-.291,13.9-7.33,13.9-7.33s13.2.351,13.051-2.007-12.657-1.48-12.657-1.48,13.23-4.157,12.5-6.232-16,4.541-16,4.541,15.413-9.569,13.136-11.1-17.106,6.821-17.106,6.821S451.2,94.5,449.269,93.129s-19.8,12.414-19.8,12.414c.261-6.776-4.6-6.539-4.6-6.539l.2,16.55A29.413,29.413,0,0,1,428.89,118.773Z" transform="translate(-215.042 -10.913)" fill="#ffc5b1"/>
          <path id="路径_169" data-name="路径 169" d="M334.287,83.441c-2.827.519-.635-.463-4.3.656-6.023-5.742-5.225-14.77-5.225-14.77s-10.1-8.5-8.426-10.163,10.449,7.3,10.449,7.3S319.652,54.568,321.57,53.5s8.951,14.016,8.951,14.016-5.176-17.385-2.455-17.023,8.262,16.453,8.262,16.453-2.607-16.469-.263-16.208,6.574,22.432,6.574,22.432c4.3-5.242,7.78-1.837,7.78-1.837l-10.91,12A41.937,41.937,0,0,0,334.287,83.441Z" transform="translate(-316.147 -50.484)" fill="#ffc5b1"/>
          <path id="路径_170" data-name="路径 170" d="M370.556,103.4c-3.653-.6-12.487,5.273-16.907,14.842-2.474,5.354-4.176,10.794-1.336,19.506,1.336,4.1,4.136,4.609,4.759,6.444.789,2.324-1.826,9.65-1.826,9.65l10.43,4.211c.677-5.031,1.445-10.1,6.574-12.281a53.407,53.407,0,0,0,5.78-2.372c4.887-2.8,7.494-8.928,9.5-13.944C389.03,125.709,379.716,104.9,370.556,103.4Z" transform="translate(-283.887 -1.313)" fill="#ffc5b1"/>
          <path id="路径_171" data-name="路径 171" d="M387.921,180.441l-17.47-7.012S318.6,269.578,318.817,296.254s71.209,80.083,71.209,80.083L402,365.987s-21.921-38.218-33.638-51.695S387.921,180.441,387.921,180.441Z" transform="translate(-313.664 63.854)" fill="#f4b19f"/>
          <path id="路径_172" data-name="路径 172" d="M404.8,243.662s38.505-18.269,30.768-19.883-25.833.608-28.325,2.013-13.307,10.121-13.307,10.121Z" transform="translate(-243.802 110.158)" fill="#ffc5b1"/>
          <path id="路径_173" data-name="路径 173" d="M385.291,176.63l-26.5,9.642s-26.51,116.6-16.39,134.909,38.54,6.2,79.02-15.9l33.906-18.509-11.316-7.533s-39.455,7.732-50.535,15.44c0,0,5.78-16.384,13.493-39.511S419.991,208.431,385.291,176.63Z" transform="translate(-293.875 66.831)" fill="#ffc5b1"/>
          <path id="路径_174" data-name="路径 174" d="M346.611,141.9c0-7.747,2.494-13.352,10.241-13.352s18.455,2.717,18.455,10.466-6.1,20.333-13.853,20.333S346.611,149.655,346.611,141.9Z" transform="translate(-287.815 22.119)" fill="#ffc5b1"/>
          <path id="路径_175" data-name="路径 175" d="M375.322,185.12s-24.092-26.072-28.909-51.61S333.4,66.535,333.4,66.535l-9.156,2.634s-4.339,56.632,0,65.305,25.524,66.415,31.978,81.579Z" transform="translate(-310.408 -35.557)" fill="#ffc5b1"/>
          <path id="路径_176" data-name="路径 176" d="M363.191,170.25s1.853-8.11,32.316-19.132,87.933-46.744,87.933-46.744l5.736,6.56s-31.227,36.07-49.394,42.4S383.027,184.6,379.057,186.6C373.053,189.619,373.129,193.421,363.191,170.25Z" transform="translate(-272.396 -0.368)" fill="#ffc5b1"/>
          <path id="路径_177" data-name="路径 177" d="M361.575,127.978S337.1,135.91,337.1,173.151c0,0,.015,51.01,5.784,60.289a51.6,51.6,0,0,0,21.07,0c12.259-2.521,24.125-11.565,24.125-11.565l19.254-57.8-2.3-27.082-26.178-5.057s7.512,35.1-19.659,20.008c-5.281-2.932,7.768-22.843,7.768-22.843Z" transform="translate(-296.661 21.585)" fill="#2c373f"/>
          <path id="路径_178" data-name="路径 178" d="M344.861,165.757,332.8,140.63s1.729-15.241,23.87-20.7c0,0,2.239,7.683,4.694,10.619s9.6,6.056,9.6,6.056Z" transform="translate(-300.659 14.096)" fill="#2c373f"/>
          <path id="路径_179" data-name="路径 179" d="M365.879,167.269l38.351-7.861s6.668-13.815-9.142-30.249c0,0-29.915,1.806-33.786,2.129-3.812.318-1.195,3.252-1.195,3.252Z" transform="translate(-276.08 22.683)" fill="#2c373f"/>
        </g>
        <path id="路径_180" data-name="路径 180" d="M360.431,180.093s-36.274,67.065-42.267,79.049c0,0,107.016,49.159,150.459-10.013,0,0-24.712-52.3-62.914-72.215h0l-16.48-4.933-28.153,7.789" transform="translate(-314.271 62.508)" fill="#2c373f"/>
      </g>
      <path id="路径_181" data-name="路径 181" d="M370.346,117.65s4.132-4.132,6.674-1.272-9.216,6.992-9.216,6.992Z" transform="translate(48.041 60.343)" fill="#ffc5b1"/>
      <g id="组_17718" data-name="组 17718" transform="translate(378.697 116.717)">
        <path id="路径_182" data-name="路径 182" d="M463.829,89.722c.043.145-1.556.834-4.6,1.558a63.452,63.452,0,0,1-13.155,1.509,130.31,130.31,0,0,1-19.545-1.374c-7.293-.967-15.216-2.387-23.552-3.3-8.322-.89-16.324-1.052-23.411.093a52.678,52.678,0,0,0-17.914,6.159,39.915,39.915,0,0,0-9.955,8.062c-2.017,2.3-2.922,3.762-3.127,3.64-.112-.06.492-1.712,2.32-4.285a35.522,35.522,0,0,1,9.789-9.019A51.434,51.434,0,0,1,379.16,85.8c7.378-1.328,15.631-1.224,24.1-.318,8.475.924,16.407,2.426,23.615,3.515a153.375,153.375,0,0,0,19.205,1.916C457.074,91.22,463.728,89.268,463.829,89.722Z" transform="translate(-348.556 -84.802)" fill="#6e5395"/>
      </g>
      <g id="组_17719" data-name="组 17719" transform="translate(392.161 165.347)">
        <path id="路径_183" data-name="路径 183" d="M360.718,120.3c-.011.162-1.191.274-2.986-.32a4.015,4.015,0,0,1-1.457-.809,2.347,2.347,0,0,1-.6-.878,1.987,1.987,0,0,1,.013-1.5c.056-.087.054-.293.168-.3l.347-.01a2.489,2.489,0,0,1,.749.091,6.018,6.018,0,0,0,.965.1,7.579,7.579,0,0,0,1.82-.183,7.38,7.38,0,0,0,4.941-3.854c.789-1.513.859-2.648,1.069-2.636.149-.017.442,1.191-.212,3.015a7.565,7.565,0,0,1-1.839,2.816,7.683,7.683,0,0,1-3.669,1.955,7.832,7.832,0,0,1-3.094.079c-.127-.023-.112-.052-.137-.035a.087.087,0,0,0-.021.075,1.276,1.276,0,0,0,.28.488,3.354,3.354,0,0,0,1.038.72C359.645,119.873,360.747,120.1,360.718,120.3Z" transform="translate(-355.532 -109.999)" fill="#f97a5d"/>
      </g>
      <path id="路径_184" data-name="路径 184" d="M353.761,115.567l14.128,5.566S355.475,129.695,353.761,115.567Z" transform="translate(34.981 60.527)" fill="#fff"/>
      <path id="路径_185" data-name="路径 185" d="M366.758,118.663c-.5.951-2.057,1.119-3.476.372s-2.162-2.123-1.662-3.076,2.059-1.119,3.478-.372S367.259,117.709,366.758,118.663Z" transform="translate(42.145 60.11)" fill="#f4b19f"/>
      <path id="路径_186" data-name="路径 186" d="M358.659,114.2c-.428.988-1.967,1.274-3.439.637s-2.316-1.953-1.889-2.941,1.967-1.274,3.437-.637S359.086,113.216,358.659,114.2Z" transform="translate(34.478 56.208)" fill="#f4b19f"/>
      <path id="路径_187" data-name="路径 187" d="M353.326,123.6s4.954,4.148,10.119,2.81c0,0-1.781,2.673-8.639,1.693C354.806,128.1,355.378,125.154,353.326,123.6Z" transform="translate(34.576 67.993)" fill="#eda091"/>
      <path id="路径_188" data-name="路径 188" d="M364.584,112.9a1.119,1.119,0,1,1-1.119-1.117A1.119,1.119,0,0,1,364.584,112.9Z" transform="translate(42.964 57.003)" fill="#2c373f"/>
      <circle id="椭圆_2" data-name="椭圆 2" cx="1.119" cy="1.119" r="1.119" transform="translate(396.15 165.481)" fill="#2c373f"/>
      <g id="组_17720" data-name="组 17720" transform="translate(407.127 163.891)">
        <path id="路径_189" data-name="路径 189" d="M367.3,112.272c-.345.145-1.013-.662-2.025-1.316-.99-.683-1.994-.99-1.992-1.366-.033-.359,1.368-.648,2.729.264S367.649,112.164,367.3,112.272Z" transform="translate(-363.287 -109.244)" fill="#6e5395"/>
      </g>
      <g id="组_17721" data-name="组 17721" transform="translate(395.001 160.738)">
        <path id="路径_190" data-name="路径 190" d="M357,108.36c-.023-.349,1.179-.791,2.789-.747,1.639.035,2.849.83,2.681,1.162s-1.3.191-2.733.164C358.3,108.9,357.027,108.741,357,108.36Z" transform="translate(-357.004 -107.61)" fill="#6e5395"/>
      </g>
      <path id="路径_191" data-name="路径 191" d="M359.618,296.776s5.877,20.858,11.945,19.151,1.505-30.818,1.505-30.818l-6.056-9.569S372.7,324.27,359.618,296.776Z" transform="translate(40.428 209.301)" fill="#2c373f"/>
      <path id="路径_192" data-name="路径 192" d="M398.014,230.04s4.273-4.663,9.453-5.439,23.7-2.98,26.42-.519-15.01,10.711-15.01,10.711,6.178-3.935,3.613-5.4C417.959,226.8,398.014,230.04,398.014,230.04Z" transform="translate(76.136 160.393)" fill="#2c373f"/>
      <path id="路径_193" data-name="路径 193" d="M394.207,230.28l5.8,11.771,3.162-1.757-7.731-11.6Z" transform="translate(72.596 165.738)" fill="#2c373f"/>
      <path id="路径_194" data-name="路径 194" d="M367.473,270.755l-14.231,12.826,4.217,3.514,11.947-13Z" transform="translate(34.499 204.851)" fill="#2c373f"/>
    </g>
  </g>
</svg>
