<svg xmlns="http://www.w3.org/2000/svg" xmlns:xlink="http://www.w3.org/1999/xlink" width="164" height="60" viewBox="0 0 164 60">
  <defs>
    <clipPath id="clip-path">
      <rect id="矩形_4" data-name="矩形 4" width="164" height="60" fill="#d2d2d2"/>
    </clipPath>
    <filter id="联合_6" x="66.941" y="0.174" width="97.43" height="62.421" filterUnits="userSpaceOnUse">
      <feOffset dy="1" input="SourceAlpha"/>
      <feGaussianBlur stdDeviation="0.5" result="blur"/>
      <feFlood flood-opacity="0.161"/>
      <feComposite operator="in" in2="blur"/>
      <feComposite in="SourceGraphic"/>
    </filter>
    <filter id="联合_5" x="-1.5" y="13.934" width="69.177" height="45.712" filterUnits="userSpaceOnUse">
      <feOffset dy="1" input="SourceAlpha"/>
      <feGaussianBlur stdDeviation="0.5" result="blur-2"/>
      <feFlood flood-opacity="0.161"/>
      <feComposite operator="in" in2="blur-2"/>
      <feComposite in="SourceGraphic"/>
    </filter>
  </defs>
  <g id="组_16515" data-name="组 16515" transform="translate(-80 -35)">
    <g id="蒙版组_1" data-name="蒙版组 1" transform="translate(80 35)" clip-path="url(#clip-path)">
      <g id="PayNow_交易流程" transform="translate(0 0.674)">
        <g transform="matrix(1, 0, 0, 1, 0, -0.67)" filter="url(#联合_6)">
          <path id="联合_6-2" data-name="联合 6" d="M12.039,42.424A112.709,112.709,0,0,1,6.492,31.116H6.3c.236,4.275.331,8.791.331,14.015v.189H0V5.363L8.434,22.757,20.284,45.463S16.118,33.993,22.5,23.527c-3.988-1.4-6.641-3.9-6.641-6.743,0-4.39,6.321-7.949,14.12-7.949S44.1,12.395,44.1,16.785a6.047,6.047,0,0,1-2.7,4.672,22.591,22.591,0,0,1,5.254-.6,20.916,20.916,0,0,1,11.712,3.385L57.426,21h7.346l1.9,9.55c.427,2.376.9,4.942,1.28,7.6h.142c.427-2.612,1.138-5.273,1.659-7.554L72.214,21H77.9l2.323,9.265c.662,2.661,1.279,5.228,1.705,7.887h.094c.332-2.612.806-5.273,1.375-7.932L85.342,21H92.4L85.3,44.228H78.564l-2.181-8.121a69.622,69.622,0,0,1-1.515-7.27h-.1a61.668,61.668,0,0,1-1.469,7.22L70.98,44.228H64.2l-.882-3.023A14.379,14.379,0,0,1,58.8,46.016a20.613,20.613,0,0,1-12.134,3.752,20.866,20.866,0,0,1-12.182-3.7q-5.994-4.2-5.992-10.752,0-6.6,5.992-10.753.253-.176.51-.343a24.064,24.064,0,0,1-5.008.514q-.515,0-1.022-.021c-7.977,11.633.063,30.066.063,30.066l-7.481,4.644Zm24.025-16.2q-5.35,3.5-5.35,9.09t5.35,9.087a18.972,18.972,0,0,0,10.6,3.1A18.58,18.58,0,0,0,57.21,44.4,10.976,10.976,0,0,0,62.3,37.688l-2.817-9.655a14.582,14.582,0,0,0-2.27-1.81,18.6,18.6,0,0,0-10.548-3.1A18.83,18.83,0,0,0,36.063,26.223ZM93.909,49.039V45.621l-1.186,3.418h-.485l-1.179-3.474v3.474h-.521V44.956h.812l.965,2.892c.09.268.153.471.195.6.048-.148.12-.367.217-.655l.979-2.842h.724v4.083Zm-5.793,0v-3.6H86.775v-.482h3.232v.482H88.656v3.6Zm-42.4-13.166a6.007,6.007,0,0,1-1.047-3.443,6.414,6.414,0,0,1,.394-2.195h-1.1l.251-1.338,3.195.65-.3,1.2-1.142-.2a5.892,5.892,0,0,0-.3,1.854,4.553,4.553,0,0,0,3.142,4.71,4.49,4.49,0,0,0,1.6.3,4.751,4.751,0,0,0,2.941-.977A5.322,5.322,0,0,0,55.2,33.906l-1-.252.4-1.1,3.342.7-.8,1.451-1-.452A6.555,6.555,0,0,1,53.9,37.265a5.7,5.7,0,0,1-3.494,1.155A5.27,5.27,0,0,1,45.716,35.874ZM54,30.424a2.1,2.1,0,0,1-.651-1.58,2.222,2.222,0,0,1,2.253-2.255,2.082,2.082,0,0,1,1.575.65,2.231,2.231,0,0,1,.626,1.6,2.226,2.226,0,0,1-2.2,2.209A2.212,2.212,0,0,1,54,30.424Zm-6.493-1.662a2.177,2.177,0,0,1-.652-1.6,2.1,2.1,0,0,1,.652-1.581,2.216,2.216,0,0,1,1.6-.623,2.079,2.079,0,0,1,1.573.65,2.221,2.221,0,0,1,.627,1.6,2.226,2.226,0,0,1-2.2,2.209A2.17,2.17,0,0,1,47.511,28.763ZM48.68,18.453a1.918,1.918,0,0,1-.4-1.377V15.167h-.616V14.1h.616v-.874l1.413-.39V14.1h1.035v1.065H49.694v1.69c0,.561.143.817.569.817a1.773,1.773,0,0,0,.428-.038l.007,1.094a3.008,3.008,0,0,1-.927.124A1.524,1.524,0,0,1,48.68,18.453Zm-2.332.4a.859.859,0,1,1,.008,0Zm8.969-.1-.436-1.626a13.5,13.5,0,0,1-.3-1.453h-.019a12.4,12.4,0,0,1-.294,1.444L53.8,18.75H52.443L51.086,14.1h1.47l.381,1.91c.084.476.179.99.256,1.521h.028c.086-.523.228-1.054.334-1.511l.491-1.921h1.139l.464,1.855c.132.532.256,1.045.342,1.577h.02c.065-.523.16-1.054.274-1.588l.389-1.844h1.411l-1.42,4.649ZM28.158.02l4.2-.02L30.281,5.187Z" transform="translate(68.44 0.67)" fill="#ef7e00"/>
        </g>
        <g transform="matrix(1, 0, 0, 1, 0, -0.67)" filter="url(#联合_5)">
          <path id="联合_5-2" data-name="联合 5" d="M44.141,36.629a11.373,11.373,0,0,0,3.126-1.237,8.287,8.287,0,0,0,2.986-2.9,2.01,2.01,0,0,0,.381-1.044,3.114,3.114,0,0,0-.286-1.187L41.818,9.026h8.008l3.459,11.4c.381,1.376.853,3.086,1.138,4.322h.142c.331-1.237.711-2.993,1.042-4.322l2.844-11.4h7.724l-5.4,15.3c-3.316,9.216-5.546,12.876-8.153,15.2a12.64,12.64,0,0,1-6.965,3.184ZM22.024,25.654c0-6.035,5.4-8.885,13.6-8.885v-.284c0-1.236-.666-2.993-4.22-2.993a13.541,13.541,0,0,0-6.4,1.71L23.68,10.595A19.017,19.017,0,0,1,32.686,8.5c7.726,0,10.143,4.562,10.143,10.025v8.125a30.162,30.162,0,0,0,.38,5.607H36.714l-.426-2.329h-.14a8.347,8.347,0,0,1-6.636,2.85A7.11,7.11,0,0,1,22.024,25.654Zm7.108-.713A2.591,2.591,0,0,0,31.976,27.7a3.978,3.978,0,0,0,3.742-2.66,5.144,5.144,0,0,0,.143-1.237V21.285C32.072,21.285,29.132,22.187,29.132,24.942ZM0,32.26V.666A58.955,58.955,0,0,1,9.762,0c4.456,0,7.679.855,9.81,2.614a9.164,9.164,0,0,1,3.364,7.364,10.063,10.063,0,0,1-2.891,7.6c-2.462,2.28-6.16,3.374-10.425,3.374a12.28,12.28,0,0,1-2.463-.19v11.5ZM7.158,5.748V15.2a10.96,10.96,0,0,0,2.416.19c3.839,0,6.208-1.947,6.208-5.181,0-2.943-1.991-4.7-5.64-4.7A13,13,0,0,0,7.158,5.748Z" transform="translate(0 14.43)" fill="#373943"/>
        </g>
        <path id="Fill-16" d="M106.627,38.338c0,7.169,7.722,12.98,17.248,12.98h0c9.528,0,17.249-5.812,17.249-12.98h0c0-7.169-7.72-12.98-17.249-12.98h0c-9.525,0-17.248,5.812-17.248,12.98" transform="translate(-8.779 -3.292)" fill="none" fill-rule="evenodd"/>
        <path id="联合_2" data-name="联合 2" d="M6.673,4.859a2.274,2.274,0,0,1-2.4-2.395A2.321,2.321,0,0,1,6.759,0,2.257,2.257,0,0,1,9.12,2.386,2.324,2.324,0,0,1,6.684,4.859Zm-.92-2.424c0,.788.333,1.388.94,1.388H6.7c.569,0,.921-.561.921-1.4,0-.684-.265-1.387-.921-1.387C6.02,1.038,5.753,1.741,5.753,2.435ZM0,2.474A2.42,2.42,0,0,1,2.653,0a3.371,3.371,0,0,1,1.1.18L3.526,1.256a1.968,1.968,0,0,0-.806-.143,1.2,1.2,0,0,0-1.242,1.3,1.214,1.214,0,0,0,1.27,1.312,2.051,2.051,0,0,0,.825-.151l.17,1.063a3.28,3.28,0,0,1-1.29.219A2.257,2.257,0,0,1,0,2.474Zm15.623,2.28V2.235c0-.674-.217-1.063-.681-1.063a.721.721,0,0,0-.675.5,1.5,1.5,0,0,0-.046.36V4.754h-1.4v-2.6c0-.581-.208-.979-.673-.979a.736.736,0,0,0-.673.512,1.007,1.007,0,0,0-.059.371v2.7h-1.4V1.588c0-.579-.019-1.064-.039-1.482H11.2l.058.637h.029A1.6,1.6,0,0,1,12.685,0a1.313,1.313,0,0,1,1.271.8h.019a2.016,2.016,0,0,1,.607-.571A1.763,1.763,0,0,1,15.463,0c.892,0,1.564.628,1.564,2.014V4.754Z" transform="translate(89.774 13.995)" fill="#fff"/>
      </g>
    </g>
  </g>
</svg>
