<svg xmlns="http://www.w3.org/2000/svg" width="937.079" height="51.891" viewBox="0 0 937.079 51.891">
  <path id="title07" d="M-466.509-32.959h16.031a7.082,7.082,0,0,0,1.266-2.689,9.683,9.683,0,0,1,1.477-3.375q1.266-1.477,7.7-1.529a34.052,34.052,0,0,0,.422,6.064,3.968,3.968,0,0,0,.58,1.529H-422v2.9h-4.219a179.336,179.336,0,0,1-3.27,32.643h9.6v2.9h-48.516v-2.9h8.438q-2.637-11.338-2.689-32.643h-3.85Zm14.977,35.543H-438.3a191.658,191.658,0,0,0,3.691-32.643h-19.617Q-454.17-9.229-451.533,2.584Zm58.282-2.637a48.625,48.625,0,0,1-5.643-11.812h8.965a83.935,83.935,0,0,0,2.32,8.754q1.477,4.43,3.375,8.7a5.285,5.285,0,0,1,.58,1.74q0,.369-1.213.369a5.683,5.683,0,0,1-1.793-.844,22.933,22.933,0,0,1-4.693-4.377,51.615,51.615,0,0,1-8.7,2.479,96.706,96.706,0,0,1-12.393,1.055l-.158-2.953q1.635-.053,3.059-.105V-39.6h21.516q1.74.211,1.74,2.215v22.518h-15.24V2.109q.686-.105,1.213-.211A48.976,48.976,0,0,0-393.251-.053Zm-4.8-33.012a16.91,16.91,0,0,0,3.48,3.691v-7.541h-6.961v7.752A13.347,13.347,0,0,0-398.05-33.064Zm-3.48,6.855v8.438h6.961v-8.49a19.062,19.062,0,0,0-3.48,3.9Q-398.63-24.152-401.53-26.209Zm26.209,30.27V8.016H-382.7v-47.2h16.348q2.689,0,2.848,4.588V-1.107q-.158,2.953-1.582,4.166a8.167,8.167,0,0,1-4.324,1.16Q-372.948,4.219-375.321,4.061Zm0-40.236V1.107q1.635.105,3.059.105.949,0,1-1.951V-36.176Zm30.755,17.086h27.316v2.9h-3.059v8.438h4.588v2.9h-4.588V7.541H-327.8V-4.852h-6.117v2.479q-.738,8.016-9.861,11.021a16.334,16.334,0,0,0,2.32-7.436V-4.852h-4.43v-2.9h4.43v-3.533a6.757,6.757,0,0,1,2.953-4.9h-6.064Zm11.074,2.9a19.347,19.347,0,0,0-.475,3.691v4.746h6.17v-8.437Zm14.449-19.354a14.192,14.192,0,0,0,4.746,4.219A12.872,12.872,0,0,0-319.043-27q-.527-1.582-3.586-3.586v4.957h8.7v-11.6h-8.7v5.273A10.926,10.926,0,0,0-319.043-35.543Zm-25.523-.158a14.192,14.192,0,0,0,4.746,4.219,12.872,12.872,0,0,0-4.746,4.324q-.475-1.424-3.006-3.164v4.8h8.385V-37.389h-8.385v4.9A13.052,13.052,0,0,0-344.566-35.7Zm-3.006,13.025V8.332h-7.014V-40.025h20.092q2.32.264,2.32,2.9v14.449Zm33.645-.105H-329.59V-40.025h20.039q2.584,0,2.689,3.48V8.121h-7.066Zm60.761-16.506q1.793,0,1.793,2.057a22.211,22.211,0,0,1-6.064,3.955,30,30,0,0,1-5.537,2.109q1,.738,2.057,1.371h7.119q2.689,0,2.9,3.059V-1.371q-.053,1.266-1.213,1.318h-5.959v-8.49h-3.639V-.211h-7.277V-8.543h-4.377A12.581,12.581,0,0,1-280.062.9a34.94,34.94,0,0,0,16.4,3.639q5.8,0,8.648-1.371a5.7,5.7,0,0,0,1.951-1.582A2.534,2.534,0,0,1-251.585.264a1.819,1.819,0,0,1,1.635,1.951q-1.16,2.689-5.273,4.113a32.748,32.748,0,0,1-9.334,1.107q-14.924,0-23.625-6.434a25.406,25.406,0,0,1-8.859,6.012,3.921,3.921,0,0,1-1.107.264q-.475-.105-.475-1.16a37.208,37.208,0,0,0,9.861-20.2h-3.955q-1.107.633-2.162,1.107a3.323,3.323,0,0,1-1.582.316q-.475-.105-.475-1.107A35.736,35.736,0,0,0-291.452-26h-6.855v-2.584h14.449q1.846,0,1.846,2.268a25.453,25.453,0,0,1-5.273,8.068q-.633.633-1.318,1.266h5.8a2.225,2.225,0,0,1,2.268,1.16V-25q.422-4.324,6.223-6.539l1.793.633a10.207,10.207,0,0,0-.264,1.107h5.273a75.987,75.987,0,0,1-7.119-4.377l2.953-2.268H-279.8v-2.848Zm-32.168,36.65A24.818,24.818,0,0,0-281.275.211a45.818,45.818,0,0,0,.738-7.172V-13.5A36.868,36.868,0,0,1-285.335-2.637Zm15.346-33.8q2.426,2,5.063,3.955.58-.527,1.16-1.107a8.788,8.788,0,0,0,1.9-2.848Zm-3.164,9.6v6.486h4.166v-6.486Zm0,9.387.053,6.012h4.113v-6.012Zm11.443-9.387v6.486h3.639v-6.486Zm0,9.387v6.012h3.639v-6.012ZM-291.083-39.5a15.221,15.221,0,0,0,5.01,5.221,13.814,13.814,0,0,0-5.01,5.221q-.686-2.268-5.01-5.221A12.414,12.414,0,0,0-291.083-39.5Zm58.018,16.875h31.219v2.9h-11.5v9.809h13.711v2.9h-13.711V3.8h19.406V6.75H-240.87V3.8h19.723V-7.014h-13.816v-2.9h13.816v-9.809h-11.918Zm-5.7-16.77h36.967q3.164,11.865,8.807,19.143a1.3,1.3,0,0,1,.316.738q-.053.422-.844.422-11.6-2.426-16.875-17.455h-11.865a35.211,35.211,0,0,1-18.457,17.771q-1.213,0-1.371-.211a1.8,1.8,0,0,1,.316-1.107,46.119,46.119,0,0,0,10.072-16.453h-7.066ZM-152.9-14.5l9.281-5.59,1.846,2.215-5.854,3.586q4.8,11.18,11.76,17.033.264.105.264.633a.706.706,0,0,1-.791.633Q-146.412,2.531-152.74-7.8V3.533q0,4.641-4.957,4.641a23.1,23.1,0,0,1-3.691-.316q-6.275-1.16-9.65-4.061l1.846-2.584a11.445,11.445,0,0,0,4.113,2.531,16.688,16.688,0,0,0,3.8.949V-6.381L-181.322,7.277l-2.057-2.584,22.1-14.871q0-2.32-.053-4.219L-181.375-1.687l-1.951-2.373,21.779-13.816a28.277,28.277,0,0,0-.686-3.744l-18.879,11.127-2.057-2.584,19.2-11.127h-10.389v-2.953h27.527v2.953h-11.232Q-153.531-21.674-152.9-14.5Zm-22.623-17.191v10.811h-8.016V-34.7h17.4a8.569,8.569,0,0,0,1.16-1.9,5.342,5.342,0,0,1,1.688-2.373q1.793-1.477,7.119-1.582a22.4,22.4,0,0,0,.422,4.9,2.334,2.334,0,0,0,.369.949h15.451a2.04,2.04,0,0,1,2.215,2.109v11.18h-8.121V-31.693Zm53.747-7.7a19.786,19.786,0,0,0,6.75,6.012,18.088,18.088,0,0,0-6.75,6.117q-.949-2.689-6.75-6.117A15.43,15.43,0,0,0-121.774-39.393Zm7.119,15.4q-2.215,4.166-2.215,13.605-.105,7.33-2.637,11.443A16.887,16.887,0,0,1-129.473,7.7a20.688,20.688,0,0,0,3.955-11.232q.316-8.437,2.162-12.656Q-120.034-22.254-114.655-23.994Zm3.006,8.7h14.344q-1.107-2.479-5.854-5.432a13.925,13.925,0,0,0,5.906-5.7,17.7,17.7,0,0,0,5.906,5.7,15.776,15.776,0,0,0-5.8,5.432h13.658q1.846,0,1.846,2.531a26.932,26.932,0,0,1-6.645,8.174,31.223,31.223,0,0,1-6.275,3.9,14.115,14.115,0,0,1,2.689,1.74,36.01,36.01,0,0,0,8.859,5.379,13.374,13.374,0,0,1-5.273.791,18.161,18.161,0,0,1-3.059-.369A17.8,17.8,0,0,1-96.831,4.9a35,35,0,0,1-4.588-2.953,28.294,28.294,0,0,0-8.543-3.48q-1.371-.264-1.371-.58,0-.369,1.371-.738a26.183,26.183,0,0,1,4.693-.422,23.947,23.947,0,0,1,7.277,1.055,28.621,28.621,0,0,0,6.908-10.178h-20.566Zm14.4-20.777q-5.168,13.5-16.664,18.141a1.945,1.945,0,0,1-1.055-.158,2.048,2.048,0,0,1,.158-.9A57.573,57.573,0,0,0-105-39.5h15.926a52.61,52.61,0,0,0,9.7,20.3q0,.9-.264.949a1.708,1.708,0,0,1-1.055-.316Q-90.766-23.467-97.253-36.07Zm37.927-1.318h13.869v-3.217h7.91v3.217h13.975v2.9H-37.547v4.008h10.23q2.479.053,2.479,2.742v17.561H-37.547v18.3h-7.91v-18.3H-57.9v-20.3h12.445v-4.008H-59.326Zm9.439,9.756v5.326h4.43v-5.326Zm0,8.227v6.275h4.43v-6.275Zm12.34,6.275h4.324v-6.275h-4.324Zm4.324-9.176v-5.326h-4.324v5.326Zm-32.8-17.086a19.786,19.786,0,0,0,6.75,6.012,18.088,18.088,0,0,0-6.75,6.117q-.949-2.689-6.75-6.117A15.821,15.821,0,0,0-66.023-39.393Zm7.119,15.4q-2.109,4.008-2.109,13.236Q-61.066-3.322-63.492.9a16.2,16.2,0,0,1-9.545,6.8A19.315,19.315,0,0,0-69.4-2.689q.316-8.807,2.109-13.184Q-64.072-22.2-58.9-23.994ZM-55.74-7.8h9.281a27.521,27.521,0,0,1-6.486,9.439,23.392,23.392,0,0,1-6.908,4.693,4.559,4.559,0,0,1-1.582.369q-.316-.053-.316-.949A32.1,32.1,0,0,0-58.113.211,28.046,28.046,0,0,0-55.74-7.8Zm27.844.053a38.16,38.16,0,0,0,2.479,6.275,72.122,72.122,0,0,0,3.533,6.645q0,.844-.422.9a2.415,2.415,0,0,1-1.266-.316,22.549,22.549,0,0,1-7.8-5.643,27.8,27.8,0,0,1-5.379-7.857ZM16.211-35.859h7.33v-5.01H30.5v5.01h6.117v2.9H30.5v9.123h6.8v2.9h-5.59v9.756a11.277,11.277,0,0,0,3.27-3.9,14.535,14.535,0,0,0,4.641,4.8A11.022,11.022,0,0,0,37.515-8.7h8.7v-7.277H38.148v-2.953H62.564v2.953h-8.6V-8.7h9.967v2.953H53.968V3.111H46.216V-5.748H36.724V-7.8a21.822,21.822,0,0,0-1.74,2.373q-.527-1.74-3.27-3.9V2Q37.99,4.746,48.379,4.746q6.961,0,10.441-1.213a10.967,10.967,0,0,0,2.162-1.424A3.34,3.34,0,0,1,62.828.9a1.819,1.819,0,0,1,1.635,1.951q-1.318,2.479-6.117,3.8a47.774,47.774,0,0,1-10.758,1q-16.559,0-26.473-7.7-.738,6.17-6.8,8.965L13.785.844q2.268-2.32,2.268-6.75V-17.561h7.066V-6.012A12.041,12.041,0,0,0,24.754-3.27V-20.936H15.1v-2.9h8.437v-9.123h-7.33Zm33.17.158a14.9,14.9,0,0,0,5.063,4.641v-5.8H46.164v4.746A13.687,13.687,0,0,0,49.38-35.7Zm-3.217,6.486V-25.1h8.279v-5.326a15.149,15.149,0,0,0-5.062,4.746A8.872,8.872,0,0,0,46.164-29.215ZM62.142-22.1H38.781V-39.762H59.927q2.215.053,2.215,2.426ZM118.1-11.338h2.215v2.9h-8.227a51.029,51.029,0,0,0,2.848,6.486,72.474,72.474,0,0,0,4.852,7.91,3.761,3.761,0,0,1,.844,1.582q0,.369-1.318.369a6.832,6.832,0,0,1-2.162-.738Q108.4,2.637,102.864-8.437h-.316Q98.856,3.744,90.1,8.121q-1.371,0-1.371-.686A56.91,56.91,0,0,0,95.217-8.437H88.889v-2.9H95.85a76.55,76.55,0,0,0,1.424-13.289v-7.225H90.313V-34.8h6.961v-5.8h7.91v5.8H115.2q2.742,0,2.9,3.006Zm-12.92-20.514V-27a74.51,74.51,0,0,1-1.846,15.662h6.539V-31.852ZM80.4-40.711h7.277V-25.1a85.818,85.818,0,0,0,6.17,6.381L91-15.451a44.539,44.539,0,0,1-3.322-3.48V8.227H80.4ZM72.541-25.365q.422-4.957,6.486-7.488l1.055.369a20.427,20.427,0,0,0-.9,6.012L79.239-11.5Q78.606-2.531,70.959.791a31.575,31.575,0,0,0,1.582-9.123ZM127.4-39.287h22.2v2.9h-2.953v44.4h-6.961V-.738a28.47,28.47,0,0,0-10.441,4.8l-1.9-3.006Q128.4.422,129.4-.105V-36.387h-2Zm8.965,36.281a31.806,31.806,0,0,1,3.322-.9v-9.281h-3.322Zm0-13.078h3.322v-8.7h-3.322Zm0-11.6h3.322v-8.7h-3.322ZM148.279-15.82h5.537V-4.9h1.529A6.4,6.4,0,0,0,155.4-5.7V-16.189h6.223v8.648q-.475,12.5-9.861,15.662-1.477,0-1.477-.791A18.755,18.755,0,0,0,154.923-1.9H151.6q-3.322,0-3.322-3.428Zm14.924-.527h5.959V-4.43h1q.316,0,.475-1.424.053-1.16.053-3.8v-6.381h5.748V-6.17a6.048,6.048,0,0,1-.686,3.375,2.933,2.933,0,0,1-2.584,1.213h-4.008V7.752H163.2ZM147.857-27.053a12.554,12.554,0,0,1,2.795-7.594,20.862,20.862,0,0,1,4.113-3.059,37.947,37.947,0,0,0,4.219-2.795q0,4.852-2.637,6.908-2.637,2.426-2.795,4.061h.949l.844-.527a17.277,17.277,0,0,0,4.588-4.113,4.392,4.392,0,0,1,1,3.059q-.053,2.637-3.428,5.115a8.935,8.935,0,0,0-3.533,5.168h3.059q-.369-1.371-.686-2.953l3.691-1.635q.791,3.639,1.9,7.436H147.7a14.592,14.592,0,0,1,3.27-8.648l.422-.422Zm14.08,0a12.938,12.938,0,0,1,2.689-7.594,20.715,20.715,0,0,1,3.955-3.059,33.663,33.663,0,0,0,4.061-2.795q0,4.852-2.426,6.908-2.479,2.426-2.584,4.061h1a14.434,14.434,0,0,1,1.371-.844,18.1,18.1,0,0,0,4.693-4.219,4.392,4.392,0,0,1,1,3.059q-.053,2.742-3.533,5.326a9.182,9.182,0,0,0-3.691,5.379H171.9q-.422-1.371-.791-2.953l3.691-1.635q.9,3.639,2.162,7.436H162.2a15.332,15.332,0,0,1,3.322-8.859l.211-.211ZM184.57-39.445h9.65v-1.687h6.328v1.688h9.123V-36.7h-9.123v.949h6.7q1.951.053,1.951,2.109v7.7h-8.648v1h9.176V-22.2h-9.176v3.375h3.111v-2.637h5.8v5.115l.949-.105a27.759,27.759,0,0,0,7.7-2.109q-.053,4.482-2.742,5.8a79.055,79.055,0,0,1-9.176,1.266q-5.432.633-7.119,1.529H209.25q3.691-.527,7.8-1.055a28.856,28.856,0,0,0,9.018-2.637q-.791,5.854-4.693,7.383-1.582.58-10.6,1.318-8.279.949-10.758,2.215H222.7A16.525,16.525,0,0,1,220.43-4.43l6.117-3.111a62.929,62.929,0,0,0,6.275,7.8h-5.379a21.264,21.264,0,0,0,4.746,3.48,14.958,14.958,0,0,0-5.8,4.746q-.791-2.057-5.8-4.746a12.442,12.442,0,0,0,4.746-3.48H213.363V8.385h-8.648V.264h-12.6a18.5,18.5,0,0,0,5.168,3.744,15.088,15.088,0,0,0-5.8,4.482q-.791-1.951-5.8-4.482A12.45,12.45,0,0,0,190.846.264h-4.113q.949-4.693,9.229-7.541a4.876,4.876,0,0,1,.58-.158h-8.7q.738-3.691,7.119-6.064a95.786,95.786,0,0,1,13.025-2.637h-20.83a1.748,1.748,0,0,1-1.951-2v-3.322h5.59v2.637h3.428V-22.2h-9.914v-2.742h9.914v-1h-8.754v-9.809h8.754V-36.7h-9.65Zm7.225,6.012v1.266h2.426v-1.266Zm0,3.691v1.424h2.426v-1.424Zm8.754,1.424h2.162v-1.424h-2.162Zm2.162-3.85v-1.266h-2.162v1.266ZM218-37.652v3.217q-.369,3.375-5.432,3.533h-2.426a14.616,14.616,0,0,0,1.16-6.434v-3.217h17.139q1.74.264,1.74,3.006v1.477q.053,2.109,1.266,2.215h1.582V-30.9h-6.275q-2.479-.264-2.742-3.059v-3.691Zm12.182,7.7q1.688,0,1.688,2.057a27.582,27.582,0,0,1-6.275,4.8,15.085,15.085,0,0,1,1.688,1.266,29.346,29.346,0,0,0,7.172,4.852,13.068,13.068,0,0,1-5.01.738,15.432,15.432,0,0,1-2.479-.316,13.654,13.654,0,0,1-4.43-1.793A21.714,21.714,0,0,1,219.8-20.2a45.3,45.3,0,0,1-8.174,2.637q-1.16,0-1.16-.422a1.25,1.25,0,0,1,.211-.791,38.226,38.226,0,0,0,6.223-3.375,21.97,21.97,0,0,0-4.957-1.9q-1.107-.264-1.107-.527,0-.369,1.266-.686a22.8,22.8,0,0,1,4.377-.422,18.69,18.69,0,0,1,4.061.422,14.152,14.152,0,0,0,1.477-1.846H210.3v-2.848Zm34.182,8.49a10.849,10.849,0,0,1-5.432,9.967q-4.482,2.689-11.654,2.689V2.584h-6.75V-33.434h8.6Q264.368-33.434,264.368-21.463Zm-7.119.053q0-8.912-9.967-9.07v18.773a11.42,11.42,0,0,0,7.225-2.689A9.28,9.28,0,0,0,257.249-21.41Zm34.6,23.994h-6.8V1.266a7.6,7.6,0,0,1-4.535,1.951,7.512,7.512,0,0,1-5.8-2.479,8.847,8.847,0,0,1-2.268-6.117,8.769,8.769,0,0,1,3.059-6.8,10.334,10.334,0,0,1,7.119-2.742,7.57,7.57,0,0,1,2.426.527v-3.48a1.935,1.935,0,0,0-2.215-2.162,13.131,13.131,0,0,0-6.908,2.373l-.58-2.848a15.833,15.833,0,0,1,7.594-2.373,8.259,8.259,0,0,1,6.7,2.9,11.062,11.062,0,0,1,2.215,7.172Zm-6.8-4.271V-11.6a5.514,5.514,0,0,0-2.162-.422,3.686,3.686,0,0,0-3.322,2.268,8.246,8.246,0,0,0-1.055,4.166A9.436,9.436,0,0,0,279.2-2Q279.988.264,281.57.264a3.587,3.587,0,0,0,1.9-.686Q284.259-1,285.05-1.687ZM323.5-21.674,309.055,10.758l-3.27-1.371L310,0q-3.639-3.111-6.381-13.395a31.581,31.581,0,0,0-3.428-8.912q4.588,0,6.8,1.688,2.162,1.688,3.533,6.17a70.578,70.578,0,0,0,2.848,7.066l6.961-15.557ZM354.048,2.584h-5.326L335.855-23.941V2.584h-6.8V-33.434h5.59L347.245-7.7V-33.434h6.8Zm28.7-12.445a13.879,13.879,0,0,1-3.111,9.176,11.032,11.032,0,0,1-8.754,3.9,10.207,10.207,0,0,1-8.174-3.744,13.165,13.165,0,0,1-2.953-8.648,15.576,15.576,0,0,1,2.848-9.439,10.13,10.13,0,0,1,8.543-4.324,10.683,10.683,0,0,1,8.754,3.8Q382.746-15.662,382.746-9.861Zm-7.33,0a38.651,38.651,0,0,0-.369-6.328q-.9-4.271-3.48-4.271t-3.639,4.693a29.4,29.4,0,0,0-.686,6.8,24.7,24.7,0,0,0,.58,5.7q1,3.85,3.164,3.85Q375.416.58,375.416-9.861ZM413.975-21.41,409.7,2.584h-4.746l-3.744-14.607L396.942,2.584H392.3l-4.377-24.205,6.7-1.213,1.688,9.6,2.162-8.068h3.217l3.322,13.342,2.584-14.924Zm34.868-15.24H445.89v19.512h2.953ZM445.89-14.238v18.3h22.781l-.422,3.164H441.3q-3.006,0-3.006-3.059V-39.551h27.58q1.318.369,1.582,2.268v23.045Zm10.547-2.9h3.27V-36.65h-3.27ZM435.871,1.635H420.05V-36.6H433.92q1.951.053,1.951,2.109Zm-8.859-35.754V-.949h2.057v-33.17Z" transform="translate(468.408 41.133)" fill="#fff"/>
</svg>
