<svg xmlns="http://www.w3.org/2000/svg" width="140" height="40" viewBox="0 0 140 40">
  <g id="star-empty" transform="translate(-145 72)">
    <rect id="Rectangle_3" data-name="Rectangle 3" width="140" height="40" transform="translate(145 -72)" fill="rgba(206,206,206,0)"/>
    <g id="Group_1" data-name="Group 1" transform="translate(1 23.761)">
      <path id="Path_4" data-name="Path 4" d="M121.5-22.761l-3.753,9.99h-9.423l7.965,5.994L112.455,3.294l9.045-6.8,9.072,6.8L126.711-6.777l7.965-5.994h-9.45Zm0,3.618,2.835,7.641H130.9l-5.7,4.293,2.646,6.885L121.5-5.076,115.155-.324,117.8-7.209,112.1-11.5h6.534Z" transform="translate(148.676 -66)" fill="#574c45"/>
      <path id="Path_5" data-name="Path 5" d="M121.5-22.761l-3.753,9.99h-9.423l7.965,5.994L112.455,3.294l9.045-6.8,9.072,6.8L126.711-6.777l7.965-5.994h-9.45Zm0,3.618,2.835,7.641H130.9l-5.7,4.293,2.646,6.885L121.5-5.076,115.155-.324,117.8-7.209,112.1-11.5h6.534Z" transform="translate(120.676 -66)" fill="#574c45"/>
      <path id="Path_6" data-name="Path 6" d="M121.5-22.761l-3.753,9.99h-9.423l7.965,5.994L112.455,3.294l9.045-6.8,9.072,6.8L126.711-6.777l7.965-5.994h-9.45Zm0,3.618,2.835,7.641H130.9l-5.7,4.293,2.646,6.885L121.5-5.076,115.155-.324,117.8-7.209,112.1-11.5h6.534Z" transform="translate(92.676 -66)" fill="#574c45"/>
      <path id="Path_7" data-name="Path 7" d="M121.5-22.761l-3.753,9.99h-9.423l7.965,5.994L112.455,3.294l9.045-6.8,9.072,6.8L126.711-6.777l7.965-5.994h-9.45Zm0,3.618,2.835,7.641H130.9l-5.7,4.293,2.646,6.885L121.5-5.076,115.155-.324,117.8-7.209,112.1-11.5h6.534Z" transform="translate(64.676 -66)" fill="#574c45"/>
      <path id="Path_8" data-name="Path 8" d="M121.5-22.761l-3.753,9.99h-9.423l7.965,5.994L112.455,3.294l9.045-6.8,9.072,6.8L126.711-6.777l7.965-5.994h-9.45Zm0,3.618,2.835,7.641H130.9l-5.7,4.293,2.646,6.885L121.5-5.076,115.155-.324,117.8-7.209,112.1-11.5h6.534Z" transform="translate(36.676 -66)" fill="#574c45"/>
    </g>
  </g>
</svg>
